<svg width="16" height="20" viewBox="0 0 16 20" fill="none" xmlns="http://www.w3.org/2000/svg">
<g id="ic_pdf">
<path id="Path" fill-rule="evenodd" clip-rule="evenodd" d="M4.08116 12.7308C4.08116 12.4125 3.86118 12.2227 3.47304 12.2227C3.31455 12.2227 3.20721 12.2384 3.15106 12.2534V13.2746C3.21754 13.2896 3.29926 13.2946 3.41191 13.2946C3.82562 13.2946 4.08116 13.0848 4.08116 12.7308Z" fill="#8B97A9"/>
<path id="Path_2" fill-rule="evenodd" clip-rule="evenodd" d="M6.48393 12.2334C6.31011 12.2334 6.19779 12.2485 6.13135 12.2641V14.5258C6.19783 14.5415 6.30516 14.5415 6.40221 14.5415C7.10734 14.5465 7.56722 14.1568 7.56722 13.3311C7.57221 12.613 7.15315 12.2334 6.48393 12.2334Z" fill="#8B97A9"/>
<path id="Shape" fill-rule="evenodd" clip-rule="evenodd" d="M10.9481 0.400391H3.28086C2.16075 0.400391 1.2491 1.31631 1.2491 2.44024V9.98326H1.05066C0.598573 9.98326 0.231934 10.351 0.231934 10.8053V15.7903C0.231934 16.2445 0.598534 16.6122 1.05066 16.6122H1.2491V17.5263C1.2491 18.6515 2.16075 19.5662 3.28086 19.5662H13.7425C14.8619 19.5662 15.7737 18.6514 15.7737 17.5263V5.22818L10.9481 0.400391ZM2.37978 11.7049C2.61972 11.6642 2.95698 11.6335 3.43215 11.6335C3.91235 11.6335 4.2546 11.7255 4.48456 11.9104C4.70422 12.0846 4.85246 12.3721 4.85246 12.7105C4.85246 13.0487 4.74014 13.3363 4.53575 13.5312C4.26992 13.7824 3.87679 13.8952 3.41691 13.8952C3.31456 13.8952 3.22282 13.8901 3.15107 13.8801V15.1162H2.37978V11.7049ZM3.28086 18.3169H13.7425C14.1762 18.3169 14.5287 17.9623 14.5287 17.5263L14.4994 5.72304L11.8916 5.73056C11.1135 5.73056 10.4826 5.09656 10.4826 4.31592V1.6433L3.28086 1.65086C2.84719 1.65086 2.49397 2.00544 2.49397 2.44024V9.98326H12.2463C12.6985 9.98326 13.0651 10.351 13.0651 10.8053V15.7903C13.0651 16.2445 12.6985 16.6122 12.2463 16.6122H2.49397V17.5263C2.49397 17.9623 2.84715 18.3169 3.28086 18.3169ZM5.3498 15.1006V11.7049C5.63587 11.6592 6.00872 11.6335 6.40221 11.6335C7.05614 11.6335 7.48019 11.7513 7.81246 12.0025C8.17004 12.2694 8.39465 12.6948 8.39465 13.3056C8.39465 13.9672 8.15471 14.4239 7.8224 14.7058C7.45984 15.0084 6.90794 15.1519 6.2337 15.1519C5.82992 15.1519 5.54385 15.1262 5.3498 15.1006ZM10.9257 13.726V13.0901H9.68918V12.3001H11.0124V11.6592H8.90759V15.1162H9.68918V13.726H10.9257Z" fill="#8B97A9"/>
</g>
</svg>
