<svg width="280" height="271" viewBox="0 0 280 271" fill="none" xmlns="http://www.w3.org/2000/svg">
<path fill-rule="evenodd" clip-rule="evenodd" d="M106.478 71.8164C110.696 71.8164 114.115 75.2368 114.115 79.4568V71.8164H104.438H106.478Z" fill="#FFE7CC"/>
<path fill-rule="evenodd" clip-rule="evenodd" d="M76.6261 274.372H181.27V107.11C181.27 94.5274 171.072 84.3284 158.494 84.3284H99.4024C86.8227 84.3284 76.6261 94.5274 76.6261 107.11V274.372Z" fill="#67B9E1"/>
<path fill-rule="evenodd" clip-rule="evenodd" d="M98.735 255.619H138.335V84.1853H126.126C110.998 84.1853 98.735 96.45 98.735 111.583V255.619Z" fill="white"/>
<path fill-rule="evenodd" clip-rule="evenodd" d="M99.538 240.275L111.091 255.619L124.358 240.275L117.211 103.05H111.449L99.538 240.275Z" fill="#0070D9"/>
<path fill-rule="evenodd" clip-rule="evenodd" d="M114.143 118.534L125.206 107.469L114.143 96.4021L105.461 107.469L114.143 118.534Z" fill="#0070D9"/>
<path fill-rule="evenodd" clip-rule="evenodd" d="M104.198 72.074H112.029C131.099 72.074 146.561 56.6094 146.561 37.5317V35.869C146.561 22.5182 135.74 11.6931 122.391 11.6931H118.179C104.83 11.6931 94.0098 22.5182 94.0098 35.869V61.8825C94.0098 67.5105 98.5709 72.074 104.198 72.074Z" fill="#FFE7CC"/>
<path fill-rule="evenodd" clip-rule="evenodd" d="M100.153 30.8427C118.904 30.8427 130.408 29.8149 126.226 56.9221C140.625 56.9221 152.299 45.2453 152.299 30.8427C152.299 16.44 140.625 4.76331 126.226 4.76331C111.827 4.76331 100.153 16.44 100.153 30.8427Z" fill="#1C2940"/>
<path fill-rule="evenodd" clip-rule="evenodd" d="M114.115 96.1064L138.335 85.0887V60.1283H114.115V96.1064Z" fill="#FFE7CC"/>
<path fill-rule="evenodd" clip-rule="evenodd" d="M90.8449 57.275H94.0098V46.825L89.3208 54.5693C88.6011 55.758 89.4563 57.275 90.8449 57.275Z" fill="#FFE7CC"/>
<path fill-rule="evenodd" clip-rule="evenodd" d="M138.335 68.0902C153.104 46.8252 152.216 30.4063 152.216 30.4063L136.223 23.3741C125.23 23.3741 116.496 26.37 116.496 37.3649L119.654 37.8123C116.496 71.1519 138.335 68.0902 138.335 68.0902Z" fill="#1C2940"/>
<path fill-rule="evenodd" clip-rule="evenodd" d="M119.734 57.5348H125.646C128.911 57.5348 131.559 54.8862 131.559 51.6204V46.9936C131.559 43.7265 128.911 41.0804 125.646 41.0804C122.381 41.0804 119.734 43.7265 119.734 46.9936V57.5348Z" fill="#FFE7CC"/>
<path fill-rule="evenodd" clip-rule="evenodd" d="M108.472 30.8427H119.653C119.653 17.0851 108.503 5.93176 94.7484 5.93176H83.5674C83.5674 19.6894 94.718 30.8427 108.472 30.8427Z" fill="#1C2940"/>
<mask id="mask0" mask-type="alpha" maskUnits="userSpaceOnUse" x="102" y="1" width="33" height="31">
<path fill-rule="evenodd" clip-rule="evenodd" d="M102.201 1.26733H134.361V31.8131H102.201V1.26733Z" fill="white"/>
</mask>
<g mask="url(#mask0)">
<path fill-rule="evenodd" clip-rule="evenodd" d="M122.986 29.9604L134.013 31.8131C136.291 18.2456 127.141 5.39921 113.577 3.11937L102.549 1.2666C100.271 14.8354 109.421 27.6818 122.986 29.9604Z" fill="#1C2940"/>
</g>
<path fill-rule="evenodd" clip-rule="evenodd" d="M114.552 55.9471C117.459 55.9471 119.814 53.5925 119.814 50.6853V34.5135H114.552V55.9471Z" fill="#1C2940"/>
<path fill-rule="evenodd" clip-rule="evenodd" d="M94.0098 38.96H112.509C116.454 38.96 119.653 35.7614 119.653 31.8126C119.653 27.865 116.454 24.6664 112.509 24.6664H101.247C97.2495 24.6664 94.0098 27.9056 94.0098 31.9051V38.96Z" fill="#FFE7CC"/>
<path fill-rule="evenodd" clip-rule="evenodd" d="M213.277 89.1166C213.277 101.168 203.266 110.938 190.914 110.938C178.564 110.938 168.549 101.168 168.549 89.1166C168.549 77.0648 178.564 67.2953 190.914 67.2953C203.266 67.2953 213.277 77.0648 213.277 89.1166Z" fill="#1C2940"/>
<path fill-rule="evenodd" clip-rule="evenodd" d="M177.292 119.391C180.62 119.391 183.316 122.09 183.316 125.416V119.391H175.683H177.292Z" fill="#FF906E"/>
<path fill-rule="evenodd" clip-rule="evenodd" d="M154.293 160.015C154.293 143.028 168.06 129.257 185.042 129.257H207.87C217.014 129.257 224.427 136.672 224.427 145.819V274.372H154.293V160.015Z" fill="#2C357F"/>
<path fill-rule="evenodd" clip-rule="evenodd" d="M171.188 264.436H202.413V129.257H192.786C180.857 129.257 171.188 138.929 171.188 150.861V264.436Z" fill="white"/>
<path fill-rule="evenodd" clip-rule="evenodd" d="M171.821 252.336L180.931 264.436L191.391 252.336L185.755 144.133H181.213L171.821 252.336Z" fill="#FC501E"/>
<path fill-rule="evenodd" clip-rule="evenodd" d="M182.233 154.936L192.061 147.617L183.336 138.891L176.492 147.617L182.233 154.936Z" fill="#FC501E"/>
<path fill-rule="evenodd" clip-rule="evenodd" d="M175.495 119.594H181.669C196.707 119.594 208.898 107.401 208.898 92.358V91.0464C208.898 80.5191 200.366 71.9852 189.841 71.9852H186.519C175.994 71.9852 167.461 80.5191 167.461 91.0464V111.559C167.461 115.997 171.058 119.594 175.495 119.594Z" fill="#FFE7CC"/>
<path fill-rule="evenodd" clip-rule="evenodd" d="M183.315 138.546L202.412 129.858V110.176H183.315V138.546Z" fill="#FFE7CC"/>
<path fill-rule="evenodd" clip-rule="evenodd" d="M164.967 107.925H167.461V99.6854L163.764 105.791C163.198 106.729 163.872 107.925 164.967 107.925Z" fill="#FFE7CC"/>
<path fill-rule="evenodd" clip-rule="evenodd" d="M202.413 116.453C214.057 99.6861 213.226 90.5731 213.226 90.5731L200.748 81.1952C192.079 81.1952 185.192 83.5561 185.192 92.2269L187.682 92.5804C185.192 118.868 202.413 116.453 202.413 116.453Z" fill="#1C2940"/>
<path fill-rule="evenodd" clip-rule="evenodd" d="M187.745 108.131H192.407C194.982 108.131 197.069 106.044 197.069 103.467V99.8174C197.069 97.2423 194.982 95.1564 192.407 95.1564C189.832 95.1564 187.745 97.2423 187.745 99.8174V108.131Z" fill="#FFE7CC"/>
<path fill-rule="evenodd" clip-rule="evenodd" d="M187.808 110.529H183.66V89.9783H187.808V110.529Z" fill="#1C2940"/>
<path fill-rule="evenodd" clip-rule="evenodd" d="M167.058 107.919V119.994C167.058 122.044 168.72 123.707 170.77 123.707H176.737C182.853 123.707 187.812 118.747 187.812 112.63V107.919H183.659V110.037C183.659 111.208 182.71 112.156 181.54 112.156H177.919C176.75 112.156 175.801 111.208 175.801 110.037C175.801 108.867 174.853 107.919 173.683 107.919H167.058Z" fill="#1C2940"/>
<path fill-rule="evenodd" clip-rule="evenodd" d="M171.845 78.883H176.389C180.492 78.8932 183.792 82.2591 183.722 86.3613L183.659 90.0529L208.898 95.6796L208.085 76.147C208.085 76.147 185.62 61.5986 171.845 78.883Z" fill="#1C2940"/>
<path fill-rule="evenodd" clip-rule="evenodd" d="M219.589 218.916C219.589 206.09 229.983 195.693 242.806 195.693H256.285C269.108 195.693 279.503 206.09 279.503 218.916V274.373H219.589V218.916Z" fill="#868AA7"/>
<path fill-rule="evenodd" clip-rule="evenodd" d="M229.504 213.883C229.504 203.836 237.647 195.693 247.69 195.693H255.377V274.372H229.504V213.883Z" fill="white"/>
<path fill-rule="evenodd" clip-rule="evenodd" d="M235.822 208.317H239.342L242.583 274.372H231.725L235.822 208.317Z" fill="#4857CE"/>
<path fill-rule="evenodd" clip-rule="evenodd" d="M237.468 218.764L244.233 211.297L237.468 203.831L232.161 211.297L237.468 218.764Z" fill="#4857CE"/>
<path fill-rule="evenodd" clip-rule="evenodd" d="M231.851 185.894C234.967 185.894 237.492 188.42 237.492 191.536V185.894H230.346H231.851Z" fill="#FFE7CC"/>
<path fill-rule="evenodd" clip-rule="evenodd" d="M230.169 186.083H235.95C250.033 186.083 261.45 174.664 261.45 160.577V159.349C261.45 149.489 253.46 141.497 243.603 141.497H240.492C230.635 141.497 222.645 149.489 222.645 159.349V178.559C222.645 182.715 226.013 186.083 230.169 186.083Z" fill="#FFE7CC"/>
<path fill-rule="evenodd" clip-rule="evenodd" d="M227.182 156.747C241.027 156.747 249.522 155.988 246.433 176.004C257.067 176.004 265.687 167.383 265.687 156.747C265.687 146.11 257.067 137.489 246.433 137.489C244.524 137.489 230.345 140.908 230.345 140.908C222.391 143.274 227.182 148.021 227.182 156.747Z" fill="#1C2940"/>
<path fill-rule="evenodd" clip-rule="evenodd" d="M220.309 175.156H222.645V167.439L219.182 173.158C218.651 174.035 219.282 175.156 220.309 175.156Z" fill="#FFE7CC"/>
<path fill-rule="evenodd" clip-rule="evenodd" d="M224.773 159.07H237.008C239.791 159.07 242.048 156.812 242.048 154.027V153.554C242.048 150.77 239.791 148.513 237.008 148.513H229.876C227.058 148.513 224.773 150.799 224.773 153.619V159.07Z" fill="#FFE7CC"/>
<path fill-rule="evenodd" clip-rule="evenodd" d="M236.997 162.352H243.379V150.124H231.006V156.359C231.006 159.669 233.689 162.352 236.997 162.352Z" fill="#1C2940"/>
<path fill-rule="evenodd" clip-rule="evenodd" d="M248.618 137.489C248.618 147.778 241.809 156.119 233.41 156.119C225.011 156.119 218.203 147.778 218.203 137.489H248.618Z" fill="#1C2940"/>
<path fill-rule="evenodd" clip-rule="evenodd" d="M237.492 203.83L255.376 195.694V177.264H237.492V203.83Z" fill="#FFE7CC"/>
<path fill-rule="evenodd" clip-rule="evenodd" d="M255.377 183.143C266.282 167.439 265.626 155.315 265.626 155.315L253.817 150.123C245.698 150.123 239.249 152.334 239.249 160.455L241.581 160.784C239.249 185.403 255.377 183.143 255.377 183.143Z" fill="#1C2940"/>
<path fill-rule="evenodd" clip-rule="evenodd" d="M241.64 175.347H246.005C248.418 175.347 250.372 173.393 250.372 170.982V167.564C250.372 165.152 248.418 163.197 246.005 163.197C243.595 163.197 241.64 165.152 241.64 167.564V175.347Z" fill="#FFE7CC"/>
<path fill-rule="evenodd" clip-rule="evenodd" d="M241.7 170.759H237.815V158.348H241.7V170.759Z" fill="#1C2940"/>
<path fill-rule="evenodd" clip-rule="evenodd" d="M12.4734 86.0809C12.4734 94.7148 19.4709 101.715 28.104 101.715C36.7359 101.715 43.7346 94.7148 43.7346 86.0809C43.7346 77.4469 36.7359 70.4464 28.104 70.4464C19.4709 70.4464 12.4734 77.4469 12.4734 86.0809Z" fill="#1C2940"/>
<path fill-rule="evenodd" clip-rule="evenodd" d="M0.000518799 152.452H13.3417C45.4112 152.452 71.4081 126.448 71.4081 94.3714V81.0256H32.0954C14.3705 81.0256 0.000518799 95.3991 0.000518799 113.13V152.452Z" fill="#1C2940"/>
<path fill-rule="evenodd" clip-rule="evenodd" d="M32.2427 105.423C35.3759 105.423 37.9149 107.963 37.9149 111.097V105.423H30.7287H32.2427Z" fill="#FFE7CC"/>
<path fill-rule="evenodd" clip-rule="evenodd" d="M10.0744 148.103V274.373H87.7789V148.103C87.7789 130.171 73.6344 115.544 55.9083 114.755C55.4116 114.736 54.9162 114.717 54.4006 114.717H43.454C42.8838 114.717 42.3137 114.736 41.7448 114.755C35.8294 115.067 30.3003 116.904 25.5973 119.899C16.2661 125.816 10.0744 136.234 10.0744 148.103Z" fill="#2FBC70"/>
<path fill-rule="evenodd" clip-rule="evenodd" d="M25.5972 119.899V193.195C25.5972 201.573 32.3767 208.354 40.7527 208.354C49.1109 208.354 55.9081 201.573 55.9081 193.195V114.754H41.7447C35.8292 115.067 30.3002 116.904 25.5972 119.899Z" fill="white"/>
<path fill-rule="evenodd" clip-rule="evenodd" d="M30.55 105.614H36.3642C50.5263 105.614 62.0063 94.1295 62.0063 79.9651V78.7295C62.0063 68.8155 53.9712 60.7784 44.0597 60.7784H40.9303C31.0188 60.7784 22.9837 68.8155 22.9837 78.7295V98.0466C22.9837 102.225 26.3716 105.614 30.55 105.614Z" fill="#FFE7CC"/>
<path fill-rule="evenodd" clip-rule="evenodd" d="M37.9143 123.459L55.8976 114.747V96.7439H37.9143V123.459Z" fill="#FFE7CC"/>
<path fill-rule="evenodd" clip-rule="evenodd" d="M21.3472 94.6251H22.9841V89.2177L20.5591 93.2261C20.1866 93.8394 20.6301 94.6251 21.3472 94.6251Z" fill="#FFE7CC"/>
<path fill-rule="evenodd" clip-rule="evenodd" d="M55.8981 102.656C66.865 86.8654 66.2062 74.6729 66.2062 74.6729L54.3309 69.4517C46.1678 69.4517 39.6809 71.677 39.6809 79.8408L42.0274 80.1741C39.6809 104.929 55.8981 102.656 55.8981 102.656Z" fill="#1C2940"/>
<path fill-rule="evenodd" clip-rule="evenodd" d="M46.4354 88.7515H71.3351V83.0272C71.3351 70.3823 61.0866 60.13 48.4436 60.13H23.5438V65.8543C23.5438 78.4992 33.7923 88.7515 46.4354 88.7515Z" fill="#1C2940"/>
<path fill-rule="evenodd" clip-rule="evenodd" d="M25.5972 119.899V130.479C25.5972 138.851 32.3818 145.639 40.7527 145.639C49.1223 145.639 55.9081 138.851 55.9081 130.479V114.754H41.7447C35.8292 115.067 30.3002 116.904 25.5972 119.899Z" fill="#FFE7CC"/>
</svg>
