<svg width="380" height="272" viewBox="0 0 380 272" fill="none" xmlns="http://www.w3.org/2000/svg">
<path fill-rule="evenodd" clip-rule="evenodd" d="M9.54367 124.693L11.4163 124.709C12.4432 124.718 13.2899 123.884 13.2984 122.856L13.6935 75.5919C13.7029 74.5641 12.8703 73.7149 11.8435 73.7064L9.96987 73.6913C8.94397 73.6819 8.09722 74.5169 8.08873 75.5447L7.6927 122.809C7.68421 123.836 8.51682 124.685 9.54367 124.693" fill="#1C2940"/>
<path fill-rule="evenodd" clip-rule="evenodd" d="M13.7021 74.7455L13.2919 123.702C25.7527 111.428 29.0341 110.111 49.4174 110.282L49.6031 88.0913C22.0838 88.0271 26.1035 84.7058 13.7021 74.7455" fill="#FDC17F"/>
<path fill-rule="evenodd" clip-rule="evenodd" d="M13.7021 74.7455L13.3391 118.052C25.7998 105.778 29.0822 104.46 49.4655 104.632L49.6031 88.0913C22.0838 88.0271 26.1035 84.7058 13.7021 74.7455" fill="#FCE9C0"/>
<path fill-rule="evenodd" clip-rule="evenodd" d="M0.790269 104.279L7.83488 105.871L7.95935 91.0327L0.893048 91.9943L0.790269 104.279Z" fill="#FCE9C0"/>
<mask id="mask0" mask-type="alpha" maskUnits="userSpaceOnUse" x="0" y="91" width="8" height="15">
<path fill-rule="evenodd" clip-rule="evenodd" d="M7.95889 91.0322H0.790188V105.871H7.95889V91.0322Z" fill="white"/>
</mask>
<g mask="url(#mask0)">
<path fill-rule="evenodd" clip-rule="evenodd" d="M7.95889 91.0322L0.789811 104.279L7.83443 105.871L7.95889 91.0322Z" fill="#FDC17F"/>
</g>
<path fill-rule="evenodd" clip-rule="evenodd" d="M49.6005 88.2832L49.4167 110.252L68.9607 110.416C71.6783 110.439 73.9139 109.176 73.9271 107.613L74.0629 91.3372C74.0761 89.7701 71.8612 88.4702 69.1456 88.4476L49.6005 88.2832Z" fill="#D15B06"/>
<path fill-rule="evenodd" clip-rule="evenodd" d="M49.6005 88.2832L49.4629 104.63L69.0079 104.795C71.7254 104.816 73.9611 103.554 73.9743 101.991L74.0629 91.3372C74.0761 89.7701 71.8612 88.4702 69.1456 88.4476L49.6005 88.2832Z" fill="#EB8F4D"/>
<path fill-rule="evenodd" clip-rule="evenodd" d="M73.9509 104.835L77.2295 104.862L77.3275 93.1447L74.049 93.1173L73.9509 104.835Z" fill="#1C2940"/>
<path fill-rule="evenodd" clip-rule="evenodd" d="M49.2092 135.213L57.7163 135.284L57.9257 110.324L49.4186 110.252L49.2092 135.213Z" fill="#1C2940"/>
<mask id="mask1" mask-type="alpha" maskUnits="userSpaceOnUse" x="329" y="6" width="51" height="7">
<path fill-rule="evenodd" clip-rule="evenodd" d="M380 6.80596H329.873V12.7252H380V6.80596Z" fill="white"/>
</mask>
<g mask="url(#mask1)">
<path fill-rule="evenodd" clip-rule="evenodd" d="M329.888 8.632L329.873 10.4788C329.865 11.4905 330.684 12.3255 331.695 12.335L378.132 12.7251C379.142 12.7336 379.976 11.9127 379.984 10.8991L380 9.05236C380.009 8.04065 379.189 7.20559 378.178 7.19615L331.74 6.80601C330.73 6.79846 329.897 7.61935 329.888 8.632" fill="#1C2940"/>
</g>
<path fill-rule="evenodd" clip-rule="evenodd" d="M378.964 12.7326L330.862 12.3283C342.922 24.6152 344.217 27.8515 344.048 47.9515L365.851 48.1347C365.915 20.9972 369.177 24.9618 378.964 12.7326" fill="#CCE3D8"/>
<path fill-rule="evenodd" clip-rule="evenodd" d="M378.964 12.7326L336.413 12.3746C348.474 24.6624 349.768 27.8987 349.6 47.9978L365.851 48.1347C365.915 20.9972 369.177 24.9618 378.964 12.7326" fill="white"/>
<path fill-rule="evenodd" clip-rule="evenodd" d="M349.946 0.000190735L348.382 6.94705L362.961 7.06891L362.016 0.101267L349.946 0.000190735Z" fill="white"/>
<path fill-rule="evenodd" clip-rule="evenodd" d="M362.961 7.06928L349.946 0.000564575L348.383 6.94648L362.961 7.06928Z" fill="#CCE3D8"/>
<path fill-rule="evenodd" clip-rule="evenodd" d="M365.663 48.1315L344.077 47.9501L343.917 67.2226C343.894 69.9025 345.134 72.1073 346.67 72.1206L362.662 72.2537C364.201 72.267 365.479 70.083 365.502 67.404L365.663 48.1315Z" fill="#228A53"/>
<path fill-rule="evenodd" clip-rule="evenodd" d="M365.663 48.1315L349.602 47.9964L349.441 67.2689C349.418 69.9488 350.658 72.1536 352.194 72.1659L362.662 72.2538C364.201 72.267 365.479 70.083 365.502 67.404L365.663 48.1315Z" fill="#2FBC70"/>
<path fill-rule="evenodd" clip-rule="evenodd" d="M349.4 72.1441L349.372 75.3766L360.886 75.473L360.913 72.2414L349.4 72.1441Z" fill="#1C2940"/>
<path fill-rule="evenodd" clip-rule="evenodd" d="M319.552 47.7459L319.483 56.1352L344.006 56.3412L344.077 47.9518L319.552 47.7459Z" fill="#1C2940"/>
<path fill-rule="evenodd" clip-rule="evenodd" d="M62.4259 129.871L51.4955 138.525L113.013 216.509L133.561 200.242L62.4259 129.871Z" fill="#E68417"/>
<path fill-rule="evenodd" clip-rule="evenodd" d="M45.0637 124.254V124.254C42.6139 131.863 46.7854 140.019 54.3798 142.472C56.4231 143.133 58.6126 142.009 59.2708 139.962L62.5135 129.893L45.0637 124.254Z" fill="#FFE7CC"/>
<path fill-rule="evenodd" clip-rule="evenodd" d="M128.9 112.089C132.239 112.089 134.946 114.8 134.946 118.145V112.089H127.286H128.9Z" fill="#FFE7CC"/>
<mask id="mask2" mask-type="alpha" maskUnits="userSpaceOnUse" x="105" y="122" width="84" height="151">
<path fill-rule="evenodd" clip-rule="evenodd" d="M188.092 122.006H105.276V272.647H188.092V122.006Z" fill="white"/>
</mask>
<g mask="url(#mask2)">
<path fill-rule="evenodd" clip-rule="evenodd" d="M105.276 272.647H188.092V140.063C188.092 130.091 180.022 122.006 170.067 122.006H123.301C113.346 122.006 105.276 130.091 105.276 140.063V272.647Z" fill="#E68417"/>
</g>
<path fill-rule="evenodd" clip-rule="evenodd" d="M122.773 257.782H154.113V121.892H144.45C132.479 121.892 122.773 131.615 122.773 143.61V257.782Z" fill="white"/>
<path fill-rule="evenodd" clip-rule="evenodd" d="M123.409 245.619L132.552 257.782L143.052 245.619L137.395 136.847H132.836L123.409 245.619Z" fill="#B32A00"/>
<path fill-rule="evenodd" clip-rule="evenodd" d="M134.968 149.12L143.723 140.349L134.968 131.577L128.098 140.349L134.968 149.12Z" fill="#B32A00"/>
<path fill-rule="evenodd" clip-rule="evenodd" d="M127.097 112.293H133.293C148.388 112.293 160.624 100.034 160.624 84.9137V83.595C160.624 73.0113 152.06 64.4321 141.496 64.4321H138.161C127.597 64.4321 119.033 73.0113 119.033 83.595V104.214C119.033 108.676 122.643 112.293 127.097 112.293" fill="#FFE7CC"/>
<path fill-rule="evenodd" clip-rule="evenodd" d="M123.896 79.6108C138.735 79.6108 147.84 78.7974 144.53 100.283C155.926 100.283 165.165 91.0276 165.165 79.6108C165.165 68.1939 155.926 58.9383 144.53 58.9383C133.134 58.9383 123.896 68.1939 123.896 79.6108" fill="#1C2940"/>
<path fill-rule="evenodd" clip-rule="evenodd" d="M134.946 131.344L154.114 122.609V102.826H134.946V131.344Z" fill="#FFE7CC"/>
<path fill-rule="evenodd" clip-rule="evenodd" d="M116.529 100.563H119.033V92.279L115.323 98.4173C114.754 99.36 115.431 100.563 116.529 100.563" fill="#FFE7CC"/>
<path fill-rule="evenodd" clip-rule="evenodd" d="M154.114 109.135C165.802 92.2792 165.099 79.2649 165.099 79.2649L152.442 73.6916C143.742 73.6916 136.83 76.0655 136.83 84.7807L139.329 85.1368C136.83 111.562 154.114 109.135 154.114 109.135" fill="#1C2940"/>
<path fill-rule="evenodd" clip-rule="evenodd" d="M139.392 100.768H144.071C146.655 100.768 148.75 98.6693 148.75 96.081V92.412C148.75 89.8237 146.655 87.7247 144.071 87.7247C141.488 87.7247 139.392 89.8237 139.392 92.412V100.768Z" fill="#FFE7CC"/>
<path fill-rule="evenodd" clip-rule="evenodd" d="M130.479 79.6108H139.329C139.329 68.7049 130.504 59.865 119.618 59.865H110.77C110.77 70.7709 119.594 79.6108 130.479 79.6108" fill="#1C2940"/>
<path fill-rule="evenodd" clip-rule="evenodd" d="M141.965 78.9115L150.693 80.3805C152.496 69.6258 145.255 59.4426 134.52 57.6364L125.792 56.1685C123.99 66.9232 131.23 77.1054 141.965 78.9115" fill="#1C2940"/>
<path fill-rule="evenodd" clip-rule="evenodd" d="M135.292 99.5109V99.5109C137.591 99.5109 139.456 97.6424 139.456 95.3393V82.5206H135.292V99.5109Z" fill="#1C2940"/>
<path fill-rule="evenodd" clip-rule="evenodd" d="M119.033 86.0452H133.674C136.797 86.0452 139.328 83.5088 139.328 80.3802C139.328 77.2506 136.797 74.7142 133.674 74.7142H124.76C121.598 74.7142 119.033 77.2836 119.033 80.452V86.0452Z" fill="#FFE7CC"/>
<path fill-rule="evenodd" clip-rule="evenodd" d="M238 122.833C238 129.702 243.559 135.272 250.416 135.272C257.273 135.272 262.832 129.702 262.832 122.833C262.832 115.963 257.273 110.395 250.416 110.395C243.559 110.395 238 115.963 238 122.833" fill="#1C2940"/>
<path fill-rule="evenodd" clip-rule="evenodd" d="M228.092 175.636H238.691C264.165 175.636 284.815 154.949 284.815 129.428V118.811H253.587C239.506 118.811 228.092 130.245 228.092 144.352V175.636Z" fill="#1C2940"/>
<path fill-rule="evenodd" clip-rule="evenodd" d="M253.704 138.221C256.192 138.221 258.209 140.241 258.209 142.734V138.221H252.501H253.704Z" fill="#FFE7CC"/>
<path fill-rule="evenodd" clip-rule="evenodd" d="M236.095 172.177V272.635H297.819V172.177C297.819 157.909 286.583 146.273 272.501 145.644C272.107 145.63 271.714 145.616 271.306 145.616H262.608C262.157 145.616 261.704 145.63 261.251 145.644C256.553 145.893 252.161 147.355 248.425 149.737C241.012 154.445 236.095 162.733 236.095 172.177" fill="#2FBC70"/>
<path fill-rule="evenodd" clip-rule="evenodd" d="M296.762 184.632L313.505 132.94L294.329 125.169L279.246 162.519C276.369 169.642 279.797 177.756 286.916 180.641L296.762 184.632Z" fill="#2FBC70"/>
<path fill-rule="evenodd" clip-rule="evenodd" d="M313.656 134L331.324 65.9779L333.312 58.486L323.716 54.287L294 126L313.656 134Z" fill="#2FBC70"/>
<path fill-rule="evenodd" clip-rule="evenodd" d="M325.989 42.5485V42.5485C332.125 44.3821 335.616 50.8519 333.786 56.9996L332.895 59.9931L326.485 58.0774C323.888 57.3019 322.412 54.5652 323.186 51.9647L325.989 42.5485Z" fill="#FFE7CC"/>
<path fill-rule="evenodd" clip-rule="evenodd" d="M248.425 149.737V208.05C248.425 214.716 253.81 220.111 260.464 220.111C267.103 220.111 272.502 214.716 272.502 208.05V145.644H261.252C256.553 145.893 252.161 147.355 248.425 149.737" fill="white"/>
<path fill-rule="evenodd" clip-rule="evenodd" d="M252.36 138.372H256.977C268.227 138.372 277.346 129.236 277.346 117.966V116.984C277.346 109.097 270.964 102.702 263.091 102.702H260.606C252.733 102.702 246.349 109.097 246.349 116.984V132.352C246.349 135.676 249.04 138.372 252.36 138.372" fill="#FFE7CC"/>
<path fill-rule="evenodd" clip-rule="evenodd" d="M258.21 152.57L272.494 145.638V131.316H258.21V152.57Z" fill="#FFE7CC"/>
<path fill-rule="evenodd" clip-rule="evenodd" d="M245.049 129.629H246.349V125.329L244.423 128.516C244.127 129.005 244.479 129.629 245.049 129.629" fill="#FFE7CC"/>
<path fill-rule="evenodd" clip-rule="evenodd" d="M272.494 136.02C281.206 123.457 280.683 113.757 280.683 113.757L271.249 109.603C264.765 109.603 259.613 111.372 259.613 117.867L261.475 118.133C259.613 137.828 272.494 136.02 272.494 136.02" fill="#1C2940"/>
<path fill-rule="evenodd" clip-rule="evenodd" d="M264.978 124.957H284.757V120.404C284.757 110.343 276.616 102.187 266.573 102.187H246.794V106.74C246.794 116.8 254.935 124.957 264.978 124.957" fill="#1C2940"/>
<path fill-rule="evenodd" clip-rule="evenodd" d="M248.425 149.737V158.155C248.425 164.815 253.815 170.216 260.464 170.216C267.112 170.216 272.502 164.815 272.502 158.155V145.644H261.252C256.553 145.893 252.161 147.355 248.425 149.737" fill="#FFE7CC"/>
<path fill-rule="evenodd" clip-rule="evenodd" d="M248.425 158.155C248.425 164.815 253.815 170.216 260.464 170.216C267.112 170.216 272.502 164.815 272.502 158.155C272.502 158.155 269.499 168.5 260.463 168.5C251.427 168.5 248.425 158.155 248.425 158.155Z" fill="#F2DCC2"/>
<path fill-rule="evenodd" clip-rule="evenodd" d="M185.46 130.663C193.407 143.842 200.929 156.338 208.532 169.655C212.323 176.309 216.07 182.997 219.717 189.801C221.541 193.201 223.338 196.628 225.08 200.157L225.728 201.491C225.944 201.939 226.139 202.352 226.448 202.942L228.083 206.34C229.08 208.612 229.874 210.847 230.219 213.175C230.237 216.19 228.907 219.019 227.648 221.66C227.332 222.324 226.987 222.972 226.641 223.61C226.309 224.234 225.937 224.925 225.63 225.422C225.006 226.481 224.363 227.507 223.721 228.533C221.135 232.614 218.439 236.548 215.702 240.445C210.218 248.217 204.556 255.843 198.8 263.328L185.115 255.605C189.509 247.723 193.923 239.5 197.987 231.467C200.015 227.445 201.982 223.416 203.707 219.564L205.07 216.401L204.86 216.089C203.368 213.843 201.684 211.454 199.952 209.067C196.49 204.283 192.821 199.44 189.11 194.615C181.673 184.959 174.007 175.327 166.28 165.753C160.922 159.117 163.288 148.23 171.608 141.344L185.46 130.663Z" fill="#E68417"/>
<path fill-rule="evenodd" clip-rule="evenodd" d="M184.375 249.775L184.277 249.878C179.061 255.354 179.265 264.029 184.731 269.253C187.218 271.63 191.156 271.537 193.529 269.045L198.774 263.538L184.375 249.775Z" fill="#FFE7CC"/>
</svg>
