<?xml version="1.0" encoding="utf-8" ?>
<svg xmlns="http://www.w3.org/2000/svg" xmlns:xlink="http://www.w3.org/1999/xlink" width="6" height="14">
	<defs>
		<clipPath id="clip_0">
			<rect x="-151" y="-3467" width="1238.4" height="3551.8" clip-rule="evenodd"/>
		</clipPath>
	</defs>
	<g clip-path="url(#clip_0)">
		<path fill="rgb(75,90,115)" stroke="none" transform="matrix(0.86 0 0 0.86 0.933334 1.66675)" d="M5.83333 4.31739L3.84671 4.31739L3.84671 2.93355C3.84671 2.41385 4.17101 2.29269 4.39943 2.29269C4.62732 2.29269 5.80137 2.29269 5.80137 2.29269L5.80137 0.00800386L3.87061 0C1.72729 0 1.23953 1.70399 1.23953 2.79445L1.23953 4.31739L0 4.31739L0 6.67163L1.23953 6.67163C1.23953 9.69296 1.23953 13.3333 1.23953 13.3333L3.84671 13.3333C3.84671 13.3333 3.84671 9.65708 3.84671 6.67163L5.60596 6.67163L5.83333 4.31739Z"/>
	</g>

</svg>