<?xml version="1.0" encoding="utf-8" ?>
<svg xmlns="http://www.w3.org/2000/svg" xmlns:xlink="http://www.w3.org/1999/xlink" width="12" height="20">
	<defs>
		<clipPath id="clip_0">
			<rect x="-230" y="-4030" width="1440" height="4130" clip-rule="evenodd"/>
		</clipPath>
	</defs>
	<g clip-path="url(#clip_0)">
		<path fill="rgb(75,90,115)" stroke="none" d="M6 0C3.4 0 1.33333 2.06667 1.33333 4.66667C1.33333 7.26667 3.4 9.33333 6 9.33333C8.6 9.33333 10.6667 7.26667 10.6667 4.66667C10.6667 2.06667 8.6 0 6 0ZM6 7C4.73333 7 3.66667 5.93333 3.66667 4.66667C3.66667 3.4 4.73333 2.33333 6 2.33333C7.26667 2.33333 8.33333 3.4 8.33333 4.66667C8.33333 5.93333 7.26667 7 6 7ZM6 11.3333C8.66667 11.3333 10 10 10.6667 10C11.4 10 12 10.6 12 11.3333C12 12 11.6 12.2667 11.3333 12.4667C10.5333 12.9333 8 14 8 14L10.8 17.6C10.8 17.6 11.3333 18.2667 11.3333 18.6667C11.3333 19.4 10.7333 20 10 20C9.33333 20 9 19.5333 9 19.5333L6 16L2.93333 19.5333C2.93333 19.5333 2.6 20 1.93333 20C1.2 20 0.6 19.4 0.6 18.6667C0.6 18.2 1.13333 17.6 1.13333 17.6L4 14C4 14 1.46667 12.9333 0.666667 12.4667C0.4 12.3333 0 12 0 11.3333C0 10.6 0.6 10 1.33333 10C2 10 3.33333 11.3333 6 11.3333Z" fill-rule="evenodd"/>
	</g>

</svg>