<?xml version="1.0" encoding="utf-8" ?>
<svg xmlns="http://www.w3.org/2000/svg" xmlns:xlink="http://www.w3.org/1999/xlink" width="17" height="12">
	<defs>
		<clipPath id="clip_0">
			<rect x="-284" y="-4034" width="1440" height="4130" clip-rule="evenodd"/>
		</clipPath>
	</defs>
	<g clip-path="url(#clip_0)">
		<path fill="rgb(75,90,115)" stroke="none" d="M14.8649 11.7613C15.7548 11.6606 16.4944 10.9854 16.7024 10.0697C16.9982 8.76563 17 7.34263 17 6.0002L17 5.9766C17 4.6409 17 3.22673 16.7058 1.93025C16.4979 1.01456 15.7583 0.3392 14.8682 0.238686C12.7604 0.000137063 10.6266 -0.00104783 8.50244 0.000137063C6.37805 -0.00104783 4.24449 0.000137063 2.13648 0.238686C1.24656 0.3392 0.507358 1.01456 0.299306 1.93025C0.00350978 3.23437 0 4.65757 0 6.0002C0 7.34263 0 8.76563 0.295991 10.0697C0.503848 10.9854 1.24305 11.6606 2.13316 11.7613C4.24098 11.9999 6.37473 12.001 8.49893 11.9999C10.6233 12.001 12.7569 11.9999 14.8649 11.7613ZM11.3261 6L6.62144 3.17647L6.62144 8.82353L11.3261 6Z" fill-rule="evenodd"/>
	</g>

</svg>