<svg xmlns="http://www.w3.org/2000/svg" width="52.557" height="43.307" viewBox="0 0 52.557 43.307">
  <g id="ic_card" transform="translate(0)">
    <g id="Слой_1" data-name="Слой 1">
      <path id="Path_1" data-name="Path 1" d="M46.6,2.943a3.015,3.015,0,0,1,3.015,3.015V37.349A3.015,3.015,0,0,1,46.6,40.363H5.958a3.015,3.015,0,0,1-3.015-3.015V5.958A3.015,3.015,0,0,1,5.958,2.943H46.6M46.6,0H5.958A5.975,5.975,0,0,0,0,5.958V37.349a5.975,5.975,0,0,0,5.958,5.958H46.6a5.975,5.975,0,0,0,5.954-5.958V5.958A5.975,5.975,0,0,0,46.6,0Z" fill="#8b97a9"/>
      <path id="Path_2" data-name="Path 2" d="M3.67,5.42v7.673H38.109V8.784h10.3v4.31h4.869V5.42Zm4.423,5.642A2.157,2.157,0,1,1,10.25,8.906a2.157,2.157,0,0,1-2.157,2.157Zm6.614,0a2.157,2.157,0,1,1,2.136-2.157,2.157,2.157,0,0,1-2.136,2.157Zm6.614,0a2.157,2.157,0,1,1,2.157-2.157,2.157,2.157,0,0,1-2.157,2.157Z" transform="translate(-2.127 -3.141)" fill="#8b97a9"/>
      <path id="Path_3" data-name="Path 3" d="M23.975,44.669,21.667,42.02a.164.164,0,0,1-.046-.114,12.688,12.688,0,0,0-.273-5.146,14.02,14.02,0,0,0-3.187-4.2.357.357,0,0,0-.42,0,13.968,13.968,0,0,0-3.187,4.2,12.688,12.688,0,0,0-.273,5.146.168.168,0,0,1,0,.063.164.164,0,0,1-.034.055l-2.308,2.649a.269.269,0,0,0,.126.446l3.431.841a.164.164,0,0,1,.114.109l.484,1.463a.462.462,0,0,0,.42.32h2.846a.462.462,0,0,0,.42-.32l.484-1.463a.164.164,0,0,1,.114-.109l3.431-.841a.269.269,0,0,0,.168-.45Z" transform="translate(-6.875 -18.828)" fill="#8b97a9"/>
      <path id="Path_4" data-name="Path 4" d="M23.868,71.623l-.156-.084a.95.95,0,0,1,.2.286c.282.66-.652,1.615-.652,1.615s-.231-.841-.559-.883a.4.4,0,0,0-.378.252c-.139.378.576.681.757,1.442a1.875,1.875,0,0,1-.332,1.329,2.367,2.367,0,0,0-.584-1.19c-.378-.42-.673-.3-1-.618a1.816,1.816,0,0,1-.109-2.241,3.671,3.671,0,0,0-1.539,2.014c-.559,2,1.383,3.914,1.383,3.914a15.925,15.925,0,0,1,.139-2.561c.139-.013,1.144,3.977,1.144,3.977s.727-2.867,1.169-2.851c.349,0,.778,1.921.778,1.921a5.648,5.648,0,0,0,1.131-2.905C25.268,74.427,25.306,72.5,23.868,71.623Z" transform="translate(-11.255 -41.455)" fill="#8b97a9"/>
      <path id="Path_5" data-name="Path 5" d="M73.361,63.5v7.291H47.171V63.5h26.19m.265-.841H46.906c-.315,0-.576.378-.576.841v7.291c0,.462.261.841.576.841H73.622c.315,0,.576-.378.576-.841V63.5c0-.463-.261-.841-.576-.841Z" transform="translate(-26.85 -36.314)" fill="#8b97a9"/>
      <path id="Path_6" data-name="Path 6" d="M73.626,43.638H46.906c-.315,0-.576-.378-.576-.841V35.511c0-.462.261-.841.576-.841H73.622c.315,0,.576.378.576.841V42.8C74.2,43.272,73.941,43.638,73.626,43.638Z" transform="translate(-26.85 -20.093)" fill="#0070d9"/>
    </g>
  </g>
</svg>
