<svg width="32" height="32" viewBox="0 0 32 32" fill="none" xmlns="http://www.w3.org/2000/svg">
<g id="ic_law">
<g id="Shape">
<path fill-rule="evenodd" clip-rule="evenodd" d="M31.6835 0.286085C31.4978 0.0998058 31.2434 -0.0051746 30.9822 0.000196489C30.8679 0.00166134 28.142 0.0458508 24.5487 0.937452C21.2125 1.76533 16.4742 3.5146 12.8489 7.14692C12.4276 7.56929 12.0326 8.00703 11.6603 8.45552C8.72075 8.05586 5.8957 8.88301 3.42006 10.8859C1.30968 12.5932 0.201497 14.5512 0.155444 14.6337C-0.00829866 14.9267 -0.010248 15.2832 0.14984 15.5781C0.310171 15.8728 0.610366 16.0642 0.944918 16.0852L6.47464 16.4311L4.95954 17.9492C4.77679 18.1323 4.67421 18.3806 4.67421 18.6396C4.67421 18.8984 4.77679 19.1467 4.95954 19.3298L5.72538 20.0971C5.7149 20.1076 5.70369 20.1179 5.69321 20.1284C2.4091 23.4191 2.30725 28.518 2.30457 28.7336C2.30116 28.9968 2.40423 29.2502 2.5899 29.4362C2.77265 29.6193 3.02045 29.7221 3.27874 29.7221H3.29117C3.50632 29.7194 8.59526 29.6174 11.8794 26.3266C11.8901 26.3161 11.9003 26.3051 11.9106 26.2944L12.6766 27.062C12.8594 27.2451 13.1072 27.3479 13.3655 27.3479C13.624 27.3479 13.8718 27.2451 14.0546 27.062L15.5697 25.5437L15.9149 31.0844C15.9357 31.4194 16.1269 31.7202 16.4213 31.8808C16.5665 31.9604 16.7268 32 16.8874 32C17.0514 32 17.2156 31.9584 17.3635 31.8754C17.4459 31.8291 19.4001 30.7189 21.104 28.6044C23.1031 26.1237 23.9288 23.2934 23.53 20.3481C23.9773 19.9753 24.4145 19.5793 24.8358 19.1572C28.4612 15.5249 30.2069 10.7775 31.0331 7.43452C31.923 3.83442 31.9671 1.10298 31.9686 0.988478C31.972 0.725538 31.8691 0.47212 31.6835 0.286085ZM7.0263 18.6396L8.69053 16.9721L15.0297 23.3237L13.3655 24.9912L7.0263 18.6396ZM7.07114 21.5092C7.08186 21.4985 7.09233 21.488 7.10306 21.4775L10.5331 24.9145C10.5226 24.925 10.5122 24.9357 10.5017 24.9462C8.60769 26.8439 5.85671 27.4677 4.35111 27.6718C4.55481 26.1625 5.17762 23.4067 7.07114 21.5092ZM16.6408 22.1767L9.83502 15.3576C10.8036 12.9843 12.2034 10.5549 14.2268 8.52754C16.9215 5.82759 20.3304 4.25874 23.1686 3.35542L28.6199 8.81758C27.7183 11.6611 26.1528 15.0766 23.4578 17.7766C21.4101 19.8283 18.9495 21.2268 16.6408 22.1767V22.1767ZM29.2042 6.70698L25.2748 2.76997C27.2473 2.29854 28.9359 2.0981 29.9593 2.01338C29.8747 3.03901 29.6747 4.73091 29.2042 6.70698V6.70698ZM4.69248 12.3662C6.42957 10.9765 8.30505 10.2883 10.2904 10.3066C9.3628 11.7124 8.62937 13.1694 8.05116 14.5734L2.80847 14.2456C3.27435 13.674 3.90593 12.9956 4.69248 12.3662ZM19.6269 27.3295C18.9985 28.1176 18.3214 28.7507 17.751 29.2175L17.4237 23.9643C18.825 23.3847 20.2792 22.6501 21.6822 21.7207C21.7008 23.7102 21.0139 25.5893 19.6269 27.3295V27.3295Z" fill="#4FACFE"/>
<path fill-rule="evenodd" clip-rule="evenodd" d="M31.6835 0.286085C31.4978 0.0998058 31.2434 -0.0051746 30.9822 0.000196489C30.8679 0.00166134 28.142 0.0458508 24.5487 0.937452C21.2125 1.76533 16.4742 3.5146 12.8489 7.14692C12.4276 7.56929 12.0326 8.00703 11.6603 8.45552C8.72075 8.05586 5.8957 8.88301 3.42006 10.8859C1.30968 12.5932 0.201497 14.5512 0.155444 14.6337C-0.00829866 14.9267 -0.010248 15.2832 0.14984 15.5781C0.310171 15.8728 0.610366 16.0642 0.944918 16.0852L6.47464 16.4311L4.95954 17.9492C4.77679 18.1323 4.67421 18.3806 4.67421 18.6396C4.67421 18.8984 4.77679 19.1467 4.95954 19.3298L5.72538 20.0971C5.7149 20.1076 5.70369 20.1179 5.69321 20.1284C2.4091 23.4191 2.30725 28.518 2.30457 28.7336C2.30116 28.9968 2.40423 29.2502 2.5899 29.4362C2.77265 29.6193 3.02045 29.7221 3.27874 29.7221H3.29117C3.50632 29.7194 8.59526 29.6174 11.8794 26.3266C11.8901 26.3161 11.9003 26.3051 11.9106 26.2944L12.6766 27.062C12.8594 27.2451 13.1072 27.3479 13.3655 27.3479C13.624 27.3479 13.8718 27.2451 14.0546 27.062L15.5697 25.5437L15.9149 31.0844C15.9357 31.4194 16.1269 31.7202 16.4213 31.8808C16.5665 31.9604 16.7268 32 16.8874 32C17.0514 32 17.2156 31.9584 17.3635 31.8754C17.4459 31.8291 19.4001 30.7189 21.104 28.6044C23.1031 26.1237 23.9288 23.2934 23.53 20.3481C23.9773 19.9753 24.4145 19.5793 24.8358 19.1572C28.4612 15.5249 30.2069 10.7775 31.0331 7.43452C31.923 3.83442 31.9671 1.10298 31.9686 0.988478C31.972 0.725538 31.8691 0.47212 31.6835 0.286085ZM7.0263 18.6396L8.69053 16.9721L15.0297 23.3237L13.3655 24.9912L7.0263 18.6396ZM7.07114 21.5092C7.08186 21.4985 7.09233 21.488 7.10306 21.4775L10.5331 24.9145C10.5226 24.925 10.5122 24.9357 10.5017 24.9462C8.60769 26.8439 5.85671 27.4677 4.35111 27.6718C4.55481 26.1625 5.17762 23.4067 7.07114 21.5092ZM16.6408 22.1767L9.83502 15.3576C10.8036 12.9843 12.2034 10.5549 14.2268 8.52754C16.9215 5.82759 20.3304 4.25874 23.1686 3.35542L28.6199 8.81758C27.7183 11.6611 26.1528 15.0766 23.4578 17.7766C21.4101 19.8283 18.9495 21.2268 16.6408 22.1767V22.1767ZM29.2042 6.70698L25.2748 2.76997C27.2473 2.29854 28.9359 2.0981 29.9593 2.01338C29.8747 3.03901 29.6747 4.73091 29.2042 6.70698V6.70698ZM4.69248 12.3662C6.42957 10.9765 8.30505 10.2883 10.2904 10.3066C9.3628 11.7124 8.62937 13.1694 8.05116 14.5734L2.80847 14.2456C3.27435 13.674 3.90593 12.9956 4.69248 12.3662ZM19.6269 27.3295C18.9985 28.1176 18.3214 28.7507 17.751 29.2175L17.4237 23.9643C18.825 23.3847 20.2792 22.6501 21.6822 21.7207C21.7008 23.7102 21.0139 25.5893 19.6269 27.3295V27.3295Z" fill="url(#paint0_linear)"/>
</g>
<g id="Shape_2">
<path fill-rule="evenodd" clip-rule="evenodd" d="M23.2729 8.7124C22.5316 7.96948 21.5458 7.56055 20.4975 7.56055C19.449 7.56055 18.4632 7.96948 17.7219 8.7124C16.1915 10.2458 16.1915 12.7407 17.7219 14.2742C18.4632 15.0171 19.449 15.4263 20.4975 15.4263C21.5458 15.4263 22.5314 15.0171 23.2729 14.2742C24.0143 13.5315 24.4225 12.5437 24.4225 11.4934C24.4225 10.4429 24.0143 9.45508 23.2729 8.7124V8.7124ZM21.8949 12.8936C21.5216 13.2678 21.0253 13.4736 20.4975 13.4736C19.9695 13.4736 19.4732 13.2678 19.0996 12.8938C18.3292 12.1216 18.3292 10.8652 19.0996 10.093C19.4732 9.71899 19.9695 9.51294 20.4975 9.51294C21.0253 9.51294 21.5216 9.71899 21.8949 10.093C22.2682 10.467 22.4739 10.9644 22.4739 11.4934C22.4739 12.0225 22.2682 12.5195 21.8949 12.8936Z" fill="#4FACFE"/>
<path fill-rule="evenodd" clip-rule="evenodd" d="M23.2729 8.7124C22.5316 7.96948 21.5458 7.56055 20.4975 7.56055C19.449 7.56055 18.4632 7.96948 17.7219 8.7124C16.1915 10.2458 16.1915 12.7407 17.7219 14.2742C18.4632 15.0171 19.449 15.4263 20.4975 15.4263C21.5458 15.4263 22.5314 15.0171 23.2729 14.2742C24.0143 13.5315 24.4225 12.5437 24.4225 11.4934C24.4225 10.4429 24.0143 9.45508 23.2729 8.7124V8.7124ZM21.8949 12.8936C21.5216 13.2678 21.0253 13.4736 20.4975 13.4736C19.9695 13.4736 19.4732 13.2678 19.0996 12.8938C18.3292 12.1216 18.3292 10.8652 19.0996 10.093C19.4732 9.71899 19.9695 9.51294 20.4975 9.51294C21.0253 9.51294 21.5216 9.71899 21.8949 10.093C22.2682 10.467 22.4739 10.9644 22.4739 11.4934C22.4739 12.0225 22.2682 12.5195 21.8949 12.8936Z" fill="url(#paint1_linear)"/>
</g>
</g>
<defs>
<linearGradient id="paint0_linear" x1="-15.9375" y1="16" x2="16.0624" y2="47.9374" gradientUnits="userSpaceOnUse">
<stop stop-opacity="0.01"/>
<stop offset="1" stop-opacity="0.2"/>
</linearGradient>
<linearGradient id="paint1_linear" x1="12.6499" y1="11.4934" x2="20.5156" y2="19.3418" gradientUnits="userSpaceOnUse">
<stop stop-opacity="0.01"/>
<stop offset="1" stop-opacity="0.2"/>
</linearGradient>
</defs>
</svg>
