<svg width="40" height="40" viewBox="0 0 40 40" fill="none" xmlns="http://www.w3.org/2000/svg">
<g id="ic_spy">
<g id="Shape">
<path fill-rule="evenodd" clip-rule="evenodd" d="M9.8291 21.9731C12.5771 23.0643 16.2109 23.6651 20.061 23.6651C23.9109 23.6651 27.5447 23.0643 30.293 21.9731C33.3147 20.7733 34.9788 19.0706 34.9788 17.1783C34.9788 16.1349 34.4626 14.5969 32.0034 13.1958C31.5952 12.9634 31.1587 12.7546 30.6687 12.5577L30.1028 12.3303C29.6702 7.95411 28.5574 5.37029 26.7075 4.43925C24.5933 3.37517 22.2646 4.81425 20.8733 5.67414C20.606 5.83935 20.2578 6.0545 20.061 6.14929C19.8643 6.0545 19.5159 5.8391 19.2485 5.67414C17.8572 4.81425 15.5286 3.37492 13.4143 4.43925C11.5645 5.37029 10.4517 7.95411 10.019 12.3303L9.45337 12.5577C8.96338 12.7546 8.52661 12.9634 8.11841 13.1958C5.65918 14.5969 5.14307 16.1349 5.14307 17.1783C5.14307 19.0706 6.80737 20.7733 9.8291 21.9731ZM14.2593 6.11103C14.5068 5.98652 14.7749 5.93292 15.0549 5.93292C16.1035 5.93292 17.3196 6.68438 18.261 7.26625C19.0286 7.74042 19.5354 8.05377 20.061 8.05377C20.5864 8.05377 21.0935 7.74042 21.8611 7.26625C23.0537 6.52892 24.6873 5.51966 25.8628 6.11103C26.707 6.53623 27.7859 7.99505 28.2322 12.4773C25.9138 13.6412 23.0393 14.2779 20.061 14.2779C17.0823 14.2779 14.208 13.6412 11.8896 12.4773C12.3362 7.99505 13.4148 6.53623 14.2593 6.11103ZM9.04858 14.822C9.38208 14.632 9.74365 14.4595 10.1541 14.2945L10.8127 14.0299C13.4314 15.3993 16.6956 16.1503 20.061 16.1503C23.4263 16.1503 26.6904 15.3993 29.3091 14.0299L29.968 14.2945C30.3782 14.4595 30.7397 14.6317 31.0735 14.822C32.3821 15.5674 33.1025 16.4044 33.1025 17.1783C33.1025 18.2202 31.793 19.3623 29.5994 20.2334C27.0667 21.239 23.6792 21.7926 20.0608 21.7926C16.4426 21.7926 13.0552 21.239 10.5225 20.2334C8.32886 19.3623 7.01904 18.2202 7.01904 17.1783C7.01904 16.4044 7.73975 15.5677 9.04858 14.822Z" fill="#4B9E00"/>
<path fill-rule="evenodd" clip-rule="evenodd" d="M9.8291 21.9731C12.5771 23.0643 16.2109 23.6651 20.061 23.6651C23.9109 23.6651 27.5447 23.0643 30.293 21.9731C33.3147 20.7733 34.9788 19.0706 34.9788 17.1783C34.9788 16.1349 34.4626 14.5969 32.0034 13.1958C31.5952 12.9634 31.1587 12.7546 30.6687 12.5577L30.1028 12.3303C29.6702 7.95411 28.5574 5.37029 26.7075 4.43925C24.5933 3.37517 22.2646 4.81425 20.8733 5.67414C20.606 5.83935 20.2578 6.0545 20.061 6.14929C19.8643 6.0545 19.5159 5.8391 19.2485 5.67414C17.8572 4.81425 15.5286 3.37492 13.4143 4.43925C11.5645 5.37029 10.4517 7.95411 10.019 12.3303L9.45337 12.5577C8.96338 12.7546 8.52661 12.9634 8.11841 13.1958C5.65918 14.5969 5.14307 16.1349 5.14307 17.1783C5.14307 19.0706 6.80737 20.7733 9.8291 21.9731ZM14.2593 6.11103C14.5068 5.98652 14.7749 5.93292 15.0549 5.93292C16.1035 5.93292 17.3196 6.68438 18.261 7.26625C19.0286 7.74042 19.5354 8.05377 20.061 8.05377C20.5864 8.05377 21.0935 7.74042 21.8611 7.26625C23.0537 6.52892 24.6873 5.51966 25.8628 6.11103C26.707 6.53623 27.7859 7.99505 28.2322 12.4773C25.9138 13.6412 23.0393 14.2779 20.061 14.2779C17.0823 14.2779 14.208 13.6412 11.8896 12.4773C12.3362 7.99505 13.4148 6.53623 14.2593 6.11103ZM9.04858 14.822C9.38208 14.632 9.74365 14.4595 10.1541 14.2945L10.8127 14.0299C13.4314 15.3993 16.6956 16.1503 20.061 16.1503C23.4263 16.1503 26.6904 15.3993 29.3091 14.0299L29.968 14.2945C30.3782 14.4595 30.7397 14.6317 31.0735 14.822C32.3821 15.5674 33.1025 16.4044 33.1025 17.1783C33.1025 18.2202 31.793 19.3623 29.5994 20.2334C27.0667 21.239 23.6792 21.7926 20.0608 21.7926C16.4426 21.7926 13.0552 21.239 10.5225 20.2334C8.32886 19.3623 7.01904 18.2202 7.01904 17.1783C7.01904 16.4044 7.73975 15.5677 9.04858 14.822Z" fill="url(#paint0_linear)"/>
</g>
<g id="Shape_2">
<path fill-rule="evenodd" clip-rule="evenodd" d="M34.0408 28.0192H32.9233C32.0525 25.931 29.9868 24.459 27.583 24.459C25.1663 24.459 23.0913 25.9468 22.2288 28.0528C20.8262 27.335 19.1423 27.3374 17.74 28.0694C16.8816 25.9546 14.8022 24.459 12.3792 24.459C9.9751 24.459 7.90942 25.931 7.03857 28.0192H5.93799C5.41992 28.0192 5 28.4383 5 28.9553C5 29.4724 5.41992 29.8917 5.93799 29.8917H6.60742C6.60107 30.0036 6.59741 30.1161 6.59741 30.2295C6.59741 33.4115 9.19092 35.9999 12.3792 35.9999C15.5671 35.9999 18.1606 33.4115 18.1606 30.2295C18.1606 30.1593 18.1589 30.0896 18.1565 30.0201C19.2256 29.1851 20.7319 29.1793 21.8066 29.9902C21.8032 30.0696 21.8013 30.1493 21.8013 30.2295C21.8013 33.4115 24.395 35.9999 27.583 35.9999C30.771 35.9999 33.3645 33.4115 33.3645 30.2295C33.3645 30.1161 33.3608 30.0036 33.3545 29.8917H34.0408C34.5588 29.8917 34.9788 29.4724 34.9788 28.9553C34.9788 28.4383 34.5588 28.0192 34.0408 28.0192ZM12.3792 34.1276C10.2256 34.1276 8.47339 32.3788 8.47339 30.2295C8.47339 28.0801 10.2256 26.3315 12.3792 26.3315C14.5327 26.3315 16.2847 28.0801 16.2847 30.2295C16.2847 32.3788 14.5327 34.1276 12.3792 34.1276ZM27.5828 34.1276C25.4292 34.1276 23.6772 32.3788 23.6772 30.2295C23.6772 28.0801 25.4292 26.3315 27.5828 26.3315C29.7363 26.3315 31.4885 28.0801 31.4885 30.2295C31.4885 32.3788 29.7363 34.1276 27.5828 34.1276Z" fill="#4B9E00"/>
<path fill-rule="evenodd" clip-rule="evenodd" d="M34.0408 28.0192H32.9233C32.0525 25.931 29.9868 24.459 27.583 24.459C25.1663 24.459 23.0913 25.9468 22.2288 28.0528C20.8262 27.335 19.1423 27.3374 17.74 28.0694C16.8816 25.9546 14.8022 24.459 12.3792 24.459C9.9751 24.459 7.90942 25.931 7.03857 28.0192H5.93799C5.41992 28.0192 5 28.4383 5 28.9553C5 29.4724 5.41992 29.8917 5.93799 29.8917H6.60742C6.60107 30.0036 6.59741 30.1161 6.59741 30.2295C6.59741 33.4115 9.19092 35.9999 12.3792 35.9999C15.5671 35.9999 18.1606 33.4115 18.1606 30.2295C18.1606 30.1593 18.1589 30.0896 18.1565 30.0201C19.2256 29.1851 20.7319 29.1793 21.8066 29.9902C21.8032 30.0696 21.8013 30.1493 21.8013 30.2295C21.8013 33.4115 24.395 35.9999 27.583 35.9999C30.771 35.9999 33.3645 33.4115 33.3645 30.2295C33.3645 30.1161 33.3608 30.0036 33.3545 29.8917H34.0408C34.5588 29.8917 34.9788 29.4724 34.9788 28.9553C34.9788 28.4383 34.5588 28.0192 34.0408 28.0192ZM12.3792 34.1276C10.2256 34.1276 8.47339 32.3788 8.47339 30.2295C8.47339 28.0801 10.2256 26.3315 12.3792 26.3315C14.5327 26.3315 16.2847 28.0801 16.2847 30.2295C16.2847 32.3788 14.5327 34.1276 12.3792 34.1276ZM27.5828 34.1276C25.4292 34.1276 23.6772 32.3788 23.6772 30.2295C23.6772 28.0801 25.4292 26.3315 27.5828 26.3315C29.7363 26.3315 31.4885 28.0801 31.4885 30.2295C31.4885 32.3788 29.7363 34.1276 27.5828 34.1276Z" fill="url(#paint1_linear)"/>
</g>
</g>
<defs>
<linearGradient id="paint0_linear" x1="-9.77478" y1="13.8637" x2="8.21748" y2="41.248" gradientUnits="userSpaceOnUse">
<stop stop-opacity="0.01"/>
<stop offset="1" stop-opacity="0.2"/>
</linearGradient>
<linearGradient id="paint1_linear" x1="-9.98938" y1="30.2295" x2="-2.25047" y2="50.3321" gradientUnits="userSpaceOnUse">
<stop stop-opacity="0.01"/>
<stop offset="1" stop-opacity="0.2"/>
</linearGradient>
</defs>
</svg>
