<svg width="40" height="40" viewBox="0 0 40 40" fill="none" xmlns="http://www.w3.org/2000/svg">
<g id="ic_translate">
<g id="Shape">
<path fill-rule="evenodd" clip-rule="evenodd" d="M16.2317 20.7537C16.1804 20.4968 14.4128 11.6587 14.3567 11.3786C14.2692 10.9404 13.8844 10.625 13.4375 10.625H11.5625C11.1156 10.625 10.7308 10.9404 10.6432 11.3786C10.5863 11.6634 8.81686 20.5106 8.76824 20.7536C8.66668 21.2614 8.99599 21.7552 9.50368 21.8567C10.0114 21.9583 10.5053 21.629 10.6068 21.1213L11.2061 18.125H13.7939L14.3932 21.1214C14.4947 21.6293 14.9889 21.9584 15.4963 21.8568C16.004 21.7552 16.3333 21.2614 16.2317 20.7537ZM11.5811 16.25L12.3311 12.5H12.6689L13.4189 16.25H11.5811Z" fill="#B12A5B"/>
<path fill-rule="evenodd" clip-rule="evenodd" d="M16.2317 20.7537C16.1804 20.4968 14.4128 11.6587 14.3567 11.3786C14.2692 10.9404 13.8844 10.625 13.4375 10.625H11.5625C11.1156 10.625 10.7308 10.9404 10.6432 11.3786C10.5863 11.6634 8.81686 20.5106 8.76824 20.7536C8.66668 21.2614 8.99599 21.7552 9.50368 21.8567C10.0114 21.9583 10.5053 21.629 10.6068 21.1213L11.2061 18.125H13.7939L14.3932 21.1214C14.4947 21.6293 14.9889 21.9584 15.4963 21.8568C16.004 21.7552 16.3333 21.2614 16.2317 20.7537ZM11.5811 16.25L12.3311 12.5H12.6689L13.4189 16.25H11.5811Z" fill="url(#paint0_linear)"/>
</g>
<g id="Shape_2">
<path fill-rule="evenodd" clip-rule="evenodd" d="M31.25 18.125H28.4375V17.1875C28.4375 16.6697 28.0178 16.25 27.5 16.25C26.9822 16.25 26.5625 16.6697 26.5625 17.1875V18.125H23.75C23.2322 18.125 22.8125 18.5447 22.8125 19.0625C22.8125 19.5803 23.2322 20 23.75 20H23.9769C24.5111 21.7257 25.3153 23.0504 26.2003 24.1119C25.48 24.7708 24.7511 25.3111 24.1019 25.8304C23.6976 26.1539 23.632 26.7438 23.9555 27.1481C24.2791 27.5526 24.8691 27.6178 25.2732 27.2945C25.9261 26.7722 26.7086 26.1917 27.5 25.4655C28.2919 26.1922 29.0759 26.7738 29.7268 27.2945C30.1311 27.618 30.7211 27.5524 31.0445 27.1481C31.3679 26.7438 31.3024 26.1538 30.8981 25.8304C30.2506 25.3123 29.5207 24.7714 28.7997 24.1119C29.6847 23.0504 30.4889 21.7257 31.0231 20H31.25C31.7678 20 32.1875 19.5803 32.1875 19.0625C32.1875 18.5447 31.7678 18.125 31.25 18.125ZM27.5 22.7341C26.9016 21.9828 26.3632 21.0861 25.9573 19.9938H29.0426C28.6368 21.0861 28.0984 21.9828 27.5 22.7341Z" fill="#B12A5B"/>
<path fill-rule="evenodd" clip-rule="evenodd" d="M31.25 18.125H28.4375V17.1875C28.4375 16.6697 28.0178 16.25 27.5 16.25C26.9822 16.25 26.5625 16.6697 26.5625 17.1875V18.125H23.75C23.2322 18.125 22.8125 18.5447 22.8125 19.0625C22.8125 19.5803 23.2322 20 23.75 20H23.9769C24.5111 21.7257 25.3153 23.0504 26.2003 24.1119C25.48 24.7708 24.7511 25.3111 24.1019 25.8304C23.6976 26.1539 23.632 26.7438 23.9555 27.1481C24.2791 27.5526 24.8691 27.6178 25.2732 27.2945C25.9261 26.7722 26.7086 26.1917 27.5 25.4655C28.2919 26.1922 29.0759 26.7738 29.7268 27.2945C30.1311 27.618 30.7211 27.5524 31.0445 27.1481C31.3679 26.7438 31.3024 26.1538 30.8981 25.8304C30.2506 25.3123 29.5207 24.7714 28.7997 24.1119C29.6847 23.0504 30.4889 21.7257 31.0231 20H31.25C31.7678 20 32.1875 19.5803 32.1875 19.0625C32.1875 18.5447 31.7678 18.125 31.25 18.125ZM27.5 22.7341C26.9016 21.9828 26.3632 21.0861 25.9573 19.9938H29.0426C28.6368 21.0861 28.0984 21.9828 27.5 22.7341Z" fill="url(#paint1_linear)"/>
</g>
<g id="Shape_3">
<path fill-rule="evenodd" clip-rule="evenodd" d="M33.1875 9.6875H19.6624L19.2606 6.46362C19.085 5.05912 17.8852 4 16.4698 4H6.8125C5.26169 4 4 5.26169 4 6.8125V27.5C4 29.0508 5.26169 30.3125 6.8125 30.3125H14.7177L15.1144 33.5364C15.2897 34.9381 16.4894 36 17.9052 36H33.1875C34.7383 36 36 34.7383 36 33.1875V12.5C36 10.9492 34.7383 9.6875 33.1875 9.6875ZM6.8125 28.4375C6.29556 28.4375 5.875 28.0169 5.875 27.5V6.8125C5.875 6.29556 6.29556 5.875 6.8125 5.875H16.4698C16.9416 5.875 17.3416 6.228 17.4 6.69587C17.5359 7.78563 19.9755 27.3565 20.1103 28.4375H6.8125ZM16.9202 32.8594L16.6068 30.3125H19.1221L16.9202 32.8594ZM34.125 33.1875C34.125 33.7044 33.7044 34.125 33.1875 34.125H18.3046L21.8736 29.9967C22.0563 29.7906 22.1382 29.5171 22.1004 29.2452L19.8962 11.5625H33.1875C33.7044 11.5625 34.125 11.9831 34.125 12.5V33.1875Z" fill="#B12A5B"/>
<path fill-rule="evenodd" clip-rule="evenodd" d="M33.1875 9.6875H19.6624L19.2606 6.46362C19.085 5.05912 17.8852 4 16.4698 4H6.8125C5.26169 4 4 5.26169 4 6.8125V27.5C4 29.0508 5.26169 30.3125 6.8125 30.3125H14.7177L15.1144 33.5364C15.2897 34.9381 16.4894 36 17.9052 36H33.1875C34.7383 36 36 34.7383 36 33.1875V12.5C36 10.9492 34.7383 9.6875 33.1875 9.6875ZM6.8125 28.4375C6.29556 28.4375 5.875 28.0169 5.875 27.5V6.8125C5.875 6.29556 6.29556 5.875 6.8125 5.875H16.4698C16.9416 5.875 17.3416 6.228 17.4 6.69587C17.5359 7.78563 19.9755 27.3565 20.1103 28.4375H6.8125ZM16.9202 32.8594L16.6068 30.3125H19.1221L16.9202 32.8594ZM34.125 33.1875C34.125 33.7044 33.7044 34.125 33.1875 34.125H18.3046L21.8736 29.9967C22.0563 29.7906 22.1382 29.5171 22.1004 29.2452L19.8962 11.5625H33.1875C33.7044 11.5625 34.125 11.9831 34.125 12.5V33.1875Z" fill="url(#paint2_linear)"/>
</g>
</g>
<defs>
<linearGradient id="paint0_linear" x1="4.99971" y1="16.2501" x2="15.3846" y2="23.1735" gradientUnits="userSpaceOnUse">
<stop stop-opacity="0.01"/>
<stop offset="1" stop-opacity="0.2"/>
</linearGradient>
<linearGradient id="paint1_linear" x1="18.125" y1="21.875" x2="29.1906" y2="31.0963" gradientUnits="userSpaceOnUse">
<stop stop-opacity="0.01"/>
<stop offset="1" stop-opacity="0.2"/>
</linearGradient>
<linearGradient id="paint2_linear" x1="-12" y1="20" x2="20" y2="52" gradientUnits="userSpaceOnUse">
<stop stop-opacity="0.01"/>
<stop offset="1" stop-opacity="0.2"/>
</linearGradient>
</defs>
</svg>
