<svg width="32" height="31" viewBox="0 0 32 31" fill="none" xmlns="http://www.w3.org/2000/svg">
<g id="ic_vip">
<path id="Shape" fill-rule="evenodd" clip-rule="evenodd" d="M31.9548 11.7846C31.8626 11.4974 31.6389 11.2728 31.3543 11.1821L22.2771 8.28666L16.7516 0.442647C16.5783 0.196798 16.2984 0.0507812 16 0.0507812C15.7016 0.0507812 15.4217 0.196798 15.2484 0.442647L9.72287 8.28666L0.645682 11.1822C0.361057 11.273 0.137432 11.4974 0.0451821 11.7847C-0.0470054 12.0718 0.00361964 12.3865 0.18112 12.6293L5.84343 20.3726L5.75887 30.0061C5.75624 30.3081 5.89793 30.5928 6.13937 30.7703C6.38081 30.9479 6.69212 30.9964 6.97499 30.9005L16 27.8421L25.0251 30.9004C25.1207 30.9329 25.2196 30.9487 25.3181 30.9487C25.5106 30.9487 25.7009 30.8877 25.8607 30.7703C26.1021 30.5927 26.2438 30.308 26.2412 30.0061L26.1566 20.3725L31.8189 12.6292C31.9964 12.3865 32.047 12.0718 31.9548 11.7846ZM24.4889 19.5121C24.3696 19.6753 24.306 19.8734 24.3077 20.0763L24.3835 28.7123L16.2931 25.9707C16.198 25.9384 16.0991 25.9224 16 25.9224C15.901 25.9224 15.802 25.9385 15.7069 25.9707L7.61649 28.7123L7.69231 20.0763C7.69412 19.8734 7.63049 19.6753 7.51118 19.5121L2.43518 12.5707L10.5725 9.97496C10.7637 9.91397 10.9302 9.79155 11.0466 9.62624L16 2.59455L20.9534 9.6263C21.0698 9.79155 21.2362 9.91397 21.4275 9.97502L29.5648 12.5707L24.4889 19.5121Z" fill="url(#paint0_linear)"/>
<path id="Path" fill-rule="evenodd" clip-rule="evenodd" d="M16 13.3193C15.4902 13.3193 15.0769 13.7377 15.0769 14.2537V19.237C15.0769 19.7531 15.4902 20.1714 16 20.1714C16.5098 20.1714 16.923 19.753 16.923 19.237V14.2537C16.923 13.7376 16.5098 13.3193 16 13.3193Z" fill="url(#paint1_linear)"/>
<path id="Shape_2" fill-rule="evenodd" clip-rule="evenodd" d="M21.5384 13.3193H19.0769C18.5671 13.3193 18.1538 13.7377 18.1538 14.2537V19.237C18.1538 19.7531 18.5671 20.1714 19.0769 20.1714C19.5866 20.1714 20 19.7531 20 19.237V17.6798H21.5384C22.7261 17.6798 23.6923 16.7018 23.6923 15.4995C23.6923 14.2973 22.7261 13.3193 21.5384 13.3193ZM21.5384 15.811H20V15.1881H21.5384C21.7081 15.1881 21.8461 15.3278 21.8461 15.4995C21.8462 15.6713 21.7081 15.811 21.5384 15.811Z" fill="url(#paint2_linear)"/>
<path id="Path_2" fill-rule="evenodd" clip-rule="evenodd" d="M13.2472 13.3791C12.7698 13.198 12.2378 13.4427 12.0588 13.9259L11.0769 16.5762L10.095 13.9259C9.91602 13.4426 9.38402 13.1979 8.90658 13.3791C8.42927 13.5603 8.18739 14.0989 8.36639 14.5821L10.2125 19.5654C10.3476 19.9301 10.6921 20.1717 11.0768 20.1717C11.4616 20.1717 11.8061 19.9301 11.9411 19.5654L13.7873 14.5821C13.9665 14.0989 13.7246 13.5603 13.2472 13.3791Z" fill="url(#paint3_linear)"/>
</g>
<defs>
<linearGradient id="paint0_linear" x1="-8.01465" y1="13.2586" x2="18.4566" y2="38.6257" gradientUnits="userSpaceOnUse">
<stop stop-color="#F09819"/>
<stop offset="1" stop-color="#FF5858"/>
</linearGradient>
<linearGradient id="paint1_linear" x1="14.6145" y1="16.2484" x2="17.3727" y2="16.936" gradientUnits="userSpaceOnUse">
<stop stop-color="#F09819"/>
<stop offset="1" stop-color="#FF5858"/>
</linearGradient>
<linearGradient id="paint2_linear" x1="16.7666" y1="16.2484" x2="22.4029" y2="20.4637" gradientUnits="userSpaceOnUse">
<stop stop-color="#F09819"/>
<stop offset="1" stop-color="#FF5858"/>
</linearGradient>
<linearGradient id="paint3_linear" x1="6.92008" y1="16.2485" x2="12.5566" y2="20.4643" gradientUnits="userSpaceOnUse">
<stop stop-color="#F09819"/>
<stop offset="1" stop-color="#FF5858"/>
</linearGradient>
</defs>
</svg>
