<svg width="32" height="32" viewBox="0 0 32 32" fill="none" xmlns="http://www.w3.org/2000/svg">
<path fill-rule="evenodd" clip-rule="evenodd" d="M0 16C0 7.1776 7.1776 0 16 0C24.8224 0 32 7.1776 32 16C32 24.8224 24.8224 32 16 32C7.1776 32 0 24.8224 0 16ZM2.90909 16C2.90909 23.2183 8.78158 29.0909 16 29.0909C23.2183 29.0909 29.0909 23.2183 29.0909 16C29.0909 8.78167 23.2184 2.90909 16 2.90909C8.78158 2.90909 2.90909 8.78167 2.90909 16Z" fill="#36A236"/>
<path fill-rule="evenodd" clip-rule="evenodd" d="M21.9997 10.3432L13.7714 18.5713L10.0003 14.8001C9.43232 14.2321 8.5113 14.2321 7.94325 14.8C7.3752 15.3681 7.3752 16.289 7.94325 16.857L12.7429 21.6568C13.0156 21.9296 13.3856 22.0829 13.7713 22.0829C13.7714 22.0829 13.7713 22.0829 13.7714 22.0829C14.1572 22.0829 14.5271 21.9296 14.7999 21.6569L24.0567 12.4003C24.6248 11.8322 24.6248 10.9113 24.0567 10.3433C23.4887 9.77523 22.5677 9.77513 21.9997 10.3432Z" fill="#36A236"/>
</svg>
