<svg xmlns="http://www.w3.org/2000/svg" width="35.148" height="31.453" viewBox="0 0 35.148 31.453">
  <path id="Path_19" data-name="Path 19" d="M34.218,0H.921A.884.884,0,0,1,.47-.126.99.99,0,0,1,.126-.452.9.9,0,0,1,0-.912a.9.9,0,0,1,.126-.461L16.766-30.984a.938.938,0,0,1,.343-.343.916.916,0,0,1,.47-.126.916.916,0,0,1,.47.126.811.811,0,0,1,.325.343L35.031-1.373a.836.836,0,0,1,.117.461,1.11,1.11,0,0,1-.117.461.99.99,0,0,1-.343.325A.916.916,0,0,1,34.218,0ZM2.511-1.843H32.646L17.579-28.635ZM17.579-9.25a.887.887,0,0,1-.65-.271.887.887,0,0,1-.271-.65v-9.25a.887.887,0,0,1,.271-.65.887.887,0,0,1,.65-.271.887.887,0,0,1,.65.271.887.887,0,0,1,.271.65v9.25a.887.887,0,0,1-.271.65A.887.887,0,0,1,17.579-9.25Zm0,5.546a.887.887,0,0,1-.65-.271.887.887,0,0,1-.271-.65V-6.468a.908.908,0,0,1,.271-.668.887.887,0,0,1,.65-.271.887.887,0,0,1,.65.271.908.908,0,0,1,.271.668v1.843a.887.887,0,0,1-.271.65A.887.887,0,0,1,17.579-3.7Z" transform="translate(0 31.453)" fill="#f28a22"/>
</svg>
