<?xml version="1.0" encoding="UTF-8"?>
<svg width="16px" height="16px" viewBox="0 0 16 16" version="1.1" xmlns="http://www.w3.org/2000/svg" xmlns:xlink="http://www.w3.org/1999/xlink">
    <!-- Generator: Sketch 52.5 (67469) - http://www.bohemiancoding.com/sketch -->
    <title>ic_14</title>
    <desc>Created with Sketch.</desc>
    <g id="UI-Kit" stroke="none" stroke-width="1" fill="none" fill-rule="evenodd">
        <g transform="translate(-293.000000, -2976.000000)" id="Group-8">
            <g transform="translate(32.000000, 2756.000000)">
                <g id="Category-Selector">
                    <g id="Category#2" transform="translate(261.000000, 88.000000)">
                        <g id="ic_14" transform="translate(0.000000, 132.000000)">
                            <rect id="Rectangle" x="0" y="0" width="16" height="16"></rect>
                            <path d="M14.59375,4.6875 L13.890625,4.6875 L11.78125,1.875 C11.3409688,1.28796875 10.6400312,0.9375 9.90625,0.9375 C9.2991875,0.9375 8.71475,1.1775625 8.28271875,1.591375 L7.94678125,1.03146875 C7.56503125,0.39521875 6.86696875,0 6.125,0 C5.38303125,0 4.68496875,0.39521875 4.304625,1.029125 L2.08015625,4.6875 L1.40625,4.6875 C0.63084375,4.6875 0,5.31834375 0,6.09375 C0,6.7220625 0.41425,7.25534375 0.9839375,7.43509375 C0.9896875,7.4815625 1.77015625,13.7842188 1.77596875,13.8306563 C1.86375,14.5329375 2.463625,15.0625 3.17134375,15.0625 L3.861875,15.0625 C4.055375,15.6080625 4.57640625,16 5.1875,16 C5.79859375,16 6.319625,15.6080625 6.513125,15.0625 L9.51815625,15.0625 C9.71165625,15.6080625 10.2326875,16 10.8437813,16 C11.454875,16 11.9759063,15.6080625 12.1694063,15.0625 L12.8286875,15.0625 C13.536375,15.0625 14.1362813,14.5329375 14.2241563,13.8301562 C14.257625,13.56 14.976625,7.7540625 15.016125,7.43509375 C15.5857813,7.25534375 16,6.7220625 16,6.09375 C16,5.31834375 15.3691562,4.6875 14.59375,4.6875 Z M8.78125,2.4375 C9.04540625,2.08528125 9.46596875,1.875 9.90625,1.875 C10.3465312,1.875 10.7670938,2.08528125 11.03125,2.4375 L12.71875,4.6875 L7.0703125,4.6875 L8.78125,2.4375 Z M5.10709375,1.5138125 C5.32040625,1.15834375 5.7104375,0.9375 6.125,0.9375 C6.5395625,0.9375 6.92959375,1.15834375 7.14290625,1.5138125 L7.6558125,2.3686875 L5.8925625,4.6875 L3.177375,4.6875 L5.10709375,1.5138125 Z M5.65625,14.59375 C5.65625,14.5938125 5.65625,14.5938437 5.65625,14.5939062 C5.65615625,14.8523125 5.4459375,15.0625 5.1875,15.0625 C4.92903125,15.0625 4.71875,14.8522188 4.71875,14.59375 C4.71875,14.3352812 4.92903125,14.125 5.1875,14.125 C5.44590625,14.125 5.65615625,14.3352187 5.65625,14.5935938 C5.65625,14.5936563 5.65625,14.5936875 5.65625,14.59375 Z M10.84375,15.0625 C10.585375,15.0625 10.3751875,14.852375 10.375,14.5940625 C10.375,14.5939688 10.375,14.593875 10.375,14.59375 C10.375,14.593625 10.375,14.5935625 10.375,14.5934375 C10.3751562,14.3350938 10.5853437,14.125 10.84375,14.125 C11.1022188,14.125 11.3125,14.3352812 11.3125,14.59375 C11.3125,14.8522188 11.1022188,15.0625 10.84375,15.0625 Z M13.2937813,13.714375 C13.2645,13.9484687 13.0645312,14.125 12.828625,14.125 L12.169375,14.125 C11.975875,13.5794375 11.4548438,13.1875 10.84375,13.1875 C10.2326562,13.1875 9.711625,13.5794375 9.518125,14.125 L6.513125,14.125 C6.319625,13.5794375 5.79859375,13.1875 5.1875,13.1875 C4.57640625,13.1875 4.055375,13.5794375 3.861875,14.125 L3.17134375,14.125 C2.9354375,14.125 2.73546875,13.9485 2.70628125,13.7149063 L2.524875,12.25 L13.475125,12.25 L13.2937813,13.714375 Z M13.5912187,11.3125 L2.40878125,11.3125 L1.936625,7.5 L14.0633438,7.5 L13.5912187,11.3125 Z M14.59375,6.5625 L1.40625,6.5625 C1.14778125,6.5625 0.9375,6.35221875 0.9375,6.09375 C0.9375,5.83528125 1.14778125,5.625 1.40625,5.625 C2.3441875,5.625 13.9780313,5.625 14.59375,5.625 C14.8522188,5.625 15.0625,5.83528125 15.0625,6.09375 C15.0625,6.35221875 14.8522188,6.5625 14.59375,6.5625 Z" id="Shape" fill="#8B97A9" fill-rule="nonzero"></path>
                        </g>
                    </g>
                </g>
            </g>
        </g>
    </g>
</svg>