<?xml version="1.0" encoding="UTF-8"?>
<svg width="16px" height="11px" viewBox="0 0 16 11" version="1.1" xmlns="http://www.w3.org/2000/svg" xmlns:xlink="http://www.w3.org/1999/xlink">
    <!-- Generator: Sketch 52.5 (67469) - http://www.bohemiancoding.com/sketch -->
    <title>ic_1</title>
    <desc>Created with Sketch.</desc>
    <g id="UI-Kit" stroke="none" stroke-width="1" fill="none" fill-rule="evenodd">
        <g transform="translate(-56.000000, -2852.000000)" id="Group-8">
            <g transform="translate(32.000000, 2756.000000)">
                <g id="Category-Selector">
                    <g id="Category#1" transform="translate(24.000000, 88.000000)">
                        <g id="ic_1" transform="translate(0.000000, 5.000000)">
                            <rect id="Rectangle" x="0" y="0" width="16" height="16"></rect>
                            <path d="M15.3333333,7.20588235 C14.965332,7.20588235 14.6666667,7.49576345 14.6666667,7.85294118 L14.6666667,8.5 L13.3333333,8.5 L13.3333333,7.52941176 C13.3333333,6.81568817 12.7353516,6.23529412 12,6.23529412 L10.3333333,6.23529412 L10.3333333,4.29411765 L11,4.29411765 C11.3680013,4.29411765 11.6666667,4.00423655 11.6666667,3.64705882 C11.6666667,3.2898811 11.3680013,3 11,3 L5,3 C4.63199871,3 4.33333333,3.2898811 4.33333333,3.64705882 C4.33333333,4.00423655 4.63199871,4.29411765 5,4.29411765 L5.66666667,4.29411765 L5.66666667,6.23529412 L4,6.23529412 C3.26464842,6.23529412 2.66666667,6.81568817 2.66666667,7.52941176 L1.33333333,7.52941176 L1.33333333,6.88235294 C1.33333333,6.52517522 1.03466796,6.23529412 0.666666667,6.23529412 C0.298665375,6.23529412 0,6.52517522 0,6.88235294 L0,11.7352941 C0,12.0924718 0.298665375,12.3823529 0.666666667,12.3823529 C1.03466796,12.3823529 1.33333333,12.0924718 1.33333333,11.7352941 L1.33333333,11.0882353 L2.8203125,11.0882353 C2.88264975,11.2049776 2.95833333,11.3160328 3.05696617,11.4117647 L5.33333333,13.620864 C5.58496092,13.8654067 5.91992188,14 6.27636717,14 L12,14 C12.7353516,14 13.3333333,13.4196059 13.3333333,12.7058824 L13.3333333,12.0588235 L14.6666667,12.0588235 L14.6666667,12.7058824 C14.6666667,13.0630601 14.965332,13.3529412 15.3333333,13.3529412 C15.7013346,13.3529412 16,13.0630601 16,12.7058824 L16,7.85294118 C16,7.49576345 15.7013346,7.20588235 15.3333333,7.20588235 Z M7,4.29411765 L9,4.29411765 L9,6.23529412 L7,6.23529412 L7,4.29411765 Z M1.33333333,8.82352941 L2.66666667,8.82352941 L2.66666667,9.79411765 L1.33333333,9.79411765 L1.33333333,8.82352941 Z M12,12.7058824 L6.27636717,12.7058824 L4,10.4967831 L4,7.52941176 L12,7.52941176 L12,12.7058824 Z M13.3333333,10.7647059 L13.3333333,9.79411765 L14.6666667,9.79411765 L14.6666667,10.7647059 L13.3333333,10.7647059 Z" id="Shape" fill="#8B97A9" fill-rule="nonzero"></path>
                        </g>
                    </g>
                </g>
            </g>
        </g>
    </g>
</svg>