<?xml version="1.0" encoding="UTF-8"?>
<svg width="16px" height="18px" viewBox="0 0 16 18" version="1.1" xmlns="http://www.w3.org/2000/svg" xmlns:xlink="http://www.w3.org/1999/xlink">
    <!-- Generator: Sketch 52.5 (67469) - http://www.bohemiancoding.com/sketch -->
    <title>ic_18</title>
    <desc>Created with Sketch.</desc>
    <g id="UI-Kit" stroke="none" stroke-width="1" fill="none" fill-rule="evenodd">
        <g transform="translate(-293.000000, -3103.000000)" id="Group-8">
            <g transform="translate(32.000000, 2756.000000)">
                <g id="Category-Selector">
                    <g id="Category#2" transform="translate(261.000000, 88.000000)">
                        <g id="ic_18" transform="translate(0.000000, 260.000000)">
                            <rect id="Rectangle" x="0" y="0" width="16" height="16"></rect>
                            <path d="M8.74643902,5.61698723 C8.74643902,5.61698723 6.16429268,8.46805106 7.38058537,12.4254979" id="Stroke-1" stroke="#8B97A9" stroke-width="1.0212766" stroke-linecap="round" stroke-linejoin="round"></path>
                            <path d="M8.40497561,10.0425191 C8.40497561,10.0425191 13.3561951,8.55315745 9.08790244,2.89358298 C9.08790244,2.89358298 8.3295122,4.22158298 6.45043902,5.36643404 C5.93517073,5.68064681 5.49980488,6.12285957 5.22492683,6.65937021 C4.72707317,7.63128511 4.57717073,9.11690213 7.03912195,10.3829447" id="Stroke-3" stroke="#8B97A9" stroke-width="1.0212766" stroke-linecap="round" stroke-linejoin="round"></path>
                            <path d="M8,0.170178723 L1.17073171,2.89358298 L1.17073171,7.85051915 C1.17073171,9.25000851 1.74712195,10.5885617 2.76502439,11.5526468 L7.05926829,15.6197106 C7.5864878,16.1191149 8.4135122,16.1191149 8.94073171,15.6197106 L13.2349756,11.5526468 C14.252878,10.5885617 14.8292683,9.25000851 14.8292683,7.85051915 L14.8292683,2.89358298 L8,0.170178723 Z" id="Stroke-5" stroke="#8B97A9" stroke-width="1.0212766" stroke-linecap="round" stroke-linejoin="round"></path>
                        </g>
                    </g>
                </g>
            </g>
        </g>
    </g>
</svg>