<?xml version="1.0" encoding="UTF-8"?>
<svg width="16px" height="14px" viewBox="0 0 16 14" version="1.1" xmlns="http://www.w3.org/2000/svg" xmlns:xlink="http://www.w3.org/1999/xlink">
    <!-- Generator: Sketch 52.5 (67469) - http://www.bohemiancoding.com/sketch -->
    <title>ic_12</title>
    <desc>Created with Sketch.</desc>
    <g id="UI-Kit" stroke="none" stroke-width="1" fill="none" fill-rule="evenodd">
        <g transform="translate(-293.000000, -2914.000000)" id="Group-8">
            <g transform="translate(32.000000, 2756.000000)">
                <g id="Category-Selector">
                    <g id="Category#2" transform="translate(261.000000, 88.000000)">
                        <g id="ic_12" transform="translate(0.000000, 69.000000)">
                            <rect id="Rectangle" x="0" y="0" width="16" height="16"></rect>
                            <path d="M15.795166,6.40063048 C13.7418213,4.9541701 15.5830078,6.25143914 8.27587891,1.10289883 C8.11059569,0.986208189 7.88745119,0.986208189 7.72216797,1.10289883 C0.410766594,6.25431743 2.25805663,4.95285088 0.202880875,6.40063048 C-0.308105469,6.76089638 0.24694825,7.51896586 0.756713875,7.15953947 L1.59912109,6.56589225 L1.59912109,14.5200452 C1.59912109,14.7777721 1.81201172,14.9869278 2.07434081,14.9869278 L13.9237061,14.9869278 C14.1860352,14.9869278 14.3989258,14.7777721 14.3989258,14.5200452 L14.3989258,6.56589225 L15.241333,7.15953947 C15.7490234,7.517047 16.3114014,6.7647341 15.795166,6.40063048 Z M13.4483642,14.0531627 L12.3208008,14.0531627 C12.3208008,13.6559587 12.3208008,6.95026385 12.3208008,6.68510143 C12.3208008,6.42713472 12.1079102,6.21821889 11.8455811,6.21821889 C11.5079346,6.21821889 4.49011231,6.21821889 4.15246581,6.21821889 C3.89013672,6.21821889 3.67724609,6.42713472 3.67724609,6.68510143 L3.67724609,14.0531627 L2.54956056,14.0531627 L2.54956056,5.89645011 L7.99902344,2.05693187 L13.4483642,5.89645011 L13.4483642,14.0531627 Z M4.62768556,8.58669134 L7.52380372,8.58669134 L7.52380372,10.1355709 L4.62768556,10.1355709 L4.62768556,8.58669134 Z M4.62768556,11.0693359 L7.52380372,11.0693359 L7.52380372,11.5705181 L4.62768556,11.5705181 L4.62768556,11.0693359 Z M8.47424316,11.0693359 L11.3703613,11.0693359 L11.3703613,11.5705181 L8.47424316,11.5705181 L8.47424316,11.0693359 Z M11.3703613,10.1355709 L8.47424316,10.1355709 L8.47424316,8.58669134 L11.3703613,8.58669134 L11.3703613,10.1355709 Z M11.3703613,7.65292625 L8.47424316,7.65292625 L8.47424316,7.15210388 L11.3703613,7.15210388 L11.3703613,7.65292625 Z M7.52380372,7.65292625 L4.62768556,7.65292625 L4.62768556,7.15210388 L7.52380372,7.15210388 L7.52380372,7.65292625 Z M4.62768556,12.5042832 L7.52380372,12.5042832 L7.52380372,14.0531627 L4.62768556,14.0531627 L4.62768556,12.5042832 Z M8.47424316,12.5042832 L11.3703613,12.5042832 L11.3703613,14.0531627 L8.47424316,14.0531627 L8.47424316,12.5042832 Z" id="Shape" fill="#8B97A9" fill-rule="nonzero"></path>
                            <path d="M6.58911131,4.46833882 C6.58911131,5.23216488 7.22155762,5.85339569 7.99902344,5.85339569 C8.77648925,5.85339569 9.40893556,5.23216488 9.40893556,4.46833882 C9.40893556,3.70451275 8.77648925,3.08316199 7.99902344,3.08316199 C7.22155763,3.08316199 6.58911131,3.70451275 6.58911131,4.46833882 Z M8.45837403,4.46833882 C8.45837403,4.71731086 8.25244141,4.91963063 7.99902344,4.91963063 C7.74560547,4.91963063 7.53967284,4.71731086 7.53967284,4.46833882 C7.53967284,4.21924686 7.74560547,4.01692708 7.99902344,4.01692708 C8.25244141,4.01692708 8.45837403,4.21924686 8.45837403,4.46833882 Z" id="Shape" fill="#8B97A9" fill-rule="nonzero"></path>
                        </g>
                    </g>
                </g>
            </g>
        </g>
    </g>
</svg>