<?xml version="1.0" encoding="UTF-8"?>
<svg width="17px" height="15px" viewBox="0 0 17 15" version="1.1" xmlns="http://www.w3.org/2000/svg" xmlns:xlink="http://www.w3.org/1999/xlink">
    <!-- Generator: Sketch 52.5 (67469) - http://www.bohemiancoding.com/sketch -->
    <title>ic_11</title>
    <desc>Created with Sketch.</desc>
    <g id="UI-Kit" stroke="none" stroke-width="1" fill="none" fill-rule="evenodd">
        <g transform="translate(-292.000000, -2882.000000)" id="Group-8">
            <g transform="translate(32.000000, 2756.000000)">
                <g id="Category-Selector">
                    <g id="Category#2" transform="translate(261.000000, 88.000000)">
                        <g id="ic_11" transform="translate(0.000000, 37.000000)">
                            <rect id="Rectangle" x="0" y="0" width="16" height="16"></rect>
                            <path d="M11.6860465,8.85107027 C11.6860465,11.1794757 9.81209302,13.0672865 7.5,13.0672865 C5.18825581,13.0672865 3.31395349,11.1794757 3.31395349,8.85107027 C3.31395349,6.52231351 5.18825581,4.63485405 7.5,4.63485405 C9.81209302,4.63485405 11.6860465,6.52231351 11.6860465,8.85107027 Z" id="Stroke-1" stroke="#8B97A9" stroke-width="1.04651163" stroke-linecap="round"></path>
                            <path d="M14.127907,4.28385405 L12.3837209,4.28385405 L11.8451163,2.65604324 C11.7502326,2.36934054 11.4833721,2.17574595 11.1833721,2.17574595 L3.81662791,2.17574595 C3.51662791,2.17574595 3.24976744,2.36934054 3.15488372,2.65604324 L2.61627907,4.28385405 L0.872093023,4.28385405 C0.486976744,4.28385405 0.174418605,4.59866486 0.174418605,4.98655676 L0.174418605,14.1216919 C0.174418605,14.5095838 0.486976744,14.8243946 0.872093023,14.8243946 L14.127907,14.8243946 C14.5130233,14.8243946 14.8255814,14.5095838 14.8255814,14.1216919 L14.8255814,4.98655676 C14.8255814,4.59866486 14.5130233,4.28385405 14.127907,4.28385405 Z" id="Stroke-3" stroke="#8B97A9" stroke-width="1.04651163" stroke-linecap="round"></path>
                            <path d="M9.34433721,7.66318649 C8.93689535,7.26932162 8.27619767,7.26932162 7.86910465,7.66318649 L7.50003488,8.02015946 L7.13131395,7.66353784 C6.72387209,7.26967297 6.06352326,7.26967297 5.6560814,7.66353784 C5.24863953,8.0574027 5.24863953,8.69580811 5.6560814,9.09037568 L7.50003488,10.8734838 L9.34433721,9.09002432 C9.75143023,8.69580811 9.75143023,8.05705135 9.34433721,7.66318649 Z" id="Stroke-5" stroke="#8B97A9" stroke-width="1.04651163" stroke-linecap="round"></path>
                        </g>
                    </g>
                </g>
            </g>
        </g>
    </g>
</svg>