<?xml version="1.0" encoding="UTF-8"?>
<svg width="16px" height="16px" viewBox="0 0 16 16" version="1.1" xmlns="http://www.w3.org/2000/svg" xmlns:xlink="http://www.w3.org/1999/xlink">
    <!-- Generator: Sketch 52.5 (67469) - http://www.bohemiancoding.com/sketch -->
    <title>ic_15</title>
    <desc>Created with Sketch.</desc>
    <g id="UI-Kit" stroke="none" stroke-width="1" fill="none" fill-rule="evenodd">
        <g transform="translate(-293.000000, -3008.000000)" id="Group-8">
            <g transform="translate(32.000000, 2756.000000)">
                <g id="Category-Selector">
                    <g id="Category#2" transform="translate(261.000000, 88.000000)">
                        <g id="ic_15" transform="translate(0.000000, 164.000000)">
                            <rect id="Rectangle" x="0" y="0" width="16" height="16"></rect>
                            <path d="M15.53125,15.0625 L15.0625,15.0625 L15.0625,6.125 C15.0625,5.86608887 14.8526611,5.65625 14.59375,5.65625 L12.21875,5.65625 L12.21875,4.25 C12.21875,3.99108887 12.0089111,3.78125 11.75,3.78125 L11.28125,3.78125 L11.28125,2.375 C11.28125,2.11608887 11.0714111,1.90625 10.8125,1.90625 L9.40625,1.90625 L9.40625,0.46875 C9.40625,0.209838875 9.19641112,0 8.9375,0 C8.67858888,0 8.46875,0.209838875 8.46875,0.46875 L8.46875,1.90625 L7.0625,1.90625 C6.80358887,1.90625 6.59375,2.11608887 6.59375,2.375 L6.59375,3.78125 L6.125,3.78125 C5.86608887,3.78125 5.65625,3.99108887 5.65625,4.25 L5.65625,5.65625 L4.71875,5.65625 L4.71875,4.25 C4.71875,3.99108887 4.50891113,3.78125 4.25,3.78125 C3.99108887,3.78125 3.78125,3.99108887 3.78125,4.25 L3.78125,5.65625 L2.375,5.65625 C2.11608887,5.65625 1.90625,5.86608887 1.90625,6.125 L1.90625,7.53125 L1.40625,7.53125 C1.14733887,7.53125 0.9375,7.74108887 0.9375,8 L0.9375,15.0625 L0.46875,15.0625 C0.209838875,15.0625 0,15.2723389 0,15.53125 C0,15.7901611 0.209838875,16 0.46875,16 L15.53125,16 C15.7901611,16 16,15.7901611 16,15.53125 C16,15.2723389 15.7901611,15.0625 15.53125,15.0625 Z M14.125,6.59375 L14.125,7.53125 L13.65625,7.53125 C13.3973389,7.53125 13.1875,7.74108887 13.1875,8 C13.1875,8.25891113 13.3973389,8.46875 13.65625,8.46875 L14.125,8.46875 L14.125,9.40625 L13.65625,9.40625 C13.3973389,9.40625 13.1875,9.61608888 13.1875,9.875 C13.1875,10.1339111 13.3973389,10.34375 13.65625,10.34375 L14.125,10.34375 L14.125,11.28125 L13.65625,11.28125 C13.3973389,11.28125 13.1875,11.4910889 13.1875,11.75 C13.1875,12.0089111 13.3973389,12.21875 13.65625,12.21875 L14.125,12.21875 L14.125,13.15625 L13.65625,13.15625 C13.3973389,13.15625 13.1875,13.3660889 13.1875,13.625 C13.1875,13.8839111 13.3973389,14.09375 13.65625,14.09375 L14.125,14.09375 L14.125,15.0625 L12.21875,15.0625 L12.21875,6.59375 L14.125,6.59375 Z M7.53125,2.84375 L10.34375,2.84375 L10.34375,3.78125 L7.53125,3.78125 L7.53125,2.84375 Z M6.59375,4.71875 L11.28125,4.71875 L11.28125,15.0625 L10.34375,15.0625 L10.34375,13.625 C10.34375,13.3660889 10.1339111,13.15625 9.875,13.15625 L8,13.15625 C7.74108887,13.15625 7.53125,13.3660889 7.53125,13.625 L7.53125,15.0625 L6.59375,15.0625 L6.59375,4.71875 Z M9.40625,15.0625 L8.46875,15.0625 L8.46875,14.09375 L9.40625,14.09375 L9.40625,15.0625 Z M2.84375,6.59375 L5.65625,6.59375 L5.65625,7.53125 L2.84375,7.53125 L2.84375,6.59375 Z M1.875,8.46875 L5.65625,8.46875 L5.65625,15.0625 L1.875,15.0625 L1.875,8.46875 Z" id="Shape" fill="#8B97A9" fill-rule="nonzero"></path>
                            <path d="M10.34375,11.75 C10.34375,12.0089111 10.1339111,12.21875 9.875,12.21875 C9.61608888,12.21875 9.40625,12.0089111 9.40625,11.75 C9.40625,11.4910889 9.61608888,11.28125 9.875,11.28125 C10.1339111,11.28125 10.34375,11.4910889 10.34375,11.75 Z" id="Path" fill="#8B97A9"></path>
                            <path d="M8.46875,11.75 C8.46875,12.0089111 8.25891112,12.21875 8,12.21875 C7.74108888,12.21875 7.53125,12.0089111 7.53125,11.75 C7.53125,11.4910889 7.74108887,11.28125 8,11.28125 C8.25891113,11.28125 8.46875,11.4910889 8.46875,11.75 Z" id="Path" fill="#8B97A9"></path>
                            <path d="M10.34375,9.875 C10.34375,10.1339111 10.1339111,10.34375 9.875,10.34375 C9.61608888,10.34375 9.40625,10.1339111 9.40625,9.875 C9.40625,9.61608888 9.61608888,9.40625 9.875,9.40625 C10.1339111,9.40625 10.34375,9.61608888 10.34375,9.875 Z" id="Path" fill="#8B97A9"></path>
                            <path d="M8.46875,9.875 C8.46875,10.1339111 8.25891112,10.34375 8,10.34375 C7.74108888,10.34375 7.53125,10.1339111 7.53125,9.875 C7.53125,9.61608888 7.74108887,9.40625 8,9.40625 C8.25891113,9.40625 8.46875,9.61608888 8.46875,9.875 Z" id="Path" fill="#8B97A9"></path>
                            <path d="M10.34375,8 C10.34375,8.25891113 10.1339111,8.46875 9.875,8.46875 C9.61608888,8.46875 9.40625,8.25891112 9.40625,8 C9.40625,7.74108888 9.61608888,7.53125 9.875,7.53125 C10.1339111,7.53125 10.34375,7.74108887 10.34375,8 Z" id="Path" fill="#8B97A9"></path>
                            <path d="M8.46875,8 C8.46875,8.25891113 8.25891112,8.46875 8,8.46875 C7.74108888,8.46875 7.53125,8.25891112 7.53125,8 C7.53125,7.74108888 7.74108887,7.53125 8,7.53125 C8.25891113,7.53125 8.46875,7.74108887 8.46875,8 Z" id="Path" fill="#8B97A9"></path>
                            <path d="M10.34375,6.125 C10.34375,6.38391113 10.1339111,6.59375 9.875,6.59375 C9.61608888,6.59375 9.40625,6.38391113 9.40625,6.125 C9.40625,5.86608887 9.61608888,5.65625 9.875,5.65625 C10.1339111,5.65625 10.34375,5.86608887 10.34375,6.125 Z" id="Path" fill="#8B97A9"></path>
                            <path d="M8.46875,6.125 C8.46875,6.38391113 8.25891112,6.59375 8,6.59375 C7.74108888,6.59375 7.53125,6.38391113 7.53125,6.125 C7.53125,5.86608887 7.74108887,5.65625 8,5.65625 C8.25891113,5.65625 8.46875,5.86608887 8.46875,6.125 Z" id="Path" fill="#8B97A9"></path>
                            <path d="M3.3125,10.34375 L4.25,10.34375 C4.50891113,10.34375 4.71875,10.1339111 4.71875,9.875 C4.71875,9.61608888 4.50891113,9.40625 4.25,9.40625 L3.3125,9.40625 C3.05358887,9.40625 2.84375,9.61608888 2.84375,9.875 C2.84375,10.1339111 3.05358887,10.34375 3.3125,10.34375 Z" id="Path" fill="#8B97A9"></path>
                            <path d="M4.25,11.28125 L3.3125,11.28125 C3.05358887,11.28125 2.84375,11.4910889 2.84375,11.75 C2.84375,12.0089111 3.05358887,12.21875 3.3125,12.21875 L4.25,12.21875 C4.50891113,12.21875 4.71875,12.0089111 4.71875,11.75 C4.71875,11.4910889 4.50891113,11.28125 4.25,11.28125 Z" id="Path" fill="#8B97A9"></path>
                            <path d="M4.25,13.15625 L3.3125,13.15625 C3.05358887,13.15625 2.84375,13.3660889 2.84375,13.625 C2.84375,13.8839111 3.05358887,14.09375 3.3125,14.09375 L4.25,14.09375 C4.50891113,14.09375 4.71875,13.8839111 4.71875,13.625 C4.71875,13.3660889 4.50891113,13.15625 4.25,13.15625 Z" id="Path" fill="#8B97A9"></path>
                        </g>
                    </g>
                </g>
            </g>
        </g>
    </g>
</svg>