<?xml version="1.0" encoding="UTF-8"?>
<svg width="15px" height="16px" viewBox="0 0 15 16" version="1.1" xmlns="http://www.w3.org/2000/svg" xmlns:xlink="http://www.w3.org/1999/xlink">
    <!-- Generator: Sketch 52.5 (67469) - http://www.bohemiancoding.com/sketch -->
    <title>ic_13</title>
    <desc>Created with Sketch.</desc>
    <g id="UI-Kit" stroke="none" stroke-width="1" fill="none" fill-rule="evenodd">
        <g transform="translate(-293.000000, -2944.000000)" id="Group-8">
            <g transform="translate(32.000000, 2756.000000)">
                <g id="Category-Selector">
                    <g id="Category#2" transform="translate(261.000000, 88.000000)">
                        <g id="ic_13" transform="translate(0.000000, 100.000000)">
                            <rect id="Rectangle" x="0" y="0" width="16" height="16"></rect>
                            <path d="M14.2650945,1.70579235 C13.4251563,0.555978142 12.5427092,0.0204590164 11.4880753,0.0204590164 C10.8052652,0.0204590164 10.142677,0.242972678 9.5030642,0.457704918 L9.4818958,0.464786885 C8.79951597,0.692459016 8.15499832,0.907628415 7.45953882,0.907628415 C6.76261647,0.907628415 6.07954824,0.674710383 5.41472269,0.448174863 C4.76254655,0.227759563 4.08825546,0 3.41327597,0 C2.35339294,0 1.49168403,0.546360656 0.701827227,1.71881967 C-0.54065479,3.55742077 0.164786555,5.52629508 0.733837983,7.11414208 C0.987256471,7.82059016 1.22656269,8.48778142 1.22656269,8.99156284 C1.22656269,11.5782295 1.76343126,15.9556721 3.77572034,15.9556721 C5.15287126,15.9556721 5.57658353,14.3298798 5.95141916,12.8914536 C6.34940235,11.377224 6.69403429,10.3053989 7.50841546,10.3053989 C8.21101714,10.3053989 8.47983866,10.9993443 8.85252303,12.6629071 C9.17504,14.1163716 9.57637916,15.925071 11.2689049,15.925071 C13.6305587,15.925071 13.8141042,10.6155191 13.8141042,8.98824044 C13.8141042,8.51060109 14.0454938,7.84900546 14.2905654,7.14850273 L14.3002891,7.12052459 C14.8640914,5.49997814 15.5657466,3.48327869 14.2650945,1.70579235 Z M13.083364,6.68336612 L13.0744148,6.7092459 C12.7910508,7.51930055 12.5234339,8.2844153 12.5234339,8.98815301 C12.5234339,10.5326339 12.3635523,12.0297268 12.0846629,13.0956066 C11.758876,14.3408087 11.3853311,14.6135082 11.2689049,14.6135082 C10.7505371,14.6135082 10.5017654,14.1321967 10.110322,12.3681749 C9.79124706,10.9440874 9.35436908,8.99374863 7.50841546,8.99374863 C5.63991664,8.99374863 5.0991758,11.0508415 4.70265546,12.5597377 C4.48632471,13.3897268 4.15950521,14.6440219 3.77580639,14.6440219 C3.7162595,14.6440219 3.34133782,14.3810273 2.99808269,13.1311913 C2.6926037,12.0190601 2.51749109,10.5101639 2.51749109,8.99138798 C2.51749109,8.25608743 2.24023664,7.48319126 1.94482555,6.6595847 C1.43101849,5.22579235 0.899743193,3.74312568 1.76661513,2.46032787 C2.44839261,1.44795628 2.98164706,1.31147541 3.41327597,1.31147541 C3.87932504,1.31147541 4.42729412,1.49656831 5.00830655,1.69285246 C5.73181849,1.93949727 6.55179294,2.21910383 7.45945277,2.21910383 C8.36134723,2.21910383 9.17065143,1.94911475 9.88461176,1.71086339 L9.90689882,1.70343169 C10.4756921,1.51239344 11.013077,1.33202186 11.4880753,1.33202186 C11.931321,1.33202186 12.4847973,1.46928962 13.2289613,2.48795628 C14.1196692,3.70500546 13.5928686,5.21914754 13.083364,6.68336612 Z" id="Shape" fill="#8B97A9" fill-rule="nonzero"></path>
                        </g>
                    </g>
                </g>
            </g>
        </g>
    </g>
</svg>