<?xml version="1.0" encoding="UTF-8"?>
<svg width="13px" height="16px" viewBox="0 0 13 16" version="1.1" xmlns="http://www.w3.org/2000/svg" xmlns:xlink="http://www.w3.org/1999/xlink">
    <!-- Generator: Sketch 52.5 (67469) - http://www.bohemiancoding.com/sketch -->
    <title>ic_17</title>
    <desc>Created with Sketch.</desc>
    <g id="UI-Kit" stroke="none" stroke-width="1" fill="none" fill-rule="evenodd">
        <g transform="translate(-294.000000, -3073.000000)" id="Group-8">
            <g transform="translate(32.000000, 2756.000000)">
                <g id="Category-Selector">
                    <g id="Category#2" transform="translate(261.000000, 88.000000)">
                        <g id="ic_17" transform="translate(0.000000, 229.000000)">
                            <rect id="Rectangle" x="0" y="0" width="16" height="16"></rect>
                            <circle id="Oval" fill="#8B97A9" cx="6.89375" cy="11.7999688" r="1"></circle>
                            <path d="M7.19540625,12.1218125 C7.18178125,12.1218125 7.16928125,12.1128437 7.165375,12.099125 C7.15659375,12.0684062 7.1485,12.0410937 7.14109375,12.0159687 C7.0925625,11.8520312 7.0704375,11.7771875 7.0704375,11.4655312 C7.0704375,11.4482812 7.0844375,11.4342812 7.1016875,11.4342812 C7.1189375,11.4342812 7.1329375,11.4482812 7.1329375,11.4655312 C7.1329375,11.768125 7.152875,11.8354688 7.20103125,11.9982187 C7.2085,12.0235 7.21665625,12.051 7.22546875,12.0819375 C7.23021875,12.0985312 7.22059375,12.1158125 7.204,12.1205625 C7.20115625,12.1214062 7.19825,12.1218125 7.19540625,12.1218125 Z" id="Path" fill="#8B97A9"></path>
                            <path d="M6.56496875,12.1218125 C6.562125,12.1218125 6.55925,12.1214062 6.556375,12.1205937 C6.53978125,12.115875 6.53015625,12.0985625 6.53490625,12.0819687 C6.54371875,12.0510312 6.551875,12.0235312 6.55934375,11.99825 C6.6075,11.8355 6.6274375,11.7681563 6.6274375,11.4655625 C6.6274375,11.4483125 6.6414375,11.4343125 6.6586875,11.4343125 C6.6759375,11.4343125 6.6899375,11.4483125 6.6899375,11.4655625 C6.6899375,11.7772188 6.6678125,11.8520313 6.61928125,12.016 C6.61184375,12.041125 6.60375,12.0684375 6.595,12.0991563 C6.59109375,12.1128437 6.5785625,12.1218125 6.56496875,12.1218125 Z" id="Path" fill="#8B97A9"></path>
                            <path d="M7.25246875,12.1592812 L6.50246875,12.1592812 C6.48521875,12.1592812 6.47121875,12.1368813 6.47121875,12.1092813 C6.47121875,12.0816812 6.48521875,12.0592812 6.50246875,12.0592812 L7.25246875,12.0592812 C7.26971875,12.0592812 7.28371875,12.0816812 7.28371875,12.1092813 C7.28371875,12.1368813 7.26971875,12.1592812 7.25246875,12.1592812 Z" id="Path" fill="#8B97A9"></path>
                            <path d="M7.1016875,11.5342812 L6.65871875,11.5342812 C6.64146875,11.5342812 6.62746875,11.5118813 6.62746875,11.4842813 C6.62746875,11.4566812 6.64146875,11.4342812 6.65871875,11.4342812 L7.1016875,11.4342812 C7.1189375,11.4342812 7.1329375,11.4566812 7.1329375,11.4842813 C7.1329375,11.5118813 7.1189375,11.5342812 7.1016875,11.5342812 Z" id="Path" fill="#8B97A9"></path>
                            <path d="M6.96875,11.7811875 C6.96875,11.7819063 6.9685625,11.7825625 6.96853125,11.78325 L7.02790625,11.78325 C7.02703125,11.7278437 6.99628125,11.67975 6.951,11.6543438 L6.92403125,11.7016563 C6.95078125,11.718125 6.96875,11.7474375 6.96875,11.7811875 Z" id="Path" fill="#8B97A9"></path>
                            <path d="M7.0279375,11.8145 L6.9685625,11.8145 C6.96015625,11.8145 6.95209375,11.811125 6.94621875,11.8050937 C6.94034375,11.7990937 6.93715625,11.7909687 6.9373125,11.7825625 C6.93734375,11.7818437 6.93740625,11.7807812 6.9375,11.77975 C6.93703125,11.7586875 6.9259375,11.7395 6.90765625,11.72825 C6.8933125,11.7194062 6.8885625,11.7007812 6.89690625,11.6861562 L6.92390625,11.6388437 C6.93240625,11.6239375 6.95134375,11.6186562 6.96634375,11.6270625 C7.02259375,11.658625 7.05815625,11.7182812 7.05921875,11.7827187 C7.05934375,11.7910937 7.056125,11.7991562 7.05025,11.8051562 C7.04434375,11.8111562 7.0363125,11.8145 7.0279375,11.8145 Z" id="Path" fill="#8B97A9"></path>
                            <path d="M6.875,11.8795245 C6.8591875,11.8795245 6.84453125,11.8737779 6.83146875,11.8645497 L6.801875,11.9342645 C6.824125,11.9516302 6.849875,11.9617812 6.87746875,11.9617812 C6.9050625,11.9617812 6.9308125,11.9516722 6.9530625,11.9342645 L6.92228125,11.8617812 C6.90834375,11.8727712 6.89234375,11.8795245 6.875,11.8795245 Z" id="Path" fill="#8B97A9"></path>
                            <path d="M6.87746875,11.9675 C6.84553125,11.9675 6.8139375,11.9589375 6.78615625,11.94275 C6.77134375,11.934125 6.76625,11.9151562 6.77475,11.90025 L6.804375,11.8483125 C6.81271875,11.8336875 6.83115625,11.82825 6.846125,11.8361562 C6.866125,11.84675 6.887375,11.8460312 6.90646875,11.8348125 C6.91365625,11.8305937 6.9223125,11.8294375 6.930375,11.8315625 C6.93846875,11.8337187 6.94534375,11.839 6.94946875,11.8462812 L6.98025,11.9002812 C6.98875,11.9151875 6.98365625,11.934125 6.96884375,11.94275 C6.941,11.9589375 6.9094375,11.9675 6.87746875,11.9675 Z" id="Path" fill="#8B97A9"></path>
                            <path d="M6.78125,11.7811875 C6.78125,11.7459062 6.80090625,11.7155625 6.82971875,11.6995938 L6.80390625,11.6543438 C6.758625,11.67975 6.727875,11.7278437 6.727,11.78325 L6.78146875,11.78325 C6.7814375,11.7825625 6.78125,11.7819063 6.78125,11.7811875 Z" id="Path" fill="#8B97A9"></path>
                            <path d="M6.78146875,11.8145 L6.727,11.8145 C6.718625,11.8145 6.71059375,11.8111562 6.70471875,11.8051875 C6.69884375,11.7992188 6.69559375,11.791125 6.69575,11.78275 C6.69678125,11.7183125 6.732375,11.6586562 6.788625,11.6270938 C6.803625,11.6186563 6.8225625,11.6239687 6.8310625,11.638875 L6.856875,11.684125 C6.861,11.691375 6.86209375,11.7 6.8598125,11.7080312 C6.8575625,11.7160625 6.8521875,11.722875 6.844875,11.7269375 C6.82534375,11.7377812 6.81303125,11.7579687 6.81253125,11.7798125 C6.812625,11.7808125 6.8126875,11.781875 6.81271875,11.7825625 C6.812875,11.7909688 6.8096875,11.7990938 6.8038125,11.8050938 C6.7979375,11.811125 6.789875,11.8145 6.78146875,11.8145 Z" id="Path" fill="#8B97A9"></path>
                            <path d="M6.96071875,10.551 C6.96071875,10.827125 7.183875,11.051375 7.46071875,11.051375 C7.73721875,11.051375 7.96071875,10.827125 7.96071875,10.551 C7.96071875,10.274875 7.73721875,10.051375 7.46071875,10.051375 C7.18384375,10.0513438 6.96071875,10.274875 6.96071875,10.551 Z" id="Path" fill="#8B97A9"></path>
                            <path d="M13.4999063,15 L12.9632812,15 C12.8626875,14.5 12.7659063,14.323375 12.6771563,14.0230938 C11.9066562,11.419125 11.5875625,10.3415 11.5875625,5.5 C11.5875625,5.223875 11.3636875,5 11.0875625,5 L4.0000625,5 C3.7239375,5 3.5000625,5.22384375 3.5000625,5.4999375 C3.5000625,10.3414062 3.18096875,11.419125 2.41046875,14.0230938 C2.32171875,14.323375 2.2249375,14.4999688 2.12434375,14.9999688 L1.50009375,14.9999688 C1.22396875,14.9999688 1.00009375,15.2238438 1.00009375,15.4999688 C1.00009375,15.7760938 1.22396875,15.9999688 1.50009375,15.9999688 L2.498625,15.9999688 C2.49925,15.9999688 2.49971875,15.9999688 2.50034375,15.9999688 C2.50084375,15.9999688 2.5013125,15.9999688 2.5018125,15.9999688 L12.585875,15.9999688 C12.586375,15.9999688 12.5868437,15.9999688 12.5873438,15.9999688 C12.5879687,15.9999688 12.5884375,15.9999688 12.5890625,15.9999688 L13.4999375,15.9999688 C13.7760625,15.9999688 13.9999375,15.7760938 13.9999375,15.4999688 C13.9999063,15.223875 13.7760313,15 13.4999063,15 Z M3.3694375,14.3068438 C4.11859375,11.7755 4.4736875,10.5 4.49771875,6 L10.5899063,6 C10.6139687,10.5 10.9690625,11.7755 11.7181875,14.3068125 C11.782875,14.5254375 11.8513125,15 11.9222812,15 L3.16534375,15 C3.23634375,15 3.30475,14.5254687 3.3694375,14.3068438 Z" id="Shape" fill="#8B97A9" fill-rule="nonzero"></path>
                            <path d="M5.00003125,4.4999375 C5.27615625,4.4999375 5.50003125,4.2760625 5.50003125,3.9999375 C5.50003125,3.7238125 5.27615625,3.4999375 5.00003125,3.4999375 C4.72440625,3.4999375 4.50003125,3.2755625 4.50003125,2.9999375 C4.49978125,2.63715625 4.9148125,2.3698125 5.2536875,2.5734375 C5.40384375,2.66328125 5.589375,2.6674375 5.74390625,2.586875 C5.8984375,2.50534375 5.99928125,2.34909375 6.00978125,2.17478125 C6.04984375,1.51609375 6.5945,1 7.25,1 C7.8141875,1 8.3088125,1.38428125 8.45309375,1.9345625 C8.49678125,2.1015625 8.62375,2.234125 8.78853125,2.285375 C8.9533125,2.336875 9.133,2.2990625 9.263625,2.18625 C9.362,2.10128125 9.5260625,1.99996875 9.7499375,1.99996875 C10.1635,1.99996875 10.4999375,2.33640625 10.4999375,2.74996875 C10.4999375,3.16353125 10.1635313,3.49996875 9.7499375,3.49996875 C9.4738125,3.49996875 9.2499375,3.72384375 9.2499375,3.99996875 C9.2499375,4.27609375 9.4738125,4.49996875 9.7499375,4.49996875 C10.71475,4.49996875 11.4999063,3.7148125 11.4999063,2.75 C11.4999063,1.7851875 10.71475,1.00003125 9.7499375,1.00003125 C9.554125,1.00003125 9.36053125,1.03396875 9.1769375,1.09915625 C8.77953125,0.43065625 8.0539375,2.13162821e-14 7.25,2.13162821e-14 C6.27859375,2.13162821e-14 5.44190625,0.62596875 5.1338125,1.5063125 C4.26809375,1.42575 3.5000625,2.128375 3.5000625,2.9999375 C3.5000625,3.82709375 4.17290625,4.4999375 5.00003125,4.4999375 Z" id="Path" fill="#8B97A9"></path>
                            <path d="M8.921625,8.08484375 C8.681875,7.9500625 8.37890625,8.03478125 8.2426875,8.2730625 L7.8108125,9.029875 C7.67728125,9.264 7.7534375,9.56209375 7.9829375,9.7034375 C8.27565625,9.883625 8.45290625,10.1905 8.46046875,10.5274063 C8.45875,10.54375 8.45778125,10.5605938 8.45728125,10.5723125 C8.45459375,10.7068438 8.505875,10.7952813 8.599875,10.89125 C8.693875,10.9874375 8.82278125,10.9999688 8.95728125,10.9999688 L9.90746875,10.9999688 C10.0415,10.9999688 10.1699063,10.9879062 10.2639063,10.8924688 C10.3579063,10.79675 10.4096563,10.6884375 10.4074688,10.5544063 C10.3908125,9.52321875 9.8215,8.58996875 8.921625,8.08484375 Z" id="Path" fill="#8B97A9"></path>
                            <path d="M8.65134375,11.5920937 C8.5851875,11.475625 8.4750625,11.3909375 8.3456875,11.3565 C8.21678125,11.3225625 8.07859375,11.341125 7.963375,11.40875 C7.6581875,11.5886875 7.318125,11.5999063 6.9980625,11.4304687 C6.7585625,11.304 6.46365625,11.3906875 6.33009375,11.6248125 L5.85621875,12.455625 C5.72021875,12.6941562 5.80178125,12.997375 6.03884375,13.1355625 C6.48365625,13.3943437 6.98878125,13.5313125 7.5,13.5313125 C8.01146875,13.5313125 8.51684375,13.3943437 8.96115625,13.1355625 C9.19821875,12.997375 9.27975,12.6941562 9.14378125,12.455875 L8.65134375,11.5920937 Z" id="Path" fill="#8B97A9"></path>
                            <path d="M6.3215625,10.8912813 C6.4155625,10.7953438 6.4668125,10.6860313 6.46415625,10.5515313 C6.46365625,10.5403125 6.4624375,10.533875 6.46096875,10.51775 C6.46903125,10.1679062 6.6658125,9.85034375 6.97853125,9.67678125 C7.09546875,9.61209375 7.18140625,9.5055625 7.21753125,9.37690625 C7.25365625,9.24825 7.2365625,9.11184375 7.17040625,8.99565625 L6.7575625,8.2724375 C6.6215625,8.03415625 6.31884375,7.94978125 6.078625,8.08453125 C5.1785,8.58965625 4.60915625,9.54415625 4.5925625,10.575125 C4.590375,10.7091562 4.642125,10.7967188 4.736125,10.8924375 C4.830125,10.9879062 4.95853125,11.0000312 5.0925625,11.0000312 L5.964125,11.0000312 C6.09865625,11 6.2275625,10.9874687 6.3215625,10.8912812 Z" id="Path" fill="#8B97A9"></path>
                        </g>
                    </g>
                </g>
            </g>
        </g>
    </g>
</svg>