<?xml version="1.0" encoding="UTF-8"?>
<svg width="16px" height="16px" viewBox="0 0 16 16" version="1.1" xmlns="http://www.w3.org/2000/svg" xmlns:xlink="http://www.w3.org/1999/xlink">
    <!-- Generator: Sketch 52.5 (67469) - http://www.bohemiancoding.com/sketch -->
    <title>ic_27</title>
    <desc>Created with Sketch.</desc>
    <g id="UI-Kit" stroke="none" stroke-width="1" fill="none" fill-rule="evenodd">
        <g transform="translate(-530.000000, -3104.000000)" id="Group-8">
            <g transform="translate(32.000000, 2756.000000)">
                <g id="Category-Selector">
                    <g id="Category#3" transform="translate(498.000000, 88.000000)">
                        <g id="ic_27" transform="translate(0.000000, 260.000000)">
                            <rect id="Rectangle" x="0" y="0" width="16" height="16"></rect>
                            <path d="M16,2.79943847 L16,2.36193847 C16,2.22386728 15.8880712,2.11193847 15.75,2.11193847 L12.0491943,2.11193847 C11.9111232,2.11193847 11.7991943,2.00000966 11.7991943,1.86193847 L11.7991943,1.1875 C11.7991943,1.04942881 11.9111232,0.9375 12.0491943,0.9375 L12.4375,0.9375 C12.5755712,0.9375 12.6875,0.825571187 12.6875,0.6875 L12.6875,0.25 C12.6875,0.111928813 12.5755712,-2.53632657e-17 12.4375,0 L0.25,0 C0.111928813,2.53632657e-17 -1.69088438e-17,0.111928813 0,0.25 L0,0.6875 C1.69088438e-17,0.825571187 0.111928813,0.9375 0.25,0.9375 L0.596557625,0.9375 C0.734628812,0.9375 0.846557625,1.04942881 0.846557625,1.1875 L0.846557625,14.8125 C0.846557625,14.9505712 0.734628812,15.0625 0.596557625,15.0625 L0.25,15.0625 C0.111928813,15.0625 -1.69088438e-17,15.1744288 0,15.3125 L0,15.75 C1.69088438e-17,15.8880712 0.111928813,16 0.25,16 L15.75,16 C15.8880712,16 16,15.8880712 16,15.75 L16,15.3125 C16,15.1744288 15.8880712,15.0625 15.75,15.0625 L15.4063721,15.0625 C15.2683009,15.0625 15.1563721,14.9505712 15.1563721,14.8125 L15.1563721,3.29943847 C15.1563721,3.16136728 15.2683009,3.04943847 15.4063721,3.04943847 L15.75,3.04943847 C15.8880712,3.04943847 16,2.93750966 16,2.79943847 Z M2.03405763,0.9375 L10.6116943,0.9375 C10.7497655,0.9375 10.8616943,1.04942881 10.8616943,1.1875 L10.8616943,14.8125 C10.8616943,14.9505712 10.7497655,15.0625 10.6116943,15.0625 L9.86157225,15.0625 C9.72350106,15.0625 9.61157225,14.9505712 9.61157225,14.8125 L9.61157225,11.5760498 C9.61157225,11.4379786 9.72350106,11.3260498 9.86157225,11.3260498 L9.93334963,11.3260498 C10.0714208,11.3260498 10.1833496,11.214121 10.1833496,11.0760498 L10.1833496,10.6385498 C10.1833496,10.5004786 10.0714208,10.3885498 9.93334963,10.3885498 L2.71240234,10.3885498 C2.57433116,10.3885498 2.46240234,10.5004786 2.46240234,10.6385498 L2.46240234,11.0760498 C2.46240234,11.214121 2.57433116,11.3260498 2.71240234,11.3260498 L2.78417969,11.3260498 C2.92225087,11.3260498 3.03417969,11.4379786 3.03417969,11.5760498 L3.03417969,14.8125 C3.03417969,14.9505712 2.92225087,15.0625 2.78417969,15.0625 L2.03405763,15.0625 C1.89598644,15.0625 1.78405763,14.9505712 1.78405763,14.8125 L1.78405763,1.1875 C1.78405763,1.04942881 1.89598644,0.9375 2.03405763,0.9375 Z M6.54895019,15.0625 L6.09680175,15.0625 C5.95873056,15.0625 5.84680175,14.9505712 5.84680175,14.8125 L5.84680175,13.3659668 C5.84680175,13.2278956 5.95873056,13.1159668 6.09680175,13.1159668 L6.54895019,13.1159668 C6.68702137,13.1159668 6.79895019,13.2278956 6.79895019,13.3659668 L6.79895019,14.8125 C6.79895019,14.9505712 6.68702137,15.0625 6.54895019,15.0625 Z M4.90930175,12.4284668 L4.90930175,14.8125 C4.90930175,14.9505712 4.79737294,15.0625 4.65930175,15.0625 L4.22167969,15.0625 C4.0836085,15.0625 3.97167969,14.9505712 3.97167969,14.8125 L3.97167969,11.5760498 C3.97167969,11.4379786 4.0836085,11.3260498 4.22167969,11.3260498 L8.42407225,11.3260498 C8.56214344,11.3260498 8.67407225,11.4379786 8.67407225,11.5760498 L8.67407225,14.8125 C8.67407225,14.9505712 8.56214344,15.0625 8.42407225,15.0625 L7.98645019,15.0625 C7.848379,15.0625 7.73645019,14.9505712 7.73645019,14.8125 L7.73645019,12.4284668 C7.73645019,12.2903956 7.62452137,12.1784668 7.48645019,12.1784668 L5.15930175,12.1784668 C5.02123056,12.1784668 4.90930175,12.2903956 4.90930175,12.4284668 Z M13.9688721,15.0625 L12.0491943,15.0625 C11.9111232,15.0625 11.7991943,14.9505712 11.7991943,14.8125 L11.7991943,11.0068359 C11.7991943,10.8687648 11.9111232,10.7568359 12.0491943,10.7568359 L12.75,10.7568359 C12.8880712,10.7568359 13,10.6449071 13,10.5068359 L13,10.0693359 C13,9.93126475 12.8880712,9.81933594 12.75,9.81933594 L12.0491943,9.81933594 C11.9111232,9.81933594 11.7991943,9.70740712 11.7991943,9.56933594 L11.7991943,9.13183594 C11.7991943,8.99376475 11.9111232,8.88183594 12.0491943,8.88183594 L12.75,8.88183594 C12.8880712,8.88183594 13,8.76990712 13,8.63183594 L13,8.19433594 C13,8.05626475 12.8880712,7.94433594 12.75,7.94433594 L12.0491943,7.94433594 C11.9111232,7.94433594 11.7991943,7.83240712 11.7991943,7.69433594 L11.7991943,7.25671387 C11.7991943,7.11864269 11.9111232,7.00671387 12.0491943,7.00671387 L12.75,7.00671388 C12.8880712,7.00671388 13,6.89478506 13,6.75671388 L13,6.31921388 C13,6.18114269 12.8880712,6.06921388 12.75,6.06921388 L12.0491943,6.06921388 C11.9111232,6.06921388 11.7991943,5.95728506 11.7991943,5.81921388 L11.7991943,5.38159181 C11.7991943,5.24352063 11.9111232,5.13159181 12.0491943,5.13159181 L12.75,5.13159181 C12.8880712,5.13159181 13,5.019663 13,4.88159181 L13,4.44409181 C13,4.30602063 12.8880712,4.19409181 12.75,4.19409181 L12.0491943,4.19409181 C11.9111232,4.19409181 11.7991943,4.082163 11.7991943,3.94409181 L11.7991943,3.29943847 C11.7991943,3.16136728 11.9111232,3.04943847 12.0491943,3.04943847 L13.9688721,3.04943847 C14.1069432,3.04943847 14.2188721,3.16136728 14.2188721,3.29943847 L14.2188721,14.8125 C14.2188721,14.9505712 14.1069432,15.0625 13.9688721,15.0625 Z" id="Shape" fill="#8B97A9" fill-rule="nonzero"></path>
                            <path d="M9.5217285,2.02148438 L3.16564941,2.02148438 C3.02757822,2.02148438 2.91564941,2.13341319 2.91564941,2.27148438 L2.91564941,8.50134278 C2.91564941,8.63941397 3.02757822,8.75134278 3.16564941,8.75134278 L9.5217285,8.75134278 C9.65979969,8.75134278 9.7717285,8.63941397 9.7717285,8.50134278 L9.7717285,2.27148438 C9.7717285,2.13341319 9.65979969,2.02148438 9.5217285,2.02148438 Z M8.5842285,7.81384278 L4.10314941,7.81384278 C3.96507822,7.81384278 3.85314941,7.70191397 3.85314941,7.56384278 L3.85314941,3.20898438 C3.85314941,3.07091319 3.96507822,2.95898438 4.10314941,2.95898438 L8.5842285,2.95898438 C8.72229969,2.95898438 8.8342285,3.07091319 8.8342285,3.20898438 L8.8342285,7.56384278 C8.8342285,7.70191397 8.72229969,7.81384278 8.5842285,7.81384278 Z" id="Shape" fill="#8B97A9" fill-rule="nonzero"></path>
                            <polygon id="Path" fill="#8B97A9" points="5.928833 5.85522462 6.758667 5.85522462 6.758667 6.91674806 7.696167 6.91674806 7.696167 3.85607909 6.758667 3.85607909 6.758667 4.91772462 5.928833 4.91772462 5.928833 3.85607909 4.991333 3.85607909 4.991333 6.91674806 5.928833 6.91674806"></polygon>
                        </g>
                    </g>
                </g>
            </g>
        </g>
    </g>
</svg>