<?xml version="1.0" encoding="UTF-8"?>
<svg width="16px" height="16px" viewBox="0 0 16 16" version="1.1" xmlns="http://www.w3.org/2000/svg" xmlns:xlink="http://www.w3.org/1999/xlink">
    <!-- Generator: Sketch 52.5 (67469) - http://www.bohemiancoding.com/sketch -->
    <title>ic_26</title>
    <desc>Created with Sketch.</desc>
    <g id="UI-Kit" stroke="none" stroke-width="1" fill="none" fill-rule="evenodd">
        <g transform="translate(-530.000000, -3073.000000)" id="Group-8">
            <g transform="translate(32.000000, 2756.000000)">
                <g id="Category-Selector">
                    <g id="Category#3" transform="translate(498.000000, 88.000000)">
                        <g id="ic_26" transform="translate(0.000000, 229.000000)">
                            <rect id="Rectangle" x="0" y="0" width="16" height="16"></rect>
                            <path d="M15.8269043,14.2579346 C15.4219971,14.3339844 15.1225586,14.4938965 14.7976074,14.7105713 C14.7950439,14.7122803 14.7924805,14.7138672 14.789917,14.7155762 C13.8459473,13.2596436 12.4405518,12.1885986 10.835083,11.6560059 L11.6005859,8.25244141 L15.75354,9.08300781 L15.8603516,8.64697266 C15.9494629,8.282959 15.9946289,7.90673828 15.9946289,7.52880859 C15.9946289,4.94494628 13.8925781,2.84277344 11.3087158,2.84277344 C10.1826172,2.84277344 9.09411622,3.24816894 8.24353028,3.98425294 C7.40197753,4.7126465 6.84570313,5.71667481 6.67749025,6.81140138 L6.609375,7.25415038 L10.6812744,8.0686035 L9.92822266,11.4173584 C9.46105956,11.3254394 8.98217775,11.2774658 8.49719238,11.2774658 C7.10546875,11.2774658 5.741333,11.6647949 4.55236816,12.3973389 C3.48925781,13.0524903 2.60729981,13.9553223 1.9852295,15.0212403 C1.72021484,14.9702148 1.46276856,14.8668213 1.22839356,14.7105713 C0.855712875,14.4621582 0.540405281,14.3267822 0.17407225,14.2579346 L0.0009765625,15.1789551 C0.238891594,15.2237549 0.443847656,15.3139648 0.708496094,15.4903564 C1.70788575,16.1566162 3.04052734,16.1566162 4.039917,15.4903564 C4.736084,15.0263672 5.63562013,15.0201416 6.33166503,15.4841309 C6.8376465,15.8214111 7.41735841,15.9901123 7.99743653,15.9901123 C8.5772705,15.9899903 9.15722656,15.8214111 9.66308594,15.4841309 C10.3577881,15.0209961 11.2912598,15.0209961 11.9859619,15.4841309 C12.4920654,15.8215332 13.0717773,15.9901123 13.6517334,15.9901123 C14.2315674,15.9901123 14.8115234,15.8276367 15.3175049,15.4904785 C15.5655518,15.3250733 15.7476807,15.2264404 16,15.1790772 L15.8269043,14.2579346 Z M12.4932861,4.28283691 C13.1448975,4.84338378 13.4807129,6.154541 13.2521973,7.55041503 C13.2481689,7.57507325 13.2436523,7.59973144 13.2392578,7.62438966 L11.8062744,7.33776856 L12.4932861,4.28283691 Z M15.0574951,7.52880859 C15.0574951,7.68078613 15.0483398,7.83251953 15.0302734,7.982666 L14.1584473,7.80822753 C14.1647949,7.77282716 14.1712647,7.73730469 14.177124,7.70178222 C14.3416748,6.69677734 14.2652588,5.70410156 13.9630127,4.88403319 C14.6390381,5.5625 15.0574951,6.49768066 15.0574951,7.52880859 Z M9.80603028,4.09948731 C9.234375,4.76928712 8.82421875,5.68908691 8.64367675,6.70532225 L7.69860841,6.51635744 C8.00512694,5.42846681 8.79663087,4.54675294 9.80603028,4.09948731 Z M9.56225588,6.88903809 C9.82922363,5.35705566 10.706665,4.15063475 11.5938721,4.01062012 L10.8869629,7.15393066 L9.56225588,6.88903809 Z M12.5058594,14.7043457 C11.5002441,14.0339356 10.1488037,14.0339356 9.14318847,14.7043457 C8.44714356,15.168335 7.54760744,15.168335 6.85144044,14.7043457 C5.83959963,14.0297852 4.53198244,14.0360107 3.52001953,14.7105713 C3.41467284,14.7808838 3.3046875,14.84021 3.19140625,14.8891602 C4.42431641,13.2188721 6.37927247,12.2147217 8.49719238,12.2147217 C10.6463623,12.2147217 12.6583252,13.2856445 13.8826904,15.0455322 C13.4089356,15.098999 12.9212647,14.9812012 12.5058594,14.7043457 Z" id="Shape" fill="#8B97A9" fill-rule="nonzero"></path>
                            <path d="M3.28015137,4.68591309 C4.05529784,4.68591309 4.68591309,4.05529784 4.68591309,3.28015137 C4.68591309,2.50500488 4.05529784,1.87438966 3.28015137,1.87438966 C2.50500488,1.87438966 1.87438966,2.50500488 1.87438966,3.28015137 C1.87438966,4.05529784 2.50500488,4.68591309 3.28015137,4.68591309 Z M3.28015137,2.81152344 C3.53857422,2.81152344 3.74877931,3.02185059 3.74877931,3.28015137 C3.74877931,3.53857422 3.53857422,3.74877931 3.28015137,3.74877931 C3.0217285,3.74877931 2.81152344,3.53857422 2.81152344,3.28015137 C2.81152344,3.02185059 3.0217285,2.81152344 3.28015137,2.81152344 Z" id="Shape" fill="#8B97A9" fill-rule="nonzero"></path>
                            <polygon id="Path" fill="#8B97A9" points="2.81152344 0 3.74877931 0 3.74877931 0.937255875 2.81152344 0.937255875"></polygon>
                            <polygon id="Path" fill="#8B97A9" points="2.81152344 5.62316894 3.74877931 5.62316894 3.74877931 6.56030275 2.81152344 6.56030275"></polygon>
                            <polygon id="Path" fill="#8B97A9" points="0 2.81152344 0.937133781 2.81152344 0.937133781 3.74877931 0 3.74877931"></polygon>
                            <polygon id="Path" fill="#8B97A9" points="5.62316894 2.81152344 6.56030275 2.81152344 6.56030275 3.74877931 5.62316894 3.74877931"></polygon>
                            <polygon id="Path" fill="#8B97A9" points="1.29211425 5.93103028 0.629394531 5.26831056 1.29211425 4.60571288 1.95471191 5.26831056"></polygon>
                            <polygon id="Path" fill="#8B97A9" points="5.26818847 0.629394531 5.93090819 1.29211425 5.26818847 1.95471191 4.60546875 1.29211425"></polygon>
                            <polygon id="Path" fill="#8B97A9" points="5.26806641 5.93103028 4.60546875 5.26831056 5.26806641 4.60571288 5.93078613 5.26831056"></polygon>
                            <polygon id="Path" fill="#8B97A9" points="1.29211425 0.629394531 1.954834 1.29211425 1.29211425 1.954834 0.629394531 1.29211425"></polygon>
                        </g>
                    </g>
                </g>
            </g>
        </g>
    </g>
</svg>