<?xml version="1.0" encoding="UTF-8"?>
<svg width="16px" height="12px" viewBox="0 0 16 12" version="1.1" xmlns="http://www.w3.org/2000/svg" xmlns:xlink="http://www.w3.org/1999/xlink">
    <!-- Generator: Sketch 52.5 (67469) - http://www.bohemiancoding.com/sketch -->
    <title>ic_21</title>
    <desc>Created with Sketch.</desc>
    <g id="UI-Kit" stroke="none" stroke-width="1" fill="none" fill-rule="evenodd">
        <g transform="translate(-530.000000, -2915.000000)" id="Group-8">
            <g transform="translate(32.000000, 2756.000000)">
                <g id="Category-Selector">
                    <g id="Category#3" transform="translate(498.000000, 88.000000)">
                        <g id="ic_21" transform="translate(0.000000, 69.000000)">
                            <rect id="Rectangle" x="0" y="0" width="16" height="16"></rect>
                            <path d="M13.8887417,6.23354386 L13.1798322,2.38350877 C13.1414746,2.17515789 12.9587285,2.02382456 12.7455364,2.02382456 L7.30624283,2.02382456 C7.1036468,2.02382456 6.92704636,2.16080702 6.87791611,2.35603509 L6.04319647,5.67294737 L4.2157351,5.67294737 L4.2157351,2.46242105 C4.2157351,2.22017544 4.01804857,2.02382456 3.774234,2.02382456 C3.53041943,2.02382456 3.33273289,2.22017544 3.33273289,2.46242105 L3.33273289,5.67294737 L0.900591611,5.67294737 C0.767540839,5.67294737 0.641589404,5.7325614 0.557739514,5.83519298 C0.473889625,5.93782456 0.441147903,6.0725614 0.468556291,6.20189474 L1.04575717,8.92568421 C0.407417219,9.45063158 -2.84217094e-14,10.2434737 -2.84217094e-14,11.1290877 C-2.84217094e-14,12.7058947 1.29133775,13.9887368 2.8785872,13.9887368 C4.46583664,13.9887368 5.75717439,12.7058947 5.75717439,11.1290877 C5.75717439,11.0760702 5.75544371,11.0234737 5.75258278,10.9711579 L7.76653422,10.9711579 C8.26673731,12.711193 9.88196026,13.9887368 11.7919294,13.9887368 C14.0997792,13.9887368 15.9773598,12.1235088 15.9773598,9.83084211 C15.9773245,8.29670175 15.1364945,6.95410526 13.8887417,6.23354386 Z M12.8878764,5.67294737 L10.9971921,5.67294737 L10.9971921,2.90101754 L12.3774658,2.90101754 L12.8878764,5.67294737 Z M7.65096689,2.90101754 L10.1141898,2.90101754 L10.1141898,5.67294737 L6.95339514,5.67294737 L7.65096689,2.90101754 Z M2.8785872,13.1115439 C1.77822517,13.1115439 0.883002208,12.2222105 0.883002208,11.1290877 C0.883002208,10.0359649 1.77822517,9.14663158 2.8785872,9.14663158 C3.97894923,9.14663158 4.87417219,10.0359649 4.87417219,11.1290877 C4.87417219,12.2222105 3.97894923,13.1115439 2.8785872,13.1115439 Z M5.56118322,10.0939649 C5.14271082,9.02747368 4.09843709,8.2694386 2.8785872,8.2694386 C2.51595585,8.2694386 2.16911258,8.33705263 1.84925386,8.45915789 L1.44469757,6.55014035 L9.22352318,6.55014035 C8.24010596,7.31164912 7.60642826,8.49905263 7.60642826,9.83084211 C7.60642826,9.91922807 7.60953642,10.0069123 7.61504636,10.0939649 L5.56118322,10.0939649 Z M11.791894,13.1115439 C9.97093157,13.1115439 8.48946578,11.6398246 8.48946578,9.83084211 C8.48946578,8.02185965 9.97093157,6.55014035 11.791894,6.55014035 C13.6128565,6.55014035 15.0943223,8.02185965 15.0943223,9.83084211 C15.0943223,11.6398246 13.6128565,13.1115439 11.791894,13.1115439 Z" id="Shape" fill="#8B97A9" fill-rule="nonzero"></path>
                            <path d="M11.791894,7.60663158 C10.557351,7.60663158 9.55295364,8.60442105 9.55295364,9.83084211 C9.55295364,11.0572632 10.557351,12.0550526 11.791894,12.0550526 C13.0264371,12.0550526 14.0308344,11.0572632 14.0308344,9.83084211 C14.0308344,8.60442105 13.0264371,7.60663158 11.791894,7.60663158 Z M11.791894,11.1778596 C11.0442384,11.1778596 10.4359558,10.573614 10.4359558,9.83084211 C10.4359558,9.08807018 11.0442384,8.48382456 11.791894,8.48382456 C12.5395497,8.48382456 13.1478322,9.08807018 13.1478322,9.83084211 C13.1478322,10.573614 12.5395497,11.1778596 11.791894,11.1778596 Z" id="Shape" fill="#8B97A9" fill-rule="nonzero"></path>
                            <path d="M2.8785872,9.91978947 C2.20736424,9.91978947 1.66128035,10.4622807 1.66128035,11.1290877 C1.66128035,11.7958947 2.20736424,12.338386 2.8785872,12.338386 C3.54981015,12.338386 4.09589404,11.7958947 4.09589404,11.1290877 C4.09589404,10.4622807 3.54981015,9.91978947 2.8785872,9.91978947 Z M2.8785872,11.461193 C2.69425166,11.461193 2.54428256,11.3122105 2.54428256,11.1290877 C2.54428256,10.9459649 2.69425166,10.7969825 2.8785872,10.7969825 C3.06292274,10.7969825 3.21289183,10.9459649 3.21289183,11.1290877 C3.21289183,11.3122105 3.06292274,11.461193 2.8785872,11.461193 Z" id="Shape" fill="#8B97A9" fill-rule="nonzero"></path>
                        </g>
                    </g>
                </g>
            </g>
        </g>
    </g>
</svg>