<?xml version="1.0" encoding="UTF-8"?>
<svg width="17px" height="17px" viewBox="0 0 17 17" version="1.1" xmlns="http://www.w3.org/2000/svg" xmlns:xlink="http://www.w3.org/1999/xlink">
    <!-- Generator: Sketch 52.5 (67469) - http://www.bohemiancoding.com/sketch -->
    <title>ic_24</title>
    <desc>Created with Sketch.</desc>
    <g id="UI-Kit" stroke="none" stroke-width="1" fill="none" fill-rule="evenodd">
        <g transform="translate(-529.000000, -3008.000000)" id="Group-8">
            <g transform="translate(32.000000, 2756.000000)">
                <g id="Category-Selector">
                    <g id="Category#3" transform="translate(498.000000, 88.000000)">
                        <g id="ic_24" transform="translate(0.000000, 164.000000)">
                            <rect id="Rectangle" x="0" y="0" width="16" height="16"></rect>
                            <polyline id="Stroke-1" stroke="#8B97A9" stroke-width="0.979591837" stroke-linecap="round" stroke-linejoin="round" points="1.5 8.65319184 7.5 8.65319184 7.5 15.8368653 1.5 15.8368653 1.5 10.6123755"></polyline>
                            <polygon id="Stroke-3" stroke="#8B97A9" stroke-width="0.979591837" stroke-linecap="round" stroke-linejoin="round" points="0.166666667 10.6123755 6.16666667 10.6123755 7.5 8.65319184 1.5 8.65319184"></polygon>
                            <polyline id="Stroke-5" stroke="#8B97A9" stroke-width="0.979591837" stroke-linecap="round" stroke-linejoin="round" points="13.5 8.65319184 7.5 8.65319184 7.5 15.8368653 13.5 15.8368653 13.5 10.6123755"></polyline>
                            <polygon id="Stroke-7" stroke="#8B97A9" stroke-width="0.979591837" stroke-linecap="round" stroke-linejoin="round" points="14.8333333 10.6123755 8.83333333 10.6123755 7.5 8.65319184 13.5 8.65319184"></polygon>
                            <polyline id="Stroke-9" stroke="#8B97A9" stroke-width="0.979591837" stroke-linecap="round" stroke-linejoin="round" points="6.16666667 7.6736 6.16666667 4.40829388 3.83333333 4.40829388 7.5 0.163395918 11.1666667 4.40829388 8.83333333 4.40829388 8.83333333 7.6736"></polyline>
                        </g>
                    </g>
                </g>
            </g>
        </g>
    </g>
</svg>