<?xml version="1.0" encoding="UTF-8"?>
<svg width="16px" height="13px" viewBox="0 0 16 13" version="1.1" xmlns="http://www.w3.org/2000/svg" xmlns:xlink="http://www.w3.org/1999/xlink">
    <!-- Generator: Sketch 52.5 (67469) - http://www.bohemiancoding.com/sketch -->
    <title>ic_23</title>
    <desc>Created with Sketch.</desc>
    <g id="UI-Kit" stroke="none" stroke-width="1" fill="none" fill-rule="evenodd">
        <g transform="translate(-530.000000, -2978.000000)" id="Group-8">
            <g transform="translate(32.000000, 2756.000000)">
                <g id="Category-Selector">
                    <g id="Category#3" transform="translate(498.000000, 88.000000)">
                        <g id="ic_23" transform="translate(0.000000, 132.000000)">
                            <rect id="Rectangle" x="0" y="0" width="16" height="16"></rect>
                            <path d="M9.63636364,7.01436 L0.909090909,7.01436 C0.708363636,7.01436 0.545454545,6.84796 0.545454545,6.64293143 L0.545454545,2.92864571 C0.545454545,2.72324571 0.708363636,2.55721714 0.909090909,2.55721714 L9.63636364,2.55721714 C9.83709091,2.55721714 10,2.72324571 10,2.92864571 L10,6.64293143 C10,6.84796 9.83709091,7.01436 9.63636364,7.01436 Z" id="Stroke-1" stroke="#8B97A9" stroke-width="1.09090909" stroke-linecap="round" stroke-linejoin="round"></path>
                            <path d="M11.4545455,5.90007429 L10,5.90007429 L10,3.67150286 L11.4545455,3.67150286 C11.856,3.67150286 12.1818182,4.00430286 12.1818182,4.41436 L12.1818182,5.15721714 C12.1818182,5.56727429 11.856,5.90007429 11.4545455,5.90007429 Z" id="Stroke-3" stroke="#8B97A9" stroke-width="1.09090909" stroke-linecap="round" stroke-linejoin="round"></path>
                            <polygon id="Stroke-5" stroke="#8B97A9" stroke-width="1.09090909" stroke-linecap="round" stroke-linejoin="round" points="1.27272727 11.4714286 3.45454545 11.4714286 3.45454545 7.01428571 1.27272727 7.01428571"></polygon>
                            <path d="M3.45454545,9.24293143 L4.18181818,9.24293143 C4.58327273,9.24293143 4.90909091,8.91013143 4.90909091,8.50007429 L4.90909091,7.01436 L3.45454545,7.01436 L3.45454545,9.24293143 Z" id="Stroke-7" stroke="#8B97A9" stroke-width="1.09090909" stroke-linecap="round" stroke-linejoin="round"></path>
                            <path d="M5.63636364,14.4429314 L2,14.4429314 C1.59854545,14.4429314 1.27272727,14.1101314 1.27272727,13.7000743 L1.27272727,11.4715029 L5.63636364,11.4715029 C6.03781818,11.4715029 6.36363636,11.8043029 6.36363636,12.21436 L6.36363636,13.7000743 C6.36363636,14.1101314 6.03781818,14.4429314 5.63636364,14.4429314 Z" id="Stroke-8" stroke="#8B97A9" stroke-width="1.09090909" stroke-linecap="round" stroke-linejoin="round"></path>
                            <path d="M12.1818182,4.78578857 L15.4545455,4.78578857" id="Stroke-9" stroke="#8B97A9" stroke-width="1.09090909" stroke-linecap="round" stroke-linejoin="round"></path>
                            <path d="M2.36363636,4.04293143 L4.90909091,4.04293143" id="Stroke-10" stroke="#8B97A9" stroke-width="1.09090909" stroke-linecap="round" stroke-linejoin="round"></path>
                            <path d="M2.36363636,5.52864571 L4.90909091,5.52864571" id="Stroke-11" stroke="#8B97A9" stroke-width="1.09090909" stroke-linecap="round" stroke-linejoin="round"></path>
                        </g>
                    </g>
                </g>
            </g>
        </g>
    </g>
</svg>