<?xml version="1.0" encoding="UTF-8"?>
<svg width="14px" height="16px" viewBox="0 0 14 16" version="1.1" xmlns="http://www.w3.org/2000/svg" xmlns:xlink="http://www.w3.org/1999/xlink">
    <!-- Generator: Sketch 52.5 (67469) - http://www.bohemiancoding.com/sketch -->
    <title>ic_3</title>
    <desc>Created with Sketch.</desc>
    <g id="UI-Kit" stroke="none" stroke-width="1" fill="none" fill-rule="evenodd">
        <g transform="translate(-57.000000, -2913.000000)" id="Group-8">
            <g transform="translate(32.000000, 2756.000000)">
                <g id="Category-Selector">
                    <g id="Category#1" transform="translate(24.000000, 88.000000)">
                        <g id="ic_3" transform="translate(0.000000, 69.000000)">
                            <rect id="Rectangle" x="0" y="0" width="16" height="16"></rect>
                            <path d="M10.1360744,14.8371442 L3.62444651,14.8371442 C2.90523721,14.8371442 2.32212093,14.2540279 2.32212093,13.5348186 L2.32212093,8.65109767 C2.32212093,8.30565581 2.4591907,7.97453953 2.70370233,7.73035349 L7.39663256,3.03709767 C7.65091163,2.78314419 8.06309767,2.78314419 8.31737674,3.03709767 L13.010307,7.73035349 C13.254493,7.97453953 13.3918884,8.30565581 13.3918884,8.65109767 L13.3918884,13.5348186 C13.3918884,14.2540279 12.8087721,14.8371442 12.0895628,14.8371442 L10.1360744,14.8371442" id="Stroke-1" stroke="#8B97A9" stroke-width="0.976744186"></path>
                            <path d="M14.694214,7.46054419 L8.77774884,1.54440465 C8.26951628,1.03584651 7.44449302,1.03584651 6.93626047,1.54440465 L1.01979535,7.46054419" id="Stroke-3" stroke="#8B97A9" stroke-width="0.976744186"></path>
                            <path d="M8.83374884,8.97667907 C8.83374884,9.51616744 8.39649302,9.95342326 7.85700465,9.95342326 C7.31751628,9.95342326 6.88026047,9.51616744 6.88026047,8.97667907 C6.88026047,8.4371907 7.31751628,7.99993488 7.85700465,7.99993488 C8.39649302,7.99993488 8.83374884,8.4371907 8.83374884,8.97667907 Z" id="Stroke-5" stroke="#8B97A9" stroke-width="0.976744186"></path>
                            <path d="M7.85700465,9.95342326 L7.85700465,13.2092372" id="Stroke-7" stroke="#8B97A9" stroke-width="0.976744186"></path>
                            <path d="M7.85700465,12.5580744 L8.83374884,12.5580744" id="Stroke-9" stroke="#8B97A9" stroke-width="0.976744186"></path>
                            <path d="M7.85700465,11.5813302 L8.50816744,11.5813302" id="Stroke-11" stroke="#8B97A9" stroke-width="0.976744186"></path>
                        </g>
                    </g>
                </g>
            </g>
        </g>
    </g>
</svg>