<?xml version="1.0" encoding="UTF-8"?>
<svg width="17px" height="15px" viewBox="0 0 17 15" version="1.1" xmlns="http://www.w3.org/2000/svg" xmlns:xlink="http://www.w3.org/1999/xlink">
    <!-- Generator: Sketch 52.5 (67469) - http://www.bohemiancoding.com/sketch -->
    <title>ic_5</title>
    <desc>Created with Sketch.</desc>
    <g id="UI-Kit" stroke="none" stroke-width="1" fill="none" fill-rule="evenodd">
        <g transform="translate(-55.000000, -2976.000000)" id="Group-8">
            <g transform="translate(32.000000, 2756.000000)">
                <g id="Category-Selector">
                    <g id="Category#1" transform="translate(24.000000, 88.000000)">
                        <g id="ic_5" transform="translate(0.000000, 132.000000)">
                            <rect id="Rectangle" x="0" y="0" width="16" height="16"></rect>
                            <polyline id="Stroke-1" stroke="#8B97A9" points="0.1667 0.325516279 0.1667 13.6743535 15.8333667 13.6743535"></polyline>
                            <polygon id="Stroke-4" stroke="#8B97A9" points="2.16666667 13.6744186 3.83333333 13.6744186 3.83333333 9.11627907 2.16666667 9.11627907"></polygon>
                            <polygon id="Stroke-6" stroke="#8B97A9" points="5.83333333 13.6744186 7.5 13.6744186 7.5 7.48837209 5.83333333 7.48837209"></polygon>
                            <polygon id="Stroke-7" stroke="#8B97A9" points="9.5 13.6744186 11.1666667 13.6744186 11.1666667 6.51162791 9.5 6.51162791"></polygon>
                            <polygon id="Stroke-8" stroke="#8B97A9" points="13.1666667 13.6744186 14.8333333 13.6744186 14.8333333 4.55813953 13.1666667 4.55813953"></polygon>
                            <polyline id="Stroke-9" stroke="#8B97A9" stroke-linecap="round" stroke-linejoin="round" points="2.1667 6.1859814 6.50003333 3.58133023 9.83336667 5.5348186 13.8333667 1.30226047 13.8333667 2.27900465"></polyline>
                            <path d="M13.8333667,1.30226047 L12.8333667,1.30226047" id="Stroke-10" stroke="#8B97A9" stroke-linecap="round" stroke-linejoin="round"></path>
                        </g>
                    </g>
                </g>
            </g>
        </g>
    </g>
</svg>