<?xml version="1.0" encoding="UTF-8"?>
<svg width="16px" height="13px" viewBox="0 0 16 13" version="1.1" xmlns="http://www.w3.org/2000/svg" xmlns:xlink="http://www.w3.org/1999/xlink">
    <!-- Generator: Sketch 52.5 (67469) - http://www.bohemiancoding.com/sketch -->
    <title>ic_8</title>
    <desc>Created with Sketch.</desc>
    <g id="UI-Kit" stroke="none" stroke-width="1" fill="none" fill-rule="evenodd">
        <g transform="translate(-56.000000, -3074.000000)" id="Group-8">
            <g transform="translate(32.000000, 2756.000000)">
                <g id="Category-Selector">
                    <g id="Category#1" transform="translate(24.000000, 88.000000)">
                        <g id="ic_8" transform="translate(0.000000, 229.000000)">
                            <rect id="Rectangle" x="0" y="0" width="16" height="16"></rect>
                            <path d="M2.40439406,8.04998616 C2.64722574,8.04998616 2.86027525,8.20878144 2.92249307,8.4361187 C3.00639406,8.74379175 3.12148317,9.04516583 3.26455248,9.33193166 C3.71059208,10.2282424 4.41265149,10.9734162 5.29486931,11.4869449 C5.74021584,11.7466194 6.22132475,11.9397432 6.72490891,12.0609744 C6.88809703,12.1003573 7.02445347,12.2133941 7.08972079,12.3634015 C7.24401782,12.7188242 7.60130495,12.9484781 7.99999802,12.9484781 C8.39869109,12.9484781 8.75597822,12.7188242 8.91025545,12.3634589 C8.97556238,12.2133558 9.11189901,12.1003381 9.27502772,12.061051 C11.1311861,11.6135561 12.5883149,10.2244707 13.0777406,8.43588895 C13.1398792,8.20866657 13.3528495,8.04996701 13.595701,8.04996701 C13.636196,8.04996701 13.6768693,8.05444713 13.7166119,8.06331163 C13.7913842,8.07996848 13.8667505,8.08843093 13.9405921,8.08843093 C14.4849089,8.08843093 14.9277604,7.66027334 14.9277604,7.13397437 C14.9277604,6.60769455 14.4849485,6.17953697 13.9406713,6.17953697 C13.8668297,6.17953697 13.7914634,6.18798027 13.7166713,6.20465626 C13.6769683,6.21350162 13.6363149,6.21800088 13.5958396,6.21800088 C13.3529089,6.21800088 13.1398792,6.05928218 13.0777406,5.83204065 C12.7900574,4.78028513 12.1734436,3.86299057 11.2945921,3.1793514 C10.4301762,2.50693166 9.39132475,2.12164153 8.28764158,2.06359146 L7.51944356,3.21894492 C7.40037426,3.39816878 7.42696832,3.63760619 7.58271089,3.78826451 C7.67191881,3.87440147 7.78995842,3.92186392 7.91500792,3.92186392 C7.92413663,3.92186392 7.93332475,3.92161502 7.94255248,3.92111723 C8.07841386,3.91393756 8.19993861,3.85341767 8.2848099,3.75070044 L8.79985941,3.12832784 C8.90225545,3.0046268 9.05500792,2.93367246 9.21898812,2.93367246 C9.34005743,2.93367246 9.45888911,2.97401267 9.55358218,3.04728365 C9.78441386,3.2258757 9.82199802,3.55275199 9.63736436,3.77595376 L9.12233465,4.39834551 C8.84843366,4.72945302 8.44005743,4.93289632 8.00191881,4.9564648 C7.97401782,4.95793903 7.94540396,4.95868571 7.9167703,4.95868571 C7.51005743,4.95868571 7.11191881,4.79929691 6.82441386,4.52141473 C6.31453267,4.02835287 6.22752277,3.24483004 6.61746337,2.65837496 L6.94997822,2.15826745 C5.00253267,2.54206421 3.43237426,3.96716289 2.92225545,5.83211723 C2.86013663,6.05930133 2.64706733,6.21796259 2.40415644,6.21796259 C2.36372079,6.21796259 2.32310693,6.21350162 2.28342376,6.20465626 C2.20863168,6.18798027 2.13326535,6.17953697 2.05940396,6.17953697 C1.51512673,6.17953697 1.07231485,6.60769455 1.07231485,7.13397437 C1.07231485,7.66027334 1.51512673,8.08843093 2.05940396,8.08843093 C2.13324554,8.08843093 2.20861188,8.07996848 2.28342376,8.06331163 C2.32364158,8.05444713 2.36427525,8.04998616 2.40439406,8.04998616 M7.99999802,13.9853381 C7.27011683,13.9853381 6.59296832,13.6101953 6.2248099,13.0042115 C5.70490891,12.8575355 5.20597822,12.6459169 4.74142376,12.3749655 C3.67997822,11.757456 2.83520594,10.8608006 2.29851287,9.78201119 C2.19286931,9.57048837 2.09886931,9.34966068 2.0187901,9.12486981 C0.902037624,9.10447953 -1.98019802e-06,8.2192542 -1.98019802e-06,7.13405096 C-1.98019802e-06,6.04924978 0.901819802,5.16429249 2.01869109,5.1432704 C2.4427703,3.9486489 3.2277604,2.92522916 4.29154257,2.18105096 C5.37488911,1.42318351 6.65352277,1.02144713 7.98918614,1.01920707 L7.99999802,1.01913049 C9.33774059,1.01913049 10.6186515,1.41989043 11.704295,2.17806421 C12.7702158,2.92247216 13.5566119,3.94690663 13.9812851,5.14321296 C15.0981168,5.16421591 15.999998,6.04923063 15.999998,7.13405096 C15.999998,7.66509809 15.7855426,8.16489926 15.3961564,8.54138233 C15.0163941,8.90856053 14.5153248,9.11483741 13.9812851,9.12483152 C13.3144337,11.0022881 11.7473644,12.4482748 9.77520594,13.0042115 C9.40702772,13.6101953 8.72987921,13.9853381 7.99999802,13.9853381" id="Fill-1" fill="#8B97A9"></path>
                            <path d="M8,10.1561738 C7.13114851,10.1561738 6.30213861,9.84135935 5.66570297,9.26972312 C5.56073267,9.17550663 5.5000396,9.04742121 5.49477228,8.90907364 C5.48948515,8.77070692 5.54031683,8.63863918 5.63784158,8.53720471 C5.73887129,8.43196024 5.88211881,8.37157437 6.03081188,8.37157437 C6.16657426,8.37157437 6.29611881,8.42077909 6.39558416,8.51015169 C6.83285149,8.90296613 7.40263366,9.1193137 8,9.1193137 C8.5970297,9.1193137 9.16673267,8.90310015 9.60413861,8.51049632 C9.70360396,8.421162 9.83312871,8.37197644 9.96883168,8.37197644 C10.1174257,8.37197644 10.2606337,8.43232401 10.3617228,8.53753019 C10.4591683,8.63907953 10.5099406,8.77116642 10.5046733,8.90953314 C10.4994059,9.047919 10.4386931,9.17602356 10.3337426,9.27020177 C9.69756436,9.84151252 8.86873267,10.1561738 8,10.1561738" id="Fill-4" fill="#8B97A9"></path>
                            <path d="M5.10589505,7.50507938 C4.81019208,7.50507938 4.56961782,7.27253446 4.56961782,6.98672592 C4.56961782,6.2542458 5.18599406,5.6583327 5.94361782,5.6583327 C6.65963762,5.6583327 7.24791485,6.17777747 7.31203366,6.8666243 C7.33848911,7.15130324 7.12046931,7.40379809 6.82603366,7.42945346 C6.80993465,7.43087025 6.79361782,7.43157865 6.77753861,7.43157865 C6.4984099,7.43157865 6.26906337,7.22865228 6.24405347,6.95953888 C6.23015248,6.81138866 6.09819208,6.69526937 5.94361782,6.69526937 C5.77732079,6.69526937 5.64201386,6.82601605 5.64201386,6.98672592 C5.64201386,7.27253446 5.40151881,7.50507938 5.10589505,7.50507938" id="Fill-6" fill="#8B97A9"></path>
                            <path d="M10.894105,7.50507938 C10.5984812,7.50507938 10.3579861,7.27253446 10.3579861,6.98672592 C10.3579861,6.82601605 10.222699,6.69526937 10.0563822,6.69526937 C9.90180792,6.69526937 9.76984752,6.81138866 9.75592673,6.95961546 C9.73135248,7.22424875 9.49715446,7.43159779 9.22277822,7.43159779 C9.2065604,7.43159779 9.19012475,7.4308894 9.17390693,7.42945346 C8.87951089,7.40370236 8.66151089,7.15122666 8.68796634,6.8666243 C8.75206535,6.17777747 9.34036238,5.6583327 10.0563822,5.6583327 C10.8140059,5.6583327 11.4303822,6.2542458 11.4303822,6.98672592 C11.4303822,7.27253446 11.1898079,7.50507938 10.894105,7.50507938" id="Fill-8" fill="#8B97A9"></path>
                        </g>
                    </g>
                </g>
            </g>
        </g>
    </g>
</svg>