<?xml version="1.0" encoding="UTF-8"?>
<svg width="16px" height="16px" viewBox="0 0 16 16" version="1.1" xmlns="http://www.w3.org/2000/svg" xmlns:xlink="http://www.w3.org/1999/xlink">
    <!-- Generator: Sketch 52.5 (67469) - http://www.bohemiancoding.com/sketch -->
    <title>ic_9</title>
    <desc>Created with Sketch.</desc>
    <g id="UI-Kit" stroke="none" stroke-width="1" fill="none" fill-rule="evenodd">
        <g transform="translate(-56.000000, -3104.000000)" id="Group-8">
            <g transform="translate(32.000000, 2756.000000)">
                <g id="Category-Selector">
                    <g id="Category#1" transform="translate(24.000000, 88.000000)">
                        <g id="ic_9" transform="translate(0.000000, 260.000000)">
                            <rect id="Rectangle" x="0" y="0" width="16" height="16"></rect>
                            <path d="M6.49023438,0 C6.14501953,0 5.86523438,0.279785156 5.86523438,0.625 L5.86523438,3.03894044 C2.59228516,3.35388184 0,6.10888672 0,9.50402831 C0,13.0859375 2.9157715,16 6.49975587,16 C9.87255859,16 12.6531982,13.4188232 12.9688721,10.1290283 L15.375,10.1290283 C15.7202148,10.1290283 16,9.84924316 16,9.50402831 C16,4.25122069 11.7467041,1.77635684e-15 6.49023438,0 Z M6.49975588,14.75 C3.60498047,14.75 1.25,12.3966064 1.25,9.50402831 C1.25,6.81628419 3.26904297,4.60693359 5.86523438,4.29638672 L5.86523438,9.50402831 C5.86523438,9.84924316 6.14501953,10.1290283 6.49023438,10.1290283 L11.7116699,10.1290283 C11.4014892,12.7281494 9.18261719,14.75 6.49975588,14.75 Z M7.11523438,8.87902831 L7.11523438,1.27307128 C11.1616211,1.57373047 14.4234619,4.80163575 14.7268066,8.87902831 L7.11523438,8.87902831 Z" id="Shape" fill="#8B97A9" fill-rule="nonzero"></path>
                        </g>
                    </g>
                </g>
            </g>
        </g>
    </g>
</svg>