<svg width="18" height="30" viewBox="0 0 18 30" fill="none" xmlns="http://www.w3.org/2000/svg">
<g id="ic_slide_left" opacity="0.9">
<path id="Path" fill-rule="evenodd" clip-rule="evenodd" d="M14.6895 29.6928L0.349336 15.6872C0.144222 15.4871 0.0415039 15.2568 0.0415039 14.9964C0.0415039 14.736 0.144222 14.5054 0.349336 14.3052L14.6895 0.300632C14.895 0.1 15.1307 0 15.3974 0C15.6641 0 15.9001 0.100316 16.1052 0.300632L17.6433 1.80295C17.8485 2.00326 17.951 2.23379 17.951 2.49421C17.951 2.75463 17.8485 2.98516 17.6433 3.18547L5.54972 14.9964L17.6441 26.8078C17.8492 27.008 17.9511 27.2386 17.9511 27.4986C17.9511 27.7595 17.8486 27.99 17.6441 28.1902L16.1053 29.6927C15.9003 29.8929 15.6641 29.9924 15.3976 29.9924C15.1307 29.9925 14.8946 29.8931 14.6895 29.6928Z" fill="white"/>
</g>
</svg>
