<svg width="20" height="16" viewBox="0 0 20 16" fill="none" xmlns="http://www.w3.org/2000/svg">
<path fill-rule="evenodd" clip-rule="evenodd" d="M8.88889 1.77449C7.94794 2.30684 7.18719 2.76525 6.60661 3.14972C6.02602 3.5342 5.43544 4.04189 4.83484 4.67283C4.27427 5.26433 3.84385 5.88539 3.54354 6.53604C3.24324 7.18669 3.03303 8.02464 2.91291 9.04991H4.35435C5.5956 9.04991 6.57157 9.35058 7.28228 9.95194C7.993 10.5533 8.34835 11.4356 8.34835 12.5989C8.34835 13.427 8.03304 14.2009 7.4024 14.9205C6.77177 15.6402 5.90591 16 4.8048 16C3.08307 16 1.85186 15.443 1.11111 14.329C0.370367 13.215 0 11.7511 0 9.93715C0 8.65557 0.280277 7.48737 0.840841 6.43253C1.4014 5.37769 2.08208 4.43623 2.88288 3.60813C3.70371 2.76032 4.57457 2.04067 5.4955 1.44917C6.41642 0.857668 7.18718 0.374617 7.80781 0L8.88889 1.77449ZM20 1.77449C19.0591 2.30684 18.2983 2.76525 17.7177 3.14972C17.1371 3.5342 16.5465 4.04189 15.9459 4.67283C15.3654 5.28405 14.9299 5.91004 14.6396 6.55083C14.3493 7.19162 14.1441 8.02464 14.024 9.04991H15.4655C16.7067 9.04991 17.6827 9.35058 18.3934 9.95194C19.1041 10.5533 19.4595 11.4356 19.4595 12.5989C19.4595 13.427 19.1441 14.2009 18.5135 14.9205C17.8829 15.6402 17.017 16 15.9159 16C14.1942 16 12.963 15.443 12.2222 14.329C11.4815 13.215 11.1111 11.7511 11.1111 9.93715C11.1111 8.65557 11.3914 7.48737 11.952 6.43253C12.5125 5.37769 13.1932 4.43623 13.994 3.60813C14.8148 2.76032 15.6857 2.04067 16.6066 1.44917C17.5275 0.857668 18.2983 0.374617 18.9189 0L20 1.77449Z" fill="#B4C4DB"/>
</svg>
