<?xml version="1.0" encoding="utf-8" ?>
<svg xmlns="http://www.w3.org/2000/svg" xmlns:xlink="http://www.w3.org/1999/xlink" width="18" height="18">
	<defs>
		<clipPath id="clip_0">
			<rect x="-264" y="-1298" width="1440" height="3714" clip-rule="evenodd"/>
		</clipPath>
	</defs>
	<g clip-path="url(#clip_0)">
		<path fill="rgb(121,140,168)" stroke="none" d="M9 1.64973C4.94706 1.64973 1.64973 4.94706 1.64973 9C1.64973 13.0529 4.94706 16.3503 9 16.3503C13.0529 16.3503 16.3503 13.0529 16.3503 9C16.3503 4.94706 13.0529 1.64973 9 1.64973M9 18C4.0374 18 0 13.9626 0 9C0 4.0374 4.0374 0 9 0C13.9626 0 18 4.0374 18 9C18 13.9626 13.9626 18 9 18M9 13.1952C8.54515 13.1952 8.17512 12.8251 8.17512 12.3703L8.17512 9.76313L5.56795 9.76313C5.11311 9.76313 4.74307 9.39306 4.74307 8.93822C4.74307 8.48337 5.11311 8.11333 5.56795 8.11333L8.17512 8.11333L8.17512 5.5062C8.17512 5.05132 8.54515 4.68128 9 4.68128C9.45485 4.68128 9.82488 5.05132 9.82488 5.5062L9.82488 8.11337L12.432 8.11337C12.8869 8.11337 13.2569 8.4834 13.2569 8.93822C13.2569 9.39306 12.8869 9.76313 12.432 9.76313L9.82488 9.76313L9.82488 12.3703C9.82488 12.8251 9.45485 13.1952 9 13.1952"/>
	</g>

</svg>