<?xml version="1.0" encoding="utf-8" ?>
<svg xmlns="http://www.w3.org/2000/svg" xmlns:xlink="http://www.w3.org/1999/xlink" width="16" height="16">
	<defs>
		<clipPath id="clip_0">
			<rect x="-734" y="-1299" width="1440" height="3714" clip-rule="evenodd"/>
		</clipPath>
	</defs>
	<g clip-path="url(#clip_0)">
		<path fill="rgb(121,140,168)" fill-opacity="0.49803922" stroke="none" d="M12.1152 10.7876L15.6826 14.2158C16.0901 14.6087 16.1076 15.2629 15.7212 15.6773C15.3348 16.0916 14.6909 16.1094 14.2833 15.7166L10.6875 12.2594C8.34418 14.033 5.1405 14.0558 2.77275 12.3165C-0.222656 10.116 -0.896249 5.86324 1.26853 2.81837C3.43331 -0.226503 7.61562 -0.910931 10.611 1.28951C13.6064 3.48996 14.2796 7.74232 12.1152 10.7876ZM6.72159 2.13232C4.16753 2.13232 2.09672 4.23761 2.09672 6.8342C2.10119 9.42914 4.16915 11.5315 6.72159 11.5361C9.27565 11.5361 11.3465 9.43079 11.3465 6.8342C11.3465 4.23761 9.27565 2.13232 6.72159 2.13232Z" fill-rule="evenodd"/>
	</g>

</svg>