<?xml version="1.0" encoding="utf-8" ?>
<svg xmlns="http://www.w3.org/2000/svg" xmlns:xlink="http://www.w3.org/1999/xlink" width="24" height="21">
	<defs>
		<clipPath id="clip_0">
			<rect x="-305.40002" y="-1808.61" width="1396.8" height="3602.5801" clip-rule="evenodd"/>
		</clipPath>
	</defs>
	<g clip-path="url(#clip_0)">
		<path fill="rgb(121,140,168)" fill-opacity="0.49803922" stroke="none" transform="matrix(0.97 0 0 0.97 12.7356 0.19458)" d="M5.00021 5.00021C5.00021 5.00021 5.00021 5.00021 5.00021 5.00021C4.25821 4.25821 3.25979 3.86155 2.1888 3.88323C1.11774 3.90491 0.102386 4.34239 -0.670311 5.11501L-5.87733 10.322C-6.83435 11.2791 -6.86525 12.8053 -5.94617 13.7244C-5.0271 14.6434 -3.5008 14.6124 -2.54378 13.6554L0.460851 10.6508C0.78036 10.3313 0.79064 9.8235 0.483812 9.51668C0.176985 9.20985 -0.330798 9.22013 -0.650306 9.53964L-3.65494 12.5443C-3.97398 12.8633 -4.48278 12.8736 -4.78909 12.5673C-5.09544 12.261 -5.08518 11.7522 -4.76617 11.4332L0.440846 6.22617C0.90445 5.76257 1.51374 5.50011 2.15633 5.4871C2.799 5.47409 3.398 5.71208 3.84317 6.15725C4.76224 7.07632 4.73138 8.60258 3.77443 9.5596L-2.01105 15.3451C-3.60616 16.94 -6.14998 16.9916 -7.68168 15.4599C-8.42367 14.7179 -8.82045 13.7195 -8.79873 12.6484C-8.77708 11.5774 -8.33957 10.562 -7.56687 9.78933L-1.78151 4.00382C-1.46196 3.68427 -1.45172 3.17653 -1.75854 2.8697C-2.06537 2.56287 -2.57315 2.57315 -2.89266 2.89266L-8.67803 8.67818C-9.75982 9.75989 -10.3723 11.1814 -10.4027 12.6809C-10.433 14.1804 -9.87766 15.5783 -8.8388 16.617C-6.69445 18.7614 -3.13309 18.6893 -0.899966 16.4563L4.88555 10.6708C6.48051 9.07576 6.53194 6.53194 5.00021 5.00021Z"/>
	</g>

</svg>