<svg width="24" height="24" viewBox="0 0 24 24" fill="none" xmlns="http://www.w3.org/2000/svg">
<path fill-rule="evenodd" clip-rule="evenodd" d="M24 12C24 18.6274 18.6274 24 12 24C5.37258 24 0 18.6274 0 12C0 5.37258 5.37258 0 12 0C18.6274 0 24 5.37258 24 12ZM6.7262 10.7597L11.4405 6.22238C11.5891 6.07985 11.7894 6 11.9999 6C12.2105 6 12.4116 6.08059 12.5594 6.22238L17.2737 10.7597C17.4246 10.9045 17.5 11.094 17.5 11.2836C17.5 11.4761 17.4214 11.6687 17.2659 11.8149C16.9571 12.1037 16.4597 12.1015 16.1549 11.8075L12.7857 8.56493V17.2537C12.7857 17.6664 12.4345 18 12 18C11.5655 18 11.2142 17.6664 11.2142 17.2537V8.56493L7.84508 11.8075C7.54022 12.1015 7.04286 12.1045 6.73408 11.8149C6.42529 11.5254 6.42134 11.0522 6.7262 10.7597Z" fill="#0070D9"/>
</svg>
