<?xml version="1.0" encoding="utf-8" ?>
<svg xmlns="http://www.w3.org/2000/svg" xmlns:xlink="http://www.w3.org/1999/xlink" width="12" height="9">
	<defs>
		<clipPath id="clip_0">
			<rect x="-54.200012" y="-1590.8301" width="1310.3999" height="3379.74" clip-rule="evenodd"/>
		</clipPath>
	</defs>
	<g clip-path="url(#clip_0)">
		<path fill="rgb(255,255,255)" stroke="none" transform="matrix(0.91 0 0 0.91 0.399963 0.76001)" d="M11.6855 0.245609C11.2947 -0.104909 10.6871 -0.0774389 10.33 0.310008L4.47391 6.67331L1.64477 3.83511C1.27131 3.46185 0.664605 3.45616 0.287324 3.82374C-0.0909241 4.19035 -0.0966853 4.79001 0.275802 5.16327L3.81724 8.71579C3.99869 8.89767 4.24443 8.99904 4.5017 8.99904C4.50746 8.99904 4.51419 8.99904 4.51995 9C4.78491 8.99432 5.03453 8.88252 5.21211 8.68928L11.7507 1.58424C12.1069 1.19579 12.0781 0.597082 11.6855 0.245609Z"/>
	</g>

</svg>