<?xml version="1.0" encoding="utf-8" ?>
<svg xmlns="http://www.w3.org/2000/svg" xmlns:xlink="http://www.w3.org/1999/xlink" width="11" height="12">
	<defs>
		<clipPath id="clip_0">
			<rect x="-425.20001" y="-1419.8301" width="1310.4" height="3379.74" clip-rule="evenodd"/>
		</clipPath>
	</defs>
	<g clip-path="url(#clip_0)">
		<path fill="rgb(230,46,46)" stroke="none" transform="matrix(0.91 0 0 0.91 0.690536 0.680054)" d="M10.5137 1.78125L7.80421 1.78125L7.80421 0.46875C7.80421 0.209839 7.59687 0 7.34105 0L3.63579 0C3.37997 0 3.17263 0.209839 3.17263 0.46875L3.17263 1.78125L0.463158 1.78125C0.207336 1.78125 0 1.99109 0 2.25C0 2.50891 0.207336 2.71875 0.463158 2.71875L1.32 2.71875L1.32 11.5313C1.32 11.7902 1.52734 12 1.78316 12L9.19368 12C9.44951 12 9.65684 11.7902 9.65684 11.5313L9.65684 2.71875L10.5137 2.71875C10.7695 2.71875 10.9768 2.50891 10.9768 2.25C10.9768 1.99109 10.7695 1.78125 10.5137 1.78125ZM4.09895 0.9375L6.87789 0.9375L6.87789 1.78125L4.09895 1.78125L4.09895 0.9375ZM2.24632 11.0625L8.73053 11.0625L8.73053 2.71875L2.24632 2.71875L2.24632 11.0625ZM4.71652 4.03125L4.71652 9.75C4.71652 10.0089 4.50919 10.2188 4.25336 10.2188C3.99754 10.2188 3.79021 10.0089 3.79021 9.75L3.79021 4.03125C3.79021 3.77234 3.99754 3.5625 4.25336 3.5625C4.50919 3.5625 4.71652 3.77234 4.71652 4.03125ZM7.18664 9.75L7.18664 4.03125C7.18664 3.77234 6.9793 3.5625 6.72348 3.5625C6.46766 3.5625 6.26032 3.77234 6.26032 4.03125L6.26032 9.75C6.26032 10.0089 6.46766 10.2188 6.72348 10.2188C6.9793 10.2188 7.18664 10.0089 7.18664 9.75Z" fill-rule="evenodd"/>
	</g>

</svg>