<?xml version="1.0" encoding="utf-8" ?>
<svg xmlns="http://www.w3.org/2000/svg" xmlns:xlink="http://www.w3.org/1999/xlink" width="17" height="11">
	<defs>
		<clipPath id="clip_0">
			<rect x="-1062" y="-1488.35" width="1368" height="3528.3" clip-rule="evenodd"/>
		</clipPath>
	</defs>
	<g clip-path="url(#clip_0)">
		<path fill="rgb(89,108,128)" fill-opacity="0.29803923" stroke="none" transform="matrix(0.95 0 0 0.95 4.70554 8.91064)" d="M-0.656863 -0.779787L-3.12454 -3.13516Q-3.19885 -3.20608 -3.2568 -3.28708Q-3.31476 -3.36809 -3.35447 -3.45655Q-3.39419 -3.545 -3.41438 -3.63802Q-3.43456 -3.73105 -3.43456 -3.82561Q-3.43456 -3.92017 -3.41438 -4.01319Q-3.39419 -4.10622 -3.35447 -4.19467Q-3.31476 -4.28313 -3.2568 -4.36413Q-3.19885 -4.44514 -3.12454 -4.51606L-3.57956 -4.08176Q-3.50525 -4.15268 -3.42039 -4.208Q-3.33552 -4.26331 -3.24284 -4.30122Q-3.15017 -4.33913 -3.05271 -4.3584Q-2.95525 -4.37767 -2.85618 -4.37767Q-2.75711 -4.37767 -2.65965 -4.3584Q-2.56219 -4.33913 -2.46952 -4.30122Q-2.37685 -4.26331 -2.29198 -4.208Q-2.20711 -4.15268 -2.1328 -4.08176L0.334877 -1.72639Q0.409181 -1.65547 0.467135 -1.57446Q0.525088 -1.49345 0.564805 -1.405Q0.604522 -1.31654 0.624709 -1.22352Q0.644896 -1.1305 0.644896 -1.03594Q0.644896 -0.941374 0.624709 -0.848351Q0.604522 -0.755328 0.564805 -0.666874Q0.525088 -0.578419 0.467135 -0.497412Q0.409181 -0.416405 0.334877 -0.345483L0.789891 -0.779787Q0.715588 -0.708866 0.630718 -0.65355Q0.545848 -0.598234 0.453176 -0.560324Q0.360503 -0.522415 0.263044 -0.503147Q0.165586 -0.483879 0.0665142 -0.483879Q-0.0325571 -0.483879 -0.130016 -0.503147Q-0.227474 -0.522415 -0.320147 -0.560325Q-0.41282 -0.598234 -0.49769 -0.65355Q-0.582559 -0.708866 -0.656863 -0.779787Z"/>
	</g>
	<defs>
		<clipPath id="clip_1">
			<rect x="-1062" y="-1488.35" width="1368" height="3528.3" clip-rule="evenodd"/>
		</clipPath>
	</defs>
	<g clip-path="url(#clip_1)">
		<path fill="rgb(89,108,128)" fill-opacity="0.29803923" stroke="none" transform="matrix(0.95 0 0 0.95 7.59528 0.299988)" d="M4.71202 0.256178L5.16701 0.690453Q5.0927 0.619532 5.00784 0.564221Q4.92298 0.50891 4.83031 0.471012Q4.73765 0.433113 4.64021 0.41386Q4.54276 0.394607 4.44371 0.394626Q4.34466 0.394646 4.24722 0.413937Q4.14978 0.433229 4.05714 0.471164Q3.96449 0.5091 3.87964 0.564444Q3.7948 0.619788 3.72053 0.690739L0.723104 3.554Q0.648829 3.62495 0.590902 3.70599Q0.532975 3.78702 0.493283 3.8755Q0.45359 3.96398 0.433425 4.05703Q0.413259 4.15008 0.413277 4.24466Q0.413295 4.33924 0.433496 4.43228Q0.453696 4.52532 0.493422 4.61379Q0.533148 4.70225 0.591106 4.78327Q0.649063 4.86428 0.723366 4.9352L0.268372 4.5009Q0.342674 4.57183 0.427537 4.62714Q0.512401 4.68245 0.605063 4.72035Q0.697725 4.75825 0.795168 4.7775Q0.892611 4.79676 0.991663 4.79674Q1.09072 4.79672 1.18815 4.77743Q1.28559 4.75814 1.37823 4.72021Q1.47088 4.68227 1.55573 4.62693Q1.64057 4.57158 1.71484 4.50063L4.71229 1.63737Q4.78657 1.56642 4.8445 1.48538Q4.90242 1.40435 4.94212 1.31587Q4.98181 1.22739 5.00197 1.13434Q5.02214 1.04129 5.02212 0.946712Q5.0221 0.85213 5.0019 0.759092Q4.9817 0.666054 4.94197 0.577589Q4.90224 0.489124 4.84429 0.408111Q4.78633 0.327099 4.71202 0.256178Z"/>
	</g>
	<defs>
		<clipPath id="clip_2">
			<rect x="-1062" y="-1488.35" width="1368" height="3528.3" clip-rule="evenodd"/>
		</clipPath>
	</defs>
	<g clip-path="url(#clip_2)">
		<path fill="rgb(89,108,128)" fill-opacity="0.29803923" stroke="none" transform="matrix(0.95 0 0 0.95 5.09131 0.563232)" d="M10.571 0.176502L4.09942 6.3506Q4.05059 6.39719 3.99481 6.43353Q3.93904 6.46986 3.87813 6.49476Q3.81723 6.51966 3.75318 6.53231Q3.68913 6.54496 3.62403 6.54496Q3.55892 6.54495 3.49488 6.53228Q3.43083 6.51961 3.36994 6.4947Q3.30904 6.46979 3.25327 6.43344Q3.1975 6.39709 3.14868 6.35049L1.17661 4.46817Q1.12778 4.42157 1.07202 4.38522Q1.01625 4.34888 0.955356 4.32397Q0.894463 4.29906 0.830424 4.2864Q0.766386 4.27374 0.701287 4.27374Q0.636189 4.27374 0.572151 4.2864Q0.508112 4.29906 0.447218 4.32397Q0.386325 4.34888 0.330558 4.38522Q0.274791 4.42157 0.225968 4.46817L0.184837 4.50743Q0.136013 4.55403 0.0979329 4.60726Q0.0598524 4.66049 0.0337551 4.71861Q0.00765774 4.77673 -0.00560688 4.83786Q-0.0188715 4.89898 -0.0188715 4.96112Q-0.0188715 5.02325 -0.0056069 5.08438Q0.0076577 5.1455 0.033755 5.20362Q0.0598524 5.26174 0.0979328 5.31497Q0.136013 5.3682 0.184837 5.4148L2.4357 7.56322Q2.4966 7.62135 2.56211 7.6733Q2.62761 7.72525 2.69717 7.77059Q2.76674 7.81593 2.8398 7.8543Q2.91286 7.89266 2.98883 7.92373Q3.06479 7.95481 3.14303 7.97834Q3.22127 8.00187 3.30116 8.01766Q3.38104 8.03345 3.46192 8.04138Q3.54279 8.04931 3.624 8.04931Q3.7052 8.04931 3.78608 8.04138Q3.86696 8.03345 3.94684 8.01766Q4.02672 8.00187 4.10497 7.97834Q4.18321 7.95481 4.25917 7.92373Q4.33513 7.89266 4.40819 7.8543Q4.48126 7.81593 4.55082 7.77059Q4.62039 7.72525 4.68589 7.6733Q4.75139 7.62135 4.8123 7.56322L11.5594 1.12325Q11.6082 1.07664 11.6463 1.0234Q11.6844 0.970156 11.7105 0.912003Q11.7366 0.853849 11.7499 0.792681Q11.7632 0.731512 11.7633 0.669319Q11.7634 0.607126 11.7502 0.545933Q11.737 0.484741 11.7109 0.426542Q11.6849 0.368342 11.6469 0.315031Q11.6089 0.261719 11.5602 0.215031L11.5209 0.177457Q11.4722 0.130769 11.4165 0.0943362Q11.3608 0.0579037 11.3 0.032913Q11.2392 0.00792226 11.1752 -0.00481311Q11.1112 -0.0175485 11.0462 -0.0176138Q10.9811 -0.0176792 10.9171 -0.00507245Q10.8531 0.00753431 10.7922 0.0324028Q10.7314 0.0572712 10.6756 0.0935916Q10.6198 0.129912 10.571 0.176502Z"/>
	</g>

</svg>