<?xml version="1.0" encoding="utf-8" ?>
<svg xmlns="http://www.w3.org/2000/svg" xmlns:xlink="http://www.w3.org/1999/xlink" width="10" height="12">
	<defs>
		<clipPath id="clip_0">
			<rect x="-804.20001" y="-1521.8301" width="1310.4" height="3379.74" clip-rule="evenodd"/>
		</clipPath>
	</defs>
	<g clip-path="url(#clip_0)">
		<path fill="rgb(230,46,46)" stroke="none" transform="matrix(0.91 0 0 0.91 0.257416 0.599976)" d="M5.53531 11.955C7.83508 11.6856 9.67817 9.76311 9.94046 7.35822C10.2847 4.21373 7.94749 1.53699 5.01775 1.50271L5.01775 0.0920943C5.01775 0.013727 4.92407 -0.0279056 4.86084 0.0210739L2.08332 2.15413C2.03648 2.19087 2.03648 2.26189 2.08332 2.29862L4.86084 4.43169C4.92407 4.48067 5.01775 4.43658 5.01775 4.36067L5.01775 2.9525C7.0763 2.98679 8.72501 4.81862 8.58449 7.00801C8.46506 8.89128 6.99667 10.4194 5.19573 10.5394C3.28707 10.6668 1.66412 9.24148 1.37372 7.35577C1.31986 7.00556 1.02712 6.75087 0.689879 6.75087C0.270676 6.75087 -0.0571932 7.14026 0.00838052 7.57373C0.415875 10.2603 2.78824 12.2758 5.53531 11.955Z"/>
	</g>

</svg>