<?xml version="1.0" encoding="utf-8" ?>
<svg xmlns="http://www.w3.org/2000/svg" xmlns:xlink="http://www.w3.org/1999/xlink" width="13" height="9">
	<defs>
		<clipPath id="clip_0">
			<rect x="-993.79999" y="-1305.5701" width="1281.6" height="3305.46" clip-rule="evenodd"/>
		</clipPath>
	</defs>
	<g clip-path="url(#clip_0)">
		<path fill="rgb(89,108,128)" fill-opacity="0.29803923" stroke="none" transform="matrix(0.89 0 0 0.89 1.44608 0.30658)" d="M10.571 0.176502L4.09942 6.3506Q4.05059 6.39719 3.99481 6.43353Q3.93904 6.46986 3.87813 6.49476Q3.81723 6.51966 3.75318 6.53231Q3.68913 6.54496 3.62403 6.54496Q3.55892 6.54495 3.49488 6.53228Q3.43083 6.51961 3.36994 6.4947Q3.30904 6.46979 3.25327 6.43344Q3.1975 6.39709 3.14868 6.35049L1.17661 4.46817Q1.12778 4.42157 1.07202 4.38522Q1.01625 4.34888 0.955356 4.32397Q0.894463 4.29906 0.830424 4.2864Q0.766386 4.27374 0.701287 4.27374Q0.636189 4.27374 0.572151 4.2864Q0.508112 4.29906 0.447218 4.32397Q0.386325 4.34888 0.330558 4.38522Q0.274791 4.42157 0.225968 4.46817L0.184837 4.50743Q0.136013 4.55403 0.0979329 4.60726Q0.0598524 4.66049 0.0337551 4.71861Q0.00765774 4.77673 -0.00560688 4.83786Q-0.0188715 4.89898 -0.0188715 4.96112Q-0.0188715 5.02325 -0.0056069 5.08438Q0.0076577 5.1455 0.033755 5.20362Q0.0598524 5.26174 0.0979328 5.31497Q0.136013 5.3682 0.184837 5.4148L2.4357 7.56322Q2.4966 7.62135 2.56211 7.6733Q2.62761 7.72525 2.69717 7.77059Q2.76674 7.81593 2.8398 7.8543Q2.91286 7.89266 2.98883 7.92373Q3.06479 7.95481 3.14303 7.97834Q3.22127 8.00187 3.30116 8.01766Q3.38104 8.03345 3.46192 8.04138Q3.54279 8.04931 3.624 8.04931Q3.7052 8.04931 3.78608 8.04138Q3.86696 8.03345 3.94684 8.01766Q4.02672 8.00187 4.10497 7.97834Q4.18321 7.95481 4.25917 7.92373Q4.33513 7.89266 4.40819 7.8543Q4.48126 7.81593 4.55082 7.77059Q4.62039 7.72525 4.68589 7.6733Q4.75139 7.62135 4.8123 7.56322L11.5594 1.12325Q11.6082 1.07664 11.6463 1.0234Q11.6844 0.970156 11.7105 0.912003Q11.7366 0.853849 11.7499 0.792681Q11.7632 0.731512 11.7633 0.669319Q11.7634 0.607126 11.7502 0.545933Q11.737 0.484741 11.7109 0.426542Q11.6849 0.368342 11.6469 0.315031Q11.6089 0.261719 11.5602 0.215031L11.5209 0.177457Q11.4722 0.130769 11.4165 0.0943362Q11.3608 0.0579037 11.3 0.032913Q11.2392 0.00792226 11.1752 -0.00481311Q11.1112 -0.0175485 11.0462 -0.0176138Q10.9811 -0.0176792 10.9171 -0.00507245Q10.8531 0.00753431 10.7922 0.0324028Q10.7314 0.0572712 10.6756 0.0935916Q10.6198 0.129912 10.571 0.176502Z"/>
	</g>

</svg>