<svg width="64" height="64" viewBox="0 0 64 64" fill="none" xmlns="http://www.w3.org/2000/svg">
<g id="ic_messages">
<path id="Fill 1" fill-rule="evenodd" clip-rule="evenodd" d="M1.15954 62.8199C1.90678 63.5791 2.89454 63.9971 3.94077 63.9971C4.37931 63.9971 4.81417 63.9229 5.2333 63.7766L12.3678 61.2868C14.9528 62.4992 17.8194 63.1414 20.6727 63.146H20.7031C23.8201 63.1459 26.9298 62.3894 29.6962 60.9582C32.3837 59.5678 34.7613 57.5336 36.5859 55.0663C40.2993 54.933 44.0086 54.0083 47.3422 52.3846L57.7817 56.0279C58.2704 56.1984 58.7771 56.2848 59.2876 56.2848C60.5062 56.2848 61.6567 55.7978 62.5273 54.9132C63.7795 53.6416 64.1999 51.7948 63.6245 50.0937L60.0373 39.4915C61.7709 35.8207 62.6896 31.7303 62.6957 27.6481C62.7068 20.4033 59.947 13.5537 54.9251 8.3608C49.9019 3.16681 43.2079 0.243025 36.0761 0.128374C35.9286 0.126003 35.7808 0.124756 35.6338 0.124756C28.409 0.124756 21.6157 2.98305 16.5052 8.17329C11.5417 13.2141 8.73537 19.8923 8.58722 27.0021C6.21701 28.861 4.26421 31.2668 2.93065 33.974C1.55717 36.7621 0.833764 39.8845 0.838432 43.0036C0.842977 45.9005 1.47548 48.8117 2.66925 51.4372L0.217718 58.6828C-0.276348 60.1429 0.0845585 61.7282 1.15954 62.8199ZM47.1685 47.3859C47.4304 47.3859 47.6886 47.4299 47.9364 47.5162L59.0695 51.4015L55.244 40.0949C55.0327 39.4699 55.0859 38.7764 55.3903 38.1925C57.0718 34.964 57.9638 31.3151 57.9694 27.6405C57.9881 15.3121 48.1333 5.12312 36.0013 4.92763C35.8795 4.92575 35.7584 4.92476 35.6369 4.92476C29.6726 4.92476 24.065 7.28377 19.8473 11.5674C15.5345 15.9474 13.2125 21.7738 13.3093 27.9732C13.5013 40.2756 23.5181 50.2842 35.6387 50.2842H35.6741C39.2911 50.2787 42.884 49.3728 46.0635 47.6645C46.4023 47.4823 46.7844 47.3859 47.1685 47.3859ZM9.11961 33.0917C6.81512 35.8679 5.55944 39.3481 5.56497 42.9963C5.5689 45.4873 6.1734 47.9606 7.31324 50.1489C7.61752 50.7328 7.67071 51.4262 7.45942 52.0512L5.20616 58.7105L11.7634 56.4222C12.0109 56.3357 12.2691 56.2921 12.5309 56.2921C12.9148 56.2921 13.2969 56.3882 13.6363 56.5705C15.7911 57.7282 18.2264 58.3422 20.679 58.346H20.7028C24.3662 58.346 27.8397 57.0244 30.5868 54.6046C25.3424 53.5984 20.5555 51.049 16.6894 47.1925C12.7907 43.3033 10.1869 38.446 9.11961 33.0917Z" fill="#0070D9"/>
<path id="Fill 4" opacity="0.3" d="M24.4865 21.8294C23.1835 21.8294 22.1233 20.7528 22.1233 19.4294C22.1233 18.1059 23.1835 17.0293 24.4865 17.0293H46.7895C48.0926 17.0293 49.1527 18.1059 49.1527 19.4294C49.1527 20.7528 48.0926 21.8294 46.7895 21.8294H24.4865Z" fill="#0070D9"/>
<path id="Fill 6" opacity="0.3" d="M24.4865 29.648C23.1835 29.648 22.1233 28.5714 22.1233 27.248C22.1233 25.9245 23.1835 24.8479 24.4865 24.8479H46.7895C48.0926 24.8479 49.1527 25.9245 49.1527 27.248C49.1527 28.5714 48.0926 29.648 46.7895 29.648H24.4865Z" fill="#0070D9"/>
<path id="Fill 8" opacity="0.3" d="M24.4864 37.4664C23.1833 37.4664 22.1232 36.3897 22.1232 35.0663C22.1232 33.7428 23.1833 32.6661 24.4864 32.6661H38.2044C39.5074 32.6661 40.5675 33.7428 40.5675 35.0663C40.5675 36.3897 39.5074 37.4664 38.2043 37.4664H24.4864Z" fill="#0070D9"/>
</g>
</svg>
