<svg width="16" height="16" viewBox="0 0 16 16" fill="none" xmlns="http://www.w3.org/2000/svg">
<g id="ic_support">
<path id="Fill 1" fill-rule="evenodd" clip-rule="evenodd" d="M2.34311 13.6568C3.85415 15.1678 5.86314 16 8 16C10.1369 16 12.1458 15.1678 13.6569 13.6568C15.1678 12.1458 16 10.1369 16 8C16 5.86314 15.1678 3.85415 13.6569 2.34314C12.1458 0.832154 10.1369 0 8 0C5.86314 0 3.85415 0.832154 2.34311 2.34314C0.832123 3.85418 0 5.86314 0 8C0 10.1369 0.832123 12.1458 2.34311 13.6568ZM13.5447 11.9846C12.8667 10.5397 11.6456 9.41382 10.1469 8.85142C10.9065 8.21622 11.3538 7.26997 11.3538 6.27692C11.3538 4.4276 9.84932 2.92308 8 2.92308C6.15068 2.92308 4.64615 4.4276 4.64615 6.27692C4.64615 7.26994 5.09354 8.21622 5.85314 8.85142C4.3544 9.41382 3.13323 10.5397 2.45532 11.9846C1.61317 10.8178 1.16923 9.44468 1.16923 8C1.16923 4.23351 4.23351 1.16923 8 1.16923C11.7665 1.16923 14.8308 4.23351 14.8308 8C14.8308 9.44468 14.3868 10.8178 13.5447 11.9846ZM5.81538 6.27692C5.81538 5.07234 6.79541 4.09231 8 4.09231C9.20458 4.09231 10.1846 5.07234 10.1846 6.27692C10.1846 7.48151 9.20458 8.46154 8 8.46154C6.79541 8.46154 5.81538 7.48151 5.81538 6.27692ZM3.31662 12.9675C4.59049 14.1697 6.25052 14.8308 8 14.8308C9.74942 14.8308 11.4095 14.1697 12.6834 12.9675C12.3521 12.0056 11.7406 11.1807 10.9112 10.5782C10.0579 9.95837 9.05123 9.63077 8 9.63077C6.94877 9.63077 5.94209 9.95837 5.0888 10.5782C4.25938 11.1807 3.64788 12.0055 3.31662 12.9675Z" fill="#0070D9"/>
</g>
</svg>
