<svg width="16" height="16" viewBox="0 0 16 16" fill="none" xmlns="http://www.w3.org/2000/svg">
<g id="ic_status_messages">
<g id="Group 2">
<path id="Rectangle" opacity="0.3" fill-rule="evenodd" clip-rule="evenodd" d="M4.38723 12.5232C4.12263 12.7758 3.70626 12.7758 3.44166 12.5232L0.518962 9.73357C0.236345 9.46381 0.236345 9.01265 0.518962 8.7429V8.7429C0.783562 8.49034 1.19994 8.49034 1.46454 8.7429L4.38723 11.5326C4.66985 11.8023 4.66985 12.2535 4.38723 12.5232V12.5232Z" fill="#596C80"/>
<path id="Path" opacity="0.3" fill-rule="evenodd" clip-rule="evenodd" d="M11.8066 5.442C12.089 5.17219 12.089 4.72116 11.8064 4.45147V4.45147C11.5417 4.19883 11.1252 4.19891 10.8606 4.45166L7.40833 7.74939C7.12589 8.01919 7.12598 8.4702 7.40852 8.73989V8.73989C7.6732 8.99254 8.08974 8.99246 8.35433 8.73972L11.8066 5.442Z" fill="#596C80"/>
<path id="Path_2" opacity="0.3" fill-rule="evenodd" clip-rule="evenodd" d="M15.7541 4.43454C15.5003 4.19146 15.1002 4.19106 14.846 4.43362L8.33171 10.6484C8.07778 10.8907 7.67831 10.8906 7.42445 10.6483L5.409 8.72462C5.15509 8.48227 4.75554 8.48227 4.50163 8.72462L4.46153 8.7629C4.19033 9.02175 4.19033 9.45468 4.46153 9.71354L6.74381 11.8919C7.37858 12.4978 8.37747 12.4978 9.01224 11.8919L15.7916 5.42114C16.0625 5.1626 16.0629 4.73032 15.7924 4.4713L15.7541 4.43454Z" fill="#596C80"/>
</g>
</g>
</svg>
