<svg width="24" height="24" viewBox="0 0 24 24" fill="none" xmlns="http://www.w3.org/2000/svg">
<g id="ic_settings">
<path id="Shape" opacity="0.5" fill-rule="evenodd" clip-rule="evenodd" d="M8.66193 12.0402C8.66193 10.1942 10.1579 8.69238 11.9966 8.69238C13.8354 8.69238 15.3314 10.1942 15.3314 12.0402C15.3314 13.8861 13.8354 15.388 11.9966 15.388C10.1579 15.388 8.66193 13.8861 8.66193 12.0402ZM9.9958 12.0402C9.9958 13.1476 10.8935 14.0489 11.9966 14.0489C13.0998 14.0489 13.9975 13.1476 13.9975 12.0402C13.9975 10.9327 13.1004 10.0315 11.9966 10.0315C10.8935 10.0315 9.9958 10.9327 9.9958 12.0402Z" fill="#596C80"/>
<path id="Shape_2" opacity="0.5" fill-rule="evenodd" clip-rule="evenodd" d="M17.5316 9.73306L19.4277 10.0397C19.7559 10.0866 20 10.3691 20 10.7026V13.3808C20 13.721 19.7466 14.0069 19.4104 14.0457L17.4696 14.2734L18.5921 15.8234C18.7922 16.0899 18.7662 16.4635 18.5307 16.6998L16.6433 18.5947C16.4085 18.8317 16.037 18.8571 15.7703 18.6563L14.263 17.518L13.9575 19.4216C13.9108 19.7497 13.6293 19.9941 13.2972 19.9941H10.6294C10.2973 19.9941 10.0158 19.749 9.96916 19.4196L9.70237 17.5448L8.15641 18.6543C7.89097 18.8545 7.51881 18.8303 7.28338 18.5927L5.39594 16.6978C5.1605 16.4615 5.13447 16.0885 5.33456 15.8214L6.46837 14.3082L4.57225 14.0015C4.24409 13.956 4 13.6734 4 13.34V10.6618C4 10.3283 4.24409 10.0458 4.57225 9.99888L6.43969 9.73105L5.33456 8.17833C5.13447 7.91119 5.1605 7.53689 5.39659 7.30122L7.28403 5.41306C7.51681 5.17937 7.88294 5.15126 8.14906 5.34677L9.69034 6.47838L10.0025 4.58084C10.0492 4.2514 10.3306 4.00635 10.6627 4.00635H13.3305C13.658 4.00635 13.9368 4.24472 13.9888 4.56945L14.2889 6.44421L15.8383 5.35148C16.1044 5.1506 16.4778 5.17805 16.7126 5.41777L18.6074 7.34677C18.8395 7.58313 18.8642 7.95405 18.6654 8.21987L17.5316 9.73306ZM17.3056 12.9436L18.6667 12.7843V11.2824L17.3722 11.097C16.886 11.0333 16.4705 10.7006 16.2998 10.2285C16.1224 9.83016 16.1791 9.31728 16.4638 8.93093L17.2555 7.87502L16.1717 6.77294L15.1299 7.55499C14.7418 7.84356 14.2309 7.89849 13.7941 7.70564C13.3646 7.55029 13.0331 7.13385 12.9691 6.63568L12.7623 5.34476H11.241L11.0562 6.64506C10.9929 7.13316 10.6614 7.55029 10.1912 7.7217C9.79506 7.89849 9.28484 7.84356 8.89934 7.557L7.82091 6.76556L6.74913 7.83819L7.53412 8.88538C7.82156 9.27775 7.87828 9.78997 7.68419 10.2292C7.53078 10.6584 7.11659 10.9918 6.62106 11.0568L5.33387 11.2422V12.7595L6.62841 12.9443C7.11728 13.0085 7.53078 13.3427 7.70153 13.814C7.87894 14.2117 7.82225 14.7247 7.53747 15.111L6.74847 16.1635L7.81691 17.2362L8.86069 16.4474C9.25219 16.1575 9.76241 16.1019 10.1993 16.2961C10.6267 16.4501 10.9589 16.8659 11.0236 17.3634L11.2083 18.6549H12.7197L12.9037 17.3553C12.9684 16.8652 13.3006 16.4494 13.7701 16.2787C14.1643 16.0999 14.6758 16.1568 15.062 16.4434L16.1104 17.2355L17.1788 16.1629L16.3932 15.115C16.1051 14.7246 16.0484 14.2111 16.2418 13.7718C16.3958 13.342 16.81 13.0085 17.3056 12.9436Z" fill="#596C80"/>
</g>
</svg>
