<svg width="16" height="16" viewBox="0 0 16 16" fill="none" xmlns="http://www.w3.org/2000/svg">
<g id="ic_status_messages">
<path id="Path" opacity="0.3" fill-rule="evenodd" clip-rule="evenodd" d="M8.88439 8.0001L12.8168 4.06756C13.0611 3.82345 13.0611 3.42736 12.8168 3.18324C12.5724 2.93892 12.1768 2.93892 11.9325 3.18324L8.0001 7.11578L4.06752 3.18324C3.82321 2.93892 3.42755 2.93892 3.18324 3.18324C2.93892 3.42736 2.93892 3.82345 3.18324 4.06756L7.11582 8.0001L3.18324 11.9326C2.93892 12.1768 2.93892 12.5728 3.18324 12.817C3.30539 12.9389 3.46549 13 3.62538 13C3.78527 13 3.94536 12.9389 4.06752 12.8168L8.0001 8.88422L11.9325 12.8168C12.0546 12.9389 12.2147 13 12.3746 13C12.5345 13 12.6946 12.9389 12.8168 12.8168C13.0611 12.5726 13.0611 12.1766 12.8168 11.9324L8.88439 8.0001Z" fill="#596C80"/>
</g>
</svg>
