<svg width="16" height="16" viewBox="0 0 16 16" fill="none" xmlns="http://www.w3.org/2000/svg">
<g id="ic_support">
<path id="Shape" fill-rule="evenodd" clip-rule="evenodd" d="M1 7.03125C1 3.15422 4.1402 0 8 0C11.8598 0 15 3.15422 15 7.03125V10.8438C15 11.6192 14.372 12.25 13.6 12.25H13.1333V12.7188C13.1333 14.0111 12.0866 15.0625 10.8 15.0625H9.31973C9.12709 15.6081 8.60838 16 8 16C7.22804 16 6.6 15.3692 6.6 14.5938C6.6 13.8183 7.22804 13.1875 8 13.1875C8.60838 13.1875 9.12709 13.5794 9.31973 14.125H10.8C11.4307 14.125 11.9651 13.7038 12.1397 13.1269C12.011 13.1662 11.8746 13.1875 11.7333 13.1875C10.9614 13.1875 10.3333 12.5567 10.3333 11.7812V7.96875C10.3333 7.19334 10.9614 6.5625 11.7333 6.5625C12.3417 6.5625 12.8604 6.95444 13.0531 7.5H13.6C13.7636 7.5 13.9206 7.52859 14.0667 7.58063V7.03125C14.0667 3.67116 11.3452 0.9375 8 0.9375C4.65484 0.9375 1.93333 3.67116 1.93333 7.03125V7.58063C2.0794 7.52859 2.23639 7.5 2.4 7.5H2.94693C3.13957 6.95444 3.65829 6.5625 4.26667 6.5625C5.03863 6.5625 5.66667 7.19334 5.66667 7.96875V11.7812C5.66667 12.5567 5.03863 13.1875 4.26667 13.1875C3.65829 13.1875 3.13957 12.7956 2.94693 12.25H2.4C1.62804 12.25 1 11.6192 1 10.8438V7.03125ZM4.26667 7.5C4.00935 7.5 3.8 7.71028 3.8 7.96875V11.7812C3.8 12.0397 4.00935 12.25 4.26667 12.25C4.52399 12.25 4.73333 12.0397 4.73333 11.7812V7.96875C4.73333 7.71028 4.52399 7.5 4.26667 7.5ZM2.4 8.4375H2.86667V11.3125H2.4C2.14268 11.3125 1.93333 11.1022 1.93333 10.8438V8.90625C1.93333 8.64778 2.14268 8.4375 2.4 8.4375ZM7.53333 14.5938C7.53333 14.8522 7.74268 15.0625 8 15.0625C8.25732 15.0625 8.46667 14.8522 8.46667 14.5938C8.46667 14.3353 8.25732 14.125 8 14.125C7.74268 14.125 7.53333 14.3353 7.53333 14.5938ZM12.2 11.7812C12.2 12.0397 11.9907 12.25 11.7333 12.25C11.476 12.25 11.2667 12.0397 11.2667 11.7812V7.96875C11.2667 7.71028 11.476 7.5 11.7333 7.5C11.9907 7.5 12.2 7.71028 12.2 7.96875V11.7812ZM13.6 11.3125C13.8573 11.3125 14.0667 11.1022 14.0667 10.8438V8.90625C14.0667 8.64778 13.8573 8.4375 13.6 8.4375H13.1333V11.3125H13.6Z" fill="#0070D9"/>
</g>
</svg>
