<?xml version="1.0" encoding="UTF-8"?>
<svg width="6px" height="10px" viewBox="0 0 6 10" version="1.1" xmlns="http://www.w3.org/2000/svg" xmlns:xlink="http://www.w3.org/1999/xlink">
    <!-- Generator: Sketch 52.5 (67469) - http://www.bohemiancoding.com/sketch -->
    <title>ic_arrow</title>
    <desc>Created with Sketch.</desc>
    <g id="Register" stroke="none" stroke-width="1" fill="none" fill-rule="evenodd">
        <g id="Seller_1440" transform="translate(-229.000000, -171.000000)">
            <g id="ðŸª-BreadCrumbs" transform="translate(160.000000, 168.000000)">
                <g id="ic_arrow" transform="translate(71.000000, 8.000000) rotate(90.000000) translate(-71.000000, -8.000000) translate(63.000000, 0.000000)">
                    <rect id="Rectangle" x="0" y="-1.42108547e-14" width="16" height="16"></rect>
                    <path d="M12.897614,8.89646707 L8.22905263,4.11640719 C8.16235088,4.04803593 8.08561404,4.01379641 7.99880702,4.01379641 C7.912,4.01379641 7.83512281,4.04803593 7.76838596,4.11640719 L3.10021053,8.89646707 C3.03333333,8.96494611 3,9.04352096 3,9.13244311 C3,9.22132934 3.0334386,9.30001198 3.10021053,9.36834731 L3.60098246,9.88107784 C3.66775439,9.9494491 3.74459649,9.98361677 3.83140351,9.98361677 C3.91821053,9.98361677 3.99505263,9.9494491 4.06182456,9.88107784 L7.99880702,5.84986826 L11.9359298,9.88132934 C12.0026667,9.9497006 12.0795439,9.98365269 12.1662105,9.98365269 C12.2531579,9.98365269 12.33,9.94948503 12.3967368,9.88132934 L12.8975789,9.36838323 C12.9643158,9.3000479 12.9974737,9.22132934 12.9974737,9.13247904 C12.9975088,9.04352096 12.9643509,8.96483832 12.897614,8.89646707 Z" id="Path" fill="#8B97A9"></path>
                </g>
            </g>
        </g>
    </g>
</svg>