<svg id="ic_cold_search" xmlns="http://www.w3.org/2000/svg" width="43.311" height="43.311" viewBox="0 0 43.311 43.311">
  <rect id="Rectangle" width="43.311" height="43.311" fill="none"/>
  <path id="Fill_1" data-name="Fill 1" d="M18.948,37.9a3.33,3.33,0,0,1-1.11-6.471V28.878a9.939,9.939,0,0,1-5.123-2.126L10.962,28.5a3.325,3.325,0,1,1-1.57-1.57l1.752-1.752a9.95,9.95,0,0,1-2.126-5.123H6.471a3.331,3.331,0,1,1,0-2.221H9.018a9.946,9.946,0,0,1,2.126-5.123L9.392,10.962a3.358,3.358,0,0,1-1.435.325A3.329,3.329,0,1,1,10.313,5.6a3.34,3.34,0,0,1,.65,3.791l1.753,1.752a9.946,9.946,0,0,1,5.123-2.126V6.471a3.331,3.331,0,1,1,2.221,0V9.018a9.95,9.95,0,0,1,5.123,2.126l1.752-1.752a3.33,3.33,0,1,1,5.36.92,3.306,3.306,0,0,1-2.353.974,3.361,3.361,0,0,1-1.437-.324l-1.752,1.753a9.946,9.946,0,0,1,2.126,5.123h2.548a3.331,3.331,0,1,1,0,2.221H28.878a9.95,9.95,0,0,1-2.126,5.123L28.5,26.934a3.357,3.357,0,0,1,1.436-.324A3.33,3.33,0,1,1,26.934,28.5l-1.752-1.752a9.946,9.946,0,0,1-5.123,2.126v2.548a3.33,3.33,0,0,1-1.11,6.471Zm0-4.441a1.11,1.11,0,1,0,1.11,1.11A1.111,1.111,0,0,0,18.948,33.456ZM29.939,28.83a1.11,1.11,0,1,0,.785.325A1.1,1.1,0,0,0,29.939,28.83Zm-21.982,0a1.108,1.108,0,1,0,.785.325A1.1,1.1,0,0,0,7.957,28.83Zm10.991-6.55a3.335,3.335,0,0,0-3.331,3.331v.359a7.763,7.763,0,0,0,6.662,0V25.61A3.335,3.335,0,0,0,18.948,22.279Zm0-11.1a7.769,7.769,0,0,0-5.439,13.318,5.536,5.536,0,0,1,2.335-3.485,4.441,4.441,0,1,1,6.209,0,5.537,5.537,0,0,1,2.335,3.484,7.767,7.767,0,0,0-5.439-13.317Zm15.617,6.661a1.11,1.11,0,1,0,1.11,1.11A1.111,1.111,0,0,0,34.566,17.838ZM18.948,15.617a2.221,2.221,0,1,0,2.221,2.221A2.223,2.223,0,0,0,18.948,15.617ZM3.331,17.838a1.11,1.11,0,1,0,1.11,1.11A1.112,1.112,0,0,0,3.331,17.838ZM29.939,6.847a1.11,1.11,0,1,0,.785.325A1.1,1.1,0,0,0,29.939,6.847Zm-21.982,0a1.111,1.111,0,1,0,.785.325A1.1,1.1,0,0,0,7.957,6.847ZM18.948,2.221a1.11,1.11,0,1,0,1.11,1.11A1.112,1.112,0,0,0,18.948,2.221Z" transform="translate(2.707 2.707)" fill="#4857ce"/>
</svg>
