<svg id="ic_priority" xmlns="http://www.w3.org/2000/svg" width="43.311" height="43.311" viewBox="0 0 43.311 43.311">
  <rect id="Rectangle" width="43.311" height="43.311" fill="none"/>
  <path id="Fill_1" data-name="Fill 1" d="M22.586,37.822h-.044l-13.27-.457a1.246,1.246,0,0,1-.839-2.126L15.786,27.9l-2.038-2.034L6.393,33.2a1.247,1.247,0,1,1-1.766-1.763l7.354-7.34L9.944,22.067l-7.354,7.34a1.249,1.249,0,0,1-2.13-.839L0,15.323a1.246,1.246,0,0,1,.713-1.169l8.7-4.111a1.25,1.25,0,0,1,1.417.245l1.119,1.117a20.762,20.762,0,0,1,3.207-4.171,24.444,24.444,0,0,1,11.655-6.15A38.321,38.321,0,0,1,35.715,0c.629,0,.982.02.984.02A1.245,1.245,0,0,1,37.876,1.2a36.536,36.536,0,0,1-.607,7.732,31.708,31.708,0,0,1-2.088,6.985A21.933,21.933,0,0,1,30.648,22.7a20.782,20.782,0,0,1-4.18,3.2l1.12,1.118a1.247,1.247,0,0,1,.245,1.415L23.714,37.11A1.253,1.253,0,0,1,22.586,37.822ZM24.138,27.1a30.715,30.715,0,0,1-5.962,1.938l-5.947,5.936,9.579.329L25.2,28.158,24.138,27.1Zm-5.814-8.812a1.246,1.246,0,0,1,.883,2.127L15.513,24.1l2.438,2.433a27.291,27.291,0,0,0,5.8-2.006,1.262,1.262,0,0,1,.188-.094,18.889,18.889,0,0,0,4.944-3.5c3.677-3.67,5.249-8.771,5.92-12.4A36.6,36.6,0,0,0,35.4,2.494a36.017,36.017,0,0,0-8.173,1.065A21.9,21.9,0,0,0,16.919,9a18.86,18.86,0,0,0-3.505,4.935,1.209,1.209,0,0,1-.094.188,27.131,27.131,0,0,0-2.009,5.787l2.437,2.433,3.694-3.687A1.242,1.242,0,0,1,18.324,18.287ZM9.683,12.671h0L2.525,16.055l.33,9.56L8.8,19.682a30.55,30.55,0,0,1,1.942-5.951L9.683,12.671Z" transform="translate(2.707 2.78)" fill="#4857ce"/>
  <path id="Fill_4" data-name="Fill 4" d="M4.484,8.952A4.476,4.476,0,1,1,7.656,1.311,4.476,4.476,0,0,1,4.484,8.952Zm0-6.46a1.984,1.984,0,1,0,1.406.581A1.978,1.978,0,0,0,4.484,2.492Z" transform="translate(24.326 10.074)" fill="#4857ce"/>
</svg>
