<svg id="ic_personla_manager" xmlns="http://www.w3.org/2000/svg" width="43.311" height="43.311" viewBox="0 0 43.311 43.311">
  <rect id="Rectangle" width="43.311" height="43.311" fill="none"/>
  <path id="Shape" d="M27.561,37.9H2.785A2.758,2.758,0,0,1,.612,36.841a2.822,2.822,0,0,1-.535-2.412l.764-3.24A15,15,0,0,1,4.22,24.682a14.749,14.749,0,0,1,6.22-4.139,8.3,8.3,0,0,1-3.458-6.756V8.282a8.191,8.191,0,1,1,16.381,0v5.505a8.3,8.3,0,0,1-3.458,6.756,14.784,14.784,0,0,1,6.137,4.044,14.968,14.968,0,0,1,3.461,6.6l.765,3.24a2.823,2.823,0,0,1-.535,2.412A2.76,2.76,0,0,1,27.561,37.9ZM16.321,28.41v7.167H27.561a.485.485,0,0,0,.382-.185.5.5,0,0,0,.094-.424l-.765-3.24a12.613,12.613,0,0,0-3.465-6.133l-3.378,4.489a1.139,1.139,0,0,1-1.6.226ZM6.539,25.594a12.608,12.608,0,0,0-3.466,6.133l-.764,3.24a.494.494,0,0,0,.094.424.484.484,0,0,0,.382.186H14.026V28.41l-2.507,1.9a1.139,1.139,0,0,1-1.6-.226ZM20.776,23.42h0l-3.668,2.688,2.184,1.654,2.723-3.618a12.22,12.22,0,0,0-1.239-.724Zm-11.207,0a12.238,12.238,0,0,0-1.239.724l2.723,3.618,2.185-1.654Zm5.6-1.351a12.282,12.282,0,0,0-3.019.379l3.019,2.211,3.019-2.211A12.3,12.3,0,0,0,15.173,22.068ZM16.68,6.51l-7.4,2.6v4.68a5.9,5.9,0,1,0,11.792,0V8.966L16.68,6.51ZM15.173,2.32A5.947,5.947,0,0,0,9.528,6.563l6.884-2.414a1.13,1.13,0,0,1,.931.081L20.65,6.08A5.872,5.872,0,0,0,15.173,2.32Z" transform="translate(6.82 2.707)" fill="#4857ce"/>
</svg>
