<?xml version="1.0" encoding="UTF-8"?>
<svg width="24px" height="24px" viewBox="0 0 24 24" version="1.1" xmlns="http://www.w3.org/2000/svg" xmlns:xlink="http://www.w3.org/1999/xlink">
    <!-- Generator: Sketch 52.5 (67469) - http://www.bohemiancoding.com/sketch -->
    <title>ic_add_files</title>
    <desc>Created with Sketch.</desc>
    <g id="Buyer-Personal-Area" stroke="none" stroke-width="1" fill="none" fill-rule="evenodd">
        <g id="BPA_Travel_Details_1440" transform="translate(-820.000000, -2342.000000)" fill="#0070D9" fill-rule="nonzero">
            <g id="Content" transform="translate(544.000000, 218.000000)">
                <g id="History" transform="translate(0.000000, 1880.000000)">
                    <g id="Services-Slider" transform="translate(0.000000, 192.000000)">
                        <g id="Group-4">
                            <g id="Product-Card">
                                <g id="Add-files" transform="translate(16.000000, 16.000000)">
                                    <g id="Group-3" transform="translate(260.000000, 36.000000)">
                                        <g id="ic_add_files">
                                            <path d="M22.9090909,4.36363636 L19.6363636,4.36363636 L19.6363636,1.09090909 C19.6363636,0.488436364 19.1479273,0 18.5454545,0 L1.09090909,0 C0.488436364,0 0,0.488436364 0,1.09090909 L0,18.5454545 C0,19.1479273 0.488436364,19.6363636 1.09090909,19.6363636 L4.36363636,19.6363636 L4.36363636,22.9090909 C4.36363636,23.5115636 4.85207273,24 5.45454545,24 L22.9090909,24 C23.5115636,24 24,23.5115636 24,22.9090909 L24,5.45454545 C24,4.85207273 23.5115636,4.36363636 22.9090909,4.36363636 Z M2.18181818,17.4545455 L2.18181818,2.18181818 L17.4545455,2.18181818 L17.4545455,4.36363636 L5.45454545,4.36363636 C4.85207273,4.36363636 4.36363636,4.85207273 4.36363636,5.45454545 L4.36363636,17.4545455 L2.18181818,17.4545455 Z M21.8181818,21.8181818 L6.54545455,21.8181818 L6.54545455,6.54545455 L18.5447273,6.54545455 C18.5450182,6.54545455 18.5451636,6.54552727 18.5454545,6.54552727 C18.5456727,6.54552727 18.5458909,6.54545455 18.5461818,6.54545455 L21.8181818,6.54545455 L21.8181818,21.8181818 Z M15.0833438,13.25 L18.3333438,13.25 C18.7475573,13.25 19.0833438,13.5857864 19.0833438,14 C19.0833438,14.4142136 18.7475573,14.75 18.3333438,14.75 L15.0833438,14.75 L15.0833438,18 C15.0833438,18.4142136 14.7475573,18.75 14.3333438,18.75 C13.9191302,18.75 13.5833438,18.4142136 13.5833438,18 L13.5833438,14.75 L10.3333438,14.75 C9.91913019,14.75 9.58334375,14.4142136 9.58334375,14 C9.58334375,13.5857864 9.91913019,13.25 10.3333438,13.25 L13.5833438,13.25 L13.5833438,10 C13.5833438,9.58578644 13.9191302,9.25 14.3333438,9.25 C14.7475573,9.25 15.0833438,9.58578644 15.0833438,10 L15.0833438,13.25 Z" id="XMLID_444_"></path>
                                        </g>
                                    </g>
                                </g>
                            </g>
                        </g>
                    </g>
                </g>
            </g>
        </g>
    </g>
</svg>