<?xml version="1.0" encoding="utf-8" ?>
<svg xmlns="http://www.w3.org/2000/svg" xmlns:xlink="http://www.w3.org/1999/xlink" width="10" height="6">
	<defs>
		<clipPath id="clip_0">
			<rect x="-801.79999" y="-94.919983" width="1209.6" height="3119.76" clip-rule="evenodd"/>
		</clipPath>
	</defs>
	<g clip-path="url(#clip_0)">
		<path fill="rgb(139,151,169)" stroke="none" transform="matrix(-0.84 7.34351e-08 -7.34351e-08 -0.84 8.79999 5.02841)" d="M9.89761 4.88267L5.22905 0.102611C5.16235 0.0342395 5.08561 0 4.99881 0C4.912 0 4.83512 0.0342395 4.76839 0.102611L0.100211 4.88267C0.0333333 4.95115 0 5.02972 0 5.11865C0 5.20753 0.0334386 5.28622 0.100211 5.35455L0.600982 5.86728C0.667754 5.93565 0.744596 5.96982 0.831404 5.96982C0.918211 5.96982 0.995053 5.93565 1.06182 5.86728L4.99881 1.83607L8.93593 5.86753C9.00267 5.9359 9.07954 5.96986 9.16621 5.96986C9.25316 5.96986 9.33 5.93569 9.39674 5.86753L9.89758 5.35459C9.96432 5.28625 9.99747 5.20753 9.99747 5.11868C9.99751 5.02972 9.96435 4.95104 9.89761 4.88267Z"/>
	</g>

</svg>