<svg width="14" height="11" viewBox="0 0 14 11" fill="none" xmlns="http://www.w3.org/2000/svg">
<g id="ic_arrow_right">
<path id="Path" fill-rule="evenodd" clip-rule="evenodd" d="M13.7549 4.94055L8.75389 0.226205C8.43145 -0.0786619 7.90998 -0.0747079 7.59083 0.234076C7.27168 0.542859 7.27497 1.04022 7.59907 1.34508L11.173 4.71425H0.822515C0.36766 4.71425 0 5.06545 0 5.49995C0 5.93445 0.36766 6.28569 0.822515 6.28569H11.173L7.59907 9.65486C7.27501 9.95972 7.27253 10.4571 7.59083 10.7659C7.75203 10.9214 7.96425 11 8.17648 11C8.38542 11 8.59431 10.9246 8.75389 10.7737L13.7549 6.05935C13.9112 5.91165 14 5.71047 14 5.49991C14 5.28943 13.912 5.08906 13.7549 4.94055Z" fill="white"/>
</g>
</svg>
