<svg width="24" height="16" viewBox="0 0 24 16" fill="none" xmlns="http://www.w3.org/2000/svg">
<g id="ic_analytics">
<path id="Path" fill-rule="evenodd" clip-rule="evenodd" d="M23.4542 14.9583H0.499041C0.223579 14.9583 0 15.1811 0 15.4558C0 15.7305 0.223579 15.9534 0.499041 15.9534H23.4542C23.7297 15.9534 23.9533 15.7305 23.9533 15.4558C23.9532 15.1811 23.7296 14.9583 23.4542 14.9583Z" fill="#0070D9"/>
<path id="Shape" fill-rule="evenodd" clip-rule="evenodd" d="M1.49709 8.98743H4.49124C4.7667 8.98743 4.99028 9.21031 4.99028 9.48497V15.4558C4.99028 15.7305 4.7667 15.9534 4.49124 15.9534H1.49709C1.22163 15.9534 0.998047 15.7305 0.998047 15.4559V9.48501C0.998047 9.21035 1.22163 8.98743 1.49709 8.98743ZM1.99613 14.9583H3.9922H3.99225V9.98255H1.99613V14.9583Z" fill="#0070D9"/>
<path id="Shape_2" fill-rule="evenodd" clip-rule="evenodd" d="M7.48537 4.01172H10.4795C10.755 4.01172 10.9786 4.23465 10.9786 4.5093V15.4559C10.9786 15.7305 10.755 15.9535 10.4795 15.9535H7.48537C7.20991 15.9535 6.98633 15.7305 6.98633 15.4559V4.5093C6.98633 4.23465 7.20991 4.01172 7.48537 4.01172ZM7.98436 14.9583H9.98048V5.00684H7.98436V14.9583Z" fill="#0070D9"/>
<path id="Shape_3" fill-rule="evenodd" clip-rule="evenodd" d="M13.4737 6.00195H16.4679C16.7433 6.00195 16.9669 6.22483 16.9669 6.49954V15.4558C16.9669 15.7305 16.7433 15.9534 16.4679 15.9534H13.4737C13.1982 15.9534 12.9747 15.7305 12.9747 15.4558V6.49954C12.9747 6.22488 13.1982 6.00195 13.4737 6.00195ZM13.9727 14.9582H15.9688V6.99708H13.9727V14.9582Z" fill="#0070D9"/>
<path id="Shape_4" fill-rule="evenodd" clip-rule="evenodd" d="M19.462 0.0311279H22.4561C22.7316 0.0311279 22.9552 0.254008 22.9552 0.528714V15.4558C22.9552 15.7305 22.7316 15.9534 22.4561 15.9534H19.462C19.1865 15.9534 18.963 15.7305 18.963 15.4558V0.528714C18.963 0.254055 19.1865 0.0311279 19.462 0.0311279ZM19.961 14.9582H21.9571V1.02625H19.961V14.9582Z" fill="#0070D9"/>
</g>
</svg>
