<svg width="16" height="16" viewBox="0 0 16 16" fill="none" xmlns="http://www.w3.org/2000/svg">
<g id="ic_profile_settings">
<g id="aircraft">
<path id="Path" fill-rule="evenodd" clip-rule="evenodd" d="M15.6439 2.71156C16.1129 1.59762 16.1185 0.800625 15.6607 0.34275C15.2049 -0.113063 14.4053 -0.113781 13.284 0.340719C12.5246 0.648531 11.7287 1.12897 11.3487 1.50903C11.3467 1.51097 11.3448 1.51294 11.3429 1.51487L10.0269 2.86581L8.45294 2.56528L8.66553 2.35269C8.9096 2.10859 8.9096 1.71287 8.66553 1.46881C8.42144 1.22472 8.02569 1.22472 7.78163 1.46881L6.96856 2.28187L5.82894 2.06428L5.85303 2.04019C6.0971 1.79609 6.0971 1.40037 5.85303 1.15631C5.60894 0.912219 5.21319 0.912219 4.96913 1.15631L4.34456 1.78087L3.55694 1.6305C2.96772 1.518 2.35544 1.6965 1.919 2.108L0.196221 3.73234C-0.0549043 3.96916 -0.0665293 4.36469 0.170252 4.61584C0.293221 4.74625 0.458971 4.81209 0.625127 4.81209C0.778908 4.81209 0.933033 4.75566 1.05378 4.64184L1.37594 4.33809L6.06022 6.66337L3.34556 9.39694L2.18422 9.34497C2.1741 9.3445 2.16416 9.34431 2.15403 9.34434C1.40863 9.34434 0.686471 9.65378 0.172408 10.1936C0.0336582 10.3393 -0.0264668 10.5429 0.010877 10.7407C0.0482207 10.9384 0.178502 11.106 0.360877 11.1911L3.38369 12.6005L4.90966 15.654C5.00069 15.8362 5.17472 15.9625 5.37613 15.9927C5.40706 15.9973 5.43797 15.9996 5.46878 15.9996C5.6385 15.9996 5.80253 15.9304 5.92138 15.8056L5.96385 15.7609C6.45063 15.2498 6.71872 14.5796 6.71872 13.8738V12.4128L9.3961 9.72078L10.6428 12.3891C10.8443 12.7708 11.7155 14.5624 11.7155 14.5624L12.6223 13.6035L10.15 8.38128C10.0635 8.19634 9.89228 8.06525 9.69116 8.03016C9.49025 7.99506 9.28453 8.06038 9.14056 8.20512L5.6506 11.7142C5.5341 11.8313 5.46875 11.9897 5.46875 12.1549V13.8738C5.46875 13.9061 5.46772 13.9383 5.46566 13.9703L4.40441 11.8468C4.34128 11.7205 4.23735 11.6193 4.10947 11.5597L2.04741 10.5982C2.07922 10.5959 2.11113 10.5946 2.14316 10.5943L3.5661 10.658C3.74297 10.6663 3.91335 10.5991 4.03753 10.4741L7.54831 6.93881C7.57347 6.91456 7.59675 6.88797 7.61791 6.85919C7.61897 6.85775 7.62003 6.85628 7.6211 6.85484C7.66735 6.79056 7.69941 6.72147 7.71847 6.64959C7.74088 6.56578 7.74503 6.47994 7.73266 6.39709C7.73219 6.39409 7.73194 6.3925 7.73172 6.39091C7.71753 6.30109 7.68375 6.21381 7.63038 6.13594C7.58978 6.07647 7.5385 6.02347 7.47763 5.98009C7.4766 5.97937 7.4756 5.97862 7.47456 5.97791C7.44394 5.95631 7.41235 5.93803 7.37969 5.92275L2.3455 3.42387L2.77656 3.01744C2.92203 2.88025 3.12613 2.82081 3.32253 2.85825L10.0366 4.14019C10.257 4.21394 10.51 4.16125 10.6831 3.98362L12.2351 2.39041C12.439 2.18797 12.9685 1.84156 13.5904 1.56812C14.22 1.29131 14.5943 1.24294 14.7513 1.24953C14.7552 1.40497 14.7011 1.77494 14.4184 2.39372C14.1386 3.00625 13.7845 3.53447 13.5793 3.73966C13.5778 3.74116 13.5763 3.74266 13.5748 3.74419L12.064 5.28612C11.8918 5.42656 11.8002 5.65456 11.8448 5.88809L13.1413 12.677C13.1788 12.8734 13.1193 13.0775 12.9821 13.223L11.3578 14.9458C11.121 15.197 11.1326 15.5925 11.3837 15.8293C11.5045 15.9432 11.6586 15.9996 11.8124 15.9996C11.9785 15.9996 12.1443 15.9337 12.2673 15.8033L13.8916 14.0805C14.3031 13.644 14.4816 13.0317 14.3691 12.4425L14.2186 11.6544L14.843 11.0301C15.0871 10.786 15.0871 10.3902 14.843 10.1462C14.5989 9.90209 14.2032 9.90209 13.9591 10.1462L13.9352 10.1701L13.7175 9.03056L14.5305 8.21759C14.7746 7.9735 14.7746 7.57778 14.5305 7.33372C14.2864 7.08962 13.8907 7.08962 13.6466 7.33372L13.4341 7.54625L13.1348 5.97931L14.4656 4.62109C14.8473 4.23809 15.3315 3.45362 15.6439 2.71156Z" fill="#798CA8"/>
</g>
</g>
</svg>
