<svg width="16" height="16" viewBox="0 0 16 16" fill="none" xmlns="http://www.w3.org/2000/svg">
<g id="ic_advice">
<path id="Path" fill-rule="evenodd" clip-rule="evenodd" d="M11.469 4.73477L6.15061 10.0531L4.53099 8.4335C4.30781 8.21033 3.94604 8.21033 3.72286 8.4335C3.49969 8.65668 3.49969 9.01845 3.72286 9.24163L5.74654 11.2653C5.8581 11.3769 6.00432 11.4327 6.15061 11.4327C6.29683 11.4327 6.44312 11.3769 6.55467 11.2653L12.2771 5.54284C12.5003 5.31966 12.5003 4.95788 12.2771 4.73471C12.054 4.5116 11.6921 4.5116 11.469 4.73477Z" fill="#36A236"/>
<path id="Shape" fill-rule="evenodd" clip-rule="evenodd" d="M0 8C0 3.58876 3.58876 0 8 0C12.4112 0 16 3.58876 16 8C16 12.4112 12.4112 16 8 16C3.58876 16 0 12.4112 0 8ZM1.14286 8C1.14286 11.781 4.21898 14.8571 8 14.8571C11.781 14.8571 14.8571 11.781 14.8571 8C14.8571 4.21898 11.781 1.14286 8 1.14286C4.21898 1.14286 1.14286 4.21898 1.14286 8Z" fill="#36A236"/>
</g>
</svg>
