<svg width="16" height="14" viewBox="0 0 16 14" fill="none" xmlns="http://www.w3.org/2000/svg">
<g id="ic_ask_question">
<path id="Shape" d="M6.66667 0V0C10.3486 0 13.3333 2.37773 13.3333 5.31081C13.3333 8.24389 10.3486 10.6216 6.66667 10.6216C6.31308 10.6216 5.96603 10.5995 5.62731 10.5572C4.19528 11.9612 2.54158 12.213 0.888889 12.25V11.9064C1.78128 11.4777 2.5 10.6969 2.5 9.80457C2.5 9.68007 2.49011 9.55784 2.47181 9.43827C0.964056 8.46459 0 6.97744 0 5.31081C0 2.37773 2.98478 0 6.66667 0Z" fill="white"/>
<path id="Path" opacity="0.3" d="M13.8332 11.9039C13.8332 12.6688 14.3376 13.3381 15.111 13.7055V14C13.6787 13.9683 12.364 13.7525 11.123 12.5491C10.8293 12.5853 10.5286 12.6044 10.2221 12.6044C8.89618 12.6044 7.67479 12.2522 6.69971 11.6604C8.70904 11.6535 10.6061 11.0198 12.0446 9.8739C12.7698 9.29621 13.3418 8.61844 13.7448 7.85935C14.1721 7.05454 14.3888 6.1971 14.3888 5.31083C14.3888 5.16799 14.3825 5.02596 14.3713 4.8847C15.3792 5.70411 15.9999 6.82094 15.9999 8.05218C15.9999 9.48072 15.1644 10.7554 13.8577 11.59C13.8418 11.6924 13.8332 11.7972 13.8332 11.9039Z" fill="white"/>
</g>
</svg>
