<?xml version="1.0" encoding="utf-8" ?>
<svg xmlns="http://www.w3.org/2000/svg" xmlns:xlink="http://www.w3.org/1999/xlink" width="24" height="19">
	<defs>
		<clipPath id="clip_0">
			<rect x="-1143" y="-766.34998" width="1368" height="3528.3003" clip-rule="evenodd"/>
		</clipPath>
	</defs>
	<g clip-path="url(#clip_0)">
		<path fill="rgb(121,140,168)" fill-opacity="0.49803922" stroke="none" transform="matrix(0.95 0 0 0.95 0.799988 0.324463)" d="M21.913 5.89734C20.7615 5.42211 19.2461 5.16038 17.6457 5.16038C16.0453 5.16038 14.5298 5.42211 13.3783 5.89734C13.1349 5.9978 12.9117 6.10676 12.7087 6.22305L12.7087 3.02398C12.7087 2.10469 11.9675 1.29241 10.6217 0.736961C9.4702 0.261732 7.95469 0 6.35433 0C4.75392 0 3.23841 0.261732 2.08697 0.736961C0.741188 1.29246 0 2.10469 0 3.02398L0 15.9245C0 16.8438 0.741188 17.6561 2.08697 18.2115C3.23845 18.6868 4.75392 18.9485 6.35433 18.9485C7.95473 18.9485 9.47025 18.6867 10.6217 18.2115C11.1942 17.9752 11.6568 17.6924 12 17.3746C12.3431 17.6924 12.8058 17.9752 13.3783 18.2115C14.5298 18.6868 16.0453 18.9485 17.6457 18.9485C19.246 18.9485 20.7615 18.6867 21.913 18.2115C23.2589 17.6561 24 16.8439 24 15.9246L24 8.18432C24 7.26498 23.2589 6.45279 21.913 5.89734ZM6.35437 4.66032C7.76995 4.66032 9.08991 4.43728 10.0711 4.03231C10.9718 3.66062 11.2913 3.2568 11.2913 3.02398C11.2913 2.79116 10.9718 2.38735 10.0711 2.01565C9.09 1.61069 7.77 1.38764 6.35437 1.38764C4.93875 1.38764 3.6188 1.61069 2.63756 2.01565C1.73691 2.38739 1.41736 2.79116 1.41736 3.02398C1.41736 3.2568 1.73691 3.66062 2.63756 4.03231C3.61875 4.43728 4.93875 4.66032 6.35437 4.66032ZM11.2913 5.60427C11.2913 5.83713 10.9718 6.24086 10.0711 6.6126C9.08991 7.01756 7.76995 7.24061 6.35437 7.24061C4.93875 7.24061 3.61875 7.01756 2.63756 6.6126C1.73691 6.2409 1.41736 5.83713 1.41736 5.60427L1.41736 4.9853C1.62037 5.10164 1.84364 5.21059 2.08702 5.31101C3.2385 5.78623 4.75397 6.04797 6.35437 6.04797C7.95478 6.04797 9.4703 5.78623 10.6217 5.31101C10.8651 5.21054 11.0884 5.10159 11.2914 4.9853L11.2914 5.60427L11.2913 5.60427ZM17.6457 9.82066C19.0613 9.82066 20.3813 9.59762 21.3625 9.19265C22.2631 8.82091 22.5826 8.41714 22.5826 8.18432C22.5826 7.9515 22.2631 7.54773 21.3625 7.17599C20.3813 6.77102 19.0613 6.54798 17.6457 6.54798C16.2301 6.54798 14.9101 6.77102 13.9289 7.17599C13.0282 7.54777 12.7087 7.95145 12.7087 8.18432C12.7087 8.41718 13.0282 8.82096 13.9289 9.19265C14.91 9.59762 16.23 9.82066 17.6457 9.82066ZM10.0711 9.1927C10.9718 8.82096 11.2913 8.41723 11.2913 8.18436L11.2914 8.18436L11.2914 7.56558C11.0884 7.68187 10.8651 7.79083 10.6217 7.89129C9.4703 8.36652 7.95478 8.62825 6.35437 8.62825C4.75397 8.62825 3.2385 8.36652 2.08702 7.89129C1.84364 7.79083 1.62037 7.68192 1.41736 7.56553L1.41736 8.18432C1.41736 8.41718 1.73691 8.82096 2.63756 9.1927C3.6187 9.59766 4.9387 9.82071 6.35433 9.82071C7.76995 9.82071 9.08991 9.59766 10.0711 9.1927ZM11.2913 10.7644C11.2913 10.9973 10.9718 11.401 10.0711 11.7727C9.08991 12.1777 7.76995 12.4008 6.35433 12.4008C4.9387 12.4008 3.6187 12.1777 2.63756 11.7727C1.73691 11.401 1.41736 10.9972 1.41736 10.7644L1.41736 10.1456C1.62037 10.262 1.84364 10.3709 2.08702 10.4713C3.2385 10.9466 4.75397 11.2083 6.35437 11.2083C7.95478 11.2083 9.4703 10.9466 10.6217 10.4713C10.8651 10.3709 11.0884 10.2619 11.2914 10.1456L11.2914 10.7644L11.2913 10.7644ZM22.5827 10.7644C22.5827 10.9973 22.2631 11.401 21.3625 11.7727C20.3813 12.1777 19.0613 12.4008 17.6457 12.4008C16.2301 12.4008 14.9101 12.1777 13.9289 11.7727C13.0283 11.401 12.7087 10.9972 12.7087 10.7644L12.7087 10.1459C12.9117 10.2622 13.1351 10.371 13.3784 10.4713C14.5299 10.9466 16.0454 11.2083 17.6458 11.2083C19.2462 11.2083 20.7616 10.9466 21.9131 10.4713C22.1564 10.371 22.3799 10.2622 22.5828 10.1459L22.5828 10.7644L22.5827 10.7644ZM10.0711 14.3528C10.9718 13.9811 11.2913 13.5773 11.2913 13.3445L11.2914 13.3445L11.2914 12.7257C11.0884 12.842 10.8651 12.9509 10.6217 13.0514C9.4703 13.5266 7.95478 13.7884 6.35437 13.7884C4.75397 13.7884 3.2385 13.5266 2.08702 13.0514C1.84364 12.951 1.62037 12.842 1.41736 12.7257L1.41736 13.3445C1.41736 13.5773 1.73691 13.9811 2.63756 14.3528C3.6187 14.7578 4.9387 14.9808 6.35433 14.9808C7.76995 14.9808 9.08991 14.7578 10.0711 14.3528ZM21.3625 14.3528C22.2631 13.9811 22.5827 13.5773 22.5827 13.3445L22.5828 13.3445L22.5828 12.7257C22.3798 12.842 22.1565 12.951 21.9131 13.0514C20.7616 13.5266 19.2462 13.7884 17.6458 13.7884C16.0454 13.7884 14.5299 13.5266 13.3784 13.0514C13.135 12.951 12.9118 12.842 12.7087 12.7257L12.7087 13.3445C12.7087 13.5773 13.0283 13.9811 13.9289 14.3528C14.9101 14.7578 16.2301 14.9808 17.6457 14.9808C19.0613 14.9808 20.3813 14.7578 21.3625 14.3528ZM11.2913 15.9246C11.2913 16.1574 10.9718 16.5612 10.0711 16.9329C9.08991 17.3379 7.76995 17.561 6.35437 17.561C4.93875 17.561 3.61875 17.3379 2.63756 16.9329C1.73691 16.5612 1.41736 16.1574 1.41736 15.9246L1.41736 15.3058C1.62037 15.4221 1.84364 15.5311 2.08702 15.6315C3.2385 16.1067 4.75397 16.3685 6.35437 16.3685C7.95478 16.3685 9.4703 16.1067 10.6217 15.6315C10.8651 15.531 11.0884 15.4221 11.2914 15.3058L11.2914 15.9246L11.2913 15.9246ZM22.5827 15.9246C22.5827 16.1574 22.2631 16.5612 21.3625 16.9329C20.3813 17.3379 19.0613 17.5609 17.6457 17.5609C16.2301 17.5609 14.9101 17.3379 13.9289 16.9329C13.0283 16.5612 12.7087 16.1574 12.7087 15.9246L12.7087 15.3058C12.9118 15.4221 13.135 15.5311 13.3784 15.6315C14.5299 16.1067 16.0454 16.3685 17.6458 16.3685C19.2462 16.3685 20.7616 16.1067 21.9131 15.6315C22.1565 15.5311 22.3798 15.4221 22.5828 15.3058L22.5828 15.9246L22.5827 15.9246Z" fill-rule="evenodd"/>
	</g>

</svg>