<?xml version="1.0" encoding="utf-8" ?>
<svg xmlns="http://www.w3.org/2000/svg" xmlns:xlink="http://www.w3.org/1999/xlink" width="16" height="14">
	<defs>
		<clipPath id="clip_0">
			<rect x="-258.59998" y="-100.09" width="1339.2" height="3454.02" clip-rule="evenodd"/>
		</clipPath>
	</defs>
	<g clip-path="url(#clip_0)">
		<path fill="rgb(121,140,168)" stroke="none" transform="matrix(0.93 0 0 0.93 8.31601 7.34488)" d="M0 2.8C0 3.43888 0.520935 3.95862 1.16129 3.95862L3.30645 3.95862C3.94681 3.95862 4.46774 3.43888 4.46774 2.8L4.46774 1.15862C4.46774 0.519738 3.94681 0 3.30645 0L1.16129 0C0.520935 0 0 0.519738 0 1.15862L0 2.8ZM0.967742 1.15862C0.967742 1.05212 1.05455 0.965517 1.16129 0.965517L3.30645 0.965517C3.41319 0.965517 3.5 1.05212 3.5 1.15862L3.5 2.8C3.5 2.9065 3.41319 2.9931 3.30645 2.9931L1.16129 2.9931C1.05455 2.9931 0.967742 2.9065 0.967742 2.8L0.967742 1.15862Z" fill-rule="evenodd"/>
	</g>
	<defs>
		<clipPath id="clip_1">
			<rect x="-258.59998" y="-100.09" width="1339.2" height="3454.02" clip-rule="evenodd"/>
		</clipPath>
	</defs>
	<g clip-path="url(#clip_1)">
		<path fill="rgb(121,140,168)" stroke="none" transform="matrix(0.93 0 0 0.93 0.869995 0.379944)" d="M1.35484 13.4625C1.35484 13.7287 1.5719 13.9453 1.83871 13.9453L14.1387 13.9453C14.4055 13.9453 14.6226 13.7287 14.6226 13.4625L14.6226 6.73555C15.4498 6.34486 15.9807 5.51478 15.9807 4.6023C15.9807 4.51418 15.9585 4.43333 15.9164 4.36469L13.5681 0.245209C13.482 0.0939448 13.3212 0 13.1484 0L2.82903 0C2.65397 0 2.49297 0.0942989 2.40942 0.245177L0.0638065 4.36552C0.0214839 4.44157 0 4.52123 0 4.6023C0 5.5123 0.529677 6.34078 1.35484 6.73052L1.35484 13.4625ZM12.8663 0.968736L14.5917 3.99724L1.38877 3.99724L3.11123 0.968736L12.8663 0.968736ZM2.35468 5.98943C1.72094 5.98943 1.17568 5.56276 1.01694 4.95954L3.70884 4.95954C3.54964 5.56273 3.00035 5.98943 2.36087 5.98943L2.35468 5.98943ZM6.11613 5.98943C5.48006 5.98943 4.93103 5.5628 4.76913 4.95954L7.46048 4.95954C7.30145 5.56273 6.75348 5.98943 6.11613 5.98943ZM8.52342 4.95954C8.68245 5.56273 9.23042 5.98943 9.86777 5.98943C10.5051 5.98943 11.0531 5.56273 11.2121 4.95954L8.52342 4.95954ZM12.275 4.96276C12.434 5.56595 12.982 5.99264 13.6194 5.99264C14.2549 5.99264 14.8039 5.56605 14.9663 4.96276L12.275 4.96276ZM3.5 12.983L3.5 8.90851C3.5 8.12589 4.13816 7.4892 4.92258 7.4892L6.04839 7.4892C6.83281 7.4892 7.47097 8.12589 7.47097 8.90851L7.47097 12.9798L13.6548 12.9798L13.6548 6.95761C13.6432 6.95797 13.6314 6.95816 13.6194 6.95816C12.8795 6.95816 12.1875 6.61347 11.7419 6.02959C11.2965 6.61347 10.6057 6.95816 9.86777 6.95816C9.12961 6.95816 8.43874 6.61337 7.99326 6.02924C7.5449 6.61337 6.853 6.95816 6.11613 6.95816C5.37626 6.95816 4.68429 6.61347 4.23871 6.02959C3.79313 6.61347 3.10116 6.95816 2.36129 6.95816L2.32258 6.9581L2.32258 12.983L3.5 12.983ZM6.50645 8.90851L6.50645 12.9798L4.47097 12.9798L4.47097 8.90851C4.47097 8.65828 4.67503 8.45471 4.92581 8.45471L6.05161 8.45471C6.30242 8.45471 6.50645 8.65828 6.50645 8.90851Z" fill-rule="evenodd"/>
	</g>

</svg>