<svg xmlns="http://www.w3.org/2000/svg" width="38" height="38" viewBox="0 0 38 38">
  <g id="ic_business_finder" transform="translate(-5 -5)">
    <path id="Shape" d="M34.659,38a3.314,3.314,0,0,1-2.361-.979l-7.331-7.33a1.113,1.113,0,0,1-.04-1.532l.785-.872-1.828-1.829a14.491,14.491,0,1,1,1.574-1.574L27.2,25.628l.707-.785a1.114,1.114,0,0,1,1.615-.042l7.5,7.5A3.34,3.34,0,0,1,34.659,38Zm-5.88-10.795-1.491,1.657,6.584,6.584a1.113,1.113,0,0,0,1.574-1.574ZM14.472,2.227A12.246,12.246,0,1,0,26.718,14.472,12.259,12.259,0,0,0,14.472,2.227Z" transform="translate(5 5)" fill="#fff"/>
    <path id="Shape-2" data-name="Shape" d="M10,20A10,10,0,1,1,20,10,10.011,10.011,0,0,1,10,20ZM10,2.222A7.778,7.778,0,1,0,17.778,10,7.787,7.787,0,0,0,10,2.222Z" transform="translate(9 9)" fill="#fff"/>
    <path id="Path" d="M10.678.335a1.071,1.071,0,0,0-1.556,0L4.4,5.241,1.878,2.621a1.071,1.071,0,0,0-1.555,0,1.174,1.174,0,0,0,0,1.616l3.3,3.429a1.071,1.071,0,0,0,1.555,0l5.5-5.714A1.175,1.175,0,0,0,10.678.335Z" transform="translate(14 16)" fill="#fff"/>
  </g>
</svg>
