<svg width="24" height="19" viewBox="0 0 24 19" fill="none" xmlns="http://www.w3.org/2000/svg">
<g id="ic_balance">
<path id="Shape" opacity="0.5" fill-rule="evenodd" clip-rule="evenodd" d="M21.913 5.92322C20.7615 5.44799 19.2461 5.18626 17.6457 5.18626C16.0453 5.18626 14.5298 5.44799 13.3783 5.92322C13.1349 6.02368 12.9117 6.13263 12.7087 6.24893V3.05005V3.05V3.04986C12.7087 2.13056 11.9675 1.31829 10.6217 0.76284C9.4702 0.287611 7.95469 0.0258789 6.35433 0.0258789C4.75392 0.0258789 3.23841 0.287611 2.08697 0.76284C0.741187 1.31834 0 2.13056 0 3.04986V3.05V3.05005V15.9504C0 16.8697 0.741187 17.682 2.08697 18.2374C3.23845 18.7127 4.75392 18.9743 6.35433 18.9743C7.95473 18.9743 9.47025 18.7126 10.6217 18.2374C11.1942 18.0011 11.6568 17.7182 12 17.4005C12.3431 17.7182 12.8058 18.0011 13.3783 18.2374C14.5298 18.7127 16.0453 18.9743 17.6457 18.9743C19.246 18.9743 20.7615 18.7126 21.913 18.2374C23.2589 17.682 24 16.8697 24 15.9504V8.2102C24 7.29085 23.2589 6.47867 21.913 5.92322ZM11.2913 15.9504C11.2913 16.1833 10.9718 16.587 10.0711 16.9588C9.08991 17.3638 7.76995 17.5868 6.35437 17.5868C4.93875 17.5868 3.61875 17.3638 2.63756 16.9588C1.73691 16.5871 1.41736 16.1833 1.41736 15.9504V15.3317C1.62037 15.448 1.84364 15.557 2.08702 15.6574C3.2385 16.1326 4.75397 16.3943 6.35437 16.3943C7.95478 16.3943 9.4703 16.1326 10.6217 15.6574C10.8651 15.5569 11.0884 15.448 11.2914 15.3317V15.9504H11.2913ZM10.0711 14.3787C10.9718 14.0069 11.2913 13.6032 11.2913 13.3703H11.2914V12.7516C11.0884 12.8679 10.8651 12.9768 10.6217 13.0773C9.4703 13.5525 7.95478 13.8142 6.35437 13.8142C4.75397 13.8142 3.2385 13.5525 2.08702 13.0773C1.84364 12.9769 1.62037 12.8679 1.41736 12.7516V13.3703C1.41736 13.6032 1.73691 14.007 2.63756 14.3787C3.6187 14.7836 4.9387 15.0067 6.35433 15.0067C7.76995 15.0067 9.08991 14.7836 10.0711 14.3787ZM11.2913 10.7903C11.2913 11.0232 10.9718 11.4269 10.0711 11.7986C9.08991 12.2036 7.76995 12.4266 6.35433 12.4266C4.9387 12.4266 3.6187 12.2036 2.63756 11.7986C1.73691 11.4269 1.41736 11.0231 1.41736 10.7903V10.1715C1.62037 10.2879 1.84364 10.3968 2.08702 10.4972C3.2385 10.9724 4.75397 11.2342 6.35437 11.2342C7.95478 11.2342 9.4703 10.9724 10.6217 10.4972C10.8651 10.3968 11.0884 10.2878 11.2914 10.1715V10.7903H11.2913ZM10.0711 9.21857C10.9718 8.84684 11.2913 8.44311 11.2913 8.21024H11.2914V7.59146C11.0884 7.70775 10.8651 7.8167 10.6217 7.91717C9.4703 8.3924 7.95478 8.65413 6.35437 8.65413C4.75397 8.65413 3.2385 8.3924 2.08702 7.91717C1.84364 7.8167 1.62037 7.7078 1.41736 7.59141V8.2102C1.41736 8.44306 1.73691 8.84684 2.63756 9.21857C3.6187 9.62354 4.9387 9.84658 6.35433 9.84658C7.76995 9.84658 9.08991 9.62354 10.0711 9.21857ZM11.2913 5.63014C11.2913 5.86301 10.9718 6.26674 10.0711 6.63848C9.08991 7.04344 7.76995 7.26649 6.35437 7.26649C4.93875 7.26649 3.61875 7.04344 2.63756 6.63848C1.73691 6.26678 1.41736 5.86301 1.41736 5.63014V5.01118C1.62037 5.12752 1.84364 5.23647 2.08702 5.33688C3.2385 5.81211 4.75397 6.07384 6.35437 6.07384C7.95478 6.07384 9.4703 5.81211 10.6217 5.33688C10.8651 5.23642 11.0884 5.12747 11.2914 5.01118V5.63014H11.2913ZM6.35437 4.6862C7.76995 4.6862 9.08991 4.46316 10.0711 4.05819C10.9718 3.6865 11.2913 3.28268 11.2913 3.04986C11.2913 2.81704 10.9718 2.41322 10.0711 2.04153C9.09 1.63656 7.77 1.41352 6.35437 1.41352C4.93875 1.41352 3.6188 1.63656 2.63756 2.04153C1.73691 2.41327 1.41736 2.81704 1.41736 3.04986C1.41736 3.28268 1.73691 3.6865 2.63756 4.05819C3.61875 4.46316 4.93875 4.6862 6.35437 4.6862ZM22.5827 15.9504C22.5827 16.1833 22.2631 16.587 21.3625 16.9588C20.3813 17.3637 19.0613 17.5868 17.6457 17.5868C16.2301 17.5868 14.9101 17.3637 13.9289 16.9588C13.0283 16.5871 12.7087 16.1833 12.7087 15.9504V15.3317C12.9118 15.448 13.135 15.557 13.3784 15.6574C14.5299 16.1326 16.0454 16.3943 17.6458 16.3943C19.2462 16.3943 20.7616 16.1326 21.9131 15.6574C22.1565 15.557 22.3798 15.448 22.5828 15.3317V15.9504H22.5827ZM21.3625 14.3787C22.2631 14.0069 22.5827 13.6032 22.5827 13.3703H22.5828V12.7516C22.3798 12.8679 22.1565 12.9769 21.9131 13.0773C20.7616 13.5525 19.2462 13.8142 17.6458 13.8142C16.0454 13.8142 14.5299 13.5525 13.3784 13.0773C13.135 12.9769 12.9118 12.8679 12.7087 12.7516V13.3703C12.7087 13.6032 13.0283 14.007 13.9289 14.3787C14.9101 14.7836 16.2301 15.0067 17.6457 15.0067C19.0613 15.0067 20.3813 14.7836 21.3625 14.3787ZM22.5827 10.7903C22.5827 11.0232 22.2631 11.4269 21.3625 11.7986C20.3813 12.2036 19.0613 12.4266 17.6457 12.4266C16.2301 12.4266 14.9101 12.2036 13.9289 11.7986C13.0283 11.4269 12.7087 11.0231 12.7087 10.7903V10.1718C12.9117 10.2881 13.1351 10.3968 13.3784 10.4972C14.5299 10.9725 16.0454 11.2342 17.6458 11.2342C19.2462 11.2342 20.7616 10.9724 21.9131 10.4972C22.1564 10.3968 22.3799 10.288 22.5828 10.1718V10.7903H22.5827ZM17.6457 9.84654C19.0613 9.84654 20.3813 9.6235 21.3625 9.21853C22.2631 8.84679 22.5826 8.44302 22.5826 8.2102C22.5826 7.97738 22.2631 7.57361 21.3625 7.20187C20.3813 6.7969 19.0613 6.57386 17.6457 6.57386C16.2301 6.57386 14.9101 6.7969 13.9289 7.20187C13.0282 7.57365 12.7087 7.97733 12.7087 8.2102C12.7087 8.44306 13.0282 8.84684 13.9289 9.21853C14.91 9.6235 16.23 9.84654 17.6457 9.84654Z" fill="#798CA8"/>
</g>
</svg>
