<svg width="20" height="14" viewBox="0 0 20 14" fill="none" xmlns="http://www.w3.org/2000/svg">
<g id="ic_cash">
<path id="Fill 1" fill-rule="evenodd" clip-rule="evenodd" d="M6.50181 1.85675C6.5325 1.92459 6.76781 2.16738 7.54848 2.39114C8.32726 2.61679 9.35195 2.74102 10.4339 2.74102C11.5452 2.74102 12.6426 2.60357 13.4448 2.36396C14.2158 2.13538 14.3972 1.90942 14.4292 1.85879C14.3971 1.80871 14.2161 1.58542 13.4484 1.35334C12.6555 1.11373 11.5567 0.976317 10.4339 0.976317C9.31219 0.976317 8.2557 1.1102 7.45905 1.35326C6.71416 1.58138 6.5344 1.80538 6.50181 1.85675ZM7.7654 4.62247C8.50647 4.8102 9.45262 4.91357 10.43 4.91357C11.5437 4.91357 12.6426 4.77612 13.4448 4.53647C14.2538 4.29298 14.4152 4.05498 14.4335 4.02283C14.4319 3.95389 14.45 3.88353 14.4852 3.82126V2.96718C14.2327 3.09095 13.9735 3.18922 13.7131 3.25985C12.8281 3.52691 11.6614 3.67436 10.43 3.67436C9.25538 3.67436 8.13657 3.53816 7.2798 3.29087C7.02777 3.22404 6.77633 3.13212 6.5318 3.01734L6.55487 3.94169C6.98679 4.1104 7.38761 4.33769 7.74734 4.61789C7.75306 4.61906 7.75886 4.62047 7.7654 4.62247ZM9.40955 7.05083C9.76379 7.07424 10.1082 7.08612 10.4339 7.08612H10.4351C11.145 6.34549 12.9716 6.02934 14.4852 5.97871V5.14361C14.2511 5.25816 13.9994 5.35667 13.7198 5.44334C12.828 5.71126 11.66 5.85867 10.43 5.85867C9.8972 5.85867 9.35247 5.8273 8.80801 5.7653C9.06986 6.15608 9.2718 6.58749 9.40955 7.05083ZM11.0888 7.80573C11.1673 7.91502 11.4723 8.13687 12.1674 8.33224C12.9479 8.54777 13.9575 8.66651 15.0099 8.66651C16.1347 8.66651 17.1929 8.53675 17.9893 8.30118C18.7787 8.06785 18.9694 7.8402 19.0045 7.78698C18.9707 7.73702 18.7875 7.52067 18.0245 7.29059C17.2479 7.05596 16.1491 6.92142 15.0099 6.92142H14.9586C13.9108 6.92142 12.9154 7.03875 12.1555 7.25181C11.4127 7.46075 11.1402 7.68714 11.0826 7.77534C11.0851 7.78561 11.087 7.79581 11.0888 7.80573ZM9.5217 9.22593C9.73041 9.23989 9.94584 9.2491 10.1643 9.25342L10.1429 8.02208C9.93669 8.01804 9.75306 8.01126 9.58588 8.00153C9.59684 8.13738 9.60071 8.26267 9.59759 8.38228C9.59763 8.65867 9.57211 8.94255 9.5217 9.22593ZM11.1275 10.024C11.4578 10.3691 12.8497 10.8391 15.0059 10.8391C16.1421 10.8391 17.2084 10.7066 18.0087 10.466C18.8283 10.217 18.9733 9.97773 18.9863 9.95267C18.9877 9.91353 18.9987 9.87832 19.0084 9.84702C19.0123 9.83483 19.0162 9.82236 19.0187 9.81153L19.0178 9.792V8.91208C18.777 9.0293 18.5181 9.12753 18.2465 9.20467C17.3636 9.46451 16.211 9.60769 15.002 9.60769C13.8676 9.60769 12.7673 9.47577 11.9038 9.2362C11.6308 9.16404 11.3631 9.06663 11.1067 8.94628L11.1203 9.71612L11.1275 10.024ZM8.59578 11.304C9.13361 11.385 9.67223 11.4313 10.2 11.4417L10.1815 10.1988C9.88757 10.1938 9.5845 10.1789 9.25905 10.1533C9.09341 10.5642 8.87073 10.9505 8.59578 11.304ZM4.80079 4.55279C3.84225 4.55279 2.92107 4.90765 2.20686 5.55204C0.636134 6.97161 0.521696 9.39887 1.95183 10.9628C2.67957 11.7586 3.71838 12.215 4.80193 12.215C5.7632 12.215 6.68394 11.8604 7.39456 11.2164C8.19807 10.4944 8.65878 9.46079 8.65878 8.38024C8.65878 8.12651 8.63274 7.86647 8.58138 7.60718C8.29219 6.24651 7.28178 5.14047 5.94473 4.72173C5.57176 4.60973 5.18659 4.55279 4.80079 4.55279ZM11.1637 12.147C11.174 12.1693 11.3034 12.4073 12.1138 12.6543C12.8989 12.8923 13.954 13.0234 15.0848 13.0234C16.2097 13.0234 17.2675 12.8882 18.0634 12.6426C18.8672 12.3938 19.0088 12.1518 19.0217 12.126V11.0734C18.7764 11.1947 18.5284 11.2927 18.2828 11.3652C17.3961 11.6328 16.2322 11.7802 15.0059 11.7802C13.4524 11.7802 12.025 11.5414 11.1462 11.1378L11.1637 12.147ZM15.0848 13.9646C12.8629 13.9646 10.5304 13.4738 10.2443 12.3796C9.36067 12.3682 8.51736 12.276 7.79858 12.1123C6.94627 12.7861 5.88323 13.1567 4.80079 13.1567C2.15361 13.1567 0 11.0157 0 8.38416C0 8.08389 0.0283235 7.78467 0.0842604 7.49487C0.515937 5.24542 2.49495 3.61267 4.78994 3.61267C5.06083 3.61267 5.33396 3.63593 5.60323 3.68193L5.56229 1.99593C5.55432 1.95044 5.5503 1.90432 5.5503 1.85867C5.5503 1.26706 6.11243 0.781455 7.1759 0.454317C8.04742 0.186553 9.20308 0.0390625 10.43 0.0390625C11.66 0.0390625 12.828 0.186474 13.7191 0.454161C14.6508 0.733651 15.1966 1.11593 15.3416 1.59055C15.4008 1.66781 15.432 1.76149 15.432 1.86259V5.97032C16.5039 5.99867 17.4923 6.13989 18.2949 6.37961C19.3049 6.68365 19.8578 7.11102 19.9387 7.65004C19.9632 7.71345 19.9684 7.77879 19.9684 7.82338V12.1332C19.9684 12.8861 19.0844 13.3146 18.3427 13.5415C17.4597 13.8143 16.3026 13.9646 15.0848 13.9646Z" fill="#0070D9"/>
<path id="Fill 4" fill-rule="evenodd" clip-rule="evenodd" d="M5.53622 11.248C4.76403 11.248 4.0389 10.9483 3.49433 10.4043C3.2359 10.1512 3.02738 9.84399 2.88951 9.51363H2.33922C2.07819 9.51363 1.86584 9.30257 1.86584 9.04305C1.86584 8.78356 2.07819 8.57246 2.33922 8.57246H2.65547C2.64947 8.4865 2.64813 8.39665 2.65133 8.29795H2.33922C2.07819 8.29795 1.86584 8.08689 1.86584 7.82736C1.86584 7.56787 2.07819 7.35677 2.33922 7.35677H2.84439C2.98786 6.9803 3.20652 6.64646 3.49488 6.36367C4.03977 5.82199 4.76423 5.52344 5.53429 5.52344C5.88912 5.52344 6.23717 5.58787 6.5688 5.71497C6.81093 5.80936 6.93196 6.08167 6.83886 6.32218C6.76687 6.50477 6.59413 6.62246 6.39867 6.62246C6.34052 6.62246 6.28312 6.61179 6.22809 6.59077C6.00588 6.50501 5.77267 6.46156 5.53472 6.46156C5.01961 6.46156 4.53358 6.66136 4.16604 7.02418C4.06746 7.12795 3.98158 7.23657 3.90648 7.35285H6.06703C6.32805 7.35285 6.5404 7.56395 6.5404 7.82344C6.5404 8.08293 6.32805 8.29403 6.06703 8.29403H3.60695C3.60111 8.38626 3.60375 8.47818 3.61468 8.56854H5.86194C6.12296 8.56854 6.33531 8.77963 6.33531 9.03912C6.33531 9.29861 6.12296 9.50971 5.86194 9.50971H3.97369C4.02896 9.59065 4.09369 9.66434 4.16703 9.72975L4.17034 9.73289C4.53579 10.0987 5.02289 10.3002 5.54194 10.3002C5.77835 10.3002 6.01058 10.2576 6.23227 10.1737L6.33922 10.1331V10.1515C6.35949 10.1489 6.37993 10.1476 6.4004 10.1476C6.59807 10.1476 6.77176 10.2664 6.84289 10.4502C6.93385 10.6978 6.81322 10.964 6.56872 11.0575C6.23748 11.1839 5.89014 11.248 5.53638 11.248H5.53622Z" fill="#0070D9"/>
</g>
</svg>
