<svg width="16" height="13" viewBox="0 0 16 13" fill="none" xmlns="http://www.w3.org/2000/svg">
<g id="ic_coins">
<path id="Shape" fill-rule="evenodd" clip-rule="evenodd" d="M14.6087 4.0526C13.841 3.72745 12.8307 3.54837 11.7638 3.54837C10.6968 3.54837 9.68653 3.72745 8.91887 4.0526C8.75663 4.12134 8.60778 4.19589 8.47244 4.27545V2.08674V2.08671V2.08662C8.47244 1.45763 7.97831 0.901861 7.08112 0.521815C6.31347 0.196658 5.30313 0.0175781 4.23622 0.0175781C3.16928 0.0175781 2.15894 0.196658 1.39131 0.521815C0.494125 0.901892 0 1.45763 0 2.08662V2.08671V2.08674V10.9133C0 11.5423 0.494125 12.0981 1.39131 12.4781C2.15897 12.8033 3.16928 12.9823 4.23622 12.9823C5.30316 12.9823 6.3135 12.8032 7.08112 12.4781C7.46278 12.3164 7.77122 12.1229 8 11.9055C8.22875 12.1229 8.53719 12.3164 8.91887 12.4781C9.68653 12.8033 10.6969 12.9823 11.7638 12.9823C12.8307 12.9823 13.841 12.8032 14.6087 12.4781C15.5059 12.0981 16 11.5423 16 10.9133V5.61738C16 4.98835 15.5059 4.43265 14.6087 4.0526ZM7.52756 10.9133C7.52756 11.0726 7.31453 11.3489 6.71409 11.6033C6.05994 11.8804 5.17997 12.033 4.23625 12.033C3.2925 12.033 2.4125 11.8804 1.75837 11.6033C1.15794 11.3489 0.944906 11.0726 0.944906 10.9133V10.49C1.08025 10.5696 1.22909 10.6441 1.39134 10.7128C2.159 11.038 3.16931 11.217 4.23625 11.217C5.30319 11.217 6.31353 11.038 7.08116 10.7128C7.24341 10.6441 7.39225 10.5695 7.52759 10.49V10.9133H7.52756ZM6.71409 9.83792C7.31453 9.58357 7.52756 9.30733 7.52756 9.14801H7.52759V8.72463C7.39225 8.8042 7.24341 8.87874 7.08116 8.94748C6.31353 9.27264 5.30319 9.45172 4.23625 9.45172C3.16931 9.45172 2.159 9.27264 1.39134 8.94748C1.22909 8.87877 1.08025 8.80423 0.944906 8.72463V9.14801C0.944906 9.30733 1.15794 9.5836 1.75837 9.83792C2.41247 10.115 3.29247 10.2676 4.23622 10.2676C5.17997 10.2676 6.05994 10.115 6.71409 9.83792ZM7.52756 7.38271C7.52756 7.54203 7.31453 7.81827 6.71409 8.07262C6.05994 8.3497 5.17997 8.50231 4.23622 8.50231C3.29247 8.50231 2.41247 8.3497 1.75837 8.07262C1.15794 7.81827 0.944906 7.542 0.944906 7.38271V6.95933C1.08025 7.03893 1.22909 7.11347 1.39134 7.18218C2.159 7.50734 3.16931 7.68642 4.23625 7.68642C5.30319 7.68642 6.31353 7.50734 7.08116 7.18218C7.24341 7.11344 7.39225 7.0389 7.52759 6.95933V7.38271H7.52756ZM6.71409 6.30732C7.31453 6.05297 7.52756 5.77674 7.52756 5.61741H7.52759V5.19403C7.39225 5.2736 7.24341 5.34814 7.08116 5.41688C6.31353 5.74204 5.30319 5.92112 4.23625 5.92112C3.16931 5.92112 2.159 5.74204 1.39134 5.41688C1.22909 5.34814 1.08025 5.27363 0.944906 5.194V5.61738C0.944906 5.7767 1.15794 6.05297 1.75837 6.30732C2.41247 6.5844 3.29247 6.73701 4.23622 6.73701C5.17997 6.73701 6.05994 6.5844 6.71409 6.30732ZM7.52756 3.85208C7.52756 4.0114 7.31453 4.28764 6.71409 4.54199C6.05994 4.81907 5.17997 4.97168 4.23625 4.97168C3.2925 4.97168 2.4125 4.81907 1.75837 4.54199C1.15794 4.28767 0.944906 4.0114 0.944906 3.85208V3.42857C1.08025 3.50817 1.22909 3.58272 1.39134 3.65142C2.159 3.97658 3.16931 4.15566 4.23625 4.15566C5.30319 4.15566 6.31353 3.97658 7.08116 3.65142C7.24341 3.58269 7.39225 3.50814 7.52759 3.42857V3.85208H7.52756ZM4.23625 3.20622C5.17997 3.20622 6.05994 3.05361 6.71409 2.77653C7.31453 2.52221 7.52756 2.24592 7.52756 2.08662C7.52756 1.92732 7.31453 1.65102 6.71409 1.39671C6.06 1.11963 5.18 0.967018 4.23625 0.967018C3.2925 0.967018 2.41253 1.11963 1.75837 1.39671C1.15794 1.65106 0.944906 1.92732 0.944906 2.08662C0.944906 2.24592 1.15794 2.52221 1.75837 2.77653C2.4125 3.05361 3.2925 3.20622 4.23625 3.20622ZM15.0551 10.9133C15.0551 11.0726 14.8421 11.3489 14.2417 11.6032C13.5875 11.8803 12.7075 12.0329 11.7638 12.0329C10.8201 12.0329 9.94006 11.8803 9.28594 11.6032C8.68553 11.3489 8.4725 11.0726 8.4725 10.9133V10.49C8.60784 10.5696 8.75669 10.6441 8.91894 10.7128C9.68659 11.038 10.6969 11.217 11.7638 11.217C12.8308 11.217 13.8411 11.038 14.6087 10.7128C14.771 10.6441 14.9198 10.5695 15.0552 10.49V10.9133H15.0551ZM14.2417 9.83792C14.8421 9.58357 15.0551 9.30733 15.0551 9.14801H15.0552V8.72463C14.9198 8.8042 14.771 8.87877 14.6087 8.94748C13.8411 9.27264 12.8308 9.45172 11.7638 9.45172C10.6969 9.45172 9.68659 9.27264 8.91894 8.94748C8.75669 8.87877 8.60784 8.80423 8.4725 8.72463V9.14801C8.4725 9.30733 8.68553 9.5836 9.28594 9.83792C9.94006 10.115 10.8201 10.2676 11.7638 10.2676C12.7075 10.2676 13.5875 10.115 14.2417 9.83792ZM15.0551 7.38271C15.0551 7.54203 14.8421 7.81827 14.2417 8.07262C13.5875 8.3497 12.7075 8.50231 11.7638 8.50231C10.8201 8.50231 9.94006 8.3497 9.28594 8.07262C8.68553 7.81827 8.4725 7.542 8.4725 7.38271V6.95952C8.60778 7.03908 8.75675 7.11351 8.91894 7.18218C9.68659 7.50737 10.6969 7.68642 11.7638 7.68642C12.8308 7.68642 13.8411 7.50734 14.6087 7.18218C14.7709 7.11351 14.9199 7.03905 15.0552 6.95952V7.38271H15.0551ZM11.7638 6.73698C12.7075 6.73698 13.5875 6.58437 14.2417 6.30729C14.8421 6.05294 15.0551 5.77667 15.0551 5.61738C15.0551 5.45808 14.8421 5.18181 14.2417 4.92746C13.5875 4.65038 12.7075 4.49777 11.7638 4.49777C10.8201 4.49777 9.94006 4.65038 9.28591 4.92746C8.6855 5.18184 8.47247 5.45805 8.47247 5.61738C8.47247 5.7767 8.6855 6.05297 9.28591 6.30729C9.94003 6.58437 10.82 6.73698 11.7638 6.73698Z" fill="#8B97A9"/>
</g>
</svg>
