<svg width="16" height="16" viewBox="0 0 16 16" fill="none" xmlns="http://www.w3.org/2000/svg">
<g id="ic_complete_stat">
<path id="Shape" fill-rule="evenodd" clip-rule="evenodd" d="M14.2061 1.79395C14.7775 2.36548 15.2241 3.03406 15.5336 3.78113C15.8431 4.5282 16 5.31689 16 6.125V6.75H9.25V0H9.875C10.6831 0 11.4718 0.15686 12.2189 0.466431C12.9659 0.775879 13.6346 1.22253 14.2061 1.79395ZM10.5 2.78638L11.6848 1.60156C11.3052 1.44958 10.9067 1.34448 10.5 1.29102V2.78638ZM10.5 4.5542L12.8158 2.2384C12.9941 2.37256 13.1635 2.51917 13.3221 2.67786C13.4807 2.83643 13.6273 3.00586 13.7616 3.18408L11.4458 5.5H10.5V4.5542ZM14.3983 4.31519L13.2135 5.5H14.709C14.6555 5.09326 14.5503 4.69482 14.3983 4.31519ZM8 1.25H7.375C5.40503 1.25 3.55298 2.01709 2.16003 3.41003C0.76709 4.80298 0 6.65503 0 8.625C0 10.595 0.76709 12.447 2.16003 13.84C3.55298 15.2329 5.40503 16 7.375 16C9.34497 16 11.197 15.2329 12.59 13.84C13.9829 12.447 14.75 10.595 14.75 8.625V8H8V1.25ZM7.375 14.75C10.5415 14.75 13.1544 12.335 13.4684 9.25H6.75V2.53162C3.66504 2.84558 1.25 5.4585 1.25 8.625C1.25 12.0023 3.99768 14.75 7.375 14.75Z" fill="#798CA8"/>
</g>
</svg>
