<svg width="20" height="14" viewBox="0 0 20 14" fill="none" xmlns="http://www.w3.org/2000/svg">
<g id="ic_credit_card">
<path id="Shape" fill-rule="evenodd" clip-rule="evenodd" d="M17.5967 0H2.389C1.07165 0 0 1.12036 0 2.49764V11.4794C0 12.8566 1.07165 13.977 2.389 13.977H17.5966C18.9139 13.977 19.9856 12.8566 19.9856 11.4794V2.49764C19.9857 1.12036 18.9139 0 17.5967 0ZM18.6637 11.4794C18.6637 12.0945 18.185 12.595 17.5967 12.595H2.389C1.80061 12.595 1.32183 12.0945 1.32183 11.4794V5.46032H18.6637L18.6637 11.4794ZM1.32187 3.49005L18.6637 3.48873V2.49759C18.6637 1.88241 18.185 1.38191 17.5967 1.38191H2.38904C1.80065 1.38191 1.32187 1.88241 1.32187 2.49759V3.49005Z" fill="#0070D9"/>
<path id="Path" fill-rule="evenodd" clip-rule="evenodd" d="M2.96242 11.3132H6.58111C6.71068 11.3132 6.81581 11.2034 6.81581 11.0679V10.3215C6.81581 10.186 6.71068 10.0762 6.58111 10.0762H2.96242C2.83285 10.0762 2.72772 10.186 2.72772 10.3215V11.0679C2.72768 11.2034 2.83281 11.3132 2.96242 11.3132Z" fill="#0070D9"/>
<path id="Path_2" fill-rule="evenodd" clip-rule="evenodd" d="M13.581 7.86084C13.9571 7.86084 14.3037 7.99252 14.5813 8.21393C14.8589 7.99261 15.2054 7.86084 15.5815 7.86084C16.4935 7.86084 17.2328 8.63375 17.2328 9.58716C17.2328 10.5406 16.4934 11.3134 15.5815 11.3134C15.2054 11.3134 14.8589 11.1817 14.5813 10.9603C14.3037 11.1817 13.9571 11.3134 13.581 11.3134C12.669 11.3134 11.9297 10.5406 11.9297 9.58716C11.9297 8.63375 12.6691 7.86084 13.581 7.86084Z" fill="#0070D9"/>
</g>
</svg>
