<svg width="16" height="14" viewBox="0 0 16 14" fill="none" xmlns="http://www.w3.org/2000/svg">
<g id="ic_index">
<path id="XMLID_892_" d="M12.3955 8.75577L11.579 9.57847L10.7624 8.75569C10.5157 8.50721 10.1158 8.50721 9.86918 8.75573C9.62253 9.00425 9.62257 9.4072 9.86918 9.65568L11.1324 10.9284C11.2557 11.0527 11.4174 11.1148 11.579 11.1148C11.7406 11.1148 11.9023 11.0527 12.0256 10.9284L13.2886 9.65576C13.5353 9.40724 13.5353 9.00434 13.2886 8.75582C13.042 8.50725 12.6421 8.50725 12.3955 8.75577Z" fill="#798CA8"/>
<path id="XMLID_893_" fill-rule="evenodd" clip-rule="evenodd" d="M12.2105 5.13596C13.1518 5.27079 14.0209 5.70615 14.7051 6.39554C15.5401 7.2369 16 8.35554 16 9.5455C16 12.0017 14.0167 14 11.579 14C9.81891 14 8.29596 12.9582 7.5851 11.4546H6.24927C6.31937 11.6538 6.3579 11.8679 6.3579 12.091C6.3579 13.1436 5.50792 14 4.46316 14C3.41841 14 2.56843 13.1436 2.56843 12.091C2.56843 11.8679 2.60695 11.6538 2.67706 11.4546H1.93685C1.58805 11.4546 1.30527 11.1697 1.30527 10.8182C1.30527 10.4668 1.58805 10.1819 1.93685 10.1819H7.20316C7.17352 9.97394 7.15786 9.76148 7.15786 9.54541C7.15786 9.32939 7.17352 9.11701 7.20316 8.90913H3.11142C2.85727 8.90913 2.62784 8.75556 2.52927 8.51951L0.0494365 2.58012C-0.0325845 2.38361 -0.011574 2.15884 0.105479 1.98125C0.222531 1.80371 0.420047 1.69697 0.631584 1.69697H10.9474V0.636364C10.9474 0.284921 11.2302 0 11.579 0H13.2632C13.612 0 13.8947 0.284921 13.8947 0.636364C13.8947 0.987806 13.612 1.27273 13.2632 1.27273H12.2105V5.13596ZM4.46316 12.7272C4.81142 12.7272 5.09474 12.4418 5.09474 12.0909C5.09474 11.74 4.81142 11.4545 4.46316 11.4545C4.11491 11.4545 3.83158 11.74 3.83158 12.0909C3.83158 12.4418 4.11491 12.7272 4.46316 12.7272ZM3.53091 7.63636L1.58249 2.9697H10.9474V5.13656C9.45988 5.35186 8.20923 6.31587 7.58502 7.63636H3.53091ZM8.42102 9.54537C8.42102 11.2998 9.83765 12.7272 11.5789 12.7272C13.3202 12.7272 14.7368 11.2999 14.7368 9.54545C14.7368 8.69553 14.4083 7.89647 13.8119 7.29553C13.2155 6.69455 12.4224 6.36359 11.579 6.36364C9.83756 6.36364 8.42102 7.79096 8.42102 9.54537Z" fill="#798CA8"/>
</g>
</svg>
