<svg width="12" height="16" viewBox="0 0 12 16" fill="none" xmlns="http://www.w3.org/2000/svg">
<g id="ic_contract">
<path id="Fill 1" fill-rule="evenodd" clip-rule="evenodd" d="M6.68533 15.9257C6.75519 15.9551 6.82887 15.97 6.9044 15.97H6.90443C7.05754 15.97 7.20145 15.9093 7.30954 15.7994L7.80905 15.2917L8.30852 15.7993C8.41673 15.9093 8.56067 15.9699 8.71378 15.9699C8.78928 15.9699 8.86296 15.9551 8.93288 15.9257C9.14765 15.8351 9.28643 15.6239 9.28643 15.3876V14.1309H11.4271C11.743 14.1309 12 13.8696 12 13.5485V0.613625C12 0.292491 11.743 0.03125 11.4271 0.03125H0.572864C0.256975 0.03125 0 0.292491 0 0.613625V13.5485C0 13.8696 0.256975 14.1309 0.572864 14.1309H6.33166V15.3876C6.33166 15.6239 6.47047 15.8351 6.68533 15.9257ZM10.8543 1.196V12.9661H9.28643V12.688C9.86207 12.2247 10.191 11.5364 10.191 10.7899V3.37225C10.191 3.05111 9.93395 2.78987 9.61809 2.78987C9.4352 2.78987 9.28643 2.63861 9.28643 2.45271C9.28643 2.13157 9.02943 1.87033 8.71357 1.87033H3.28643C2.97054 1.87033 2.71357 2.13157 2.71357 2.45271C2.71357 2.63861 2.56477 2.78987 2.38191 2.78987C2.06602 2.78987 1.80905 3.05111 1.80905 3.37225V10.7899C1.80905 11.111 2.06602 11.3722 2.38191 11.3722C2.56477 11.3722 2.71357 11.5235 2.71357 11.7094C2.71357 12.0305 2.97054 12.2918 3.28643 12.2918H5.94205C6.0565 12.4385 6.18718 12.5714 6.33166 12.688V12.9661H1.14573V1.196H10.8543ZM5.4502 11.127C5.43485 11.0156 5.42714 10.9028 5.42714 10.7899C5.42714 9.45467 6.49565 8.36841 7.80905 8.36841C8.25039 8.36841 8.67335 8.48949 9.04523 8.72057V3.83707C8.69264 3.6852 8.4057 3.39352 8.25636 3.03508H3.74364C3.5943 3.39349 3.30736 3.68517 2.95477 3.83704V10.3251C3.30736 10.477 3.5943 10.7686 3.74364 11.127H5.4502ZM7.80905 9.53317C7.1274 9.53317 6.57286 10.0969 6.57286 10.7899C6.57286 11.4828 7.1274 12.0466 7.80905 12.0466C8.49066 12.0466 9.04523 11.4828 9.04523 10.7899C9.04523 10.0969 8.49066 9.53317 7.80905 9.53317ZM7.80905 13.8857C7.92962 13.8857 8.04446 13.9233 8.1407 13.9931V13.1879C8.03111 13.2034 7.92006 13.2113 7.80905 13.2113C7.698 13.2113 7.58699 13.2034 7.47739 13.1879V13.993C7.57357 13.9233 7.68847 13.8857 7.80905 13.8857Z" fill="#798CA8"/>
<path id="Fill 4" d="M4.19095 4.87374C3.87506 4.87374 3.61809 4.61249 3.61809 4.29136C3.61809 3.97023 3.87506 3.70898 4.19095 3.70898H7.80904C8.12493 3.70898 8.38191 3.97023 8.38191 4.29136C8.38191 4.61249 8.12493 4.87374 7.80904 4.87374H4.19095Z" fill="#798CA8"/>
<path id="Fill 6" d="M4.19095 6.71358C3.87506 6.71358 3.61809 6.45234 3.61809 6.1312C3.61809 5.81007 3.87506 5.54883 4.19095 5.54883H7.80904C8.12493 5.54883 8.38191 5.81007 8.38191 6.1312C8.38191 6.45234 8.12493 6.71358 7.80904 6.71358H4.19095Z" fill="#798CA8"/>
</g>
</svg>
