<svg width="16" height="15" viewBox="0 0 16 15" fill="none" xmlns="http://www.w3.org/2000/svg">
<g id="ic_check">
<path id="Path" fill-rule="evenodd" clip-rule="evenodd" d="M14.5018 1.49866C12.5077 -0.470908 9.26289 -0.470908 7.26845 1.49866L1.0682 7.62233C-0.356144 9.02925 -0.356051 11.3184 1.06839 12.7252C1.78067 13.4287 2.71598 13.7804 3.65167 13.7804C4.58711 13.7803 5.52292 13.4286 6.23507 12.7252L11.9184 7.11187C12.3325 6.70298 12.5606 6.15931 12.5606 5.58104C12.5606 5.00273 12.3327 4.45909 11.9185 4.05008C11.0638 3.20597 9.67304 3.20601 8.81848 4.05023L5.10176 7.72097C4.81642 8.00277 4.81642 8.45971 5.1017 8.74156C5.38701 9.02344 5.84967 9.02335 6.13504 8.74156L9.85179 5.07079C10.1367 4.7894 10.6002 4.78934 10.8851 5.07073C11.0231 5.20702 11.0992 5.38826 11.0992 5.58101C11.0992 5.77375 11.0232 5.95493 10.8851 6.09128L5.20173 11.7046C4.34701 12.5487 2.95639 12.5488 2.10173 11.7047C1.24707 10.8605 1.24701 9.48699 2.10157 8.64283L8.30179 2.51925C9.72636 1.11233 12.0441 1.11233 13.4685 2.51925C14.1586 3.20073 14.5386 4.10687 14.5386 5.07067C14.5386 6.03446 14.1585 6.9406 13.4685 7.62215L7.26836 13.7459C6.98304 14.0277 6.98304 14.4846 7.26842 14.7665C7.41111 14.9075 7.59811 14.9779 7.78507 14.9779C7.97207 14.9779 8.15907 14.9074 8.30176 14.7665L14.5018 8.64277C15.4679 7.68866 15.9999 6.42008 16 5.0707C16 3.72135 15.4679 2.45277 14.5018 1.49866Z" fill="#8B97A9"/>
</g>
</svg>
