<svg width="16" height="16" viewBox="0 0 16 16" fill="none" xmlns="http://www.w3.org/2000/svg">
<g id="ic_details">
<path id="Path" fill-rule="evenodd" clip-rule="evenodd" d="M6.25662 3.63842C6.25662 3.54777 6.22074 3.46749 6.14908 3.39779L5.61152 2.8747C5.53986 2.80498 5.45741 2.77002 5.36425 2.77002C5.2711 2.77002 5.1886 2.80501 5.11699 2.8747L0.107536 7.7496C0.03577 7.81933 0 7.89957 0 7.99022C0 8.08087 0.0358829 8.16112 0.107536 8.23081L5.11695 13.1057C5.18857 13.1755 5.27091 13.2103 5.36421 13.2103C5.45752 13.2103 5.53986 13.1754 5.61148 13.1057L6.14905 12.5829C6.2207 12.5132 6.25658 12.4329 6.25658 12.3422C6.25658 12.2516 6.2207 12.1714 6.14905 12.1017L1.92431 7.99022L6.14908 3.87904C6.22085 3.80935 6.25662 3.72907 6.25662 3.63842Z" fill="#0070D9"/>
<path id="Path_2" fill-rule="evenodd" clip-rule="evenodd" d="M15.8725 7.74949L10.8629 2.8746C10.7913 2.80491 10.7088 2.76991 10.6158 2.76991C10.5225 2.76991 10.4403 2.80491 10.3684 2.8746L9.8311 3.39765C9.75949 3.46738 9.72375 3.54751 9.72375 3.63827C9.72375 3.72903 9.75945 3.8092 9.8311 3.8789L14.0559 7.99019L9.8311 12.1017C9.75949 12.1714 9.72375 12.2517 9.72375 12.3422C9.72375 12.433 9.75945 12.5132 9.8311 12.5829L10.3684 13.1057C10.4403 13.1755 10.5226 13.2103 10.6158 13.2103C10.7089 13.2103 10.7913 13.1754 10.8629 13.1057L15.8725 8.23085C15.9442 8.16116 15.98 8.08076 15.98 7.99011C15.98 7.89943 15.9442 7.81918 15.8725 7.74949Z" fill="#0070D9"/>
</g>
</svg>
