<svg width="32" height="32" viewBox="0 0 32 32" fill="none" xmlns="http://www.w3.org/2000/svg">
<g id="ic_crown">
<path id="Shape" fill-rule="evenodd" clip-rule="evenodd" d="M29.993 24.0269H21.6348V15.4602C21.6348 14.9258 21.2005 14.4927 20.665 14.4927H16.9727V12.3203C18.3019 11.5918 19.34 10.4658 19.9624 9.12964H21.0983C23.0569 9.12964 24.6503 7.53955 24.6503 5.58521V3.2605C24.6503 2.72583 24.2163 2.29272 23.6806 2.29272H20.617V0.967773C20.617 0.43335 20.1828 0 19.6472 0H12.3315C11.7959 0 11.3617 0.43335 11.3617 0.967773V2.29272H8.32508C7.78954 2.29272 7.35553 2.72583 7.35553 3.2605V5.58496C7.35553 7.53955 8.94893 9.12964 10.9076 9.12964H12.0213C12.6483 10.4697 13.6942 11.5972 15.0331 12.3232V14.4924H11.3174C10.7819 14.4924 10.3476 14.9258 10.3476 15.4602V19.2598H1.96979C1.43425 19.2598 1 19.6929 1 20.2275V31.0322C1 31.5667 1.43425 32 1.96979 32H29.993C30.5286 32 30.9628 31.5667 30.9628 31.0322V24.9946C30.9626 24.46 30.5286 24.0269 29.993 24.0269ZM29.0232 30.0645H21.6348V25.9622H29.0232V30.0645ZM19.6952 16.428H12.2872V30.0645H19.6952V16.428ZM13.3013 1.93555H18.6775V6.17285C18.6775 8.05347 17.6396 9.76587 16.0002 10.6462C14.3481 9.76953 13.3013 8.05151 13.3013 6.16113V1.93555ZM22.711 5.58496V4.22803H20.617V6.17285C20.617 6.51807 20.5916 6.85938 20.5422 7.19409H21.0985C21.9876 7.19409 22.711 6.47241 22.711 5.58496ZM10.9076 7.19434C10.0183 7.19434 9.29487 6.47241 9.29487 5.58521V4.22803H11.3617V6.16113C11.3617 6.5105 11.3876 6.85571 11.438 7.19434H10.9076ZM10.3476 21.1951H2.93959V30.0645H10.3476V21.1951Z" fill="#36A236"/>
</g>
</svg>
