<svg width="16" height="16" viewBox="0 0 16 16" fill="none" xmlns="http://www.w3.org/2000/svg">
<g id="ic_connect_offfer">
<path id="Shape" fill-rule="evenodd" clip-rule="evenodd" d="M0.000427246 7.97975C0.000427246 3.58001 3.57986 0 7.97965 0C12.3791 0 15.9588 3.58001 15.9588 7.97975C15.9588 12.3792 12.3791 15.9592 7.9796 15.9592C3.57986 15.9592 0.000427246 12.3792 0.000427246 7.97975ZM1.48045 7.97975C1.48045 11.5632 4.39565 14.4781 7.97965 14.4781C11.5633 14.4781 14.4789 11.5632 14.4789 7.97975C14.4789 4.39544 11.5637 1.48055 7.97965 1.48055C4.39565 1.48055 1.48045 4.39544 1.48045 7.97975Z" fill="white"/>
<path id="Path" fill-rule="evenodd" clip-rule="evenodd" d="M11.6418 7.30169H8.65759V4.3174C8.65759 3.94279 8.35427 3.63916 7.97966 3.63916C7.60505 3.63916 7.30142 3.94248 7.30142 4.3174V7.30164H4.31718C3.94257 7.30164 3.63925 7.60496 3.63925 7.97988C3.63925 8.35449 3.94257 8.65781 4.31718 8.65781H7.30115V11.6424C7.30115 12.017 7.60473 12.3203 7.9794 12.3203C8.35401 12.3203 8.65764 12.017 8.65764 11.6424V8.65781H11.6416C12.0163 8.65781 12.3199 8.35449 12.3199 7.97988C12.3201 7.60496 12.0164 7.30169 11.6418 7.30169Z" fill="white"/>
</g>
</svg>
