<svg width="16" height="16" viewBox="0 0 16 16" fill="none" xmlns="http://www.w3.org/2000/svg">
<g id="ic_call">
<path id="Path" fill-rule="evenodd" clip-rule="evenodd" d="M11.0445 8.39037C11.0134 8.43813 11.0134 8.48589 10.9979 8.54957C10.9823 8.75654 11.1377 8.94758 11.3396 8.9635C11.5416 8.97942 11.728 8.82022 11.7435 8.61326C11.7435 8.5655 11.7435 8.51773 11.759 8.43813C11.759 8.35853 11.759 8.31077 11.759 8.26301C11.759 7.80132 11.6814 7.35554 11.5416 6.92569C11.3551 6.36848 11.0289 5.87495 10.6406 5.46102C10.159 4.96748 9.56874 4.61724 8.90078 4.42619C8.5901 4.34659 8.24835 4.29883 7.92214 4.29883C7.8134 4.29883 7.70466 4.29883 7.58039 4.31475C7.47165 4.33067 7.36292 4.34659 7.25418 4.36251C7.05224 4.39435 6.91243 4.60132 6.95903 4.79236C6.9901 4.99933 7.19204 5.14261 7.37845 5.09485C7.47165 5.07893 7.54932 5.06301 7.64253 5.06301C7.65806 5.06301 7.6736 5.06301 7.68913 5.06301C7.7668 5.06301 7.84447 5.04709 7.92214 5.04709C8.77651 5.04709 9.56874 5.39734 10.128 5.98639C10.6872 6.55952 11.0289 7.33962 11.0445 8.21525V8.24709C11.0445 8.31077 11.0445 8.35853 11.0445 8.39037Z" fill="#8B97A9"/>
<path id="Path_2" fill-rule="evenodd" clip-rule="evenodd" d="M13.095 8.74036C13.0794 8.94732 13.2348 9.13837 13.4367 9.15429C13.6386 9.17021 13.825 9.011 13.8406 8.80404C13.8561 8.62891 13.8561 8.45379 13.8561 8.27866C13.8561 7.92842 13.825 7.59409 13.7784 7.25976C13.5765 5.98613 12.9707 4.83986 12.1163 3.96424C11.1377 2.96125 9.83282 2.30852 8.38816 2.19707C8.23282 2.18115 8.06194 2.18115 7.9066 2.18115C7.73573 2.18115 7.56485 2.18115 7.39398 2.19707C7.22311 2.21299 7.05223 2.22891 6.88136 2.26075C6.67942 2.2926 6.53961 2.49956 6.58621 2.69061C6.61728 2.89757 6.81922 3.04085 7.00563 2.99309C7.11437 2.97717 7.20757 2.96125 7.31631 2.94533C7.36291 2.94533 7.40952 2.92941 7.45612 2.92941C7.61146 2.91349 7.7668 2.91349 7.9066 2.91349C8.43476 2.91349 8.93185 2.99309 9.4134 3.13638C10.2522 3.3911 10.9979 3.85279 11.6037 4.47369C12.1008 4.98314 12.5047 5.60404 12.7687 6.27269C13.0017 6.87767 13.1416 7.54633 13.1416 8.24682C13.1416 8.29458 13.1416 8.35827 13.1416 8.40603C13.1105 8.53339 13.095 8.62891 13.095 8.74036Z" fill="#8B97A9"/>
<path id="Path_3" fill-rule="evenodd" clip-rule="evenodd" d="M13.6231 2.43582C12.1474 0.923383 10.128 0 7.89107 0C7.65806 0 7.42505 0.0159204 7.19204 0.0318408C6.95903 0.0477612 6.72602 0.079602 6.49301 0.127363C6.29107 0.159204 6.15126 0.366169 6.19786 0.557214C6.22893 0.764179 6.43087 0.907463 6.61728 0.859702C6.72602 0.843781 6.81922 0.827861 6.92796 0.81194C7.0367 0.79602 7.14544 0.7801 7.25417 0.7801C7.47165 0.764179 7.67359 0.748259 7.89107 0.748259C9.91048 0.748259 11.7435 1.59204 13.0794 2.94527C14.3998 4.29851 15.2231 6.17711 15.2231 8.26269C15.2231 8.37413 15.2231 8.50149 15.2231 8.61294C15.2231 8.70846 15.2076 8.80398 15.2076 8.91542C15.192 9.12239 15.3474 9.31343 15.5493 9.32935C15.7513 9.34527 15.9377 9.18607 15.9532 8.9791C15.9687 8.7403 15.9843 8.50149 15.9843 8.27861C15.9843 6.00199 15.0833 3.93234 13.6231 2.43582Z" fill="#8B97A9"/>
<path id="Path_4" fill-rule="evenodd" clip-rule="evenodd" d="M15.4095 12.0837L12.66 10.5713C11.7435 10.0618 11.7124 10.3962 10.7493 11.4469C10.5163 11.7016 10.0814 12.3703 9.56874 12.2429C8.49689 11.9723 6.49301 10.3643 5.84058 9.63199C5.5299 9.28174 4.19398 7.6101 4.17845 7.0688C4.14738 6.24094 5.91825 5.82701 5.3435 4.25089L4.11631 1.43298C2.9668 -1.27348 -0.248736 3.05686 0.0153412 5.07875C0.698836 10.0618 9.22699 18.1176 13.9804 15.4589C15.0367 14.8539 16.4658 12.7365 15.4095 12.0837Z" fill="#8B97A9"/>
</g>
</svg>
