<svg xmlns="http://www.w3.org/2000/svg" width="15.577" height="15.569" viewBox="0 0 15.577 15.569">
  <path id="Path_20" data-name="Path 20" d="M11-23.229,7.865-26.008,11-28.794a.383.383,0,0,0,.124-.262.366.366,0,0,0-.094-.277.362.362,0,0,0-.266-.127.36.36,0,0,0-.273.1l-3.2,2.839-3.2-2.839a.379.379,0,0,0-.277-.1.358.358,0,0,0-.262.127.379.379,0,0,0-.1.277.358.358,0,0,0,.127.262l3.131,2.787L3.581-23.229a.358.358,0,0,0-.127.262.379.379,0,0,0,.1.277.3.3,0,0,0,.127.1.42.42,0,0,0,.157.03.424.424,0,0,0,.135-.022.3.3,0,0,0,.12-.075l3.2-2.839,3.2,2.839a.3.3,0,0,0,.12.075.424.424,0,0,0,.135.022.4.4,0,0,0,.15-.03.358.358,0,0,0,.135-.1.366.366,0,0,0,.094-.277A.383.383,0,0,0,11-23.229Zm-3.708,4.5a7.373,7.373,0,0,1-1.435-.139A7.257,7.257,0,0,1,4.5-19.273a7.02,7.02,0,0,1-1.251-.67,7.464,7.464,0,0,1-1.112-.918,6.915,6.915,0,0,1-.914-1.109,7.549,7.549,0,0,1-.67-1.251,6.978,6.978,0,0,1-.412-1.356A7.392,7.392,0,0,1,0-26.008a7.373,7.373,0,0,1,.139-1.435A7.085,7.085,0,0,1,.551-28.8a7.356,7.356,0,0,1,.67-1.251,7.288,7.288,0,0,1,.914-1.112,7.288,7.288,0,0,1,1.112-.914,7.356,7.356,0,0,1,1.251-.67,7.085,7.085,0,0,1,1.356-.412A7.373,7.373,0,0,1,7.289-33.3a7.392,7.392,0,0,1,1.431.139,7.067,7.067,0,0,1,1.36.412,7.356,7.356,0,0,1,1.251.67,7.288,7.288,0,0,1,1.112.914,7.288,7.288,0,0,1,.914,1.112,7.165,7.165,0,0,1,.667,1.251,7.459,7.459,0,0,1,.412,1.356,7.186,7.186,0,0,1,.142,1.435,7.2,7.2,0,0,1-.142,1.431,7.341,7.341,0,0,1-.412,1.356,7.348,7.348,0,0,1-.667,1.251,6.915,6.915,0,0,1-.914,1.109,7.464,7.464,0,0,1-1.112.918,7.02,7.02,0,0,1-1.251.67,7.237,7.237,0,0,1-1.36.408A7.392,7.392,0,0,1,7.289-18.727Zm0-13.806a6.323,6.323,0,0,0-2.536.513,6.615,6.615,0,0,0-2.075,1.4,6.615,6.615,0,0,0-1.4,2.075,6.323,6.323,0,0,0-.513,2.536,6.323,6.323,0,0,0,.513,2.536,6.569,6.569,0,0,0,1.4,2.071A6.647,6.647,0,0,0,4.753-20a6.323,6.323,0,0,0,2.536.513A6.323,6.323,0,0,0,9.824-20,6.6,6.6,0,0,0,11.9-21.4a6.6,6.6,0,0,0,1.4-2.071,6.323,6.323,0,0,0,.513-2.536,6.323,6.323,0,0,0-.513-2.536,6.647,6.647,0,0,0-1.4-2.075,6.57,6.57,0,0,0-2.071-1.4A6.323,6.323,0,0,0,7.289-32.532Z" transform="translate(0.5 33.796)" fill="#e62e2e" stroke="#e62e2e" stroke-width="1"/>
</svg>
