<svg width="15" height="14" viewBox="0 0 15 14" fill="none" xmlns="http://www.w3.org/2000/svg">
<g id="ic_document">
<path id="Path" fill-rule="evenodd" clip-rule="evenodd" d="M3.84342 0.0195312C2.89971 0.0195312 2.13181 0.786637 2.13181 1.72597L2.06958 10.5735L3.00318 10.5802L3.06544 1.72942C3.06544 1.30555 3.41445 0.960751 3.84345 0.960751H13.2262V0.0195312H3.84342Z" fill="#8B97A9"/>
<path id="Shape" fill-rule="evenodd" clip-rule="evenodd" d="M11.4523 1.80787C11.4523 0.821755 12.248 0.0195312 13.2261 0.0195312C14.2043 0.0195312 15 0.821755 15 1.80784V3.90991C15 4.16985 14.791 4.38053 14.5332 4.38053H12.3859V11.7378C12.3859 12.9747 11.3877 13.981 10.1608 13.981C8.93385 13.981 7.93567 12.9747 7.93567 11.7378V11.0632H0.933604V11.7378C0.933604 12.4556 1.51292 13.0398 2.2251 13.0398V13.981C0.998174 13.981 0 12.9747 0 11.7378V10.5926C0 10.3327 0.208975 10.122 0.466816 10.122H8.40246C8.6603 10.122 8.86928 10.3327 8.86928 10.5926V11.7378C8.86928 12.4556 9.44874 13.0398 10.1608 13.0398C10.8728 13.0398 11.4523 12.4556 11.4523 11.7378V1.80787ZM12.3859 1.80784V3.43931H14.0664V1.80784C14.0664 1.3407 13.6893 0.960751 13.2261 0.960751C12.7629 0.960751 12.3859 1.34067 12.3859 1.80784Z" fill="#8B97A9"/>
<rect id="Rectangle" x="2.13171" y="13.04" width="7.91997" height="0.941219" fill="#8B97A9"/>
<path id="Path_2" fill-rule="evenodd" clip-rule="evenodd" d="M6.93981 2.63965H4.52797C4.27013 2.63965 4.06116 2.85033 4.06116 3.11027C4.06116 3.37022 4.27013 3.5809 4.52797 3.5809H6.93981C7.19765 3.5809 7.40663 3.37022 7.40663 3.11027C7.40663 2.85033 7.19762 2.63965 6.93981 2.63965Z" fill="#8B97A9"/>
<path id="Path_3" fill-rule="evenodd" clip-rule="evenodd" d="M9.74062 4.52148H4.52797C4.27013 4.52148 4.06116 4.73216 4.06116 4.99211C4.06116 5.25205 4.27013 5.46273 4.52797 5.46273H9.74062C9.99846 5.46273 10.2074 5.25205 10.2074 4.99211C10.2074 4.73216 9.99846 4.52148 9.74062 4.52148Z" fill="#8B97A9"/>
<path id="Path_4" fill-rule="evenodd" clip-rule="evenodd" d="M9.74062 6.4043H4.52797C4.27013 6.4043 4.06116 6.61498 4.06116 6.87492C4.06116 7.13487 4.27013 7.34555 4.52797 7.34555H9.74062C9.99846 7.34555 10.2074 7.13501 10.2074 6.87492C10.2074 6.61498 9.99846 6.4043 9.74062 6.4043Z" fill="#8B97A9"/>
<path id="Path_5" fill-rule="evenodd" clip-rule="evenodd" d="M9.74062 8.28613H4.52797C4.27013 8.28613 4.06116 8.49681 4.06116 8.75676C4.06116 9.0167 4.27013 9.22738 4.52797 9.22738H9.74062C9.99846 9.22738 10.2074 9.0167 10.2074 8.75676C10.2074 8.49681 9.99846 8.28613 9.74062 8.28613Z" fill="#8B97A9"/>
</g>
</svg>
