<svg width="16" height="14" viewBox="0 0 16 14" fill="none" xmlns="http://www.w3.org/2000/svg">
<g id="ic_details">
<path id="Shape" fill-rule="evenodd" clip-rule="evenodd" d="M14.1263 3.05287H13.5121V1.83836C13.5121 0.833967 12.6854 0.0166016 11.6695 0.0166016H1.84256C0.826698 0.0166016 0 0.833967 0 1.83836V9.73263C0 10.737 0.826698 11.5544 1.84256 11.5544H3.07094V12.1616C3.07094 13.166 3.89764 13.9834 4.9135 13.9834H14.1263C15.1421 13.9834 15.9688 13.166 15.9688 12.1616V4.87463C15.9688 3.87024 15.1421 3.05287 14.1263 3.05287ZM1.84256 10.3399C1.50416 10.3399 1.22838 10.0679 1.22838 9.73266V1.83839C1.22838 1.50319 1.50416 1.23115 1.84256 1.23115H11.6695C12.0079 1.23115 12.2837 1.50319 12.2837 1.83839V9.73266C12.2837 10.0679 12.0079 10.3399 11.6695 10.3399H1.84256ZM14.1263 12.7689C14.4647 12.7689 14.7404 12.4969 14.7404 12.1617V4.87463C14.7404 4.53943 14.4647 4.26739 14.1263 4.26739H13.5121V9.73266C13.5121 10.7371 12.6854 11.5544 11.6695 11.5544H4.29929V12.1617C4.29929 12.4969 4.57506 12.7689 4.91347 12.7689H14.1263Z" fill="#8B97A9"/>
<path id="Path" fill-rule="evenodd" clip-rule="evenodd" d="M9.82695 3.66016H3.6851C3.34607 3.66016 3.07092 3.93158 3.07092 4.2674C3.07092 4.60321 3.34607 4.87464 3.6851 4.87464H9.82695C10.166 4.87464 10.4411 4.60321 10.4411 4.2674C10.4411 3.93161 10.166 3.66016 9.82695 3.66016Z" fill="#8B97A9"/>
<path id="Path_2" fill-rule="evenodd" clip-rule="evenodd" d="M8.59861 6.69629H4.91349C4.57447 6.69629 4.29932 6.96772 4.29932 7.30353C4.29932 7.63935 4.57447 7.91077 4.91349 7.91077H8.59861C8.93763 7.91077 9.21278 7.63935 9.21278 7.30353C9.21281 6.96772 8.93766 6.69629 8.59861 6.69629Z" fill="#8B97A9"/>
</g>
</svg>
