<svg width="13" height="16" viewBox="0 0 13 16" fill="none" xmlns="http://www.w3.org/2000/svg">
<path fill-rule="evenodd" clip-rule="evenodd" d="M9.66985 1.8822H11.8622C12.4912 1.8822 12.9816 2.35945 12.9816 2.97193V3.76444V4.75501H12.0195V14.9042C12.0195 15.5167 11.5293 15.9849 10.9002 15.9849H2.08427C1.45512 15.9849 0.97416 15.5167 0.97416 14.9042V4.75501H0.00280762V3.76444V2.97193C0.00280762 2.35945 0.493033 1.88222 1.12219 1.88222H3.32383V0.495298C3.32383 0.216134 3.54585 0 3.83259 0H3.8697H3.9066H9.05925C9.06852 0 9.08707 0.00904258 9.09636 0.0180645C9.10542 0.00904258 9.12397 0 9.1518 0C9.43854 0 9.66985 0.216134 9.66985 0.495298V1.8822ZM8.64304 0.990575H4.34137V1.8822H8.64304V0.990575ZM10.9927 14.9042C10.9927 14.9674 10.9649 14.9943 10.9002 14.9943H2.08427C2.01955 14.9943 1.99172 14.9674 1.99172 14.9042V4.75499H10.9927V14.9042ZM1.02962 3.76442H11.9548V2.97191C11.9548 2.90888 11.927 2.87277 11.8622 2.87277H1.12216C1.05744 2.87277 1.02962 2.90888 1.02962 2.97191V3.76442Z" fill="#E62E2E"/>
<rect x="8.35626" y="5.91675" width="1.02681" height="8.19493" fill="#E62E2E"/>
<rect x="5.9881" y="5.91675" width="1.02681" height="8.19493" fill="#E62E2E"/>
<rect x="3.61987" y="5.91675" width="1.02681" height="8.19493" fill="#E62E2E"/>
</svg>
