<svg width="16" height="9" viewBox="0 0 16 9" fill="none" xmlns="http://www.w3.org/2000/svg">
<g id="ic_eye">
<path id="Shape" fill-rule="evenodd" clip-rule="evenodd" d="M13.592 2.0954C14.9846 3.11541 15.8447 4.12672 15.8806 4.16927C16.0397 4.35764 16.0397 4.6425 15.8806 4.8309C15.8447 4.87346 14.9846 5.88476 13.592 6.90478C11.7301 8.26857 9.79638 8.98943 7.99998 8.98943C6.20357 8.98943 4.26985 8.26857 2.40791 6.90478C1.01535 5.88476 0.155227 4.87346 0.11932 4.8309C-0.0397734 4.64253 -0.0397734 4.35764 0.11932 4.16927C0.155227 4.12672 1.01532 3.11541 2.40791 2.0954C4.26985 0.731603 6.20357 0.0107422 7.99998 0.0107422C9.79638 0.0107422 11.7301 0.731603 13.592 2.0954ZM1.1227 4.50029C1.4757 4.867 2.11845 5.48797 2.9602 6.10225C3.52723 6.51609 4.24388 6.96768 5.05829 7.32629C4.4172 6.57882 4.02598 5.58694 4.02598 4.50009C4.02598 3.41192 4.41813 2.4189 5.06066 1.67114C3.1871 2.49755 1.7281 3.87244 1.1227 4.50029ZM7.99998 7.71521C6.32563 7.71521 4.96345 6.27289 4.96345 4.50009C4.96345 2.72725 6.32563 1.28497 7.99998 1.28497C9.67432 1.28497 11.0365 2.72725 11.0365 4.50009C11.0365 6.27292 9.67432 7.71521 7.99998 7.71521ZM11.974 4.50005C11.974 5.58826 11.5818 6.58127 10.9393 7.32903C12.8129 6.50262 14.2719 5.12774 14.8773 4.49986C14.5241 4.13304 13.8814 3.51211 13.0398 2.89789C12.4727 2.48405 11.7561 2.03247 10.9417 1.67386C11.5828 2.42132 11.974 3.41321 11.974 4.50005Z" fill="#8B97A9"/>
<path id="Path" fill-rule="evenodd" clip-rule="evenodd" d="M7.99998 2.90039C7.16698 2.90039 6.48926 3.61798 6.48926 4.49998C6.48926 5.38198 7.16698 6.09956 7.99998 6.09956C8.25885 6.09956 8.46873 5.87734 8.46873 5.60324C8.46873 5.46618 8.41626 5.3421 8.33141 5.25227C8.2466 5.16247 8.12941 5.10691 7.99998 5.10691C7.68391 5.10691 7.42676 4.83463 7.42676 4.49998C7.42676 4.16532 7.68391 3.89304 7.99998 3.89304C8.31604 3.89304 8.5732 4.16532 8.5732 4.49998C8.5732 4.63703 8.62566 4.76111 8.71051 4.85094C8.79532 4.94074 8.91251 4.9963 9.04195 4.9963C9.30082 4.9963 9.5107 4.77408 9.5107 4.49998C9.5107 3.61798 8.83298 2.90039 7.99998 2.90039Z" fill="#8B97A9"/>
</g>
</svg>
