<svg width="16" height="16" viewBox="0 0 16 16" fill="none" xmlns="http://www.w3.org/2000/svg">
<g id="ic_edit">
<path id="Shape" fill-rule="evenodd" clip-rule="evenodd" d="M15.1641 0.861C14.6269 0.3055 13.9102 0 13.1495 0C12.3888 0 11.6732 0.305 11.1355 0.86L2.56673 9.6455C2.51583 9.6975 2.47704 9.76 2.45279 9.829L0.513401 15.329C0.450855 15.5065 0.491098 15.707 0.617643 15.8445C0.710734 15.9455 0.838249 16 0.969643 16C1.01716 16 1.06467 15.993 1.1117 15.978L5.93546 14.452C6.0111 14.4285 6.07995 14.3855 6.13619 14.328L15.1646 5.0175C15.7037 4.463 15.9999 3.724 15.9999 2.939C15.9995 2.1545 15.7037 1.416 15.1641 0.861ZM5.37789 13.5825L3.57231 14.1545C3.4671 13.836 3.30322 13.554 3.0797 13.3235C2.88528 13.124 2.65983 12.969 2.42225 12.843L3.24843 10.5H4.36358V11.5C4.36358 11.7765 4.58031 12 4.84843 12H5.70419L5.37789 13.5825ZM6.60746 12.4275L12.5149 6.3355C12.8707 5.969 13.0661 5.4825 13.0661 4.9645C13.0661 4.4465 12.8688 3.9595 12.5144 3.593C12.1599 3.2265 11.6867 3.025 11.1849 3.025C10.6831 3.025 10.2104 3.2265 9.85546 3.593L9.84964 3.5875L4.08334 9.5H4.84843C5.11607 9.5 5.33328 9.724 5.33328 10V11H6.30298C6.44892 11 6.5871 11.068 6.67922 11.1855C6.77134 11.3025 6.80722 11.456 6.77716 11.604L6.60746 12.4275ZM14.4785 4.3105L14.0266 4.777C13.983 4.0625 13.6955 3.3965 13.2009 2.886C12.7059 2.375 12.0596 2.079 11.3648 2.0345L11.8196 1.569L11.8206 1.568C12.1745 1.2015 12.6472 1 13.1495 1C13.6518 1 14.1241 1.2015 14.4785 1.568C14.8344 1.9345 15.0302 2.4215 15.0302 2.939C15.0302 3.4575 14.8353 3.9445 14.4785 4.3105ZM6.44504 9.1465L11.2935 4.1465C11.4831 3.951 11.789 3.951 11.9791 4.1465C12.1687 4.342 12.1687 4.658 11.9791 4.8535L7.13061 9.8535C7.03558 9.951 6.91195 10 6.78783 10C6.6637 10 6.5391 9.951 6.44504 9.8535C6.25546 9.658 6.25546 9.342 6.44504 9.1465Z" fill="#0070D9"/>
</g>
</svg>
