<svg width="16" height="14" viewBox="0 0 16 14" fill="none" xmlns="http://www.w3.org/2000/svg">
<g id="ic_favorites">
<path id="ic_favorites_2" fill-rule="evenodd" clip-rule="evenodd" d="M14.8055 4.96771C15.0379 5.00005 15.2303 5.15461 15.303 5.36797C15.3758 5.5813 15.3153 5.81405 15.147 5.96978L12.0198 8.87502L12.7595 12.9781C12.799 13.1991 12.7046 13.4218 12.5148 13.5535C12.3255 13.6863 12.0734 13.7022 11.8657 13.5987L7.99743 11.6615L4.13597 13.5982C4.04413 13.644 3.94551 13.6663 3.84748 13.6663C3.71989 13.6663 3.59288 13.6287 3.48563 13.5547C3.29513 13.423 3.2002 13.2003 3.24028 12.9799L3.97447 8.87563L0.852735 5.97038C0.684441 5.81405 0.624628 5.5807 0.696758 5.36794C0.768889 5.15518 0.961847 5.00002 1.19425 4.96768L5.50942 4.36641L7.44385 0.63365C7.65222 0.232794 8.34077 0.232794 8.54914 0.63365L10.4836 4.36587L14.8055 4.96771ZM10.7487 8.77042C10.7141 8.5794 10.7807 8.38486 10.9256 8.24967L13.3914 5.95929L9.98487 5.4844C9.78452 5.45676 9.6113 5.33628 9.5213 5.16348L7.99619 2.22181L6.47109 5.16406C6.38109 5.33686 6.20787 5.45733 6.00752 5.48437L2.60531 5.95927L5.06682 8.24972C5.21168 8.38431 5.27825 8.57943 5.24373 8.76927L4.66489 12.0042L7.70893 10.4778C7.79831 10.4326 7.89694 10.4103 7.99619 10.4103C8.09482 10.4103 8.19285 10.4326 8.28285 10.4772L11.3318 12.0048L10.7487 8.77042Z" fill="#8B97A9"/>
</g>
</svg>
