<?xml version="1.0" encoding="utf-8" ?>
<svg xmlns="http://www.w3.org/2000/svg" xmlns:xlink="http://www.w3.org/1999/xlink" width="18" height="16">
	<defs>
		<clipPath id="clip_0">
			<rect x="-381" y="-107" width="1440" height="3714" clip-rule="evenodd"/>
		</clipPath>
	</defs>
	<g clip-path="url(#clip_0)">
		<path fill="rgb(121,140,168)" stroke="none" d="M13.2894 0.158488C13.1905 0.0570221 13.0556 0 12.9152 0C12.7747 0 12.6399 0.0571619 12.5409 0.158628L10.9831 1.75637C10.8799 1.86202 10.743 1.9203 10.5977 1.9203L7.37513 1.9203C7.2297 1.9203 7.09292 1.86202 6.98882 1.75553L5.45828 0.193568C5.3594 0.0925212 5.22496 0.0357786 5.08488 0.0357786L5.08433 0.0357786C4.94398 0.0359183 4.80953 0.0930802 4.71066 0.194406L0.153089 4.86687C-0.0513953 5.07651 -0.0509833 5.41487 0.15405 5.62409L1.46116 6.95684C1.70876 7.21078 1.84513 7.54858 1.84513 7.90819C1.84513 8.37345 1.9734 8.81844 2.2118 9.20181C1.69297 9.84386 1.72648 10.8001 2.31288 11.4012C2.59674 11.6923 2.96849 11.8606 3.36716 11.8804C3.38542 12.2729 3.54033 12.6598 3.83202 12.9587C4.11588 13.2498 4.48763 13.4181 4.88644 13.4379C4.90457 13.8304 5.05961 14.2172 5.35116 14.5162C5.81026 14.9869 6.46903 15.1056 7.02535 14.9022C7.10198 15.1275 7.22778 15.3388 7.40301 15.5184C8.02909 16.1605 9.04437 16.1606 9.6706 15.5184L9.89321 15.2903C10.0323 15.1476 10.1401 14.9848 10.217 14.8111C10.8398 15.3711 11.7998 15.3587 12.4066 14.7364C12.6983 14.4375 12.8532 14.0506 12.8713 13.6582C13.27 13.6385 13.6419 13.4701 13.9258 13.179C14.2175 12.88 14.3724 12.4932 14.3906 12.1007C14.7892 12.081 15.161 11.9126 15.4449 11.6216C16.028 11.0239 16.0647 10.0747 15.5549 9.43269C15.9264 8.90006 16.1276 8.2643 16.1276 7.59666C16.1276 7.44027 16.1892 7.28737 16.2968 7.1771L17.8469 5.58719C18.051 5.37797 18.051 5.04031 17.8469 4.83109L13.2894 0.158488ZM15.0729 7.59666C15.0729 7.15278 15.2417 6.73518 15.5483 6.42086L16.7298 5.20914L12.9153 1.29851L11.7316 2.51247C11.4288 2.82273 11.0262 2.98905 10.5977 2.98905L9.06772 2.98905C8.86777 2.98905 8.66946 3.02371 8.47816 3.08311L6.03685 6.06489C6.25548 6.14749 6.49114 6.18005 6.73023 6.15797C7.15087 6.11898 7.53155 5.91563 7.80209 5.58537C8.30197 4.9749 9.14147 4.79042 9.84446 5.13604C10.2643 5.34247 10.7176 5.38957 11.1404 5.30054C11.1639 5.29327 11.188 5.28796 11.2121 5.28419C11.7624 5.14695 12.2536 4.77644 12.5398 4.22131C12.6751 3.95884 12.9938 3.85766 13.2518 3.99546C13.5097 4.13313 13.6091 4.45751 13.4738 4.71998C13.1886 5.27315 12.7586 5.7194 12.2343 6.01625L14.7992 8.6457C14.9774 8.3304 15.0729 7.97122 15.0729 7.59666ZM14.6965 10.8654C14.4831 11.0841 14.1392 11.0841 13.9258 10.8654L12.9437 9.85854C12.7385 9.6482 12.4046 9.64694 12.1979 9.85574C11.9912 10.0645 11.99 10.4043 12.1951 10.6146L13.1773 11.6215C13.3928 11.8424 13.3928 12.2019 13.1773 12.4227C12.9639 12.6416 12.62 12.6416 12.4066 12.4227L11.4246 11.4159C11.2193 11.2055 10.8854 11.2043 10.6787 11.4131C10.4721 11.6219 10.4708 11.9618 10.676 12.1721L11.658 13.179C11.8736 13.3999 11.8736 13.7594 11.658 13.9802C11.4448 14.1991 11.1009 14.1991 10.8873 13.9802C9.85352 12.9289 9.9031 12.952 9.799 12.888C9.53039 12.6526 9.19764 12.5162 8.84305 12.4978C8.82396 12.1069 8.66905 11.7217 8.3786 11.4237C8.2296 11.2711 8.05629 11.1523 7.86773 11.071C8.22534 10.4444 8.14253 9.6243 7.61889 9.08762C7.08221 8.53739 6.27937 8.47072 5.68075 8.82753C5.60316 8.63899 5.48987 8.4622 5.34018 8.30888C4.71395 7.66682 3.69881 7.66682 3.07245 8.30888L2.9884 8.39511C2.93045 8.24193 2.89982 8.07744 2.89982 7.90819C2.89982 7.26333 2.65469 6.65705 2.20864 6.19962L1.27137 5.24394L5.0857 1.33331L6.2412 2.51247C6.49938 2.77717 6.83048 2.93999 7.18822 2.9822L4.83164 5.86C4.64529 6.08781 4.6755 6.42617 4.89921 6.61582C5.44015 7.07466 6.12433 7.2917 6.82567 7.22686C7.52688 7.16201 8.16148 6.82309 8.61288 6.27174C8.80171 6.04113 9.11936 5.97167 9.38564 6.10249C9.92905 6.36971 10.5263 6.46726 11.1138 6.39095L14.6965 10.064C14.9119 10.2849 14.9119 10.6444 14.6965 10.8654ZM3.06146 9.84372L3.82103 9.06498C4.03431 8.84626 4.37818 8.84612 4.59159 9.06498C4.8072 9.28594 4.8072 9.6454 4.59159 9.86623L3.83202 10.6451C3.61861 10.8638 3.27487 10.8638 3.06146 10.6451C2.84599 10.4241 2.84599 10.0647 3.06146 9.84372ZM6.09975 9.84372L4.5806 11.4012C4.36513 11.6222 4.36513 11.9816 4.5806 12.2025C4.79402 12.4213 5.13775 12.4212 5.35116 12.2026C6.30011 11.2297 6.32895 11.2002 6.87044 10.6451C7.08591 10.4241 7.08591 10.0647 6.87044 9.84372C6.65703 9.62486 6.31316 9.625 6.09975 9.84372ZM6.09975 13.7599C5.88428 13.5391 5.88428 13.1797 6.09975 12.9587L6.85932 12.18C7.07273 11.9612 7.4166 11.9612 7.63001 12.18C7.82901 12.384 7.84384 12.7059 7.6752 12.9281C7.67001 12.933 7.66627 12.9364 7.66256 12.9399C7.63303 12.9676 7.60545 12.9974 6.87044 13.7599C6.65703 13.9788 6.3133 13.9789 6.09975 13.7599ZM8.92215 14.7622L9.14476 14.5341C9.3601 14.3133 9.36023 13.9538 9.14476 13.7328C8.94838 13.5316 8.6409 13.5145 8.42557 13.6868C8.37517 13.743 8.38931 13.7254 8.09982 14.0233C7.93832 14.2449 7.95521 14.5609 8.15159 14.7622C8.365 14.981 8.70874 14.981 8.92215 14.7622Z" fill-rule="evenodd"/>
	</g>

</svg>