<svg width="16" height="15" viewBox="0 0 16 15" fill="none" xmlns="http://www.w3.org/2000/svg">
<path id="ic_favorites" d="M15.9669 5.66433C15.8876 5.4243 15.6777 5.25042 15.4242 5.21404L10.7093 4.53697L8.59904 0.338222C8.37173 -0.112741 7.62058 -0.112741 7.39326 0.338222L5.28299 4.53758L0.575523 5.21401C0.321992 5.25039 0.111493 5.42494 0.0328052 5.6643C-0.0458822 5.90365 0.0193678 6.16617 0.202961 6.34205L3.60849 9.61045L2.80755 14.2277C2.76383 14.4757 2.8674 14.7263 3.07521 14.8744C3.19221 14.9577 3.33077 15 3.46996 15C3.57689 15 3.68449 14.9749 3.78468 14.9233L7.99717 12.7446L12.2171 14.924C12.4437 15.0403 12.7188 15.0225 12.9252 14.873C13.1323 14.7249 13.2352 14.4743 13.1922 14.2257L12.3852 9.60977L15.7967 6.34137C15.9803 6.16617 16.0463 5.90433 15.9669 5.66433Z" fill="#F37C22"/>
</svg>
