<?xml version="1.0" encoding="utf-8" ?>
<svg xmlns="http://www.w3.org/2000/svg" xmlns:xlink="http://www.w3.org/1999/xlink" width="22" height="20">
	<defs>
		<clipPath id="clip_0">
			<rect x="-830" y="-30" width="1440" height="3714" clip-rule="evenodd"/>
		</clipPath>
	</defs>
	<g clip-path="url(#clip_0)">
		<path fill="rgb(121,140,168)" fill-opacity="0.49803922" stroke="none" d="M21.2083 6.95205C21.5569 7.00056 21.8454 7.2324 21.9545 7.55244C22.0636 7.87244 21.973 8.22156 21.7205 8.45516L17.0296 12.813L18.1392 18.9676C18.1984 19.2991 18.0569 19.6333 17.7721 19.8307C17.4883 20.0299 17.1101 20.0537 16.7985 19.8986L10.9961 16.9928L5.20393 19.8977C5.06617 19.9665 4.91823 20 4.77119 20C4.57981 20 4.38929 19.9436 4.22841 19.8325C3.94267 19.635 3.80027 19.3009 3.86038 18.9703L4.96167 12.8139L0.279072 8.45606C0.0266307 8.22156 -0.063088 7.87154 0.0451072 7.5524C0.153302 7.23326 0.44274 7.00052 0.791344 6.95201L7.26411 6.05011L10.1657 0.450963C10.4783 -0.150321 11.5111 -0.150321 11.8237 0.450963L14.7253 6.04929L21.2083 6.95205ZM15.1229 12.6561C15.0712 12.3696 15.171 12.0778 15.3883 11.875L19.0871 8.43943L13.9773 7.72708C13.6768 7.68562 13.4169 7.50491 13.2819 7.24571L10.9943 2.8332L8.70661 7.24657C8.5716 7.50577 8.31177 7.68648 8.01125 7.72704L2.90794 8.43939L6.6002 11.8751C6.81749 12.077 6.91735 12.3696 6.86557 12.6544L5.9973 17.5068L10.5634 15.2173C10.6974 15.1494 10.8454 15.1159 10.9943 15.1159C11.1422 15.1159 11.2892 15.1494 11.4242 15.2164L15.9977 17.5077L15.1229 12.6561Z" fill-rule="evenodd"/>
	</g>

</svg>