<?xml version="1.0" encoding="utf-8" ?>
<svg xmlns="http://www.w3.org/2000/svg" xmlns:xlink="http://www.w3.org/1999/xlink" width="16" height="15">
	<defs>
		<clipPath id="clip_0">
			<rect x="-1172" y="-559" width="1353.6" height="2103.72" clip-rule="evenodd"/>
		</clipPath>
	</defs>
	<g clip-path="url(#clip_0)">
		<path fill="rgb(255,255,255)" stroke="none" transform="matrix(0.94 0 0 0.94 0.209229 0.32605)" d="M15.3941 5.19477C15.6472 5.23101 15.8566 5.40425 15.9358 5.64339C16.015 5.8825 15.9492 6.14338 15.766 6.31793L12.361 9.57425L13.1665 14.1731C13.2094 14.4208 13.1067 14.6705 12.9 14.8181C12.694 14.9669 12.4195 14.9847 12.1933 14.8688L7.98159 12.6975L3.7773 14.8681C3.67731 14.9195 3.56993 14.9446 3.4632 14.9446C3.32428 14.9446 3.18599 14.9024 3.06922 14.8194C2.86181 14.6718 2.75845 14.4222 2.80208 14.1751L3.60146 9.57492L0.202566 6.3186C0.01933 6.14338 -0.0457928 5.88183 0.0327413 5.64336C0.111275 5.40489 0.321365 5.23098 0.574402 5.19474L5.2727 4.52081L7.37886 0.336972C7.60573 -0.112324 8.35542 -0.112324 8.58229 0.336972L10.6885 4.5202L15.3941 5.19477ZM10.9771 9.457C10.9395 9.2429 11.012 9.02485 11.1697 8.87332L13.8545 6.30618L10.1455 5.77389C9.92735 5.74291 9.73875 5.60788 9.64076 5.4142L7.98025 2.11704L6.31974 5.41484C6.22175 5.60852 6.03315 5.74355 5.81501 5.77386L2.11075 6.30615L4.79079 8.87338C4.94851 9.02424 5.021 9.24293 4.98342 9.45572L4.35318 13.0816L7.66749 11.3708C7.7648 11.32 7.87218 11.295 7.98025 11.295C8.08763 11.295 8.19436 11.32 8.29236 11.3701L11.612 13.0822L10.9771 9.457Z" fill-rule="evenodd"/>
	</g>

</svg>