<svg width="16" height="16" viewBox="0 0 16 16" fill="none" xmlns="http://www.w3.org/2000/svg">
<path fill-rule="evenodd" clip-rule="evenodd" d="M15.9669 0.583129C15.9711 0.59322 15.9754 0.603434 15.9773 0.613894C15.9792 0.623275 15.9812 0.632679 15.9832 0.642095C15.9916 0.681636 16 0.721401 15.9999 0.760582V3.87853C15.9999 4.29172 15.663 4.62772 15.2499 4.62772C14.8369 4.62772 14.5 4.29159 14.5 3.87853V2.56884L11.1529 5.90887C12.0127 7.00365 12.4781 8.36532 12.4781 9.75642C12.4781 13.1967 9.67923 15.9954 6.23898 15.9954C2.79872 15.9954 0 13.1962 0 9.75617C0 6.31591 2.79872 3.51642 6.23898 3.51655C7.63021 3.51655 8.992 3.98746 10.0867 4.84724L13.4273 1.50439H12.1176C11.7044 1.50439 11.3684 1.16762 11.3684 0.754438C11.3684 0.341382 11.7044 0.00448608 12.1176 0.00448608H15.2357C15.2376 0.00448608 15.2401 0.0054481 15.2427 0.00647331C15.2453 0.00749637 15.248 0.00858235 15.2506 0.00883808C15.2964 0.00973408 15.3402 0.0177981 15.3818 0.0259901C15.4001 0.0297021 15.4177 0.0350781 15.4353 0.0409661L15.4651 0.0499261C15.4843 0.0553021 15.5032 0.0609341 15.5219 0.0684861C15.5438 0.0778301 15.5639 0.0888381 15.584 0.10023L15.6083 0.113414L15.6096 0.114091C15.6235 0.121291 15.6375 0.128538 15.6507 0.13735C15.7331 0.192646 15.8031 0.262406 15.8584 0.344966C15.868 0.359686 15.876 0.374534 15.8835 0.389382L15.8985 0.416518C15.8996 0.418492 15.9007 0.420466 15.9018 0.422441C15.9111 0.439042 15.9205 0.455762 15.9279 0.473606C15.9363 0.494214 15.9433 0.514822 15.9492 0.535558L15.9598 0.564614C15.9618 0.570758 15.9644 0.57692 15.9669 0.583129ZM1.49811 9.75668C1.49811 12.3707 3.62483 14.4974 6.23898 14.4974C8.85299 14.4974 10.9798 12.3707 10.98 9.75668C10.98 7.14241 8.85299 5.01569 6.23898 5.01569C3.62483 5.01569 1.49811 7.14241 1.49811 9.75668Z" fill="#49A7FF"/>
</svg>
