<svg width="16" height="16" viewBox="0 0 16 16" fill="none" xmlns="http://www.w3.org/2000/svg">
<path fill-rule="evenodd" clip-rule="evenodd" d="M3.50275 6.23272C3.50275 2.79601 6.29883 6.10352e-05 9.73541 6.10352e-05C13.1721 6.10352e-05 15.9681 2.79601 15.9682 6.23272C15.9682 9.66917 13.1722 12.4652 9.73554 12.4652C8.34568 12.4652 6.98545 11.9935 5.89183 11.1347L3.79171 13.2348L5.24762 14.6907C5.38916 14.8318 5.46695 15.0199 5.46695 15.2198C5.46695 15.4196 5.38903 15.6076 5.24762 15.7488C5.1062 15.8903 4.91829 15.9681 4.7185 15.9681C4.51845 15.9681 4.33054 15.8902 4.18938 15.7488L2.73335 14.293L1.27757 15.7488C1.13616 15.8903 0.948248 15.9681 0.748327 15.9681C0.548407 15.9681 0.360495 15.8902 0.21921 15.7488C0.0777964 15.6076 0 15.4196 0 15.2198C0 15.0199 0.0779241 14.8318 0.21921 14.6907L1.67511 13.2348L0.21921 11.7787C0.0777964 11.6376 0 11.4495 0 11.2498C0 11.05 0.0777964 10.862 0.219082 10.7206C0.360495 10.5791 0.548279 10.5014 0.7482 10.5014C0.94812 10.5014 1.13616 10.5792 1.27745 10.7206L2.73322 12.1767L4.83334 10.0763C3.97451 8.9828 3.50275 7.62245 3.50275 6.23272ZM4.99941 6.23272C4.99941 8.8442 7.12406 10.9686 9.73541 10.9686C12.3469 10.9686 14.4715 8.8442 14.4715 6.23272C14.4715 3.62123 12.3469 1.49659 9.73541 1.49659C7.12406 1.49659 4.99941 3.62123 4.99941 6.23272Z" fill="#FF268B"/>
</svg>
