<svg width="16" height="16" viewBox="0 0 16 16" fill="none" xmlns="http://www.w3.org/2000/svg">
<g id="ic_globe">
<path id="Shape" fill-rule="evenodd" clip-rule="evenodd" d="M8 0C3.58881 0 0 3.58881 0 8C0 12.4112 3.58881 16 8 16C12.4112 16 16 12.4112 16 8C16 3.58881 12.4112 0 8 0ZM5.39897 1.54838C4.91675 2.20563 4.55853 2.9835 4.30225 3.74694C3.83641 3.57994 3.40516 3.38019 3.01775 3.15037C3.68672 2.46334 4.496 1.91375 5.39897 1.54838ZM4.017 4.75059C3.40406 4.53606 2.83953 4.27081 2.34044 3.95944C1.6195 4.96634 1.16025 6.17266 1.063 7.47822H3.66131C3.69375 6.52594 3.81491 5.60478 4.017 4.75059ZM2.34041 12.0405C1.6195 11.0337 1.16022 9.82734 1.06297 8.52175H3.66125C3.69369 9.47406 3.81484 10.3952 4.01694 11.2494C3.40403 11.4639 2.83956 11.7292 2.34041 12.0405ZM4.30228 12.253C3.83644 12.42 3.40519 12.6198 3.01778 12.8496C3.68672 13.5367 4.496 14.0862 5.399 14.4516C4.91675 13.7943 4.55853 13.0164 4.30228 12.253ZM7.47825 14.8602C6.40081 14.4647 5.6745 13.0482 5.30266 11.9571C5.98519 11.7947 6.71816 11.6949 7.47825 11.6633V14.8602ZM5.01853 10.9542C5.79278 10.7663 6.62191 10.6523 7.47825 10.6192V8.52172H4.70512C4.73609 9.37337 4.84278 10.1942 5.01853 10.9542ZM7.47825 7.47825H4.70512C4.73606 6.62659 4.84275 5.80581 5.01853 5.04575C5.79278 5.23369 6.62191 5.34766 7.47825 5.38081V7.47825ZM5.30266 4.04291C5.98522 4.20531 6.71819 4.30516 7.47825 4.33666V1.13981C6.4005 1.53534 5.67422 2.95247 5.30266 4.04291ZM13.6596 3.95947C14.3805 4.96631 14.8398 6.17266 14.937 7.47825H12.3387C12.3063 6.52594 12.1852 5.60481 11.9831 4.75063C12.596 4.53609 13.1604 4.27084 13.6596 3.95947ZM11.6977 3.74697C12.1636 3.57997 12.5948 3.38022 12.9822 3.15041C12.3133 2.46334 11.504 1.91375 10.601 1.54841C11.0833 2.20572 11.4415 2.98359 11.6977 3.74697ZM8.52175 1.13981C9.59919 1.53525 10.3255 2.95175 10.6973 4.04291C10.0148 4.20534 9.28184 4.30513 8.52175 4.33666V1.13981ZM10.9815 5.04578C10.2072 5.23372 9.37809 5.34769 8.52175 5.38084V7.47828H11.2949C11.2639 6.62662 11.1572 5.80581 10.9815 5.04578ZM8.52175 8.51825H11.2949C11.2639 9.36991 11.1573 10.1942 10.9815 10.9542C10.2072 10.7663 9.37809 10.6523 8.52175 10.6192V8.51825ZM8.52175 11.6633V14.8602C9.59947 14.4646 10.3258 13.0475 10.6973 11.9571C10.0148 11.7947 9.28181 11.6948 8.52175 11.6633ZM10.601 14.4516C11.0833 13.7944 11.4415 13.0165 11.6978 12.2531C12.1636 12.4201 12.5948 12.6198 12.9823 12.8496C12.3133 13.5367 11.504 14.0862 10.601 14.4516ZM11.983 11.2494C12.5959 11.4639 13.1605 11.7292 13.6596 12.0406C14.3805 11.0337 14.8398 9.82388 14.937 8.51831H12.3387C12.3062 9.47059 12.1851 10.3952 11.983 11.2494Z" fill="#B4C4DB"/>
</g>
</svg>
