<?xml version="1.0" encoding="utf-8" ?>
<svg xmlns="http://www.w3.org/2000/svg" xmlns:xlink="http://www.w3.org/1999/xlink" width="16" height="15">
	<defs>
		<clipPath id="clip_0">
			<rect x="-168" y="-107" width="1440" height="3714" clip-rule="evenodd"/>
		</clipPath>
	</defs>
	<g clip-path="url(#clip_0)">
		<path fill="rgb(121,140,168)" stroke="none" d="M8.44512 0.171716L15.8325 7.54683C16.0558 7.77435 16.0558 8.13882 15.8325 8.36628L14.1887 10.0169C14.0981 10.1039 13.9814 10.1586 13.8568 10.173L13.8568 14.4147C13.8568 14.7378 13.5944 15 13.2711 15L2.72888 15C2.40557 15 2.14319 14.7378 2.14319 14.4147L2.14319 10.1652C2.01866 10.1508 1.90191 10.0961 1.81132 10.0091L0.167508 8.36628C-0.0558359 8.13879 -0.0558359 7.77432 0.167508 7.54683L7.55491 0.171716C7.66541 0.0608769 7.81613 -0.000773453 7.97269 7.32671e-06L8.03125 7.32671e-06C8.18666 7.32671e-06 8.33541 0.0620637 8.44512 0.171716ZM8.41387 3.41442L13.7748 8.75651L14.5908 7.97608L8 1.37359L1.40913 7.97608L2.22519 8.75651L7.58612 3.41442C7.81491 3.18615 8.18506 3.18615 8.41387 3.41442ZM12.6854 13.8294L10.3427 13.8294L10.3427 10.5125C10.3427 10.1894 10.0803 9.92718 9.75703 9.92718L6.24297 9.92718C5.91969 9.92718 5.65728 10.1894 5.65728 10.5125L5.65728 13.8294L3.31457 13.8294L3.31457 9.34185L8 4.65923L12.6854 9.34185L12.6854 13.8294ZM6.82863 11.0978L6.82863 13.8294L9.17134 13.8294L9.17134 11.0978L6.82863 11.0978Z" fill-rule="evenodd"/>
	</g>

</svg>