<svg width="16" height="16" viewBox="0 0 16 16" fill="none" xmlns="http://www.w3.org/2000/svg">
<g id="ic_help" opacity="0.5">
<path id="Shape" fill-rule="evenodd" clip-rule="evenodd" d="M0 8C0 3.58866 3.58866 0 8 0C12.4113 0 16 3.58866 16 8C16 12.4113 12.4113 16 8 16C3.58866 16 0 12.4113 0 8ZM1.33334 8C1.33334 11.676 4.324 14.6667 8 14.6667C11.676 14.6667 14.6667 11.676 14.6667 8C14.6667 4.324 11.676 1.33334 8 1.33334C4.324 1.33334 1.33334 4.324 1.33334 8ZM7.83334 10.78C7.398 10.7873 7.04734 11.138 7.04 11.5733C7.03934 11.5867 7.03934 11.6007 7.04 11.614C7.05534 12.052 7.422 12.3947 7.86 12.38H7.83334C8.27334 12.3727 8.62669 12.014 8.62669 11.5733C8.616 11.1393 8.26734 10.7907 7.83334 10.78ZM5.48666 4.66666C6.13866 3.98931 7.04666 3.61866 7.98666 3.64666C9.56666 3.64666 10.5267 4.51334 10.5267 5.64669C10.4972 6.67351 9.76888 7.18426 9.12225 7.63769C8.59756 8.00562 8.12669 8.33581 8.12669 8.87334C8.12669 8.96334 8.15835 9.04668 8.19002 9.13002C8.22168 9.21335 8.25334 9.29669 8.25334 9.38669C8.25334 9.65534 8.03534 9.87334 7.76669 9.87334H7.75334C7.25334 9.87334 7.01334 9.16 7.01334 8.77334C7.01334 7.92466 7.63184 7.48451 8.20995 7.07311C8.71719 6.71213 9.19334 6.37328 9.19334 5.8C9.19334 5.22666 8.76 4.74 7.86 4.74C7.26466 4.73731 6.69334 4.978 6.28 5.40666C6.17666 5.49731 6.044 5.54731 5.90666 5.54666C5.61131 5.536 5.37666 5.29534 5.37331 5C5.37131 4.87931 5.41131 4.76131 5.48666 4.66666Z" fill="#798CA8"/>
</g>
</svg>
