<svg width="16" height="16" viewBox="0 0 16 16" fill="none" xmlns="http://www.w3.org/2000/svg">
<g id="ic_object_info">
<path id="Shape" fill-rule="evenodd" clip-rule="evenodd" d="M0 8.00005C0 3.58885 3.5888 0 8 0C12.4112 0 16 3.58885 16 8.00005C16 12.4112 12.4112 16 8 16C3.5888 16 0 12.4112 0 8.00005ZM1.45455 8.00005C1.45455 11.6092 4.39079 14.5455 8 14.5455C11.6092 14.5455 14.5455 11.6092 14.5455 8.00005C14.5455 4.39089 11.6092 1.45455 8 1.45455C4.39079 1.45455 1.45455 4.39089 1.45455 8.00005Z" fill="#B4C4DB"/>
<path id="Path" fill-rule="evenodd" clip-rule="evenodd" d="M7.99978 3.39404C7.46518 3.39404 7.03027 3.82924 7.03027 4.36418C7.03027 4.89862 7.46518 5.33344 7.99978 5.33344C8.53437 5.33344 8.96928 4.89862 8.96928 4.36418C8.96928 3.82924 8.53437 3.39404 7.99978 3.39404Z" fill="#B4C4DB"/>
<path id="Path_2" fill-rule="evenodd" clip-rule="evenodd" d="M8.00022 6.78784C7.59857 6.78784 7.27295 7.11347 7.27295 7.51511V11.8788C7.27295 12.2804 7.59857 12.606 8.00022 12.606C8.40187 12.606 8.72749 12.2804 8.72749 11.8788V7.51511C8.72749 7.11347 8.40187 6.78784 8.00022 6.78784Z" fill="#B4C4DB"/>
</g>
</svg>
