<svg width="16" height="16" viewBox="0 0 16 16" fill="none" xmlns="http://www.w3.org/2000/svg">
<g id="ic_judge">
<path id="Shape" fill-rule="evenodd" clip-rule="evenodd" d="M9.89575 9.41809L10.2273 9.08667L9.56433 8.42371L2.3999 15.5881C1.85168 16.1364 0.959473 16.1364 0.411255 15.5881C-0.137085 15.0398 -0.137085 14.1477 0.411255 13.5994L5.91821 8.09229H5.91833L5.91846 8.09216L7.57556 6.43494L6.91272 5.77209L6.5813 6.10352C6.39819 6.28662 6.10132 6.2865 5.91833 6.10352L4.59253 4.77771C4.40942 4.5946 4.40942 4.29785 4.59253 4.11475L8.57007 0.137329C8.65796 0.0493164 8.7771 0 8.90149 0C9.02576 0 9.14502 0.0493164 9.23291 0.137329L10.5587 1.46313C10.7418 1.64624 10.7418 1.94299 10.5587 2.12598L10.2273 2.45752L13.5417 5.77209L13.8733 5.44067C14.0563 5.25757 14.3533 5.25769 14.5361 5.44067L15.8619 6.76648C16.045 6.94958 16.045 7.24634 15.8619 7.42932L11.8845 11.4069C11.7015 11.5898 11.4045 11.5897 11.2216 11.4069L9.89575 10.0811C9.71277 9.89795 9.71277 9.6012 9.89575 9.41809ZM11.5531 10.4125L14.8677 7.0979L14.2047 6.43494L10.8901 9.74951L11.5531 10.4125ZM5.58691 4.44617L8.90149 1.13171L9.56433 1.79456L6.24976 5.10913L5.58691 4.44617ZM12.8789 6.43494L9.56433 3.12036L7.57556 5.10913L10.8901 8.42371L12.8789 6.43494ZM1.73706 14.9252C1.55432 15.1079 1.25696 15.1079 1.0741 14.9252C0.891357 14.7424 0.891357 14.4451 1.0741 14.2623L6.24976 9.08655L6.91272 9.74951L1.73706 14.9252ZM6.91272 8.42371L7.57556 9.08667L8.90149 7.76074L8.23853 7.0979L6.91272 8.42371Z" fill="#B4C4DB"/>
<path id="Shape_2" fill-rule="evenodd" clip-rule="evenodd" d="M15.0615 15.0625H15.5303C15.7892 15.0625 15.999 15.2723 15.999 15.5312C15.999 15.7902 15.7892 16 15.5303 16H8.96777C8.70898 16 8.49902 15.7902 8.49902 15.5312C8.49902 15.2723 8.70898 15.0625 8.96777 15.0625H9.43652V13.6562C9.43652 13.3973 9.64648 13.1875 9.90527 13.1875H14.5928C14.8517 13.1875 15.0615 13.3973 15.0615 13.6562V15.0625ZM14.124 14.125H10.374V15.0625H14.124V14.125Z" fill="#B4C4DB"/>
</g>
</svg>
