<svg width="16" height="16" viewBox="0 0 16 16" fill="none" xmlns="http://www.w3.org/2000/svg">
<g id="ic_leads">
<path id="Shape" fill-rule="evenodd" clip-rule="evenodd" d="M8.01795 9.81862C8.4552 9.98821 8.87329 10.2102 9.26453 10.4826C9.54773 10.6796 9.61707 11.0684 9.41968 11.3509C9.22217 11.6334 8.83264 11.7028 8.54956 11.5056C7.75928 10.9556 6.83008 10.6647 5.86255 10.6647C3.78308 10.6647 1.89929 12.0033 1.28162 13.92C1.21985 14.112 1.25257 14.3156 1.37158 14.4786C1.4906 14.6416 1.67469 14.735 1.87671 14.735H7.3136C7.65869 14.735 7.93848 15.0143 7.93848 15.3587C7.93848 15.7032 7.65869 15.9825 7.3136 15.9825H1.87671C1.27075 15.9825 0.718508 15.7022 0.361575 15.2134C0.00464129 14.7244 -0.0936253 14.1138 0.0919216 13.538C0.651492 11.8017 2.026 10.4402 3.72119 9.80632C3.08716 9.22457 2.68909 8.39038 2.68909 7.46494C2.68909 5.71104 4.1189 4.28414 5.87622 4.28414C7.21448 4.28414 8.36255 5.11163 8.83411 6.28085C9.17603 6.0328 9.5437 5.82155 9.93482 5.64976C10.0208 5.61199 10.1075 5.57654 10.1948 5.54304C9.55738 4.96104 9.15711 4.12454 9.15711 3.19655C9.15711 1.44253 10.5868 0.015625 12.3441 0.015625C14.1016 0.015625 15.5313 1.44253 15.5313 3.19655C15.5313 4.12832 15.1277 4.96787 14.4858 5.5501C14.9231 5.71982 15.3413 5.94167 15.7325 6.21409C16.0156 6.41109 16.085 6.79986 15.8876 7.08239C15.6901 7.36504 15.3007 7.43424 15.0175 7.23712C14.2272 6.68704 13.2981 6.39623 12.3304 6.39623C11.0909 6.39623 9.9347 6.8665 9.05262 7.72432C8.98548 8.55181 8.59961 9.29097 8.01795 9.81862ZM14.2814 3.19655C14.2814 2.13039 13.4124 1.26307 12.3441 1.26307C11.276 1.26307 10.4069 2.13039 10.4069 3.19655C10.4069 4.26258 11.276 5.13003 12.3441 5.13003C13.4124 5.13003 14.2814 4.26258 14.2814 3.19655ZM5.87622 5.53146C6.94446 5.53146 7.81348 6.39891 7.81348 7.46494C7.81348 8.5311 6.94446 9.39842 5.87622 9.39842C4.80799 9.39842 3.93897 8.5311 3.93897 7.46494C3.93897 6.39891 4.80799 5.53146 5.87622 5.53146ZM15.375 13.6435C15.7202 13.6435 16 13.3643 16 13.0199C16 12.6753 15.7202 12.3961 15.375 12.3961H13.6565V10.681C13.6565 10.3365 13.3767 10.0573 13.0316 10.0573C12.6864 10.0573 12.4066 10.3365 12.4066 10.681V12.3961H10.6881C10.343 12.3961 10.0632 12.6753 10.0632 13.0199C10.0632 13.3643 10.343 13.6435 10.6881 13.6435H12.4066V15.3587C12.4066 15.7032 12.6864 15.9825 13.0316 15.9825C13.3767 15.9825 13.6565 15.7032 13.6565 15.3587V13.6435H15.375Z" fill="#798CA8"/>
</g>
</svg>
