<svg width="16" height="12" viewBox="0 0 16 12" fill="none" xmlns="http://www.w3.org/2000/svg">
<g id="ic_details">
<path id="Path" fill-rule="evenodd" clip-rule="evenodd" d="M6.25662 1.63793C6.25662 1.54728 6.22074 1.467 6.14908 1.39731L5.61152 0.874215C5.53986 0.804487 5.45741 0.769531 5.36425 0.769531C5.2711 0.769531 5.1886 0.804524 5.11699 0.874215L0.107536 5.74911C0.03577 5.81884 0 5.89908 0 5.98973C0 6.08038 0.0358829 6.16063 0.107536 6.23032L5.11695 11.1052C5.18857 11.1751 5.27091 11.2098 5.36421 11.2098C5.45752 11.2098 5.53986 11.1749 5.61148 11.1052L6.14905 10.5824C6.2207 10.5127 6.25658 10.4324 6.25658 10.3417C6.25658 10.2511 6.2207 10.1709 6.14905 10.1012L1.92431 5.98973L6.14908 1.87855C6.22085 1.80886 6.25662 1.72858 6.25662 1.63793Z" fill="#8B97A9"/>
<path id="Path_2" fill-rule="evenodd" clip-rule="evenodd" d="M15.8725 5.74911L10.8629 0.874215C10.7913 0.804524 10.7088 0.769531 10.6158 0.769531C10.5225 0.769531 10.4403 0.804524 10.3684 0.874215L9.8311 1.39727C9.75949 1.467 9.72375 1.54713 9.72375 1.63789C9.72375 1.72865 9.75945 1.80882 9.8311 1.87851L14.0559 5.98981L9.8311 10.1013C9.75949 10.171 9.72375 10.2513 9.72375 10.3418C9.72375 10.4326 9.75945 10.5128 9.8311 10.5825L10.3684 11.1053C10.4403 11.1752 10.5226 11.2099 10.6158 11.2099C10.7089 11.2099 10.7913 11.1751 10.8629 11.1053L15.8725 6.23047C15.9442 6.16077 15.98 6.08038 15.98 5.98973C15.98 5.89905 15.9442 5.8188 15.8725 5.74911Z" fill="#8B97A9"/>
</g>
</svg>
