<svg width="11" height="16" viewBox="0 0 11 16" fill="none" xmlns="http://www.w3.org/2000/svg">
<g id="ic_location">
<path id="Shape" fill-rule="evenodd" clip-rule="evenodd" d="M0 5.625C0 2.52338 2.4673 0 5.5 0C8.5327 0 11 2.52338 11 5.625C11 6.64184 10.7318 7.63838 10.2242 8.50688L5.96958 15.7721C5.88748 15.9124 5.73983 15.9987 5.57999 16H5.57636C5.4179 16 5.27056 15.9163 5.18693 15.7784L0.820997 8.58288C0.283831 7.69563 0 6.67294 0 5.625ZM5.56942 14.6308L9.43757 8.02556C9.85994 7.30275 10.0864 6.47253 10.0864 5.625C10.0864 3.04031 8.02725 0.93125 5.5 0.93125C2.97275 0.93125 0.910556 3.04031 0.910556 5.625C0.910556 6.49844 1.15298 7.35044 1.6001 8.08894L5.56942 14.6308Z" fill="#8B97A9"/>
<path id="Shape_2" fill-rule="evenodd" clip-rule="evenodd" d="M2.75 5.625C2.75 4.07419 3.98365 2.8125 5.5 2.8125C7.01635 2.8125 8.25 4.07419 8.25 5.625C8.25 7.14897 7.05537 8.4375 5.5 8.4375C3.96358 8.4375 2.75 7.16591 2.75 5.625ZM3.66056 5.625C3.66056 6.66147 4.48381 7.50625 5.5 7.50625C6.53229 7.50625 7.33639 6.64634 7.33639 5.625C7.33639 4.59113 6.5109 3.74375 5.5 3.74375C4.4891 3.74375 3.66056 4.59113 3.66056 5.625Z" fill="#8B97A9"/>
</g>
</svg>
