<?xml version="1.0" encoding="utf-8" ?>
<svg xmlns="http://www.w3.org/2000/svg" xmlns:xlink="http://www.w3.org/1999/xlink" width="24" height="24">
	<defs>
		<clipPath id="clip_0">
			<rect x="-881" y="-28" width="1440" height="3714" clip-rule="evenodd"/>
		</clipPath>
	</defs>
	<g clip-path="url(#clip_0)">
		<path fill="rgb(121,140,168)" fill-opacity="0.49803922" stroke="none" d="M0 12C0 5.3828 5.38373 0 12 0C18.6172 0 24 5.3828 24 12C24 18.6172 18.6172 24 12 24C9.74873 24 7.64897 23.3651 5.84662 22.2832C5.7128 22.2358 5.59008 22.167 5.49248 22.0675C2.19272 19.9278 0 16.2181 0 12ZM14.6668 15.5349C16.5871 16.2758 18 17.8113 18.5177 19.7577C20.73 17.8959 22.141 15.1111 22.141 12C22.141 6.40898 17.592 1.85902 12 1.85902C6.40805 1.85902 1.85902 6.40898 1.85902 12C1.85902 15.0962 3.25795 17.8689 5.4525 19.7317C5.97769 17.789 7.39706 16.26 9.32208 15.5265C8.09513 14.6742 7.28737 13.2595 7.28737 11.6561C7.28737 9.05714 9.40106 6.94345 12 6.94345C14.5989 6.94345 16.7126 9.05714 16.7126 11.6561C16.7126 13.2641 15.9002 14.6844 14.6668 15.5349ZM9.14639 11.6561C9.14639 10.0824 10.4263 8.80247 12 8.80247C13.5737 8.80247 14.8536 10.0824 14.8536 11.6561C14.8536 13.2297 13.5737 14.5097 12 14.5097C10.4263 14.5097 9.14639 13.2298 9.14639 11.6561ZM7.13494 20.8945C8.58033 21.6883 10.2386 22.141 12 22.1419C13.7475 22.1419 15.3927 21.6976 16.8297 20.9159C16.5797 18.5707 14.6314 16.9088 11.9814 16.9088C9.33975 16.9088 7.39425 18.5605 7.13494 20.8945Z" fill-rule="evenodd"/>
	</g>

</svg>