<svg width="11" height="16" viewBox="0 0 11 16" fill="none" xmlns="http://www.w3.org/2000/svg">
<g id="ic_close">
<path id="Oval" fill-rule="evenodd" clip-rule="evenodd" d="M5.49386 12.7897C6.14404 12.7897 6.67112 12.2529 6.67112 11.5907C6.67112 10.9284 6.14404 10.3916 5.49386 10.3916C4.84368 10.3916 4.3166 10.9284 4.3166 11.5907C4.3166 12.2529 4.84368 12.7897 5.49386 12.7897Z" fill="#8B97A9"/>
<path id="Shape" fill-rule="evenodd" clip-rule="evenodd" d="M9.41806 7.19438V3.99689C9.41806 1.79301 7.65766 0 5.49386 0C3.33006 0 1.56969 1.79301 1.56969 3.99689V7.19438C0.703227 7.19438 0 7.91063 0 8.79314V14.3888C0 15.2705 0.703227 15.9875 1.56969 15.9875H9.41806C10.2845 15.9875 10.9877 15.2705 10.9877 14.3888V8.79314C10.9877 7.91063 10.2845 7.19438 9.41806 7.19438ZM3.13934 3.99689C3.13934 2.67474 4.19575 1.59876 5.49386 1.59876C6.79197 1.59876 7.84837 2.67474 7.84837 3.99689V7.19438H3.13934V3.99689ZM1.56969 8.79314V14.3888H9.41964L9.41806 8.79314H1.56969Z" fill="#8B97A9"/>
</g>
</svg>
