<svg width="16" height="14" viewBox="0 0 16 14" fill="none" xmlns="http://www.w3.org/2000/svg">
<g id="ic_law_form">
<g id="suitcase">
<path id="Shape" fill-rule="evenodd" clip-rule="evenodd" d="M13.5053 2.60926H11.192V1.18015C11.192 0.534766 10.6555 0.00976562 9.9961 0.00976562H5.97277C5.31334 0.00976562 4.77686 0.534827 4.77686 1.18015V2.60926H2.46356C1.10515 2.60926 0 3.70194 0 5.04502V12.0008C0 13.0979 0.902706 13.9904 2.01232 13.9904H13.9565C15.0661 13.9904 15.9688 13.0979 15.9688 12.0008V5.04502C15.9688 3.70194 14.8637 2.60926 13.5053 2.60926ZM5.71537 1.18015C5.71537 1.04191 5.82603 0.937682 5.97277 0.937682H9.99607C10.1428 0.937682 10.2535 1.04191 10.2535 1.18015V2.60926H5.71537V1.18015ZM13.9565 13.0625C14.5486 13.0625 15.0303 12.5862 15.0303 12.0008H15.0303V7.66706C14.8833 7.75824 14.7227 7.83213 14.5502 7.8848C14.5413 7.88757 14.5322 7.89004 14.5231 7.89223L9.74238 9.04741V9.42899C9.74238 10.0281 9.2494 10.5155 8.64346 10.5155H7.32535C6.71941 10.5155 6.22643 10.0281 6.22643 9.42899V9.04741L1.44571 7.89223C1.4366 7.89001 1.42756 7.88751 1.41857 7.8848C1.24616 7.83213 1.08547 7.75824 0.938511 7.66706V12.0008C0.938511 12.5862 1.42019 13.0625 2.01232 13.0625H13.9565ZM7.16497 9.42899V8.1199C7.16497 8.03244 7.23693 7.9613 7.32538 7.9613H8.64349C8.73195 7.96127 8.8039 8.03244 8.8039 8.1199V9.42899C8.8039 9.51644 8.73195 9.58759 8.64349 9.58759H7.32538C7.23693 9.58755 7.16497 9.51641 7.16497 9.42899ZM14.2854 6.99441C14.7316 6.8525 15.0303 6.44647 15.0303 5.98003H15.0303V5.04502C15.0303 4.21359 14.3462 3.53718 13.5053 3.53718H2.46356C1.62264 3.53718 0.938511 4.21359 0.938511 5.04502V5.98003C0.938511 6.44647 1.2373 6.8525 1.6834 6.99444L6.22715 8.0923C6.24206 7.50593 6.7288 7.03333 7.32538 7.03333H8.64349C9.24011 7.03333 9.72685 7.5059 9.74172 8.0923L14.2854 6.99441Z" fill="#B4C4DB"/>
</g>
</g>
</svg>
