<svg width="16" height="16" viewBox="0 0 16 16" fill="none" xmlns="http://www.w3.org/2000/svg">
<path fill-rule="evenodd" clip-rule="evenodd" d="M2.01511 14.6591L1.35356 13.9962C0.861842 13.5034 0.815302 12.7448 1.19201 12.2019C-0.376584 9.64502 -0.376584 6.35474 1.19201 3.79773C0.815302 3.25488 0.86172 2.49622 1.35356 2.00342L2.01511 1.3407C2.50146 0.853271 3.25902 0.799561 3.80568 1.17883C6.35782 -0.392944 9.64181 -0.392944 12.194 1.17883C12.7406 0.799561 13.4982 0.853271 13.9845 1.3407L14.6461 2.00342C15.1379 2.49622 15.1843 3.25488 14.8076 3.79773C16.3762 6.35474 16.3762 9.6449 14.8076 12.2019C15.1843 12.7448 15.1379 13.5034 14.6461 13.9962L13.9845 14.6591C13.4979 15.1466 12.741 15.2004 12.194 14.8208C10.9179 15.6067 9.45894 16 7.99988 16C6.54069 16 5.08175 15.6067 3.80568 14.8208C3.25877 15.2003 2.50195 15.1469 2.01511 14.6591ZM2.01511 13.3334L2.67666 13.9962C2.85904 14.179 3.15582 14.179 3.33808 13.9962L5.98416 11.3451C6.16654 11.1624 6.16654 10.865 5.98416 10.6823L5.32261 10.0194C5.14023 9.83667 4.84357 9.83667 4.66118 10.0194L2.01511 12.6707C1.83224 12.8539 1.83224 13.1503 2.01511 13.3334ZM6.64571 5.98022C6.96053 5.66467 7.09381 5.23535 7.0463 4.82324C7.65936 4.64771 8.3404 4.64771 8.95346 4.82324C8.90595 5.23535 9.03923 5.66479 9.35404 5.98022L10.0156 6.64307C10.3173 6.94531 10.7389 7.09436 11.1703 7.04443C11.3454 7.65869 11.3454 8.34106 11.1703 8.95532C10.7589 8.90771 10.3304 9.04126 10.0156 9.35669L9.35404 10.0195C9.03923 10.335 8.90595 10.7643 8.95346 11.1765C8.3404 11.3519 7.65936 11.3519 7.0463 11.1765C7.09381 10.7643 6.96053 10.335 6.64571 10.0195L5.98416 9.35669C5.66935 9.04126 5.24086 8.90771 4.82943 8.95532C4.65424 8.34106 4.65424 7.65869 4.82943 7.04443C5.26011 7.09436 5.6819 6.94592 5.98416 6.64307L6.64571 5.98022ZM6.62597 12.0276L4.50902 14.1487C6.65863 15.3689 9.34113 15.3689 11.4906 14.1487L9.37366 12.0276C8.93299 12.1744 8.4665 12.2482 7.99988 12.2482C7.53314 12.2482 7.06664 12.1744 6.62597 12.0276ZM13.9845 13.3335L13.3231 13.9962C13.1406 14.179 12.8439 14.179 12.6615 13.9962L10.0155 11.3451C9.83309 11.1624 9.83309 10.865 10.0155 10.6823L10.677 10.0194C10.8594 9.83667 11.1561 9.83667 11.3386 10.0194L13.9845 12.6707C14.1674 12.8539 14.1674 13.1503 13.9845 13.3335ZM12.0197 9.37646L14.1367 11.4976C15.3545 9.34363 15.3545 6.65601 14.1367 4.5022L12.0197 6.62329C12.313 7.50647 12.313 8.49329 12.0197 9.37646ZM13.3231 2.00342L13.9845 2.66626C14.1674 2.84937 14.1674 3.14575 13.9845 3.32898L13.0116 4.30392C12.6259 4.69033 12.5365 4.77997 12.5365 4.77996L12.5553 4.76107L12.5562 4.7602C12.6288 4.68742 12.8061 4.50981 11.3386 5.98022C11.1561 6.16296 10.8594 6.16296 10.677 5.98022L10.0155 5.31738C9.83309 5.13464 9.83309 4.83728 10.0155 4.65454L12.6615 2.00342C12.8439 1.82068 13.1406 1.82068 13.3231 2.00342ZM9.37378 3.97205L11.4907 1.85095C9.34113 0.630737 6.65863 0.630737 4.50902 1.85095L6.62597 3.97205C7.50743 3.67822 8.49232 3.67822 9.37378 3.97205ZM2.01511 2.66626L2.67666 2.00342C2.85904 1.82068 3.1557 1.82068 3.33808 2.00342L5.98416 4.65466C6.16654 4.8374 6.16654 5.13477 5.98416 5.3175L5.32261 5.98022C5.14035 6.16296 4.84357 6.16309 4.66118 5.98022L2.01511 3.3291C1.83236 3.14587 1.83236 2.84949 2.01511 2.66626ZM3.9799 6.62329L1.86294 4.5022C0.645102 6.65601 0.645102 9.34363 1.86294 11.4974L3.9799 9.37634C3.68677 8.49329 3.68677 7.50647 3.9799 6.62329Z" fill="#0070D9"/>
</svg>
