<?xml version="1.0" encoding="utf-8" ?>
<svg xmlns="http://www.w3.org/2000/svg" xmlns:xlink="http://www.w3.org/1999/xlink" width="11" height="16">
	<defs>
		<clipPath id="clip_0">
			<rect x="-954" y="-848" width="1440" height="2238" clip-rule="evenodd"/>
		</clipPath>
	</defs>
	<g clip-path="url(#clip_0)">
		<path fill="rgb(139,151,169)" stroke="none" d="M0 5.625C0 2.52338 2.4673 0 5.5 0C8.5327 0 11 2.52338 11 5.625C11 6.64184 10.7318 7.63837 10.2242 8.50688L5.96958 15.7721C5.88747 15.9124 5.73983 15.9987 5.57999 16L5.57636 16C5.4179 16 5.27056 15.9163 5.18693 15.7784L0.820997 8.58288C0.283831 7.69562 0 6.67294 0 5.625ZM5.56942 14.6308L9.43757 8.02556C9.85994 7.30275 10.0864 6.47253 10.0864 5.625C10.0864 3.04031 8.02725 0.93125 5.5 0.93125C2.97275 0.93125 0.910556 3.04031 0.910556 5.625C0.910556 6.49844 1.15298 7.35044 1.6001 8.08894L5.56942 14.6308Z" fill-rule="evenodd"/>
	</g>
	<defs>
		<clipPath id="clip_1">
			<rect x="-954" y="-848" width="1440" height="2238" clip-rule="evenodd"/>
		</clipPath>
	</defs>
	<g clip-path="url(#clip_1)">
		<path fill="rgb(139,151,169)" stroke="none" transform="translate(2.75 2.8125)" d="M0 2.8125C0 1.26169 1.23365 0 2.75 0C4.26635 0 5.5 1.26169 5.5 2.8125C5.5 4.33647 4.30537 5.625 2.75 5.625C1.21358 5.625 0 4.35341 0 2.8125ZM0.910556 2.8125C0.910556 3.84897 1.73381 4.69375 2.75 4.69375C3.78229 4.69375 4.58639 3.83384 4.58639 2.8125C4.58639 1.77862 3.7609 0.93125 2.75 0.93125C1.7391 0.93125 0.910556 1.77862 0.910556 2.8125Z" fill-rule="evenodd"/>
	</g>

</svg>