<svg width="24" height="12" viewBox="0 0 24 12" fill="none" xmlns="http://www.w3.org/2000/svg">
<g id="ic_line-chart">
<path id="Shape" fill-rule="evenodd" clip-rule="evenodd" d="M21.4099 0.0334964C20.0075 0.0334964 18.8666 1.23286 18.8666 2.70709C18.8666 3.24478 19.0189 3.74548 19.2798 4.16514L16.532 7.05364C16.1328 6.77941 15.6565 6.61933 15.145 6.61933C14.615 6.61933 14.1224 6.79087 13.7145 7.08364L10.9385 4.16494C11.1993 3.74528 11.3515 3.24463 11.3515 2.70704C11.3515 1.23281 10.2106 0.0334473 8.80819 0.0334473C7.4058 0.0334473 6.26489 1.23281 6.26489 2.70704C6.26489 3.24463 6.41712 3.74514 6.67785 4.16479L3.93001 7.05345C3.53085 6.77932 3.05464 6.61933 2.5433 6.61933C1.14091 6.61933 0 7.81874 0 9.29297C0 10.7672 1.14091 11.9666 2.5433 11.9666C3.94568 11.9666 5.0866 10.7672 5.0866 9.29297C5.0866 8.75528 4.93432 8.25458 4.67345 7.83487L7.42119 4.94637C7.82044 5.22059 8.29675 5.38068 8.80823 5.38068C9.31967 5.38068 9.79598 5.22059 10.1952 4.94637L12.9866 7.88115C12.743 8.29122 12.6017 8.77496 12.6017 9.29292C12.6017 10.7672 13.7426 11.9665 15.145 11.9665C16.5474 11.9665 17.6883 10.7672 17.6883 9.29292C17.6883 8.75533 17.5361 8.25478 17.2754 7.83517L20.0233 4.94651C20.4225 5.22064 20.8987 5.38063 21.41 5.38063C22.8124 5.38063 23.9533 4.18127 23.9533 2.70704C23.9533 1.23276 22.8123 0.0334964 21.4099 0.0334964ZM2.5433 10.8614C1.72056 10.8614 1.05123 10.1578 1.05123 9.29297C1.05123 8.42809 1.72056 7.72446 2.5433 7.72446C3.36599 7.72446 4.03537 8.42809 4.03537 9.29297C4.03537 10.1578 3.36603 10.8614 2.5433 10.8614ZM7.31616 2.70704C7.31616 3.57192 7.98554 4.27555 8.80823 4.27555C9.63097 4.27555 10.3003 3.57192 10.3003 2.70704C10.3003 1.84215 9.63097 1.13853 8.80823 1.13853C7.9855 1.13853 7.31616 1.8422 7.31616 2.70704ZM15.145 10.8614C14.3223 10.8614 13.6529 10.1578 13.6529 9.29292C13.6529 8.42804 14.3222 7.72441 15.145 7.72441C15.9677 7.72441 16.6371 8.42804 16.6371 9.29292C16.637 10.1578 15.9677 10.8614 15.145 10.8614ZM19.9178 2.70704C19.9178 3.57192 20.5872 4.27555 21.4099 4.27555C22.2326 4.27555 22.902 3.57192 22.902 2.70704C22.902 1.84215 22.2326 1.13853 21.4099 1.13853C20.5872 1.13853 19.9178 1.8422 19.9178 2.70704Z" fill="white"/>
</g>
</svg>
