<svg width="16" height="16" viewBox="0 0 16 16" fill="none" xmlns="http://www.w3.org/2000/svg">
<path fill-rule="evenodd" clip-rule="evenodd" d="M14.8983 6.63344C15.5102 6.77988 16 7.32784 16 8C16 8.67309 15.5092 9.22038 14.8983 9.36656C14.7843 9.94819 14.5993 10.5068 14.3476 11.0333C14.7812 11.4689 15.0312 12.0626 15.0312 12.6875C15.0312 13.9798 13.9798 15.0312 12.6875 15.0312C12.0626 15.0312 11.4689 14.7812 11.0333 14.3476C10.5067 14.5994 9.94816 14.7843 9.36656 14.8983C9.22013 15.5102 8.67216 16 8 16C7.327 16 6.77966 15.5093 6.63344 14.8983C6.05184 14.7843 5.49328 14.5994 4.96672 14.3476C4.53106 14.7812 3.93738 15.0312 3.3125 15.0312C2.02016 15.0312 0.96875 13.9798 0.96875 12.6875C0.96875 12.0626 1.21881 11.4689 1.65244 11.0333C1.40066 10.5068 1.21575 9.94816 1.10172 9.36656C0.489781 9.22013 0 8.67216 0 8C0 7.32691 0.490719 6.77962 1.10172 6.63344C1.21575 6.05184 1.40066 5.49325 1.65244 4.96672C1.21881 4.53106 0.96875 3.93738 0.96875 3.3125C0.96875 2.02016 2.02016 0.96875 3.3125 0.96875C3.93738 0.96875 4.53106 1.21881 4.96672 1.65244C5.49328 1.40062 6.05184 1.21575 6.63344 1.10172C6.77984 0.489813 7.32778 0 8 0C8.67303 0 9.22034 0.490688 9.36656 1.10172C9.94819 1.21572 10.5068 1.40062 11.0333 1.65241C11.4689 1.21878 12.0626 0.96875 12.6875 0.96875C13.9798 0.96875 15.0312 2.02016 15.0312 3.3125C15.0312 3.93738 14.7812 4.53106 14.3476 4.96672C14.5994 5.49328 14.7843 6.05184 14.8983 6.63344ZM14.0938 3.3125C14.0938 2.53709 13.4629 1.90625 12.6875 1.90625C12.4036 1.90625 12.1305 1.99253 11.901 2.14734C12.2819 2.4025 12.6404 2.69669 12.9718 3.02816C13.3033 3.35963 13.5975 3.71806 13.8527 4.09903C14.0075 3.86953 14.0938 3.59641 14.0938 3.3125ZM9.40622 2.06981C11.6347 2.59838 13.4016 4.36531 13.9302 6.59375H11.9773C11.5528 5.39266 10.6073 4.44716 9.40622 4.02266V2.06981ZM8 0.9375C7.75028 0.9375 7.53125 1.17116 7.53125 1.4375V4.25C7.53125 4.50847 7.74153 4.71875 8 4.71875C8.25847 4.71875 8.46875 4.50847 8.46875 4.25V1.4375C8.46875 1.17116 8.24972 0.9375 8 0.9375ZM6.59375 2.06978V4.02262C5.39262 4.44712 4.44716 5.39263 4.02266 6.59372H2.06978C2.59838 4.36531 4.36531 2.59838 6.59375 2.06978ZM4.09903 2.14734C3.86953 1.9925 3.59641 1.90625 3.3125 1.90625C2.53709 1.90625 1.90625 2.53709 1.90625 3.3125C1.90625 3.59641 1.9925 3.86953 2.14734 4.09903C2.40253 3.71806 2.69669 3.35963 3.02816 3.02816C3.35963 2.69669 3.71806 2.40253 4.09903 2.14734ZM1.4375 8.46875C1.17116 8.46875 0.9375 8.24972 0.9375 8C0.9375 7.75028 1.17116 7.525 1.4375 7.525H1.50284L1.50456 7.52506L1.50591 7.525H4.25C4.50847 7.525 4.71875 7.74153 4.71875 8C4.71875 8.25847 4.50847 8.46875 4.25 8.46875H1.4375ZM1.90625 12.6875C1.90625 13.4629 2.53709 14.0938 3.3125 14.0938C3.59641 14.0938 3.86953 14.0075 4.09903 13.8527C3.3305 13.3379 2.66112 12.668 2.14734 11.901C1.9925 12.1305 1.90625 12.4036 1.90625 12.6875ZM6.59375 13.9302C4.36531 13.4017 2.59838 11.6347 2.06978 9.40625H4.02266C4.44716 10.6073 5.39262 11.5528 6.59375 11.9773V13.9302ZM8 15.0625C8.24972 15.0625 8.46875 14.8288 8.46875 14.5625V11.75C8.46875 11.4915 8.25847 11.2812 8 11.2812C7.74153 11.2812 7.53125 11.4915 7.53125 11.75V14.5625C7.53125 14.8288 7.75028 15.0625 8 15.0625ZM9.21731 11.0472C8.97381 10.6272 8.51953 10.3438 8 10.3438C7.48047 10.3438 7.02619 10.6272 6.78272 11.0473C5.94806 10.714 5.28603 10.0519 4.95275 9.21731C5.37284 8.97381 5.65625 8.51953 5.65625 8C5.65625 7.48047 5.37284 7.02619 4.95272 6.78272C5.28603 5.94809 5.94803 5.28603 6.78269 4.95272C7.02619 5.37284 7.48047 5.65625 8 5.65625C8.51953 5.65625 8.97381 5.37284 9.21728 4.95272C10.0519 5.28603 10.714 5.94806 11.0472 6.78269C10.6272 7.02619 10.3438 7.48047 10.3438 8C10.3438 8.51953 10.6272 8.97381 11.0473 9.21728C10.714 10.0519 10.0519 10.7139 9.21731 11.0472ZM9.40625 11.9773V13.9302C11.6347 13.4016 13.4016 11.6284 13.9302 9.4H11.9773C11.5529 10.6011 10.6074 11.5528 9.40625 11.9773ZM12.6875 14.0938C12.4036 14.0938 12.1305 14.0075 11.901 13.8527C12.2819 13.5975 12.6404 13.3033 12.9718 12.9718C13.3033 12.6404 13.5975 12.2819 13.8527 11.901C14.0075 12.1305 14.0938 12.4036 14.0938 12.6875C14.0938 13.4629 13.4629 14.0938 12.6875 14.0938ZM11.2812 8C11.2812 8.25847 11.4915 8.46875 11.75 8.46875H14.5625C14.8288 8.46875 15.0625 8.24972 15.0625 8C15.0625 7.75028 14.8288 7.525 14.5625 7.525H14.4972L14.4955 7.52506L14.4941 7.525H11.75C11.4915 7.525 11.2812 7.74153 11.2812 8Z" fill="#0070D9"/>
</svg>
