<svg width="13" height="16" viewBox="0 0 13 16" fill="none" xmlns="http://www.w3.org/2000/svg">
<g id="ic_lock">
<path id="Shape" fill-rule="evenodd" clip-rule="evenodd" d="M11.0882 5.875H9.94V3.30531C9.94 1.48275 8.39628 0 6.49882 0C4.60136 0 3.05764 1.48275 3.05764 3.30531V5.875H1.91176C0.857618 5.875 0 6.71613 0 7.75V14.125C0 15.1589 0.857618 16 1.91176 16H11.0882C12.1424 16 13 15.1589 13 14.125V7.75C13 6.71613 12.1424 5.875 11.0882 5.875ZM4.33215 3.30531C4.33215 2.172 5.30413 1.25 6.49882 1.25C7.69351 1.25 8.66549 2.172 8.66549 3.30531V5.875H4.33215V3.30531ZM11.0882 14.75C11.4396 14.75 11.7255 14.4696 11.7255 14.125V7.75C11.7255 7.40538 11.4396 7.125 11.0882 7.125H1.91176C1.56038 7.125 1.27451 7.40538 1.27451 7.75V14.125C1.27451 14.4696 1.56038 14.75 1.91176 14.75H11.0882Z" fill="#F37C22"/>
<path id="Path" fill-rule="evenodd" clip-rule="evenodd" d="M6.50021 8.9375C5.8491 8.9375 5.32129 9.45516 5.32129 10.0938C5.32129 10.5015 5.53668 10.8597 5.86178 11.0656V12.4375C5.86178 12.7827 6.14708 13.0625 6.49903 13.0625C6.85096 13.0625 7.13629 12.7827 7.13629 12.4375V11.067C7.46269 10.8614 7.67913 10.5025 7.67913 10.0938C7.67913 9.45516 7.15133 8.9375 6.50021 8.9375Z" fill="#F37C22"/>
</g>
</svg>
