<svg width="16" height="15" viewBox="0 0 16 15" fill="none" xmlns="http://www.w3.org/2000/svg">
<g id="ic_money">
<path id="Path" fill-rule="evenodd" clip-rule="evenodd" d="M9.875 4.6875C10.1334 4.6875 10.3438 4.89783 10.3438 5.15625C10.3438 5.41467 10.1334 5.625 9.875 5.625C9.70813 5.625 9.55249 5.53503 9.46863 5.39026C9.33911 5.16626 9.05237 5.0896 8.82825 5.21924C8.60413 5.34888 8.52759 5.63562 8.6571 5.85974C8.82678 6.15295 9.09534 6.37073 9.40625 6.48108V6.99377C9.40625 7.25269 9.61609 7.46252 9.875 7.46252C10.1339 7.46252 10.3438 7.25269 10.3438 6.99377V6.48193C10.8894 6.28833 11.2812 5.76733 11.2812 5.15625C11.2812 4.38086 10.6504 3.75 9.875 3.75C9.61658 3.75 9.40625 3.53967 9.40625 3.28125C9.40625 3.02283 9.61658 2.8125 9.875 2.8125C10.0419 2.8125 10.1975 2.90247 10.2814 3.04724C10.4109 3.27124 10.6976 3.3479 10.9218 3.21826C11.1459 3.08862 11.2224 2.80188 11.0929 2.57776C10.9232 2.28455 10.6547 2.06677 10.3438 1.95642V1.42505C10.3438 1.16614 10.1339 0.956299 9.875 0.956299C9.61609 0.956299 9.40625 1.16614 9.40625 1.42505V1.95557C8.8606 2.14917 8.46875 2.67017 8.46875 3.28125C8.46875 4.05664 9.09961 4.6875 9.875 4.6875Z" fill="#B4C4DB"/>
<path id="Shape" fill-rule="evenodd" clip-rule="evenodd" d="M14.0938 4.21875C14.0938 6.54492 12.2012 8.4375 9.875 8.4375C7.54883 8.4375 5.65625 6.54492 5.65625 4.21875C5.65625 1.89258 7.54883 0 9.875 0C12.2012 0 14.0938 1.89258 14.0938 4.21875ZM13.1562 4.21875C13.1562 2.40942 11.6843 0.9375 9.875 0.9375C8.06567 0.9375 6.59375 2.40942 6.59375 4.21875C6.59375 6.02808 8.06567 7.5 9.875 7.5C11.6843 7.5 13.1562 6.02808 13.1562 4.21875Z" fill="#B4C4DB"/>
<path id="Shape_2" fill-rule="evenodd" clip-rule="evenodd" d="M14.5938 8.43747C15.3691 8.43747 16 9.06833 16 9.84372C16 10.1505 15.903 10.442 15.7192 10.6869L15.7183 10.688L15.7175 10.6892L13.1545 14.0647C12.7159 14.6495 12.015 15 11.2812 15H6.62695C5.50861 15 4.71969 14.6622 4.02368 14.3643L4.02356 14.3642L4.02118 14.3632C3.75057 14.2475 3.49378 14.1377 3.24548 14.0625H0.46875C0.209839 14.0625 0 13.8526 0 13.5937V9.84372C0 9.58481 0.209839 9.37497 0.46875 9.37497H3.13562L3.48865 9.06442C4.72437 7.9769 6.58813 7.9769 7.82385 9.06442L8.17688 9.37497H10.8125C11.4459 9.37497 11.9827 9.79599 12.1581 10.3728L13.567 8.88278L13.5687 8.88107C13.8336 8.59921 14.2068 8.43747 14.5938 8.43747ZM11.2812 14.0625C11.7216 14.0625 12.1421 13.8521 12.4062 13.5L14.9691 10.1245L14.9692 10.1244C15.0303 10.0431 15.0625 9.94601 15.0625 9.84372C15.0625 9.5853 14.8522 9.37497 14.5938 9.37497C14.4622 9.37497 14.3403 9.42795 14.2506 9.52438L14.2494 9.5256L14.2482 9.52695L12.1544 11.7411C11.8894 12.0247 11.5149 12.1875 11.1267 12.1875H7.48108C7.22217 12.1875 7.01233 11.9776 7.01233 11.7187C7.01233 11.4598 7.22217 11.25 7.48108 11.25H10.8125C11.0709 11.25 11.2812 11.0396 11.2812 10.7812C11.2812 10.5228 11.0709 10.3125 10.8125 10.3125H8C7.88599 10.3125 7.77588 10.271 7.69031 10.1956L7.20459 9.76816C6.3219 8.99142 4.9906 8.99142 4.10791 9.76816C4.02276 9.84308 3.95009 9.90822 3.88704 9.96473C3.57598 10.2435 3.49905 10.3125 3.3125 10.3125H0.9375V13.125H3.3125C3.51267 13.125 4.13603 13.3924 4.36095 13.489C4.3725 13.4939 4.383 13.4984 4.39233 13.5024C5.03564 13.7778 5.70081 14.0625 6.62695 14.0625H11.2812Z" fill="#B4C4DB"/>
</g>
</svg>
