<svg width="16" height="16" viewBox="0 0 16 16" fill="none" xmlns="http://www.w3.org/2000/svg">
<g id="ic_messages">
<path id="Fill 1" fill-rule="evenodd" clip-rule="evenodd" d="M0.289884 15.705C0.476694 15.8948 0.723635 15.9993 0.985193 15.9993C1.09483 15.9993 1.20354 15.9808 1.30833 15.9442L3.09194 15.3218C3.73821 15.6249 4.45486 15.7854 5.16816 15.7866H5.17578C5.95502 15.7865 6.73245 15.5974 7.42404 15.2396C8.09592 14.892 8.69031 14.3835 9.14648 13.7666C10.0748 13.7333 11.0021 13.5021 11.8356 13.0962L14.4454 14.007C14.5676 14.0497 14.6943 14.0713 14.8219 14.0713C15.1266 14.0713 15.4142 13.9495 15.6318 13.7284C15.9449 13.4105 16.05 12.9488 15.9061 12.5235L15.0093 9.87293C15.4427 8.95523 15.6724 7.93263 15.6739 6.91209C15.6767 5.10088 14.9868 3.38847 13.7313 2.09026C12.4755 0.791765 10.802 0.0608173 9.01904 0.0321545C8.98215 0.0315619 8.94521 0.03125 8.90845 0.03125C7.10226 0.03125 5.40393 0.745823 4.12629 2.04338C2.88542 3.30358 2.18384 4.97313 2.14681 6.7506C1.55425 7.21531 1.06605 7.81676 0.732664 8.49357C0.389293 9.19058 0.208441 9.97118 0.209608 10.751C0.210744 11.4752 0.368871 12.203 0.667312 12.8594L0.0544294 14.6708C-0.0690869 15.0358 0.0211396 15.4321 0.289884 15.705ZM11.7921 11.8465C11.8576 11.8465 11.9222 11.8575 11.9841 11.8791L14.7674 12.8504L13.811 10.0238C13.7582 9.86754 13.7715 9.69416 13.8476 9.54819C14.268 8.74105 14.4909 7.82883 14.4924 6.91019C14.497 3.82808 12.0333 1.28084 9.00033 1.23197C8.96987 1.2315 8.93959 1.23125 8.90922 1.23125C7.41815 1.23125 6.01626 1.821 4.96182 2.89191C3.88362 3.9869 3.30314 5.44352 3.32734 6.99337C3.37534 10.069 5.87953 12.5711 8.90968 12.5711H8.91852C9.82278 12.5697 10.721 12.3433 11.5159 11.9162C11.6006 11.8706 11.6961 11.8465 11.7921 11.8465ZM2.2799 8.273C1.70378 8.96705 1.38986 9.8371 1.39124 10.7491C1.39223 11.3719 1.54335 11.9902 1.82831 12.5373C1.90438 12.6833 1.91768 12.8566 1.86486 13.0129L1.30154 14.6777L2.94085 14.1056C3.00273 14.084 3.06728 14.0731 3.13273 14.0731C3.22869 14.0731 3.32423 14.0971 3.40909 14.1427C3.94777 14.4321 4.5566 14.5856 5.16976 14.5866H5.17569C6.09156 14.5866 6.95992 14.2562 7.64669 13.6512C6.33561 13.3997 5.13887 12.7623 4.17236 11.7982C3.19768 10.8259 2.54671 9.61157 2.2799 8.273Z" fill="#798CA8"/>
<path id="Fill 4" d="M6.12164 5.45784C5.79587 5.45784 5.53084 5.18868 5.53084 4.85783C5.53084 4.52697 5.79587 4.25781 6.12164 4.25781H11.6974C12.0232 4.25781 12.2882 4.52697 12.2882 4.85783C12.2882 5.18868 12.0232 5.45784 11.6974 5.45784H6.12164Z" fill="#798CA8"/>
<path id="Fill 6" d="M6.12164 7.41292C5.79587 7.41292 5.53084 7.14376 5.53084 6.81291C5.53084 6.48205 5.79587 6.21289 6.12164 6.21289H11.6974C12.0232 6.21289 12.2882 6.48205 12.2882 6.81291C12.2882 7.14376 12.0232 7.41292 11.6974 7.41292H6.12164Z" fill="#798CA8"/>
<path id="Fill 8" d="M6.12161 9.36608C5.79584 9.36608 5.53081 9.09692 5.53081 8.76606C5.53081 8.43518 5.79584 8.16602 6.12161 8.16602H9.55111C9.87685 8.16602 10.1419 8.43518 10.1419 8.76606C10.1419 9.09692 9.87685 9.36608 9.55108 9.36608H6.12161Z" fill="#798CA8"/>
</g>
</svg>
