<svg width="16" height="16" viewBox="0 0 16 16" fill="none" xmlns="http://www.w3.org/2000/svg">
<g id="ic_mail">
<path id="Shape" fill-rule="evenodd" clip-rule="evenodd" d="M9.46802 8.12268C9.00977 8.35229 8.51587 8.46875 8 8.46875C6.19067 8.46875 4.71875 6.99683 4.71875 5.1875C4.71875 3.37817 6.19067 1.90625 8 1.90625C9.80933 1.90625 11.2812 3.37817 11.2812 5.1875C11.2812 5.96289 10.6504 6.59375 9.875 6.59375C9.51514 6.59375 9.18652 6.45764 8.9375 6.2345C8.68848 6.45776 8.35986 6.59375 8 6.59375C7.22461 6.59375 6.59375 5.96289 6.59375 5.1875C6.59375 4.41211 7.22461 3.78125 8 3.78125C8.77539 3.78125 9.40625 4.41211 9.40625 5.1875C9.40625 5.44592 9.61658 5.65625 9.875 5.65625C10.1334 5.65625 10.3438 5.44592 10.3438 5.1875C10.3438 3.89514 9.29236 2.84375 8 2.84375C6.70764 2.84375 5.65625 3.89514 5.65625 5.1875C5.65625 6.47986 6.70764 7.53125 8 7.53125C8.36865 7.53125 8.72131 7.44824 9.0481 7.28455C9.27954 7.16858 9.56128 7.26221 9.67712 7.49365C9.79309 7.7251 9.69946 8.00671 9.46802 8.12268ZM7.53125 5.1875C7.53125 5.44592 7.74158 5.65625 8 5.65625C8.25842 5.65625 8.46875 5.44592 8.46875 5.1875C8.46875 4.92908 8.25842 4.71875 8 4.71875C7.74158 4.71875 7.53125 4.92908 7.53125 5.1875Z" fill="#8B97A9"/>
<path id="Shape_2" fill-rule="evenodd" clip-rule="evenodd" d="M15.8105 5.74854L13.1562 3.77966V0.46875C13.1562 0.209839 12.9464 0 12.6875 0H3.3125C3.05359 0 2.84375 0.209839 2.84375 0.46875V3.77966L0.189453 5.74854C0.0723877 5.83521 0 5.97668 0 6.12427V6.12463V6.125V15.5312C0 15.7902 0.209839 16 0.46875 16H15.5312C15.7902 16 16 15.7902 16 15.5312V6.125V6.12463L15.9999 6.12207C15.9994 6.09632 15.9951 5.88514 15.8105 5.74854ZM15.0625 14.5933L10.0312 10.8145L15.0625 7.05969V14.5933ZM5.96875 10.8145L0.9375 7.05969V14.5933L5.96875 10.8145ZM8 10.4613L14.1261 15.0625H1.8739L8 10.4613ZM13.1562 7.3125L14.746 6.1261L13.1562 4.94702V7.3125ZM12.2188 0.9375V8.01208L9.25 10.2277L8.28149 9.50024C8.11475 9.375 7.88525 9.375 7.71851 9.50024L6.75 10.2277L3.78125 8.01208V0.9375H12.2188ZM2.84375 7.3125V4.9469L1.25403 6.1261L2.84375 7.3125Z" fill="#8B97A9"/>
</g>
</svg>
