<svg width="16" height="16" viewBox="0 0 16 16" fill="none" xmlns="http://www.w3.org/2000/svg">
<g id="ic_mailbox">
<path id="Shape" fill-rule="evenodd" clip-rule="evenodd" d="M6.59375 13.1562H0.46875C0.209839 13.1562 0 12.9464 0 12.6875V7.0625C0 5.25317 1.47192 3.78125 3.28125 3.78125H6.59375V2.8125H4.25C3.99109 2.8125 3.78125 2.60266 3.78125 2.34375V0.46875C3.78125 0.209839 3.99109 0 4.25 0H7.0625C7.32141 0 7.53125 0.209839 7.53125 0.46875V3.78125H13.1875C13.2618 3.78125 13.4278 3.84099 13.5253 3.8761C13.5575 3.88769 13.5822 3.8966 13.5938 3.89978C14.9796 4.28357 16 5.55615 16 7.0625V12.6875C16 12.9464 15.7902 13.1562 15.5312 13.1562H9.40625V15.5312C9.40625 15.7902 9.19641 16 8.9375 16H7.0625C6.80359 16 6.59375 15.7902 6.59375 15.5312V13.1562ZM6.59375 0.9375H4.71875V1.875H6.59375V0.9375ZM8.46875 15.0625H7.53125V13.1562H8.46875V15.0625ZM15.0625 12.2188V7.0625C15.0625 5.77014 14.0111 4.71875 12.7188 4.71875C11.4264 4.71875 10.375 5.77014 10.375 7.0625V12.2188H15.0625ZM0.9375 7.0625C0.9375 5.77014 1.98889 4.71875 3.28125 4.71875H6.59375V6.67432C6.0481 6.86792 5.65625 7.38892 5.65625 8C5.65625 8.77539 6.28711 9.40625 7.0625 9.40625C7.83789 9.40625 8.46875 8.77539 8.46875 8C8.46875 7.38892 8.0769 6.86792 7.53125 6.67432V4.71838H10.4249C9.81604 5.31445 9.4375 6.14514 9.4375 7.0625V12.2188H0.9375V7.0625ZM7.53125 8C7.53125 7.74158 7.32092 7.53125 7.0625 7.53125C6.80408 7.53125 6.59375 7.74158 6.59375 8C6.59375 8.25842 6.80408 8.46875 7.0625 8.46875C7.32092 8.46875 7.53125 8.25842 7.53125 8Z" fill="#8B97A9"/>
<path id="Path" fill-rule="evenodd" clip-rule="evenodd" d="M4.25 6.59375H2.34375C2.08484 6.59375 1.875 6.80359 1.875 7.0625C1.875 7.32141 2.08484 7.53125 2.34375 7.53125H4.25C4.50891 7.53125 4.71875 7.32141 4.71875 7.0625C4.71875 6.80359 4.50891 6.59375 4.25 6.59375Z" fill="#8B97A9"/>
<path id="Path_2" fill-rule="evenodd" clip-rule="evenodd" d="M4.25 8.46875H2.34375C2.08484 8.46875 1.875 8.67859 1.875 8.9375C1.875 9.19641 2.08484 9.40625 2.34375 9.40625H4.25C4.50891 9.40625 4.71875 9.19641 4.71875 8.9375C4.71875 8.67859 4.50891 8.46875 4.25 8.46875Z" fill="#8B97A9"/>
<path id="Path_3" fill-rule="evenodd" clip-rule="evenodd" d="M4.25 10.3438H2.34375C2.08484 10.3438 1.875 10.5536 1.875 10.8125C1.875 11.0714 2.08484 11.2812 2.34375 11.2812H4.25C4.50891 11.2812 4.71875 11.0714 4.71875 10.8125C4.71875 10.5536 4.50891 10.3438 4.25 10.3438Z" fill="#8B97A9"/>
</g>
</svg>
