<?xml version="1.0" encoding="utf-8" ?>
<svg xmlns="http://www.w3.org/2000/svg" xmlns:xlink="http://www.w3.org/1999/xlink" width="16" height="16">
	<defs>
		<clipPath id="clip_0">
			<rect x="-720" y="-107" width="1440" height="3714" clip-rule="evenodd"/>
		</clipPath>
	</defs>
	<g clip-path="url(#clip_0)">
		<path fill="rgb(121,140,168)" stroke="none" d="M0 13.5907C0 14.9192 1.0808 16 2.40927 16L13.5907 16C13.8973 16 14.1467 15.7506 14.1467 15.444L14.1467 14.1467L15.444 14.1467C15.7506 14.1467 16 13.8973 16 13.5907L16 2.44015C16 2.13359 15.7506 1.88417 15.444 1.88417L4.75503 1.88417C4.50051 0.787892 3.52587 0 2.40927 0C1.0808 0 0 1.09464 0 2.44015L0 13.5907ZM1.11197 2.44015C1.11197 1.72019 1.70607 1.11197 2.40927 1.11197C3.11246 1.11197 3.70656 1.72019 3.70656 2.44015L3.70656 11.5612C3.3192 11.3122 2.87432 11.1815 2.40927 11.1815C1.94422 11.1815 1.49934 11.3122 1.11197 11.5612L1.11197 2.44015ZM14.888 13.0347L4.81853 13.0347L4.81853 2.99614L14.888 2.99614L14.888 13.0347ZM2.40927 12.2934C1.69393 12.2934 1.11197 12.8754 1.11197 13.5907C1.11197 14.3061 1.69393 14.888 2.40927 14.888L13.0347 14.888L13.0347 14.1467L4.26255 14.1467C3.95598 14.1467 3.70656 13.8973 3.70656 13.5907C3.70656 12.8754 3.1246 12.2934 2.40927 12.2934Z" fill-rule="evenodd"/>
	</g>
	<defs>
		<clipPath id="clip_1">
			<rect x="-720" y="-107" width="1440" height="3714" clip-rule="evenodd"/>
		</clipPath>
	</defs>
	<g clip-path="url(#clip_1)">
		<path fill="rgb(121,140,168)" stroke="none" transform="translate(10.2548 3.76834)" d="M0 2.40927C0 2.71583 0.249421 2.96525 0.555985 2.96525L3.33591 2.96525C3.64247 2.96525 3.89189 2.71583 3.89189 2.40927L3.89189 0.555985C3.89189 0.249421 3.64247 0 3.33591 0L0.555985 0C0.249421 0 0 0.249421 0 0.555985L0 2.40927ZM2.77992 1.85328L1.11197 1.85328L1.11197 1.11197L2.77992 1.11197L2.77992 1.85328Z" fill-rule="evenodd"/>
	</g>
	<defs>
		<clipPath id="clip_2">
			<rect x="-720" y="-107" width="1440" height="3714" clip-rule="evenodd"/>
		</clipPath>
	</defs>
	<g clip-path="url(#clip_2)">
		<path fill="rgb(121,140,168)" stroke="none" transform="translate(5.55985 3.76834)" d="M0.555985 1.11197C0.249421 1.11197 0 0.862548 0 0.555985C0 0.249421 0.249421 0 0.555985 0L3.39768 0C3.70425 0 3.95367 0.249421 3.95367 0.555985C3.95367 0.862548 3.70425 1.11197 3.39768 1.11197L0.555985 1.11197Z"/>
	</g>
	<defs>
		<clipPath id="clip_3">
			<rect x="-720" y="-107" width="1440" height="3714" clip-rule="evenodd"/>
		</clipPath>
	</defs>
	<g clip-path="url(#clip_3)">
		<path fill="rgb(121,140,168)" stroke="none" transform="translate(5.55985 5.62161)" d="M0.555985 1.11197C0.249421 1.11197 0 0.862548 0 0.555984C0 0.249421 0.249421 0 0.555985 0L3.39768 0C3.70425 0 3.95367 0.249421 3.95367 0.555984C3.95367 0.862548 3.70425 1.11197 3.39768 1.11197L0.555985 1.11197Z"/>
	</g>
	<defs>
		<clipPath id="clip_4">
			<rect x="-720" y="-107" width="1440" height="3714" clip-rule="evenodd"/>
		</clipPath>
	</defs>
	<g clip-path="url(#clip_4)">
		<path fill="rgb(121,140,168)" stroke="none" transform="translate(5.55985 7.47491)" d="M0.555985 1.11197C0.249421 1.11197 0 0.862549 0 0.555985C0 0.249421 0.249421 0 0.555985 0L8.03089 0C8.33745 0 8.58687 0.249421 8.58687 0.555985C8.58687 0.862549 8.33745 1.11197 8.03089 1.11197L0.555985 1.11197Z"/>
	</g>
	<defs>
		<clipPath id="clip_5">
			<rect x="-720" y="-107" width="1440" height="3714" clip-rule="evenodd"/>
		</clipPath>
	</defs>
	<g clip-path="url(#clip_5)">
		<path fill="rgb(121,140,168)" stroke="none" transform="translate(5.55985 9.32819)" d="M0.555985 1.11197C0.249421 1.11197 0 0.862548 0 0.555984C0 0.249421 0.249421 0 0.555985 0L8.03089 0C8.33745 0 8.58687 0.249421 8.58687 0.555984C8.58687 0.862548 8.33745 1.11197 8.03089 1.11197L0.555985 1.11197Z"/>
	</g>
	<defs>
		<clipPath id="clip_6">
			<rect x="-720" y="-107" width="1440" height="3714" clip-rule="evenodd"/>
		</clipPath>
	</defs>
	<g clip-path="url(#clip_6)">
		<path fill="rgb(121,140,168)" stroke="none" transform="translate(5.55985 11.1815)" d="M0.555985 1.11197C0.249421 1.11197 0 0.862548 0 0.555984C0 0.249421 0.249421 0 0.555985 0L8.03089 0C8.33745 0 8.58687 0.249421 8.58687 0.555984C8.58687 0.862548 8.33745 1.11197 8.03089 1.11197L0.555985 1.11197Z"/>
	</g>

</svg>