<?xml version="1.0" encoding="utf-8" ?>
<svg xmlns="http://www.w3.org/2000/svg" xmlns:xlink="http://www.w3.org/1999/xlink" width="16" height="20">
	<defs>
		<clipPath id="clip_0">
			<rect x="-933.79999" y="-755.21997" width="1353.6" height="3491.1599" clip-rule="evenodd"/>
		</clipPath>
	</defs>
	<g clip-path="url(#clip_0)">
		<path fill="rgb(121,140,168)" fill-opacity="0.49803922" stroke="none" transform="matrix(0.94 0 0 0.94 0.559998 1.48001)" d="M6.01832 19.3115C6.57663 19.7555 7.27949 20 7.99745 20C8.7154 20 9.41826 19.7555 9.97653 19.3115C10.5018 18.8937 10.8797 18.317 11.0481 17.6796L15.206 17.6796C15.641 17.6796 15.9949 17.332 15.9949 16.9047C15.9949 16.4776 15.641 16.13 15.206 16.13L14.3358 16.13L14.3358 8.80903C14.3358 7.44205 13.8913 6.14386 13.0503 5.05483C12.2645 4.03726 11.161 3.269 9.93113 2.88054C10.0444 2.62301 10.1017 2.34988 10.1017 2.06668C10.1017 0.927104 9.1577 0 7.99745 0C6.83719 0 5.89323 0.927104 5.89323 2.06664C5.89323 2.34992 5.95055 2.62309 6.06376 2.8805C4.83404 3.269 3.7304 4.0373 2.94459 5.05483C2.10359 6.14382 1.65905 7.44201 1.65905 8.80903L1.65905 16.13L0.788875 16.13C0.353887 16.13 0 16.4776 0 16.9048C0 17.332 0.353887 17.6796 0.788875 17.6796L4.94683 17.6796C5.11513 18.317 5.49307 18.8937 6.01832 19.3115ZM7.47094 2.06668C7.47094 1.78151 7.70713 1.54954 7.99744 1.54954C8.28776 1.54954 8.52395 1.78151 8.52395 2.06664C8.52395 2.35181 8.28776 2.58378 7.99744 2.58378C7.70713 2.58378 7.47094 2.35181 7.47094 2.06668ZM12.7582 8.80904L12.7581 16.13L3.2368 16.13L3.2368 8.80904C3.2368 6.23089 5.37242 4.13336 7.99748 4.13336C10.6225 4.13336 12.7582 6.23089 12.7582 8.80904ZM6.63587 17.6796C6.91554 18.1531 7.43202 18.4505 7.99745 18.4505C8.56291 18.4505 9.07935 18.1531 9.35898 17.6796L6.63587 17.6796Z" fill-rule="evenodd"/>
	</g>

</svg>