<svg width="16" height="16" viewBox="0 0 16 16" fill="none" xmlns="http://www.w3.org/2000/svg">
<g id="ic_object_finance">
<path id="Fill 1" fill-rule="evenodd" clip-rule="evenodd" d="M6.51163 7.68875V2.99985C5.28707 3.10701 4.14409 3.58149 3.1982 4.37529L6.51163 7.68875ZM2.45284 5.1209C1.55042 6.19687 1.05426 7.55796 1.05426 8.96137C1.05426 10.3647 1.55042 11.7258 2.45284 12.8018L6.29327 8.96137L2.45284 5.1209ZM3.19817 13.5412C4.27144 14.4475 5.63256 14.9459 7.03876 14.9459C10.1256 14.9459 12.7312 12.554 13.0002 9.48844L7.25708 9.4823L3.19817 13.5412ZM7.03876 16.0001C5.15712 16.0001 3.38912 15.2683 2.0604 13.9396C0.731752 12.6109 0 10.8429 0 8.96137C0 7.07972 0.731783 5.31169 2.0605 3.98301C3.38921 2.65433 5.15718 1.92261 7.03876 1.92261C7.32943 1.92261 7.56589 2.15904 7.56589 2.44974V8.43424H13.5504C13.8411 8.43424 14.0775 8.67067 14.0775 8.96137C14.0775 10.8415 13.3454 12.609 12.0159 13.9385C10.6865 15.2679 8.91888 16.0001 7.03876 16.0001Z" fill="#B4C4DB"/>
<path id="Fill 4" fill-rule="evenodd" clip-rule="evenodd" d="M14.9227 6.51163C14.8003 5.11764 14.1869 3.80509 13.1909 2.80909C12.1949 1.81309 10.8823 1.19966 9.48835 1.07727V6.51163H14.9227ZM8.96121 7.56589C8.67055 7.56589 8.43408 7.32943 8.43408 7.03876V0.527132C8.43408 0.236465 8.67055 0 8.96121 0C10.8413 0 12.6089 0.732155 13.9384 2.06161C15.2678 3.39104 16 5.15864 16 7.03876C16 7.32943 15.7635 7.56589 15.4728 7.56589H8.96121Z" fill="#B4C4DB"/>
</g>
</svg>
