<svg width="19" height="14" viewBox="0 0 19 14" fill="none" xmlns="http://www.w3.org/2000/svg">
<g id="ic_offers">
<path id="Path" fill-rule="evenodd" clip-rule="evenodd" d="M18.4434 6.46155H16.7734C16.466 6.46155 16.2168 6.70264 16.2168 7.00001C16.2168 7.29738 16.466 7.53847 16.7734 7.53847H18.4434C18.7508 7.53847 19 7.29738 19 7.00001C19 6.70264 18.7508 6.46155 18.4434 6.46155Z" fill="#798CA8"/>
<path id="Path_2" fill-rule="evenodd" clip-rule="evenodd" d="M17.7237 9.85009L16.6104 8.77317C16.3931 8.56292 16.0406 8.56292 15.8232 8.77317C15.6058 8.98342 15.6058 9.32437 15.8232 9.53466L16.9365 10.6116C17.1538 10.8219 17.5063 10.8219 17.7237 10.6116C17.9411 10.4013 17.9411 10.0604 17.7237 9.85009Z" fill="#798CA8"/>
<path id="Path_3" fill-rule="evenodd" clip-rule="evenodd" d="M17.7237 3.38852C17.5063 3.17827 17.1538 3.17827 16.9365 3.38852L15.8232 4.46545C15.6058 4.67573 15.6058 5.01665 15.8232 5.22694C16.0406 5.43723 16.393 5.43719 16.6104 5.22694L17.7237 4.15002C17.941 3.93973 17.941 3.59881 17.7237 3.38852Z" fill="#798CA8"/>
<path id="Shape" fill-rule="evenodd" clip-rule="evenodd" d="M11.2257 1.3743C11.3464 0.597513 12.0408 0 12.877 0C13.7977 0 14.5469 0.724662 14.5469 1.61538V11.3077C14.5469 12.1984 13.7977 12.9231 12.877 12.9231C12.0409 12.9231 11.3464 12.3255 11.2257 11.5488L10.7179 11.0576C9.83413 10.2027 8.53263 9.69231 7.23633 9.69231H6.67969V12.3846C6.67969 13.2753 5.93056 14 5.0098 14C4.08901 14 3.33984 13.2753 3.33984 12.3846V9.59969C2.86618 9.43718 2.4903 9.07358 2.3223 8.61539H2.22656C0.998836 8.61539 0 7.64917 0 6.46154C0 5.27391 0.998836 4.30769 2.22656 4.30769H2.3223C2.55209 3.68096 3.17081 3.23077 3.89648 3.23077H7.23633C8.53267 3.23077 9.83417 2.72038 10.7179 1.86548L11.2257 1.3743ZM1.11328 6.46154C1.11328 7.05535 1.6127 7.53846 2.22656 7.53846V5.38462C1.6127 5.38462 1.11328 5.86772 1.11328 6.46154ZM5.56641 12.3846C5.56641 12.6815 5.3167 12.9231 5.00977 12.9231C4.70283 12.9231 4.45312 12.6815 4.45312 12.3846V9.69231H5.56641V12.3846ZM3.89648 8.61539H6.67969V4.30769H3.89648C3.58955 4.30769 3.33984 4.54925 3.33984 4.84615V8.07692C3.33984 8.37383 3.58955 8.61539 3.89648 8.61539ZM11.207 10.0278C10.2666 9.2405 9.05758 8.75133 7.78926 8.6398L7.7893 4.28325C9.05758 4.17175 10.2666 3.68257 11.207 2.89524V10.0278ZM12.877 11.8462C13.1839 11.8462 13.4336 11.6046 13.4336 11.3077V1.61538C13.4336 1.31848 13.1839 1.07692 12.877 1.07692C12.57 1.07692 12.3203 1.31848 12.3203 1.61538V11.3077C12.3203 11.6046 12.57 11.8462 12.877 11.8462H12.877Z" fill="#798CA8"/>
</g>
</svg>
