<svg width="16" height="15" viewBox="0 0 16 15" fill="none" xmlns="http://www.w3.org/2000/svg">
<g id="ic_object_building">
<path id="Path" fill-rule="evenodd" clip-rule="evenodd" d="M3.51388 9.07666C3.26243 9.07666 3.05859 9.27929 3.05859 9.52925V10.3149C3.05859 10.5648 3.26243 10.7675 3.51388 10.7675C3.76533 10.7675 3.96916 10.5648 3.96916 10.3149V9.52925C3.96916 9.27929 3.76539 9.07666 3.51388 9.07666Z" fill="#B4C4DB"/>
<path id="Path_2" fill-rule="evenodd" clip-rule="evenodd" d="M5.33517 9.07666C5.08372 9.07666 4.87988 9.27929 4.87988 9.52925V10.3149C4.87988 10.5648 5.08372 10.7675 5.33517 10.7675C5.58661 10.7675 5.79045 10.5648 5.79045 10.3149V9.52925C5.79045 9.27929 5.58668 9.07666 5.33517 9.07666Z" fill="#B4C4DB"/>
<path id="Path_3" fill-rule="evenodd" clip-rule="evenodd" d="M7.15646 9.07666C6.90501 9.07666 6.70117 9.27929 6.70117 9.52925V10.3149C6.70117 10.5648 6.90501 10.7675 7.15646 10.7675C7.4079 10.7675 7.61174 10.5648 7.61174 10.3149V9.52925C7.61174 9.27929 7.4079 9.07666 7.15646 9.07666Z" fill="#B4C4DB"/>
<path id="Path_4" fill-rule="evenodd" clip-rule="evenodd" d="M8.79708 9.07666C8.54563 9.07666 8.3418 9.27929 8.3418 9.52925V10.3149C8.3418 10.5648 8.54563 10.7675 8.79708 10.7675C9.04853 10.7675 9.25237 10.5648 9.25237 10.3149V9.52925C9.25237 9.27929 9.04853 9.07666 8.79708 9.07666Z" fill="#B4C4DB"/>
<path id="Path_5" fill-rule="evenodd" clip-rule="evenodd" d="M10.6184 9.07666C10.3669 9.07666 10.1631 9.27929 10.1631 9.52925V10.3149C10.1631 10.5648 10.3669 10.7675 10.6184 10.7675C10.8698 10.7675 11.0737 10.5648 11.0737 10.3149V9.52925C11.0737 9.27929 10.8698 9.07666 10.6184 9.07666Z" fill="#B4C4DB"/>
<path id="Path_6" fill-rule="evenodd" clip-rule="evenodd" d="M12.4397 9.07666C12.1882 9.07666 11.9844 9.27929 11.9844 9.52925V10.3149C11.9844 10.5648 12.1882 10.7675 12.4397 10.7675C12.6911 10.7675 12.8949 10.5648 12.8949 10.3149V9.52925C12.8949 9.27929 12.6911 9.07666 12.4397 9.07666Z" fill="#B4C4DB"/>
<path id="Path_7" fill-rule="evenodd" clip-rule="evenodd" d="M3.51388 6.55029C3.26243 6.55029 3.05859 6.75292 3.05859 7.00288V7.7885C3.05859 8.03846 3.26243 8.24109 3.51388 8.24109C3.76533 8.24109 3.96916 8.03846 3.96916 7.7885V7.00288C3.96916 6.75292 3.76539 6.55029 3.51388 6.55029V6.55029Z" fill="#B4C4DB"/>
<path id="Path_8" fill-rule="evenodd" clip-rule="evenodd" d="M5.33517 6.55029C5.08372 6.55029 4.87988 6.75292 4.87988 7.00288V7.7885C4.87988 8.03846 5.08372 8.24109 5.33517 8.24109C5.58661 8.24109 5.79045 8.03846 5.79045 7.7885V7.00288C5.79045 6.75292 5.58668 6.55029 5.33517 6.55029V6.55029Z" fill="#B4C4DB"/>
<path id="Path_9" fill-rule="evenodd" clip-rule="evenodd" d="M7.15646 6.55029C6.90501 6.55029 6.70117 6.75292 6.70117 7.00288V7.7885C6.70117 8.03846 6.90501 8.24109 7.15646 8.24109C7.4079 8.24109 7.61174 8.03846 7.61174 7.7885V7.00288C7.61174 6.75292 7.4079 6.55029 7.15646 6.55029V6.55029Z" fill="#B4C4DB"/>
<path id="Path_10" fill-rule="evenodd" clip-rule="evenodd" d="M8.79708 6.55029C8.54563 6.55029 8.3418 6.75292 8.3418 7.00288V7.7885C8.3418 8.03846 8.54563 8.24109 8.79708 8.24109C9.04853 8.24109 9.25237 8.03846 9.25237 7.7885V7.00288C9.25237 6.75292 9.04853 6.55029 8.79708 6.55029V6.55029Z" fill="#B4C4DB"/>
<path id="Path_11" fill-rule="evenodd" clip-rule="evenodd" d="M10.6184 6.55029C10.3669 6.55029 10.1631 6.75292 10.1631 7.00288V7.7885C10.1631 8.03846 10.3669 8.24109 10.6184 8.24109C10.8698 8.24109 11.0737 8.03846 11.0737 7.7885V7.00288C11.0737 6.75292 10.8698 6.55029 10.6184 6.55029V6.55029Z" fill="#B4C4DB"/>
<path id="Path_12" fill-rule="evenodd" clip-rule="evenodd" d="M12.4397 6.55029C12.1882 6.55029 11.9844 6.75292 11.9844 7.00288V7.7885C11.9844 8.03846 12.1882 8.24109 12.4397 8.24109C12.6911 8.24109 12.8949 8.03846 12.8949 7.7885V7.00288C12.8949 6.75292 12.6911 6.55029 12.4397 6.55029V6.55029Z" fill="#B4C4DB"/>
<path id="Path_13" fill-rule="evenodd" clip-rule="evenodd" d="M6.15548 1.92773C5.90403 1.92773 5.7002 2.13036 5.7002 2.38032V3.16595C5.7002 3.4159 5.90403 3.61853 6.15548 3.61853C6.40693 3.61853 6.61076 3.4159 6.61076 3.16595V2.38032C6.61076 2.13036 6.40693 1.92773 6.15548 1.92773V1.92773Z" fill="#B4C4DB"/>
<path id="Path_14" fill-rule="evenodd" clip-rule="evenodd" d="M7.97677 1.92773C7.72532 1.92773 7.52148 2.13036 7.52148 2.38032V3.16595C7.52148 3.4159 7.72532 3.61853 7.97677 3.61853C8.22822 3.61853 8.43205 3.4159 8.43205 3.16595V2.38032C8.43205 2.13036 8.22822 1.92773 7.97677 1.92773V1.92773Z" fill="#B4C4DB"/>
<path id="Path_15" fill-rule="evenodd" clip-rule="evenodd" d="M9.79806 1.92773C9.54661 1.92773 9.34277 2.13036 9.34277 2.38032V3.16595C9.34277 3.4159 9.54661 3.61853 9.79806 3.61853C10.0495 3.61853 10.2533 3.4159 10.2533 3.16595V2.38032C10.2533 2.13036 10.0495 1.92773 9.79806 1.92773V1.92773Z" fill="#B4C4DB"/>
<path id="Shape" fill-rule="evenodd" clip-rule="evenodd" d="M15.4983 4.34966H12.1269V0.459422C12.1269 0.209465 11.9231 0.00683594 11.6716 0.00683594H4.28202C4.03057 0.00683594 3.82673 0.209465 3.82673 0.459422V4.34959H0.455285C0.203837 4.34959 0 4.55222 0 4.80218C0 5.05214 0.203837 5.25477 0.455285 5.25477H0.883317V14.494C0.883317 14.7439 1.08715 14.9466 1.3386 14.9466H14.615C14.8665 14.9466 15.0703 14.7439 15.0703 14.494V5.25477H15.4983C15.7498 5.25477 15.9536 5.05214 15.9536 4.80218C15.9536 4.55222 15.7498 4.34966 15.4983 4.34966ZM10.2204 14.0415H8.42901C8.43089 14.0247 8.43213 14.0076 8.43213 13.9903V13.3102H10.2204V14.0415ZM5.73327 14.0415H7.52462C7.52273 14.0246 7.52156 14.0076 7.5215 13.9903V13.3102H5.73327V14.0415ZM11.1309 14.0415V12.8576C11.1309 12.6077 10.9271 12.405 10.6756 12.405H5.27798C5.02654 12.405 4.8227 12.6077 4.8227 12.8576V14.0415H1.79389V5.25483H14.1597V14.0415H11.1309ZM11.2163 0.912008H4.7373V4.34959H11.2163V0.912008Z" fill="#B4C4DB"/>
</g>
</svg>
