<svg width="16" height="15" viewBox="0 0 16 15" fill="none" xmlns="http://www.w3.org/2000/svg">
<g id="ic_objects">
<path id="Shape" fill-rule="evenodd" clip-rule="evenodd" d="M3.20646 1.29384L4.25747 1.4515C4.43024 1.47748 4.57387 1.60241 4.62782 1.77377C4.68176 1.94521 4.63677 2.13339 4.51171 2.25915L3.75119 3.0243L3.92455 4.06657C3.93394 4.10438 3.93894 4.144 3.93894 4.18483C3.93894 4.44634 3.73358 4.65831 3.48022 4.65831H3.47868C3.40565 4.65831 3.33233 4.64028 3.26525 4.60392L2.32514 4.09377L1.38503 4.60392C1.23046 4.68771 1.04316 4.67384 0.901944 4.56786C0.760733 4.46195 0.689981 4.28241 0.719486 4.10475L0.899082 3.0243L0.138568 2.25915C0.013504 2.13339 -0.0314868 1.94521 0.0224581 1.77377C0.0764031 1.60233 0.219963 1.47741 0.392733 1.4515L1.44374 1.29384L1.91376 0.310814C1.99105 0.149223 2.15053 0.046875 2.32514 0.046875C2.49967 0.046875 2.65916 0.149223 2.73644 0.310814L3.20646 1.29384ZM2.80609 2.93907C2.78055 2.78544 2.82994 2.62862 2.93805 2.51991L3.20572 2.25066L2.83589 2.19521C2.68646 2.17278 2.55728 2.07597 2.49049 1.93619L2.32506 1.59028L2.15963 1.93619C2.09277 2.07597 1.96367 2.17278 1.81424 2.19521L1.44448 2.25066L1.71207 2.51991C1.82018 2.62869 1.86958 2.78544 1.84404 2.93907L1.78084 3.3193L2.11163 3.13975C2.17842 3.10347 2.25174 3.08536 2.32506 3.08536C2.39838 3.08536 2.47171 3.10347 2.53849 3.13975L2.86928 3.3193L2.80609 2.93907Z" fill="#798CA8"/>
<path id="Shape_2" fill-rule="evenodd" clip-rule="evenodd" d="M3.20646 11.581L4.25747 11.7386C4.43024 11.7645 4.57387 11.8894 4.62789 12.0608C4.68183 12.2322 4.63684 12.4204 4.51178 12.5462L3.75127 13.3113L3.92455 14.3536C3.93394 14.3914 3.93894 14.431 3.93894 14.4719C3.93894 14.7334 3.73358 14.9453 3.48022 14.9453H3.47868C3.40565 14.9453 3.33233 14.9273 3.26525 14.891L2.32514 14.3808L1.38503 14.891C1.23046 14.9748 1.04316 14.9608 0.901944 14.8549C0.760733 14.749 0.689981 14.5694 0.719486 14.3918L0.899082 13.3114L0.138568 12.5463C0.013504 12.4205 -0.0314868 12.2323 0.0224581 12.0609C0.0764031 11.8894 0.219963 11.7645 0.392733 11.7386L1.44374 11.581L1.91376 10.5979C1.99105 10.4363 2.15053 10.334 2.32514 10.334C2.49967 10.334 2.65916 10.4363 2.73644 10.5979L3.20646 11.581ZM2.80609 13.2262C2.78055 13.0725 2.82994 12.9158 2.93805 12.807L3.20572 12.5378L2.83589 12.4823C2.68646 12.4599 2.55728 12.3631 2.49049 12.2233L2.32506 11.8774L2.15963 12.2233C2.09277 12.3631 1.96367 12.4599 1.81424 12.4823L1.44448 12.5378L1.71207 12.807C1.82018 12.9158 1.86958 13.0725 1.84404 13.2262L1.78084 13.6064L2.11163 13.4269C2.17842 13.3906 2.25174 13.3725 2.32506 13.3725C2.39838 13.3725 2.47171 13.3906 2.53849 13.4269L2.86928 13.6064L2.80609 13.2262Z" fill="#798CA8"/>
<path id="Shape_3" fill-rule="evenodd" clip-rule="evenodd" d="M3.20646 6.43642L4.25747 6.59407C4.43024 6.61998 4.57387 6.74491 4.62789 6.91635C4.68183 7.08779 4.63684 7.27597 4.51178 7.40173L3.75127 8.16688L3.92455 9.20915C3.93394 9.24695 3.93894 9.28657 3.93894 9.32741C3.93894 9.58892 3.73358 9.80089 3.48022 9.80089H3.47868C3.40565 9.80089 3.33233 9.78286 3.26525 9.7465L2.32514 9.23635L1.38503 9.7465C1.23046 9.83021 1.04316 9.81635 0.901944 9.71044C0.760733 9.60453 0.689981 9.42498 0.719486 9.24733L0.899082 8.16688L0.138568 7.40173C0.013504 7.27589 -0.0314868 7.08779 0.0224581 6.91635C0.0764031 6.74491 0.219963 6.61998 0.392733 6.59407L1.44374 6.43642L1.91376 5.45339C1.99105 5.2918 2.15053 5.18945 2.32514 5.18945C2.49967 5.18945 2.65916 5.2918 2.73644 5.45339L3.20646 6.43642ZM2.80609 8.08165C2.78055 7.92801 2.82994 7.77127 2.93805 7.66248L3.20572 7.39324L2.83589 7.33779C2.68646 7.31536 2.55728 7.21854 2.49049 7.07877L2.32506 6.73286L2.15963 7.07877C2.09277 7.21854 1.96367 7.31536 1.81424 7.33779L1.44448 7.39324L1.71207 7.66248C1.82018 7.77127 1.86958 7.92801 1.84404 8.08165L1.78084 8.46188L2.11163 8.28233C2.17842 8.24604 2.25174 8.22794 2.32506 8.22794C2.39838 8.22794 2.47171 8.24604 2.53849 8.28233L2.86928 8.46188L2.80609 8.08165Z" fill="#798CA8"/>
<path id="Path" d="M6.3934 2.92152H15.4424C15.7465 2.92152 15.9929 2.66713 15.9929 2.35334C15.9929 2.03955 15.7465 1.78516 15.4424 1.78516H6.3934C6.0894 1.78516 5.84294 2.03955 5.84294 2.35334C5.84294 2.66713 6.08933 2.92152 6.3934 2.92152Z" fill="#798CA8"/>
<path id="Path_2" d="M15.4424 6.92773H6.3934C6.0894 6.92773 5.84294 7.18213 5.84294 7.49592C5.84294 7.8097 6.0894 8.0641 6.3934 8.0641H15.4424C15.7465 8.0641 15.9929 7.8097 15.9929 7.49592C15.9929 7.18213 15.7464 6.92773 15.4424 6.92773Z" fill="#798CA8"/>
<path id="Path_3" d="M15.4424 12.0703H6.3934C6.0894 12.0703 5.84294 12.3247 5.84294 12.6385C5.84294 12.9523 6.0894 13.2067 6.3934 13.2067H15.4424C15.7465 13.2067 15.9929 12.9523 15.9929 12.6385C15.9928 12.3247 15.7464 12.0703 15.4424 12.0703Z" fill="#798CA8"/>
</g>
</svg>
