<svg width="16" height="16" viewBox="0 0 16 16" fill="none" xmlns="http://www.w3.org/2000/svg">
<g id="ic_profile_settings">
<path id="Shape" fill-rule="evenodd" clip-rule="evenodd" d="M4.66194 8.0392C4.66194 6.19324 6.15788 4.69141 7.99666 4.69141C9.83544 4.69141 11.3314 6.19324 11.3314 8.0392C11.3314 9.88516 9.83541 11.387 7.99666 11.387C6.15791 11.387 4.66194 9.88516 4.66194 8.0392ZM5.99582 8.0392C5.99582 9.14665 6.89354 10.0479 7.99666 10.0479C9.09979 10.0479 9.9975 9.14665 9.9975 8.0392C9.9975 6.93175 9.10044 6.03051 7.99666 6.03051C6.89354 6.03051 5.99582 6.93175 5.99582 8.0392Z" fill="#798CA8"/>
<path id="Shape_2" fill-rule="evenodd" clip-rule="evenodd" d="M13.5316 5.73257L15.4277 6.03924C15.7559 6.08611 16 6.36865 16 6.70211V9.38035C16 9.7205 15.7466 10.0064 15.4104 10.0452L13.4696 10.2729L14.5921 11.8229C14.7922 12.0894 14.7662 12.463 14.5307 12.6993L12.6433 14.5942C12.4085 14.8312 12.037 14.8567 11.7703 14.6558L10.263 13.5175L9.9575 15.4211C9.91081 15.7492 9.62934 15.9936 9.29722 15.9936H6.62944C6.29728 15.9936 6.01584 15.7485 5.96916 15.4191L5.70237 13.5443L4.15641 14.6538C3.89097 14.854 3.51881 14.8299 3.28338 14.5922L1.39594 12.6973C1.1605 12.461 1.13447 12.0881 1.33456 11.8209L2.46837 10.3077L0.57225 10.001C0.244094 9.95551 0 9.67293 0 9.33951V6.66126C0 6.32784 0.244094 6.04526 0.57225 5.99839L2.43969 5.73057L1.33456 4.17784C1.13447 3.91071 1.1605 3.5364 1.39659 3.30073L3.28403 1.41257C3.51681 1.17888 3.88294 1.15077 4.14906 1.34628L5.69034 2.47789L6.00247 0.580353C6.04916 0.25091 6.33062 0.00585938 6.66275 0.00585938H9.33053C9.658 0.00585938 9.93678 0.244228 9.98881 0.568965L10.2889 2.44373L11.8383 1.35099C12.1044 1.15011 12.4778 1.17756 12.7126 1.41728L14.6074 3.34628C14.8395 3.58264 14.8642 3.95356 14.6654 4.21938L13.5316 5.73257ZM13.3056 8.94311L14.6667 8.78377V7.28194L13.3722 7.09646C12.886 7.03284 12.4705 6.70007 12.2998 6.22804C12.1224 5.82967 12.1791 5.31679 12.4638 4.93044L13.2555 3.87453L12.1717 2.77245L11.1299 3.5545C10.7418 3.84307 10.2309 3.898 9.79406 3.70515C9.36456 3.5498 9.03309 3.13336 8.96906 2.63519L8.76231 1.34428H7.241L7.05625 2.64457C6.99287 3.13267 6.66141 3.5498 6.19122 3.72122C5.79506 3.898 5.28484 3.84307 4.89934 3.55651L3.82091 2.76508L2.74913 3.8377L3.53412 4.88489C3.82156 5.27726 3.87828 5.78948 3.68419 6.2287C3.53078 6.65788 3.11659 6.99133 2.62106 7.05627L1.33387 7.24175V8.75899L2.62841 8.94377C3.11728 9.00806 3.53078 9.34217 3.70153 9.81355C3.87894 10.2113 3.82225 10.7242 3.53747 11.1105L2.74847 12.163L3.81691 13.2357L4.86069 12.4469C5.25219 12.157 5.76241 12.1015 6.19925 12.2956C6.62675 12.4496 6.95891 12.8654 7.02359 13.3629L7.20834 14.6545H8.71966L8.90372 13.3548C8.96844 12.8647 9.30056 12.4489 9.77009 12.2782C10.1643 12.0994 10.6758 12.1564 11.062 12.4429L12.1104 13.235L13.1788 12.1624L12.3932 11.1145C12.1051 10.7241 12.0484 10.2106 12.2418 9.77135C12.3958 9.34151 12.81 9.00806 13.3056 8.94311Z" fill="#798CA8"/>
</g>
</svg>
