<svg width="16" height="16" viewBox="0 0 16 16" fill="none" xmlns="http://www.w3.org/2000/svg">
<g id="ic_partners">
<path id="Shape" fill-rule="evenodd" clip-rule="evenodd" d="M8.01096 4.71875C8.77442 4.71875 9.39557 5.34961 9.39557 6.125C9.39557 6.90039 8.77442 7.53125 8.01096 7.53125C7.2475 7.53125 6.62634 6.90039 6.62634 6.125C6.62634 5.34961 7.2475 4.71875 8.01096 4.71875ZM7.54942 6.125C7.54942 6.38342 7.75651 6.59375 8.01096 6.59375C8.26541 6.59375 8.4725 6.38342 8.4725 6.125C8.4725 5.86658 8.26541 5.65625 8.01096 5.65625C7.75651 5.65625 7.54942 5.86658 7.54942 6.125Z" fill="#798CA8"/>
<path id="Shape_2" fill-rule="evenodd" clip-rule="evenodd" d="M5.70325 9.875C5.70325 8.58264 6.73846 7.53125 8.01094 7.53125C9.28342 7.53125 10.3186 8.58264 10.3186 9.875V11.2812H5.70325V9.875ZM6.62632 9.875V10.3438H9.39555V9.875C9.39555 9.09961 8.7744 8.46875 8.01094 8.46875C7.24748 8.46875 6.62632 9.09961 6.62632 9.875Z" fill="#798CA8"/>
<path id="Shape_3" fill-rule="evenodd" clip-rule="evenodd" d="M14.011 9.93652C14.1095 9.96704 14.2061 10.0089 14.2992 10.0634C14.9604 10.4512 15.1876 11.3129 14.8059 11.9844C14.4243 12.6556 13.576 12.887 12.9146 12.4991C12.8331 12.4514 12.7583 12.3964 12.6904 12.3354L9.37057 14.3284C9.38679 14.4144 9.39557 14.5031 9.39557 14.5938C9.39557 15.3691 8.77441 16 8.01095 16C7.24749 16 6.62634 15.3691 6.62634 14.5938C6.62634 14.5031 6.63523 14.4144 6.65134 14.3284L3.33151 12.3354C3.2636 12.3964 3.18884 12.4513 3.10747 12.4991C2.44641 12.8867 1.59773 12.656 1.216 11.9844C0.83427 11.3129 1.06167 10.4512 1.72285 10.0634C1.81576 10.0089 1.9124 9.96704 2.01095 9.93652V6.06311C1.91252 6.03259 1.81576 5.99109 1.72285 5.93665C1.06155 5.54883 0.83427 4.68713 1.216 4.01562C1.59785 3.34412 2.44617 3.11316 3.10747 3.50085C3.18884 3.54858 3.2636 3.60364 3.33151 3.66455L6.65134 1.67163C6.63523 1.58557 6.62634 1.49695 6.62634 1.40625C6.62634 0.630859 7.24749 0 8.01095 0C8.77441 0 9.39557 0.630859 9.39557 1.40625C9.39557 1.49695 9.38679 1.58557 9.37057 1.67163L12.6904 3.66455C12.7583 3.60364 12.8331 3.54871 12.9146 3.50085C13.5757 3.11316 14.4242 3.34412 14.8059 4.01562C15.1876 4.68713 14.9602 5.54883 14.2992 5.93665C14.2063 5.99109 14.1095 6.03259 14.011 6.06311V9.93652ZM12.2422 11.5155C12.1902 11.2039 12.2403 10.8727 12.4077 10.5781C12.5682 10.2959 12.8112 10.0919 13.0879 9.97852V6.02185C12.8111 5.90845 12.5682 5.7041 12.4077 5.42188C12.2403 5.12732 12.19 4.79614 12.2422 4.4845L8.90338 2.48022C8.66227 2.68726 8.35074 2.8125 8.01095 2.8125C7.67117 2.8125 7.35975 2.68726 7.11852 2.48022L3.7797 4.4845C3.83187 4.79614 3.78163 5.12732 3.6142 5.42188C3.45374 5.7041 3.21083 5.90845 2.93403 6.02185V9.97852C3.21083 10.0919 3.45374 10.2959 3.6142 10.5781C3.78163 10.8727 3.83187 11.2039 3.7797 11.5155L7.11852 13.5198C7.35975 13.3127 7.67117 13.1875 8.01095 13.1875C8.35074 13.1875 8.66227 13.3127 8.90338 13.5198L12.2422 11.5155ZM13.3761 4.31274C13.5964 4.18347 13.8792 4.2605 14.0065 4.48438C14.1338 4.70825 14.0579 4.99548 13.8376 5.12476C13.6172 5.25391 13.3344 5.177 13.2071 4.95312C13.0798 4.72925 13.1557 4.44202 13.3761 4.31274ZM8.47249 1.40625C8.47249 1.14783 8.2654 0.9375 8.01095 0.9375C7.75651 0.9375 7.54941 1.14783 7.54941 1.40625C7.54941 1.66467 7.75651 1.875 8.01095 1.875C8.2654 1.875 8.47249 1.66467 8.47249 1.40625ZM2.0154 4.48438C2.14268 4.26062 2.42538 4.18347 2.64593 4.31274C2.86624 4.44202 2.94208 4.72925 2.8148 4.95312C2.68752 5.177 2.40482 5.25391 2.18439 5.12476C1.96396 4.99548 1.88812 4.70825 2.0154 4.48438ZM2.0154 11.5156C2.14268 11.7395 2.4255 11.8164 2.64593 11.6873C2.86624 11.558 2.94208 11.2708 2.8148 11.0469C2.68752 10.823 2.4047 10.746 2.18439 10.8752C1.96396 11.0045 1.88812 11.2917 2.0154 11.5156ZM8.01095 15.0625C7.75651 15.0625 7.54941 14.8522 7.54941 14.5938C7.54941 14.3353 7.75651 14.125 8.01095 14.125C8.2654 14.125 8.47249 14.3353 8.47249 14.5938C8.47249 14.8522 8.2654 15.0625 8.01095 15.0625ZM13.3761 11.6873C13.5965 11.8165 13.8792 11.7395 14.0065 11.5156C14.1338 11.2917 14.0579 11.0045 13.8376 10.8752C13.6171 10.746 13.3343 10.8231 13.2071 11.0469C13.0798 11.2708 13.1557 11.558 13.3761 11.6873Z" fill="#798CA8"/>
</g>
</svg>
