<svg width="16" height="16" viewBox="0 0 16 16" fill="none" xmlns="http://www.w3.org/2000/svg">
<path d="M12.6399 9.90733C12.3125 9.5664 11.9175 9.38412 11.499 9.38412C11.0838 9.38412 10.6855 9.56302 10.3445 9.90395L9.27787 10.9672C9.1901 10.92 9.10234 10.8761 9.01795 10.8322C8.89643 10.7715 8.78166 10.7141 8.68377 10.6533C7.68462 10.0187 6.7766 9.19172 5.90572 8.12167C5.48378 7.58834 5.20023 7.13939 4.99432 6.6837C5.27112 6.43053 5.52766 6.16724 5.77745 5.91408C5.87196 5.81956 5.96648 5.72167 6.06099 5.62716C6.76985 4.9183 6.76985 4.00015 6.06099 3.29129L5.13947 2.36977C5.03483 2.26513 4.92681 2.15712 4.82555 2.0491C4.62302 1.83982 4.41036 1.62378 4.19095 1.42125C3.86352 1.0972 3.47196 0.925049 3.06015 0.925049C2.64833 0.925049 2.25002 1.0972 1.91247 1.42125C1.90909 1.42463 1.90909 1.42463 1.90572 1.428L0.758037 2.58581C0.325969 3.01788 0.079556 3.54446 0.0255475 4.15543C-0.0554651 5.14108 0.23483 6.05923 0.457615 6.66007C1.00445 8.13518 1.82133 9.50226 3.03989 10.9672C4.51837 12.7326 6.29728 14.1267 8.32934 15.109C9.10572 15.4769 10.142 15.9124 11.2998 15.9867C11.3707 15.99 11.445 15.9934 11.5125 15.9934C12.2922 15.9934 12.9471 15.7132 13.4601 15.1563C13.4635 15.1495 13.4703 15.1461 13.4736 15.1394C13.6492 14.9267 13.8517 14.7343 14.0644 14.5284C14.2095 14.39 14.358 14.2449 14.5032 14.093C14.8374 13.7453 15.0129 13.3402 15.0129 12.925C15.0129 12.5065 14.834 12.1048 14.4931 11.7672L12.6399 9.90733Z" fill="#0070D9"/>
<path fill-rule="evenodd" clip-rule="evenodd" d="M8.64322 3.80438C9.52761 3.9529 10.331 4.37147 10.9723 5.01282C11.6137 5.65417 12.0289 6.45755 12.1808 7.34193C12.2179 7.56472 12.4103 7.71999 12.6297 7.71999C12.6567 7.71999 12.6804 7.71662 12.7074 7.71324C12.9571 7.67274 13.1225 7.43645 13.082 7.18666C12.8998 6.11662 12.3934 5.14109 11.6204 4.36809C10.8474 3.5951 9.87192 3.08877 8.80187 2.90649C8.55208 2.86599 8.31917 3.03139 8.27529 3.2778C8.23141 3.52421 8.39343 3.76388 8.64322 3.80438Z" fill="#0070D9"/>
<path fill-rule="evenodd" clip-rule="evenodd" d="M15.9749 7.05505C15.6744 5.29302 14.8441 3.68965 13.5681 2.4137C12.2922 1.13775 10.6888 0.307369 8.92677 0.00694734C8.68035 -0.0369345 8.44744 0.131842 8.40356 0.378255C8.36305 0.628044 8.52845 0.860956 8.77824 0.904838C10.3512 1.1715 11.7858 1.9175 12.9268 3.05505C14.0677 4.19598 14.8103 5.63058 15.077 7.20357C15.1141 7.42636 15.3065 7.58163 15.5259 7.58163C15.5529 7.58163 15.5766 7.57826 15.6036 7.57488C15.85 7.53775 16.0187 7.30146 15.9749 7.05505Z" fill="#0070D9"/>
</svg>
