<svg width="16" height="15" viewBox="0 0 16 15" fill="none" xmlns="http://www.w3.org/2000/svg">
<g id="ic_payment_system">
<path id="Fill 1" fill-rule="evenodd" clip-rule="evenodd" d="M11.6277 1.02504C11.2085 1.02504 10.8673 1.35939 10.8673 1.77038C10.8673 2.18137 11.2085 2.51572 11.6277 2.51572C12.047 2.51572 12.3881 2.18137 12.3881 1.77038C12.3881 1.35939 12.047 1.02504 11.6277 1.02504ZM14.1624 1.02504C13.7431 1.02504 13.402 1.35939 13.402 1.77038C13.402 2.18137 13.7431 2.51572 14.1624 2.51572C14.5816 2.51572 14.9228 2.18137 14.9228 1.77038C14.9228 1.35939 14.5816 1.02504 14.1624 1.02504ZM1.77426 1.02504C1.35496 1.02504 1.01386 1.35939 1.01386 1.77038V2.54678H10.03L9.96581 2.37892C9.89126 2.18414 9.85347 1.97939 9.85347 1.77038C9.85347 1.57221 9.88768 1.37721 9.9552 1.19082L10.0152 1.02504H1.77426ZM2.40792 14.4412C1.08017 14.4412 0 13.3824 0 12.0809V1.77038C0 0.811436 0.795945 0.03125 1.77426 0.03125H14.1941C15.1724 0.03125 15.9683 0.811436 15.9683 1.77038V8.29212C15.9683 8.5661 15.7409 8.78901 15.4614 8.78901C15.1819 8.78901 14.9545 8.5661 14.9545 8.29212V3.54057H1.01386V12.0809C1.01386 12.8344 1.63922 13.4474 2.40792 13.4474H9.4099C9.68941 13.4474 9.91683 13.6703 9.91683 13.9443C9.91683 14.2183 9.68941 14.4412 9.4099 14.4412H2.40792ZM12.4832 12.3455L12.6928 12.1681C12.7704 12.1023 12.857 12.047 12.9501 12.0037L14.1725 11.4358C14.2109 11.4181 14.2506 11.4022 14.2904 11.3888L14.5074 11.3155L12.4832 9.71936V12.3455ZM14.8282 14.9693C14.6327 14.9693 14.458 14.8624 14.3723 14.6904L13.4479 12.8362L12.592 13.6129C12.4651 13.7281 12.3094 13.789 12.1417 13.789C11.8112 13.789 11.4693 13.5459 11.4693 13.139V9.06234C11.4693 8.87377 11.5451 8.70032 11.6828 8.57386C11.8133 8.45405 11.9902 8.38529 12.1683 8.38529C12.3257 8.38529 12.4757 8.43799 12.6021 8.53774L15.7209 10.997C15.9217 11.1553 16.0081 11.3962 15.9519 11.6414C15.8954 11.8884 15.7106 12.0713 15.4577 12.1308L14.6185 12.3285L14.3787 12.4399L15.2832 14.2541C15.4058 14.5003 15.3014 14.7984 15.0503 14.9187C14.9802 14.9522 14.9055 14.9693 14.8282 14.9693Z" fill="#0070D9"/>
<path id="Fill 4" fill-rule="evenodd" clip-rule="evenodd" d="M10.4877 10.7246C10.394 10.4858 10.1269 10.3709 9.88326 10.4582V10.4536C8.99765 10.7843 7.99957 10.573 7.33419 9.91625C7.1983 9.79681 7.08586 9.65445 7.00152 9.4983H9.40998C9.66772 9.4983 9.87857 9.29156 9.87857 9.03898C9.87857 8.78637 9.66772 8.57969 9.40998 8.57969H6.65943C6.63133 8.41432 6.62664 8.24438 6.6454 8.07445H9.65365C9.9114 8.07445 10.1222 7.86777 10.1222 7.61513C10.1222 7.36252 9.9114 7.15581 9.65365 7.15581H6.92183C7.03431 6.95833 7.1702 6.7792 7.3295 6.61386C7.99957 5.96165 8.99765 5.75038 9.87857 6.08566C10.1222 6.17752 10.3893 6.05811 10.4831 5.82386C10.5768 5.585 10.4549 5.32323 10.216 5.23137C8.98827 4.76746 7.59659 5.05684 6.66412 5.97084C6.31738 6.30612 6.05498 6.71032 5.89099 7.16041H5.22561C4.96787 7.16041 4.75702 7.36712 4.75702 7.61973C4.75702 7.87233 4.96787 8.07901 5.22561 8.07901H5.69418C5.6848 8.24898 5.6848 8.41432 5.70355 8.58426H5.22561C4.96787 8.58426 4.75702 8.79094 4.75702 9.04355C4.75702 9.29619 4.96787 9.50286 5.22561 9.50286H5.94254C6.10184 9.90246 6.35018 10.2699 6.66412 10.573C7.59193 11.4871 8.98359 11.781 10.216 11.3171C10.4596 11.2253 10.5768 10.9634 10.4877 10.7246Z" fill="#0070D9"/>
</g>
</svg>
