<svg width="16" height="16" viewBox="0 0 16 16" fill="none" xmlns="http://www.w3.org/2000/svg">
<g id="ic_paypal">
<path id="Shape" fill-rule="evenodd" clip-rule="evenodd" d="M12.727 3.05472C13.7659 3.18753 14.6913 3.66613 15.2719 4.38888C15.7432 4.9755 16.2309 6.02028 15.8781 7.66638C15.5926 8.99606 14.9197 10.1038 13.9322 10.8702C12.9797 11.6093 11.7793 12 10.4609 12H8.92581L7.95706 16H3.11031L3.78681 13H0.00134277L2.84519 0H8.94494C10.6372 0 12.3977 1.04713 12.727 3.05472ZM3.85131 1.25L1.55434 11.75H4.06869L6.03478 3.03125H11.4451C11.127 1.81172 9.98806 1.25 8.94494 1.25H3.85131ZM11.487 4.28125C11.4714 4.40887 11.4514 4.53034 11.427 4.645C10.9832 6.71331 9.62631 7.71875 7.27887 7.71875H6.25912L7.03428 4.28125H11.487ZM10.4609 10.75C12.6053 10.75 14.2127 9.46797 14.6558 7.40419C14.8564 6.46859 14.7358 5.71744 14.2974 5.17175C13.9481 4.73694 13.3884 4.43675 12.7399 4.32078C12.7186 4.526 12.6887 4.72191 12.6494 4.90631C12.359 6.25975 11.7262 7.29616 10.7684 7.98772C9.86687 8.63869 8.69284 8.96875 7.27887 8.96875H5.97725L4.67356 14.75H6.97366L7.94241 10.75H10.4609Z" fill="#0070D9"/>
</g>
</svg>
