<svg width="16" height="15" viewBox="0 0 16 15" fill="none" xmlns="http://www.w3.org/2000/svg">
<path fill-rule="evenodd" clip-rule="evenodd" d="M15.5312 9.37655H14.7017C14.6276 9.22144 14.5411 9.07233 14.443 8.93006L14.8429 8.23599C14.9722 8.01152 14.8955 7.72394 14.6713 7.59427L13.0475 6.65481C12.8235 6.52515 12.5366 6.60209 12.4071 6.82668L12.0134 7.51011C11.8322 7.49335 11.6678 7.49335 11.4866 7.51011L10.693 6.06521C10.7911 5.92294 10.8776 5.77383 10.9517 5.61872H11.75C12.0089 5.61872 12.2188 5.40844 12.2188 5.14899V3.27008C12.2188 3.01063 12.0089 2.80035 11.75 2.80035H10.9517C10.8776 2.64524 10.7911 2.49613 10.693 2.35386L11.0929 1.65979C11.2222 1.43532 11.1455 1.14774 10.9213 1.01807L9.29749 0.0786136C9.07349 -0.051051 8.78662 0.0258915 8.6571 0.25048L8.26343 0.933911C8.08215 0.917153 7.91785 0.917153 7.73657 0.933911L7.3429 0.250603C7.21338 0.0258915 6.92676 -0.051051 6.70251 0.0786136L5.07874 1.01807C4.97107 1.08033 4.89246 1.18297 4.86035 1.30333C4.82812 1.4237 4.84497 1.5519 4.9071 1.65979L5.30701 2.35386C5.20886 2.49613 5.12244 2.64524 5.04834 2.80035H4.25C3.99109 2.80035 3.78125 3.01063 3.78125 3.27008V5.14899C3.78125 5.40844 3.99109 5.61872 4.25 5.61872H5.04834C5.12244 5.77383 5.20886 5.92294 5.30701 6.06521L4.51343 7.51011C4.33215 7.49335 4.16785 7.49335 3.98657 7.51011L3.5929 6.8268C3.46338 6.60209 3.17676 6.52515 2.95251 6.65481L1.32874 7.59427C1.10474 7.72394 1.02771 8.01128 1.1571 8.23599L1.55701 8.93006C1.45886 9.07233 1.37244 9.22144 1.29834 9.37655H0.46875C0.209839 9.37655 0 9.58683 0 9.84628V11.7252C0 11.9846 0.209839 12.1949 0.46875 12.1949H1.29834C1.37244 12.35 1.45886 12.4991 1.55701 12.6414L1.1571 13.3355C1.02783 13.5599 1.10449 13.8475 1.32874 13.9772L2.95251 14.9167C3.17651 15.0463 3.46338 14.9694 3.5929 14.7448L3.98657 14.0614C4.16785 14.0781 4.33215 14.0781 4.51343 14.0614L4.9071 14.7448C5.03674 14.9696 5.32349 15.0463 5.54749 14.9167L7.17126 13.9772C7.39526 13.8477 7.47229 13.5602 7.3429 13.3355L6.94287 12.6414C7.04114 12.4991 7.12744 12.3438 7.20166 12.1887H8.79834C8.87244 12.3438 8.95886 12.4991 9.05701 12.6414L8.6571 13.3355C8.52783 13.5599 8.60449 13.8475 8.82874 13.9772L10.4525 14.9167C10.6765 15.0463 10.9634 14.9694 11.0929 14.7448L11.4866 14.0614C11.6678 14.0781 11.8322 14.0781 12.0134 14.0614L12.4071 14.7448C12.5367 14.9696 12.8235 15.0463 13.0475 14.9167L14.6713 13.9772C14.8953 13.8477 14.9723 13.5602 14.8429 13.3355L14.4429 12.6414C14.5411 12.4991 14.6274 12.35 14.7017 12.1949H15.5312C15.7902 12.1949 16 11.9846 16 11.7252V9.84628C16 9.58683 15.7902 9.37655 15.5312 9.37655ZM4.71875 4.67926V3.73981H5.36023C5.55847 3.73981 5.73523 3.61491 5.80176 3.42775C5.89661 3.16121 6.03943 2.91484 6.2262 2.69552C6.35498 2.5442 6.37476 2.32805 6.27551 2.15569L5.95349 1.59679L6.76538 1.12706L7.08264 1.67777C7.18188 1.85 7.37878 1.94101 7.57385 1.90481C7.8894 1.84633 8.11047 1.84621 8.42615 1.90481C8.62134 1.94101 8.81812 1.85 8.91736 1.67777L9.23474 1.12706L10.0465 1.59679L9.72449 2.15569C9.62524 2.32793 9.64502 2.5442 9.7738 2.69552C9.96057 2.91484 10.1034 3.16121 10.1982 3.42775C10.2648 3.61479 10.4415 3.73981 10.6398 3.73981H11.2812V4.67926H10.6396C10.4415 4.67926 10.2646 4.80416 10.1981 4.99119C10.1033 5.25786 9.96057 5.50422 9.7738 5.72343C9.64502 5.87475 9.62524 6.09102 9.72449 6.26325L10.0465 6.82228L9.23474 7.29201L8.91736 6.7413C8.81812 6.56894 8.62134 6.47805 8.42615 6.51426C8.1106 6.57273 7.88953 6.57273 7.57385 6.51426C7.37866 6.47805 7.18188 6.56894 7.08264 6.7413L6.76538 7.29201L5.95349 6.82228L6.27551 6.26325C6.37476 6.09102 6.35498 5.87475 6.2262 5.72343C6.03943 5.5041 5.89661 5.25774 5.80176 4.99119C5.73523 4.80416 5.55847 4.67926 5.36023 4.67926H4.71875ZM8.79834 9.37655C8.87244 9.22144 8.95886 9.07233 9.05701 8.93006L8.26343 7.48516C8.08215 7.50179 7.91785 7.50179 7.73657 7.48516L6.94299 8.93006C7.04114 9.07233 7.12756 9.22144 7.20166 9.37655H8.79834ZM7.53125 11.2555H6.88965C6.69153 11.2555 6.51465 11.3804 6.44812 11.5674C6.35327 11.8341 6.21057 12.0804 6.0238 12.2998C5.89502 12.4511 5.87524 12.6672 5.97449 12.8395L6.29651 13.3985L5.48462 13.8682L5.16736 13.3175C5.06812 13.1451 4.87122 13.0543 4.67615 13.0905C4.3606 13.1489 4.13953 13.1489 3.82385 13.0905C3.62866 13.0543 3.43188 13.1453 3.33264 13.3175L3.01526 13.8682L2.20349 13.3985L2.52551 12.8395C2.62476 12.6672 2.60498 12.4511 2.4762 12.2998C2.28943 12.0803 2.14661 11.8339 2.05176 11.5674C1.98523 11.3804 1.80847 11.2555 1.61023 11.2555H0.9375V10.316H1.61023C1.80847 10.316 1.98523 10.1911 2.05176 10.004C2.14661 9.73741 2.28943 9.49104 2.4762 9.27172C2.60498 9.1204 2.62476 8.90425 2.52551 8.7319L2.20349 8.17299L3.01538 7.70326L3.33264 8.25397C3.43188 8.4262 3.62878 8.51721 3.82385 8.48101C4.1394 8.42253 4.36047 8.42241 4.67615 8.48101C4.87122 8.51721 5.06812 8.4262 5.16736 8.25397L5.51379 7.65262L6.32568 8.12235L5.97449 8.7319C5.87524 8.90413 5.89502 9.1204 6.0238 9.27172C6.21057 9.49104 6.35339 9.73741 6.44824 10.004C6.51477 10.191 6.69153 10.3096 6.88977 10.3096H7.53125V11.2555ZM14.3896 11.2555H15.0625V10.316H14.3898C14.1917 10.316 14.0148 10.1911 13.9482 10.004C13.8534 9.73753 13.7107 9.49104 13.5239 9.27172C13.395 9.1204 13.3752 8.90425 13.4745 8.73202L13.7966 8.17299L12.9847 7.70326L12.6675 8.25397C12.5681 8.42633 12.3713 8.51721 12.1761 8.48101C11.8605 8.42253 11.6394 8.42253 11.3239 8.48101C11.1288 8.51721 10.9319 8.42633 10.8326 8.25397L10.4862 7.65262L9.67432 8.12235L10.0255 8.7319C10.1248 8.90425 10.105 9.1204 9.9762 9.27172C9.78943 9.49104 9.64661 9.73741 9.55176 10.004C9.48523 10.1911 9.30847 10.3098 9.11023 10.3098H8.46875V11.2555H9.11023C9.30847 11.2555 9.48523 11.3804 9.55176 11.5674C9.64661 11.8339 9.78943 12.0803 9.9762 12.2998C10.105 12.4511 10.1248 12.6672 10.0255 12.8395L9.70349 13.3985L10.5153 13.8682L10.8326 13.3175C10.9319 13.1453 11.1288 13.0543 11.3239 13.0905C11.6395 13.1489 11.8606 13.1489 12.1761 13.0905C12.3713 13.0543 12.5681 13.1451 12.6674 13.3175L12.9846 13.8682L13.7965 13.3985L13.4745 12.8395C13.3752 12.6672 13.395 12.4511 13.5238 12.2998C13.7106 12.0804 13.8533 11.8341 13.9481 11.5674C14.0146 11.3804 14.1915 11.2555 14.3896 11.2555Z" fill="#B4C4DB"/>
<path fill-rule="evenodd" clip-rule="evenodd" d="M10.3438 10.7859C10.3438 10.0089 10.9746 9.37671 11.75 9.37671C12.5254 9.37671 13.1562 10.0089 13.1562 10.7859C13.1562 11.5629 12.5254 12.1951 11.75 12.1951C10.9746 12.1951 10.3438 11.5629 10.3438 10.7859ZM11.2812 10.7859C11.2812 11.0449 11.4916 11.2556 11.75 11.2556C12.0084 11.2556 12.2188 11.0449 12.2188 10.7859C12.2188 10.5269 12.0084 10.3162 11.75 10.3162C11.4916 10.3162 11.2812 10.5269 11.2812 10.7859Z" fill="#B4C4DB"/>
<path fill-rule="evenodd" clip-rule="evenodd" d="M9.40625 4.20948C9.40625 4.98649 8.77539 5.61866 8 5.61866C7.22461 5.61866 6.59375 4.98649 6.59375 4.20948C6.59375 3.43247 7.22461 2.80029 8 2.80029C8.77539 2.80029 9.40625 3.43247 9.40625 4.20948ZM8.46875 4.20948C8.46875 3.95052 8.25842 3.73975 8 3.73975C7.74158 3.73975 7.53125 3.95052 7.53125 4.20948C7.53125 4.46844 7.74158 4.67921 8 4.67921C8.25842 4.67921 8.46875 4.46844 8.46875 4.20948Z" fill="#B4C4DB"/>
<path fill-rule="evenodd" clip-rule="evenodd" d="M2.84375 10.7859C2.84375 10.0089 3.47461 9.37671 4.25 9.37671C5.02539 9.37671 5.65625 10.0089 5.65625 10.7859C5.65625 11.5629 5.02539 12.1951 4.25 12.1951C3.47461 12.1951 2.84375 11.5629 2.84375 10.7859ZM3.78125 10.7859C3.78125 11.0449 3.99158 11.2556 4.25 11.2556C4.50842 11.2556 4.71875 11.0449 4.71875 10.7859C4.71875 10.5269 4.50842 10.3162 4.25 10.3162C3.99158 10.3162 3.78125 10.5269 3.78125 10.7859Z" fill="#B4C4DB"/>
</svg>
