<?xml version="1.0" encoding="utf-8" ?>
<svg xmlns="http://www.w3.org/2000/svg" xmlns:xlink="http://www.w3.org/1999/xlink" width="16" height="16">
	<defs>
		<clipPath id="clip_0">
			<rect x="-515" y="-107" width="1440" height="3714" clip-rule="evenodd"/>
		</clipPath>
	</defs>
	<g clip-path="url(#clip_0)">
		<path fill="rgb(121,140,168)" stroke="none" d="M15.637 3.7583C15.3937 3.49837 15.05 3.33333 14.6667 3.33333L12.6667 3.33333L12.6667 1.33333C12.6667 0.597982 12.0687 0 11.3333 0L4.66667 0C3.93132 0 3.33333 0.597982 3.33333 1.33333L3.33333 3.33333L1.33333 3.33333C0.950033 3.33333 0.606283 3.49837 0.362956 3.7583C0.324707 3.79427 0.292318 3.83496 0.263997 3.87793C0.10026 4.09928 0 4.37061 0 4.66667L0 14.6667C0 15.402 0.597982 16 1.33333 16L14.6667 16C15.402 16 16 15.402 16 14.6667L16 4.66667C16 4.37061 15.8997 4.09928 15.736 3.87793C15.7077 3.83496 15.6753 3.79427 15.637 3.7583ZM4.66667 1.33333L11.3333 1.33333L11.3333 3.33333L4.66667 3.33333L4.66667 1.33333ZM6.66667 7.33333L9.33333 7.33333C10.0687 7.33333 10.6667 7.93131 10.6667 8.66667L10.89 8.66667C11.347 8.66667 11.7803 8.42692 12.0203 8.04101L14.1291 4.66667L1.87061 4.66667L3.97868 8.04004C4.21973 8.42692 4.653 8.66667 5.11003 8.66667L5.33333 8.66667C5.33333 7.93131 5.93132 7.33333 6.66667 7.33333ZM1.33268 6.32161L1.33333 14.6667L14.6667 14.6667L14.6667 6.32308L13.152 8.74674C12.6707 9.51937 11.8037 10 10.89 10L10.6667 10C10.6667 10.7354 10.0687 11.3333 9.33333 11.3333L6.66667 11.3333C5.93131 11.3333 5.33333 10.7354 5.33333 10L5.11003 10C4.19629 10 3.32926 9.51937 2.84733 8.74561L1.33268 6.32161ZM6.66634 9.32926L6.66602 8.66667L9.33333 8.66667L9.33333 10L6.66667 10L6.66634 9.3374L6.66667 9.33333L6.66634 9.32926Z" fill-rule="evenodd"/>
	</g>

</svg>