<svg width="16" height="16" viewBox="0 0 16 16" fill="none" xmlns="http://www.w3.org/2000/svg">
<g id="ic_phone">
<path id="Shape" fill-rule="evenodd" clip-rule="evenodd" d="M11.6353 9.28082L15.7218 11.0962C15.9323 11.1897 16.0435 11.422 15.9841 11.6442L15.1472 14.7744C14.9016 15.7351 13.8953 16.1885 12.948 15.8973C11.3108 15.3939 8.26331 14.4567 4.88525 11.1305L4.88269 11.1279L4.86633 11.1116L4.86377 11.109C2.30713 8.52253 0.99756 6.00962 0.0877696 3.06201C-0.20703 2.10709 0.258912 1.10952 1.2135 0.867076L4.35889 0.0399565C4.5813 -0.0186449 4.81348 0.0927099 4.90674 0.302505L6.71729 4.37256C6.79651 4.55056 6.75696 4.75877 6.61817 4.89546L6.61524 4.89835C6.55998 4.9528 5.76088 5.74025 5.30139 6.20321C5.85352 6.98842 6.54724 7.79117 7.36743 8.59393L7.37402 8.60051C8.19055 9.43153 9.02417 10.1501 9.80432 10.6966C10.1965 10.3123 10.8374 9.65996 11.1089 9.38182C11.246 9.24147 11.4559 9.20114 11.6353 9.28082ZM14.2391 14.5417L14.2406 14.5358L14.9751 11.7887L11.552 10.2679C11.1678 10.6594 10.4138 11.4236 10.1666 11.6444C10.0084 11.7856 9.77478 11.8031 9.59717 11.687C8.67688 11.0853 7.67774 10.2456 6.70776 9.25877C5.73303 8.30445 4.92517 7.34502 4.30676 6.40716C4.18713 6.22575 4.20825 5.98611 4.35767 5.82846C4.58142 5.59234 5.34107 4.84015 5.72913 4.45687L4.21192 1.04629L1.45032 1.77229L1.44592 1.77351C1.00977 1.88352 0.849366 2.35124 0.983644 2.78655L0.983784 2.787C1.43037 4.23357 2.35934 7.24266 5.52991 10.4507L5.54492 10.4658C8.75905 13.63 11.5537 14.4894 13.2236 15.0029L13.224 15.003C13.6597 15.1371 14.1287 14.9773 14.2391 14.5417Z" fill="#8B97A9"/>
<path id="Path" fill-rule="evenodd" clip-rule="evenodd" d="M8.00012 0.951298C11.8943 0.951298 15.0625 4.09932 15.0625 7.96872C15.0625 8.227 15.2723 8.43656 15.5311 8.43656C15.79 8.43656 15.9999 8.227 15.9999 7.96872C15.9999 3.58336 12.4113 0.015625 8.00012 0.015625C7.74121 0.015625 7.53137 0.225055 7.53137 0.483461C7.53137 0.741868 7.74121 0.951298 8.00012 0.951298Z" fill="#8B97A9"/>
<path id="Path_2" fill-rule="evenodd" clip-rule="evenodd" d="M8.00012 2.82239C10.8431 2.82239 13.1562 5.13087 13.1562 7.96847C13.1562 8.22675 13.3661 8.4363 13.625 8.4363C13.8838 8.4363 14.0938 8.22675 14.0938 7.96847C14.0938 4.61491 11.3601 1.88672 8.00012 1.88672C7.74121 1.88672 7.53137 2.09615 7.53137 2.35456C7.53137 2.61284 7.74121 2.82239 8.00012 2.82239V2.82239Z" fill="#8B97A9"/>
<path id="Path_3" fill-rule="evenodd" clip-rule="evenodd" d="M8.00012 4.69349C9.80933 4.69349 11.2812 6.16254 11.2812 7.96834C11.2812 8.22662 11.4911 8.43617 11.75 8.43617C12.0089 8.43617 12.2188 8.22662 12.2188 7.96834C12.2188 5.6467 10.3263 3.75781 8.00012 3.75781C7.74121 3.75781 7.53137 3.96736 7.53137 4.22565C7.53137 4.48406 7.74121 4.69349 8.00012 4.69349V4.69349Z" fill="#8B97A9"/>
</g>
</svg>
