<svg width="14" height="16" viewBox="0 0 14 16" fill="none" xmlns="http://www.w3.org/2000/svg">
<path fill-rule="evenodd" clip-rule="evenodd" d="M13.9831 4.35158L13.9836 4.364C14.0202 6.23974 14.0657 8.57417 13.2602 10.6954C12.8186 11.8586 12.1503 12.8699 11.274 13.7011C10.2765 14.6474 8.97012 15.3991 7.39134 15.9354C7.33966 15.9529 7.28585 15.9672 7.23141 15.9778C7.15477 15.9927 7.07738 16.0001 7.00012 16.0001C6.92285 16.0001 6.84559 15.9927 6.76883 15.9778C6.71439 15.9672 6.66096 15.9531 6.60953 15.9356C5.02886 15.4003 3.72113 14.649 2.7227 13.7026C1.84607 12.8716 1.17778 11.8606 0.736519 10.6976C-0.065982 8.58269 -0.0203255 6.25265 0.0164255 4.38045L0.0171781 4.35158C0.0243276 4.19709 0.0292193 4.03481 0.0319788 3.85548C0.0453998 2.97487 0.766121 2.24656 1.6726 2.19746C3.56283 2.09488 5.0251 1.49619 6.27451 0.313322L6.28517 0.303454C6.69282 -0.0594847 7.30755 -0.0594847 7.71507 0.303454L7.72573 0.313322C8.97514 1.49619 10.4374 2.09488 12.3276 2.19734C13.2342 2.24656 13.9548 2.97487 13.9683 3.85535C13.9711 4.03591 13.9759 4.19819 13.9831 4.35158ZM7.07299 15.0509C9.7809 14.1311 11.5087 12.6002 12.3551 10.3712C13.0969 8.41761 13.056 6.27702 13.0191 4.38788C13.0116 4.22682 13.0066 4.05699 13.0037 3.86937C12.9978 3.47828 12.6772 3.15482 12.274 3.13301C11.2042 3.07502 10.2644 2.87424 9.40098 2.51922C8.53877 2.16469 7.77289 1.66493 7.05982 0.991441C7.0237 0.961592 6.97666 0.961714 6.94041 0.991441C6.22747 1.66493 5.46159 2.16469 4.59926 2.51922C3.7358 2.87424 2.79608 3.07502 1.72641 3.13301C1.32316 3.15482 1.00256 3.47828 0.996536 3.86924C0.993776 4.05589 0.988759 4.22572 0.981233 4.38788L0.980982 4.39836C0.943981 6.2853 0.902087 8.42419 1.64175 10.3736C2.48752 12.6028 4.21645 14.1328 6.92725 15.0509C6.93678 15.0541 6.94706 15.0567 6.9576 15.0588C6.98595 15.0643 7.01442 15.0643 7.04239 15.0589C7.05305 15.0569 7.06334 15.0541 7.07299 15.0509Z" fill="#8B97A9"/>
<path fill-rule="evenodd" clip-rule="evenodd" d="M2.90271 8.01579C2.90271 5.82146 4.74064 4.03613 6.99988 4.03613C9.259 4.03613 11.0971 5.82146 11.0971 8.01579C11.0971 10.2102 9.259 11.9956 6.99988 11.9956C4.74064 11.9956 2.90271 10.2102 2.90271 8.01579ZM3.86739 8.01579C3.86739 9.69354 5.27259 11.0584 6.99988 11.0584C8.72705 11.0584 10.1322 9.69354 10.1322 8.01579C10.1322 6.33803 8.72705 4.97315 6.99988 4.97315C5.27259 4.97315 3.86739 6.33803 3.86739 8.01579Z" fill="#8B97A9"/>
<path fill-rule="evenodd" clip-rule="evenodd" d="M8.17741 6.7804L6.27439 8.62884L5.75787 8.12714C5.56947 7.94414 5.26405 7.94414 5.07565 8.12714C4.88738 8.31013 4.88738 8.60679 5.07565 8.78966L5.93334 9.62275C6.02754 9.71425 6.15096 9.75993 6.27439 9.75993C6.39781 9.75993 6.52123 9.71425 6.61543 9.62275L8.85962 7.44293C9.04789 7.25993 9.04789 6.96327 8.85962 6.7804C8.67123 6.59729 8.36581 6.59729 8.17741 6.7804Z" fill="#8B97A9"/>
</svg>
