<svg width="16" height="16" viewBox="0 0 16 16" fill="none" xmlns="http://www.w3.org/2000/svg">
<g id="ic_real_stats">
<path id="Shape" fill-rule="evenodd" clip-rule="evenodd" d="M13.625 2.8125C14.4004 2.8125 15.0312 2.18164 15.0312 1.40625C15.0312 0.630859 14.4004 0 13.625 0C12.8496 0 12.2188 0.630859 12.2188 1.40625C12.2188 1.62305 12.2682 1.82861 12.3562 2.01221L10.481 3.88745C10.2974 3.79944 10.0918 3.75 9.875 3.75C9.49658 3.75 9.15283 3.90051 8.89978 4.14453L7.52014 3.45471C7.52722 3.39783 7.53125 3.34009 7.53125 3.28125C7.53125 2.50586 6.90039 1.875 6.125 1.875C5.34961 1.875 4.71875 2.50586 4.71875 3.28125C4.71875 3.49805 4.76819 3.70361 4.8562 3.88721L2.98096 5.76245C2.79736 5.67444 2.5918 5.625 2.375 5.625C1.59961 5.625 0.96875 6.25586 0.96875 7.03125C0.96875 7.80664 1.59961 8.4375 2.375 8.4375C3.15039 8.4375 3.78125 7.80664 3.78125 7.03125C3.78125 6.81445 3.73181 6.60889 3.6438 6.42529L5.51904 4.55005C5.70264 4.63806 5.9082 4.6875 6.125 4.6875C6.50342 4.6875 6.84717 4.53699 7.10022 4.29297L8.47986 4.98279C8.47278 5.03967 8.46875 5.09741 8.46875 5.15625C8.46875 5.93164 9.09961 6.5625 9.875 6.5625C10.6504 6.5625 11.2812 5.93164 11.2812 5.15625C11.2812 4.93945 11.2318 4.73389 11.1438 4.55029L13.019 2.67505C13.2026 2.76306 13.4082 2.8125 13.625 2.8125ZM13.625 0.9375C13.8834 0.9375 14.0938 1.14783 14.0938 1.40625C14.0938 1.66467 13.8834 1.875 13.625 1.875C13.3666 1.875 13.1562 1.66467 13.1562 1.40625C13.1562 1.14783 13.3666 0.9375 13.625 0.9375ZM1.90625 7.03125C1.90625 7.28967 2.11658 7.5 2.375 7.5C2.63342 7.5 2.84375 7.28967 2.84375 7.03125C2.84375 6.77283 2.63342 6.5625 2.375 6.5625C2.11658 6.5625 1.90625 6.77283 1.90625 7.03125ZM6.125 3.75C5.86658 3.75 5.65625 3.53967 5.65625 3.28125C5.65625 3.02283 5.86658 2.8125 6.125 2.8125C6.38342 2.8125 6.59375 3.02283 6.59375 3.28125C6.59375 3.53967 6.38342 3.75 6.125 3.75ZM9.40625 5.15625C9.40625 5.41467 9.61658 5.625 9.875 5.625C10.1334 5.625 10.3438 5.41467 10.3438 5.15625C10.3438 4.89783 10.1334 4.6875 9.875 4.6875C9.61658 4.6875 9.40625 4.89783 9.40625 5.15625Z" fill="#798CA8"/>
<path id="Shape_2" fill-rule="evenodd" clip-rule="evenodd" d="M0.46875 16H15.5312C15.7902 16 16 15.7902 16 15.5312C16 15.2723 15.7902 15.0625 15.5312 15.0625H15.0312V5.15625C15.0312 4.89734 14.8214 4.6875 14.5625 4.6875H12.6875C12.4286 4.6875 12.2188 4.89734 12.2188 5.15625V15.0625H11.2812V8.90625C11.2812 8.64734 11.0714 8.4375 10.8125 8.4375H8.9375C8.67859 8.4375 8.46875 8.64734 8.46875 8.90625V15.0625H7.53125V7.03125C7.53125 6.77234 7.32141 6.5625 7.0625 6.5625H5.1875C4.92859 6.5625 4.71875 6.77234 4.71875 7.03125V15.0625H3.78125V10.7812C3.78125 10.5223 3.57141 10.3125 3.3125 10.3125H1.4375C1.17859 10.3125 0.96875 10.5223 0.96875 10.7812V15.0625H0.46875C0.209839 15.0625 0 15.2723 0 15.5312C0 15.7902 0.209839 16 0.46875 16ZM13.1562 5.625H14.0938V15.0625H13.1562V5.625ZM10.3438 9.375H9.40625V15.0625H10.3438V9.375ZM5.65625 7.5H6.59375V15.0625H5.65625V7.5ZM2.84375 11.25H1.90625V15.0625H2.84375V11.25Z" fill="#798CA8"/>
</g>
</svg>
