<?xml version="1.0" encoding="utf-8" ?>
<svg xmlns="http://www.w3.org/2000/svg" xmlns:xlink="http://www.w3.org/1999/xlink" width="16" height="15">
	<defs>
		<clipPath id="clip_0">
			<rect x="-176" y="-596" width="1440" height="2238" clip-rule="evenodd"/>
		</clipPath>
	</defs>
	<g clip-path="url(#clip_0)">
		<path fill="rgb(255,255,255)" stroke="none" d="M14.9705 5.98893C14.7834 5.84101 14.472 5.59424 14.433 5.47731C14.3933 5.35585 14.4958 4.96504 14.5573 4.73247L14.5576 4.73126C14.705 4.1701 14.8883 3.47238 14.4767 2.92304C14.0667 2.37719 13.3295 2.32937 12.7371 2.2906C12.4918 2.2738 12.0805 2.2473 11.9767 2.17366C11.8716 2.09937 11.7136 1.71888 11.619 1.49084C11.3856 0.925594 11.1198 0.284753 10.4712 0.0806144C9.82609 -0.125388 9.23646 0.239325 8.71754 0.560304L8.71709 0.560581C8.48831 0.701395 8.14384 0.914602 7.99972 0.914602C7.86153 0.914602 7.52103 0.69819 7.29491 0.55478C6.79572 0.237581 6.17156 -0.155186 5.51369 0.0631805C4.86637 0.278311 4.60325 0.915243 4.36984 1.47597C4.27597 1.70206 4.11991 2.07931 4.01281 2.15619C3.90834 2.23176 3.48981 2.2589 3.23988 2.27506C2.61506 2.3164 1.90694 2.36293 1.50891 2.9133C1.11816 3.454 1.29334 4.12067 1.44806 4.70918L1.45137 4.72187C1.51255 4.95694 1.61137 5.3366 1.575 5.45142C1.53534 5.56316 1.22722 5.8106 1.04341 5.95852C0.578531 6.33328 0 6.79902 0 7.49671C0 8.18985 0.567312 8.65046 1.02284 9.01996C1.22053 9.18016 1.51872 9.4224 1.55906 9.54258C1.59872 9.66144 1.49559 10.0477 1.43344 10.2784L1.43287 10.2805C1.28222 10.8467 1.09478 11.551 1.52203 12.1046C1.93925 12.6434 2.67316 12.6912 3.26359 12.7299C3.50891 12.7467 3.9195 12.7726 4.02397 12.8469C4.12844 12.9212 4.28581 13.301 4.38034 13.529C4.61441 14.0943 4.87953 14.7351 5.52881 14.9399C5.65906 14.9819 5.788 15 5.91362 15C6.41084 15 6.86969 14.7158 7.28359 14.4612C7.51169 14.3204 7.85553 14.1072 7.99966 14.1072C8.1405 14.1072 8.479 14.3178 8.7025 14.4574L8.70665 14.4599C9.20183 14.7676 9.81908 15.1512 10.4738 14.9322C11.1204 14.717 11.3836 14.0807 11.617 13.5187C11.7109 13.2933 11.8669 12.9154 11.974 12.8385C12.0792 12.7629 12.495 12.7358 12.7437 12.7196C13.3638 12.6783 14.0673 12.6324 14.4713 12.0904C14.878 11.5459 14.7034 10.8721 14.5494 10.2784L14.549 10.277C14.4888 10.0449 14.3888 9.65931 14.4251 9.54325C14.4647 9.4315 14.7728 9.18407 14.956 9.03614C15.4215 8.66145 16 8.19504 16 7.49735C16 6.80549 15.4288 6.35263 14.9705 5.98893ZM14.1156 8.04C13.7288 8.35072 13.3288 8.67308 13.1714 9.13497C13.0109 9.60481 13.1414 10.1082 13.2676 10.5948L13.268 10.5962L13.2698 10.6031C13.3314 10.8415 13.4325 11.232 13.4187 11.3133C13.3182 11.3869 12.9037 11.4147 12.6557 11.4302C12.1645 11.4625 11.6077 11.4987 11.1932 11.7958C10.7826 12.0898 10.5836 12.5697 10.3912 13.0336C10.2973 13.2623 10.1386 13.6453 10.0731 13.7035C9.95278 13.7035 9.61625 13.4922 9.41459 13.3669C8.99872 13.1085 8.52728 12.8146 8.00031 12.8146C7.47269 12.8146 6.99728 13.1092 6.57678 13.3689C6.37312 13.4942 6.03197 13.7061 5.95925 13.7216C5.85678 13.6499 5.70072 13.2713 5.60684 13.0452C5.41247 12.5756 5.21147 12.0905 4.79691 11.7991C4.385 11.509 3.86 11.4748 3.35156 11.4419C3.11287 11.4264 2.66791 11.3973 2.58722 11.3437C2.54622 11.2293 2.65003 10.8385 2.71284 10.606L2.71404 10.6015C2.83606 10.142 2.97418 9.62185 2.81731 9.14664C2.65928 8.67055 2.23944 8.3288 1.8685 8.02775C1.68734 7.88047 1.34947 7.60592 1.32103 7.50645C1.35078 7.38499 1.69791 7.10528 1.88434 6.95607C2.27112 6.64471 2.67116 6.32235 2.82853 5.86045C2.99003 5.3884 2.8578 4.88233 2.72988 4.3928L2.72869 4.38822L2.72557 4.37632C2.6631 4.1381 2.56219 3.75324 2.57 3.67893C2.67116 3.60788 3.08241 3.58074 3.32837 3.56458C3.84475 3.531 4.37966 3.49546 4.79422 3.19896C5.20481 2.90503 5.40384 2.4257 5.59625 1.96189C5.69012 1.73256 5.8495 1.35011 5.91031 1.29262C6.03262 1.29454 6.37247 1.51032 6.57547 1.63889C6.99466 1.90504 7.47072 2.20673 8.00031 2.20673C8.52728 2.20673 9.004 1.91215 9.42319 1.65312C9.62684 1.52714 9.968 1.31592 10.0407 1.30041C10.1426 1.37213 10.2993 1.75067 10.3932 1.97676C10.5875 2.44576 10.7885 2.93089 11.2031 3.22223C11.615 3.51292 12.1407 3.54715 12.6498 3.5801C12.901 3.59689 13.3222 3.62467 13.4009 3.67117C13.4412 3.78487 13.3387 4.17764 13.2766 4.41149L13.276 4.41382C13.1551 4.87578 13.0183 5.39872 13.1761 5.87597C13.3354 6.35724 13.7619 6.69508 14.1381 6.9929C14.31 7.12983 14.6267 7.37986 14.6756 7.5C14.6287 7.62592 14.2961 7.89399 14.1156 8.04ZM10.0256 5.14399C10.2589 4.87072 10.6748 4.83326 10.9565 5.06323C11.2368 5.29191 11.2732 5.69891 11.0391 5.97278L7.62747 9.95864C7.50847 10.0975 7.33587 10.1815 7.14944 10.1893C7.14019 10.1905 7.13025 10.1905 7.121 10.1905C6.94578 10.1905 6.77716 10.1234 6.65353 10.0013L4.88816 8.27644C4.62962 8.02388 4.62962 7.6156 4.88816 7.36301C5.14666 7.11041 5.56453 7.11041 5.82306 7.36301L7.07734 8.58781L10.0256 5.14399Z" fill-rule="evenodd"/>
	</g>

</svg>