<?xml version="1.0" encoding="UTF-8"?>
<svg width="16px" height="16px" viewBox="0 0 16 16" version="1.1" xmlns="http://www.w3.org/2000/svg" xmlns:xlink="http://www.w3.org/1999/xlink">
    <!-- Generator: Sketch 52.2 (67145) - http://www.bohemiancoding.com/sketch -->
    <title>ic_reload</title>
    <desc>Created with Sketch.</desc>
    <g id="Account-Personal-Area" stroke="none" stroke-width="1" fill="none" fill-rule="evenodd">
        <g id="APA_Home_1440" transform="translate(-791.000000, -240.000000)" fill="#0070D9">
            <g id="ic_reload" transform="translate(791.000000, 240.000000)">
                <path d="M15.5123478,1.39268502 C15.1991652,1.32178593 14.8910841,1.53228135 14.8240232,1.86255657 L14.4027362,3.93673394 C13.0614261,1.52254434 10.5994667,0.00758409786 7.90112464,0.00758409786 C3.74562319,0.00758409786 0.364892754,3.57436086 0.364892754,7.95865443 C0.364892754,8.2964159 0.624417391,8.57027523 0.944602899,8.57027523 C1.26474203,8.57027523 1.52431304,8.2964159 1.52431304,7.95865443 C1.52431304,4.2489052 4.38492754,1.23082569 7.90112464,1.23082569 C10.1934841,1.23082569 12.284429,2.5227156 13.416487,4.57971865 L11.4837797,4.14272783 C11.1706435,4.07192661 10.8625159,4.28237309 10.7955014,4.61264832 C10.7284406,4.94292355 10.9278609,5.26811009 11.2409043,5.33886239 L14.5585159,6.08895413 C14.6148638,6.10172477 14.6720928,6.1053945 14.7285333,6.10040367 C14.8225391,6.0920367 14.9141797,6.05949847 14.9948754,6.00440367 C15.1239884,5.91628135 15.2146087,5.77766361 15.2468406,5.61908257 L15.9578435,2.11885015 C16.0248116,1.78862385 15.8253913,1.46353517 15.5123478,1.39268502 Z" id="Path"></path>
                <path d="M14.9290203,7.15699083 C14.6090667,7.16814679 14.3581681,7.45086239 14.368742,7.78842813 C14.4249507,9.58453823 13.8149101,11.2961468 12.6508522,12.6081957 C11.4868406,13.9200979 9.90826667,14.6753761 8.20591304,14.7346789 C8.13495652,14.7371254 8.06437101,14.7383486 7.99369275,14.7383486 C5.77242899,14.7382508 3.7261913,13.5211254 2.57057391,11.5491131 L4.58550725,12.1191437 C4.89474783,12.206581 5.21266087,12.0130642 5.29558261,11.6867523 C5.37850435,11.3604893 5.19503768,11.0251254 4.8857971,10.9375413 L1.60862609,10.0105199 C1.46012754,9.96858716 1.30184348,9.99050765 1.16874203,10.0715352 C1.03554783,10.1525627 0.938388406,10.2861896 0.898550725,10.4428624 L0.019942029,13.900526 C-0.0629797101,14.226789 0.120486957,14.5621529 0.429727536,14.6496881 C0.480046377,14.6639266 0.530504348,14.6707768 0.58022029,14.6707768 C0.836127536,14.6707768 1.07037681,14.4905199 1.1398029,14.2173456 L1.63366957,12.2740061 C3.00753623,14.5564281 5.39895652,15.9616881 7.99341449,15.9615902 C8.07675362,15.9615902 8.16055652,15.9601713 8.24422029,15.9572355 C10.2560928,15.8870703 12.1216928,14.9945933 13.4973681,13.4441101 C14.8730435,11.8936269 15.5940174,9.87072783 15.5275594,7.74806116 C15.5170319,7.41054434 15.2489275,7.14500306 14.9290203,7.15699083 Z" id="Path"></path>
            </g>
        </g>
    </g>
</svg>