<?xml version="1.0" encoding="utf-8" ?>
<svg xmlns="http://www.w3.org/2000/svg" xmlns:xlink="http://www.w3.org/1999/xlink" width="12" height="13">
	<defs>
		<clipPath id="clip_0">
			<rect x="-563" y="-597" width="1440" height="2238" clip-rule="evenodd"/>
		</clipPath>
	</defs>
	<g clip-path="url(#clip_0)">
		<path fill="rgb(255,255,255)" stroke="none" d="M5.17861 5.04735C5.66001 4.50342 5.92525 3.77381 5.92525 2.99271C5.92525 1.50552 4.90551 0 2.95617 0C2.04898 0 1.28366 0.324586 0.742827 0.938649C0.263761 1.48265 0 2.2121 0 2.99271C0 4.48007 1.01542 5.98551 2.95617 5.98551C3.86674 5.98555 4.63541 5.66121 5.17861 5.04735ZM9.50974 1.40939C9.6279 1.27256 9.86909 1.15782 10.0457 1.1545L11.0992 1.13082C11.3911 1.13074 11.3989 1.35389 11.281 1.49105L2.56595 11.6455C2.44803 11.7825 2.20707 11.8947 2.03042 11.8947L0.882666 11.8947C0.706008 11.8947 0.62233 11.7028 0.740452 11.5659L9.50974 1.40939ZM2.95617 1.39151C4.02425 1.39151 4.51067 2.22208 4.51067 2.99377C4.51067 3.41355 4.37507 3.80215 4.12863 4.08786C3.8537 4.40697 3.45415 4.57571 2.97349 4.57571C1.87839 4.57571 1.37952 3.74523 1.37952 2.97362C1.37952 2.18624 1.86711 1.39151 2.95617 1.39151Z" fill-rule="evenodd"/>
	</g>
	<defs>
		<clipPath id="clip_1">
			<rect x="-563" y="-597" width="1440" height="2238" clip-rule="evenodd"/>
		</clipPath>
	</defs>
	<g clip-path="url(#clip_1)">
		<path fill="rgb(255,255,255)" stroke="none" transform="translate(6.18738 7.12836)" d="M0.728815 0.920932C1.25941 0.318586 2.01022 0 2.89989 0C4.81214 0 5.81258 1.47698 5.81262 2.93587C5.81262 3.70193 5.55252 4.41768 5.08022 4.9513C4.54725 5.5534 3.79341 5.87167 2.89993 5.87167C0.996118 5.87167 0 4.39477 0 2.93587C0 2.1701 0.258896 1.4544 0.728815 0.920932ZM1.36621 2.91698C1.36621 3.69098 1.85166 4.52443 2.91709 4.52443C3.39612 4.52443 3.79446 4.35528 4.06904 4.03532C4.3151 3.74852 4.45065 3.35837 4.45065 2.93693C4.45065 2.16268 3.96544 1.3294 2.89993 1.3294C2.42078 1.3294 2.02248 1.49855 1.74797 1.81859C1.50173 2.10539 1.36621 2.49546 1.36621 2.91698Z" fill-rule="evenodd"/>
	</g>

</svg>