<svg width="13" height="16" viewBox="0 0 13 16" fill="none" xmlns="http://www.w3.org/2000/svg">
<g id="ic_security">
<path id="Shape" fill-rule="evenodd" clip-rule="evenodd" d="M11.199 5.98499H11.6207C12.3672 5.98499 12.9746 6.57922 12.9746 7.30969V14.6754C12.9746 15.4058 12.3672 16 11.6207 16H1.36999C0.62337 16 0.0159912 15.4058 0.0159912 14.6754V7.30969C0.0159912 6.57922 0.62337 5.98499 1.36999 5.98499H1.79171V4.60181C1.79171 2.06433 3.90169 0 6.49528 0C9.08887 0 11.199 2.06433 11.199 4.60181V5.98499ZM6.49528 0.949829C4.43708 0.949829 2.76255 2.58813 2.76255 4.60181V5.98499H4.60377V4.56592C4.60377 3.56531 5.43586 2.75134 6.4586 2.75134H6.53196C7.5547 2.75134 8.38679 3.56531 8.38679 4.56592V5.98499H10.228V4.60181C10.228 2.58813 8.5536 0.949829 6.49528 0.949829ZM5.5746 5.98499V4.56592C5.5746 4.08911 5.97112 3.70117 6.4586 3.70117H6.53196C7.01944 3.70117 7.41595 4.08911 7.41595 4.56592V5.98499H5.5746ZM11.6206 15.0502C11.8318 15.0502 12.0037 14.882 12.0037 14.6754V7.30969C12.0037 7.10303 11.8319 6.93494 11.6207 6.93494H1.36999C1.15876 6.93494 0.986824 7.10303 0.986824 7.30969V14.6754C0.986824 14.882 1.15876 15.0502 1.36999 15.0502H11.6206Z" fill="#8B97A9"/>
<path id="Shape_2" fill-rule="evenodd" clip-rule="evenodd" d="M4.69434 10.2712C4.69434 9.29968 5.50222 8.50928 6.49526 8.50928C7.4883 8.50928 8.29619 9.2998 8.29619 10.2712C8.29619 11.0782 7.73859 11.7598 6.98074 11.9677V13.0007C6.98074 13.2631 6.76339 13.4757 6.49526 13.4757C6.22726 13.4757 6.00991 13.2631 6.00991 13.0007V11.9677C5.25193 11.7598 4.69434 11.0782 4.69434 10.2712ZM5.66529 10.2714C5.66529 10.7191 6.03761 11.0834 6.49526 11.0834C6.95292 11.0834 7.32523 10.719 7.32535 10.2714C7.32535 9.82349 6.95304 9.45923 6.49526 9.45923C6.03761 9.45923 5.66529 9.82349 5.66529 10.2714Z" fill="#8B97A9"/>
</g>
</svg>
