<svg width="12" height="16" viewBox="0 0 12 16" fill="none" xmlns="http://www.w3.org/2000/svg">
<g id="ic_time">
<path id="Shape" fill-rule="evenodd" clip-rule="evenodd" d="M10.7693 11.0769V13.0953C11.4658 13.2063 12 13.8112 12 14.5385C12 15.3444 11.3444 16 10.5385 16H1.46155C0.65564 16 0 15.3444 0 14.5385C0 13.8112 0.53418 13.2063 1.23071 13.0953V11.0769C1.23071 9.76025 1.95349 8.60938 3.02319 8C1.95349 7.39062 1.23071 6.23975 1.23071 4.9231V2.90466C0.53418 2.7937 0 2.18884 0 1.46155C0 0.65564 0.65564 0 1.46155 0H10.5385C11.3444 0 12 0.65564 12 1.46155C12 2.18884 11.4658 2.7937 10.7693 2.90466V4.9231C10.7693 6.23975 10.0465 7.39062 8.97681 8C10.0465 8.60938 10.7693 9.76025 10.7693 11.0769ZM1.46155 0.923096C1.16467 0.923096 0.923096 1.16467 0.923096 1.46155C0.923096 1.75842 1.16467 2 1.46155 2H10.5385C10.8353 2 11.0769 1.75842 11.0769 1.46155C11.0769 1.16467 10.8353 0.923096 10.5385 0.923096H1.46155ZM2.15381 11.0769C2.15381 9.63477 3.32715 8.46155 4.76929 8.46155C5.02417 8.46155 5.23071 8.25488 5.23071 8C5.23071 7.74512 5.02417 7.53845 4.76929 7.53845C3.32715 7.53845 2.15381 6.36523 2.15381 4.9231V2.9231H9.84619V4.9231C9.84619 6.36523 8.67285 7.53845 7.23071 7.53845C6.97583 7.53845 6.76929 7.74512 6.76929 8C6.76929 8.25488 6.97583 8.46155 7.23071 8.46155C8.67285 8.46155 9.84619 9.63477 9.84619 11.0769V13.0769H2.15381V11.0769ZM1.46155 15.0769H10.5385C10.8353 15.0769 11.0769 14.8353 11.0769 14.5385C11.0769 14.2416 10.8353 14 10.5385 14H1.46155C1.16467 14 0.923096 14.2416 0.923096 14.5385C0.923096 14.8353 1.16467 15.0769 1.46155 15.0769Z" fill="#8B97A9"/>
<path id="Path" fill-rule="evenodd" clip-rule="evenodd" d="M5.53821 7.07692C5.67041 7.07692 5.80176 7.0204 5.89307 6.9109L7.04688 5.52626C7.1615 5.38868 7.18616 5.19715 7.11023 5.03505C7.0343 4.87281 6.87134 4.7693 6.69226 4.7693H6.29309L6.81604 4.14161C6.97925 3.94581 6.95276 3.6548 6.75696 3.49159C6.56116 3.3285 6.27014 3.35487 6.10693 3.55067L4.95313 4.93531C4.8385 5.07289 4.81372 5.26442 4.88965 5.42652C4.96558 5.58876 5.12866 5.69227 5.30774 5.69227H5.70691L5.18396 6.31996C5.02075 6.51576 5.04724 6.80677 5.24304 6.96998C5.32935 7.04188 5.43408 7.07692 5.53821 7.07692Z" fill="#8B97A9"/>
<path id="Shape_2" fill-rule="evenodd" clip-rule="evenodd" d="M4.76929 9.38464H7.23071C8.16394 9.38464 8.9231 10.1438 8.9231 11.0769V11.6923C8.9231 11.9471 8.71643 12.1538 8.46155 12.1538H3.53845C3.28357 12.1538 3.0769 11.9471 3.0769 11.6923V11.0769C3.0769 10.1438 3.83606 9.38464 4.76929 9.38464ZM4 11.2307H8V11.0769C8 10.6527 7.65491 10.3077 7.23071 10.3077H4.76929C4.34509 10.3077 4 10.6527 4 11.0769V11.2307Z" fill="#8B97A9"/>
</g>
</svg>
