<svg width="16" height="16" viewBox="0 0 16 16" fill="none" xmlns="http://www.w3.org/2000/svg">
<g id="ic_target_audience">
<path id="Shape" fill-rule="evenodd" clip-rule="evenodd" d="M14.0938 3.78125C15.1217 3.78125 16 2.95044 16 1.90625C16 0.872925 15.1271 0 14.0938 0C13.0492 0 12.2188 0.87854 12.2188 1.90625C12.2188 2.25342 12.314 2.57874 12.4791 2.85791L11.2977 4.03943C10.4032 3.29333 9.25317 2.84375 8 2.84375C6.74683 2.84375 5.5968 3.29333 4.70227 4.03943L3.52087 2.85791C3.68604 2.57874 3.78125 2.25342 3.78125 1.90625C3.78125 0.878296 2.95044 0 1.90625 0C0.872925 0 0 0.872925 0 1.90625C0 2.95081 0.87854 3.78125 1.90625 3.78125C2.25342 3.78125 2.57874 3.68604 2.85791 3.52087L4.03943 4.70227C3.29333 5.5968 2.84375 6.74683 2.84375 8C2.84375 9.25317 3.29333 10.4032 4.03943 11.2977L2.85791 12.4791C2.57874 12.314 2.25342 12.2188 1.90625 12.2188C0.878296 12.2188 0 13.0496 0 14.0938C0 15.1271 0.872925 16 1.90625 16C2.95081 16 3.78125 15.1215 3.78125 14.0938C3.78125 13.7466 3.68604 13.4213 3.52087 13.1421L4.70227 11.9606C5.62622 12.7312 6.7854 13.1562 8 13.1562C9.21301 13.1562 10.3726 12.7323 11.2977 11.9606L12.4791 13.1421C12.314 13.4213 12.2188 13.7466 12.2188 14.0938C12.2188 15.1217 13.0496 16 14.0938 16C15.1271 16 16 15.1271 16 14.0938C16 13.0492 15.1215 12.2188 14.0938 12.2188C13.7466 12.2188 13.4213 12.314 13.1421 12.4791L11.9606 11.2977C12.7067 10.4032 13.1562 9.25317 13.1562 8C13.1562 6.74683 12.7067 5.5968 11.9606 4.70227L13.1421 3.52087C13.4213 3.68604 13.7466 3.78125 14.0938 3.78125ZM14.0938 0.9375C14.6099 0.9375 15.0625 1.39014 15.0625 1.90625C15.0625 2.41443 14.6189 2.84375 14.0938 2.84375C13.5768 2.84375 13.1562 2.42322 13.1562 1.90625C13.1562 1.3811 13.5856 0.9375 14.0938 0.9375ZM1.90625 0.9375C1.39014 0.9375 0.9375 1.39014 0.9375 1.90625C0.9375 2.41443 1.3811 2.84375 1.90625 2.84375C2.42322 2.84375 2.84375 2.42322 2.84375 1.90625C2.84375 1.3811 2.41443 0.9375 1.90625 0.9375ZM1.90625 15.0625C1.39014 15.0625 0.9375 14.6099 0.9375 14.0938C0.9375 13.5856 1.3811 13.1562 1.90625 13.1562C2.42322 13.1562 2.84375 13.5768 2.84375 14.0938C2.84375 14.6189 2.41443 15.0625 1.90625 15.0625ZM6.59375 10.8125V11.9774C7.03381 12.1335 7.50708 12.2188 8 12.2188C8.49292 12.2188 8.96619 12.1335 9.40625 11.9774V10.8125C9.40625 10.0371 8.77539 9.40625 8 9.40625C7.22461 9.40625 6.59375 10.0371 6.59375 10.8125ZM15.0625 14.0938C15.0625 14.6099 14.6099 15.0625 14.0938 15.0625C13.5856 15.0625 13.1562 14.6189 13.1562 14.0938C13.1562 13.5768 13.5768 13.1562 14.0938 13.1562C14.6189 13.1562 15.0625 13.5856 15.0625 14.0938ZM10.3438 10.8125V11.5061C11.4735 10.7483 12.2188 9.45959 12.2188 8C12.2188 5.67383 10.3262 3.78125 8 3.78125C5.67383 3.78125 3.78125 5.67383 3.78125 8C3.78125 9.45959 4.52649 10.7483 5.65625 11.5061V10.8125C5.65625 9.52014 6.70764 8.46875 8 8.46875C9.29236 8.46875 10.3438 9.52014 10.3438 10.8125Z" fill="#B4C4DB"/>
<path id="Shape_2" fill-rule="evenodd" clip-rule="evenodd" d="M8 5.65625C8.77539 5.65625 9.40625 6.28711 9.40625 7.0625C9.40625 7.83789 8.77539 8.46875 8 8.46875C7.22461 8.46875 6.59375 7.83789 6.59375 7.0625C6.59375 6.28711 7.22461 5.65625 8 5.65625ZM7.53125 7.0625C7.53125 7.32092 7.74158 7.53125 8 7.53125C8.25842 7.53125 8.46875 7.32092 8.46875 7.0625C8.46875 6.80408 8.25842 6.59375 8 6.59375C7.74158 6.59375 7.53125 6.80408 7.53125 7.0625Z" fill="#B4C4DB"/>
</g>
</svg>
