<svg width="11" height="16" viewBox="0 0 11 16" fill="none" xmlns="http://www.w3.org/2000/svg">
<g id="ic_unlocked">
<path id="Shape" fill-rule="evenodd" clip-rule="evenodd" d="M3.13934 7.19438H9.41806C10.2845 7.19438 10.9877 7.91063 10.9877 8.79314V14.3888C10.9877 15.2705 10.2845 15.9875 9.41806 15.9875H1.56969C0.703227 15.9875 0 15.2705 0 14.3888V8.79314C0 7.91063 0.703227 7.19438 1.56969 7.19438V3.99689C1.56969 1.79301 3.33006 0 5.49386 0C7.65766 0 9.41806 1.79301 9.41806 3.99689V4.79625H7.84837V3.99689C7.84837 2.67474 6.79197 1.59876 5.49386 1.59876C4.19575 1.59876 3.13934 2.67474 3.13934 3.99689V7.19438ZM1.56969 8.79314V14.3888H9.41964L9.41806 8.79314H1.56969Z" fill="#0070D9"/>
<path id="Oval" fill-rule="evenodd" clip-rule="evenodd" d="M5.49386 12.7897C6.14404 12.7897 6.67112 12.2529 6.67112 11.5907C6.67112 10.9284 6.14404 10.3916 5.49386 10.3916C4.84368 10.3916 4.3166 10.9284 4.3166 11.5907C4.3166 12.2529 4.84368 12.7897 5.49386 12.7897Z" fill="#0070D9"/>
</g>
</svg>
