<svg width="16" height="16" viewBox="0 0 16 16" fill="none" xmlns="http://www.w3.org/2000/svg">
<path fill-rule="evenodd" clip-rule="evenodd" d="M2.34315 13.6569C3.85413 15.1679 5.86311 16 8 16C9.46292 16 10.8943 15.6014 12.1394 14.8471C12.2622 14.7727 12.3487 14.655 12.3829 14.5155C12.4171 14.3761 12.3951 14.2317 12.3207 14.1089C12.2224 13.9466 12.0502 13.8497 11.8602 13.8497C11.7625 13.8497 11.6664 13.8767 11.5824 13.9276C10.5052 14.58 9.26643 14.9249 8 14.9249C4.1816 14.9249 1.0751 11.8184 1.0751 8C1.0751 4.1816 4.1816 1.0751 8 1.0751C11.8184 1.0751 14.9249 4.1816 14.9249 8C14.9249 9.36557 14.5189 10.6947 13.7507 11.8436C13.586 12.09 13.6524 12.4245 13.8988 12.5892C13.9876 12.6486 14.0907 12.6799 14.197 12.6799C14.3772 12.6799 14.5445 12.5906 14.6445 12.4411C15.5313 11.1147 16 9.579 16 8C16 5.86311 15.1679 3.85413 13.6569 2.34315C12.1459 0.832127 10.1369 0 8 0C5.86311 0 3.85413 0.832127 2.34315 2.34315C0.832127 3.85413 0 5.86311 0 8C0 10.1369 0.832127 12.1459 2.34315 13.6569ZM5.02767 11.8577C4.73126 11.8577 4.49012 11.6166 4.49012 11.3202V7.71542C4.49012 6.97945 5.03937 6.347 5.76768 6.24427L5.8493 6.23273V5.27222C5.8493 4.1261 6.79972 3.19368 7.96787 3.19368C9.1361 3.19368 10.0865 4.1261 10.0865 5.27222V6.23254L10.1681 6.24402C10.897 6.3464 11.4466 6.97897 11.4466 7.71542V11.3202C11.4466 11.6166 11.2055 11.8577 10.9091 11.8577H5.02767ZM7.96787 4.26877C7.39251 4.26877 6.9244 4.71892 6.9244 5.27222V6.22925H9.01135V5.27222C9.01135 4.71892 8.54327 4.26877 7.96787 4.26877ZM7.96838 9.58103C7.67197 9.58103 7.43083 9.33989 7.43083 9.04348C7.43083 8.74707 7.67197 8.50593 7.96838 8.50593C8.26479 8.50593 8.50593 8.74707 8.50593 9.04348C8.50593 9.33989 8.26479 9.58103 7.96838 9.58103ZM5.56522 7.71542C5.56522 7.48876 5.74963 7.30435 5.97628 7.30435H9.96047C10.1871 7.30435 10.3715 7.48876 10.3715 7.71542V10.7826H5.56522V7.71542Z" fill="#36A236"/>
</svg>
