<svg width="16" height="13" viewBox="0 0 16 13" fill="none" xmlns="http://www.w3.org/2000/svg">
<g id="ic_view-list">
<path id="Path" fill-rule="evenodd" clip-rule="evenodd" d="M1.152 10.7812C0.544 10.7812 0 11.2812 0 11.875C0 12.4688 0.544 13 1.152 13C1.76 13 2.272 12.4688 2.272 11.875C2.272 11.2812 1.76 10.7812 1.152 10.7812Z" fill="#8B97A9"/>
<path id="Path_2" fill-rule="evenodd" clip-rule="evenodd" d="M1.152 5.40625C0.544 5.40625 0 5.90625 0 6.5C0 7.09375 0.544 7.59375 1.152 7.59375C1.76 7.59375 2.272 7.09375 2.272 6.5C2.272 5.90625 1.76 5.40625 1.152 5.40625Z" fill="#8B97A9"/>
<path id="Path_3" fill-rule="evenodd" clip-rule="evenodd" d="M5.24802 2.125H14.944C15.52 2.125 16 1.6875 16 1.125C16 0.5625 15.52 0.09375 14.944 0.09375H5.24802C4.67202 0.09375 4.19202 0.5625 4.19202 1.125C4.19202 1.6875 4.67202 2.125 5.24802 2.125Z" fill="#8B97A9"/>
<path id="Path_4" fill-rule="evenodd" clip-rule="evenodd" d="M1.152 0C0.544 0 0 0.53125 0 1.125C0 1.71875 0.544 2.21875 1.152 2.21875C1.76 2.21875 2.272 1.71875 2.272 1.125C2.272 0.53125 1.76 0 1.152 0Z" fill="#8B97A9"/>
<path id="Path_5" fill-rule="evenodd" clip-rule="evenodd" d="M14.944 5.46875H5.24802C4.67202 5.46875 4.19202 5.9375 4.19202 6.5C4.19202 7.0625 4.67202 7.53125 5.24802 7.53125H14.944C15.52 7.53125 16 7.0625 16 6.5C16 5.9375 15.52 5.46875 14.944 5.46875Z" fill="#8B97A9"/>
<path id="Path_6" fill-rule="evenodd" clip-rule="evenodd" d="M14.944 10.8438H5.24802C4.67202 10.8438 4.19202 11.3125 4.19202 11.875C4.19202 12.4375 4.67202 12.9062 5.24802 12.9062H14.944C15.52 12.9062 16 12.4375 16 11.875C16 11.3125 15.52 10.8438 14.944 10.8438Z" fill="#8B97A9"/>
</g>
</svg>
