<svg width="16" height="12" viewBox="0 0 16 12" fill="none" xmlns="http://www.w3.org/2000/svg">
<path fill-rule="evenodd" clip-rule="evenodd" d="M6.91445 3.37426L10.4423 5.28841C10.6512 5.40173 10.7803 5.61859 10.7795 5.85453C10.7785 6.09048 10.6478 6.30637 10.4383 6.41812L6.91031 8.29928C6.81345 8.35099 6.70819 8.37672 6.60317 8.37672C6.48852 8.37672 6.37412 8.34603 6.27093 8.2849C6.07332 8.16784 5.95538 7.96161 5.95538 7.7334V3.93797C5.95538 3.70867 6.07405 3.50208 6.273 3.38514C6.47183 3.26831 6.7116 3.2642 6.91445 3.37426ZM6.89118 4.41929V7.25595L9.52787 5.84994L6.89118 4.41929Z" fill="#E62E2E"/>
<path fill-rule="evenodd" clip-rule="evenodd" d="M15.8506 2.82349L15.8514 2.83074C15.8561 2.8839 15.9688 4.14638 15.9689 5.41394V6.59886C15.9689 7.86642 15.8561 9.12891 15.8514 9.18206L15.8495 9.19825C15.8339 9.32281 15.6808 10.4322 15.1514 11.0028C14.5163 11.6958 13.7999 11.7713 13.4554 11.8075L13.4552 11.8075C13.4223 11.8109 13.3923 11.8141 13.3656 11.8176L13.3377 11.8205C11.2266 11.9727 8.0385 11.9935 8.00658 11.9936L8.00171 11.9937L7.99683 11.9936C7.8348 11.9913 4.01304 11.9346 2.7941 11.8196L2.75719 11.8146C2.72006 11.8081 2.66606 11.802 2.60329 11.7948L2.5982 11.7943C2.18738 11.7476 1.42361 11.6609 0.819566 11.0054C0.266326 10.4285 0.131823 9.31556 0.118299 9.19016L0.117446 9.18218C0.112695 9.12903 0 7.86642 0 6.59886V5.41394C0 4.14638 0.112695 2.88378 0.117446 2.83074L0.119274 2.81455C0.13499 2.68988 0.288012 1.58046 0.817373 1.00999C1.46162 0.307225 2.18214 0.22471 2.52839 0.185084C2.53325 0.184522 2.53804 0.183972 2.54275 0.18343C2.56442 0.180941 2.58458 0.178624 2.60319 0.176144L2.63134 0.173244C4.76145 0.0210213 7.94968 0.000241624 7.9816 0.000120812L7.98441 0L7.98721 0.000120812C8.01913 0.000241624 11.2074 0.0210213 13.3185 0.173244L13.3464 0.176144C13.3701 0.179285 13.3967 0.182305 13.4257 0.185567C13.776 0.225072 14.5043 0.307466 15.1467 0.985704C15.7025 1.56234 15.8371 2.69604 15.8506 2.82349ZM14.92 9.09121C14.9297 8.98031 15.033 7.77207 15.033 6.59886V5.41394C15.033 4.22177 14.9267 2.99662 14.9196 2.91749C14.8798 2.5559 14.723 1.88805 14.4695 1.62625L14.4658 1.62226C14.058 1.19096 13.6137 1.14071 13.3197 1.10748L13.318 1.10729C13.289 1.10398 13.2621 1.1009 13.2373 1.09782C11.1841 0.950668 8.09527 0.928681 7.98441 0.927956L7.98019 0.927988C7.81188 0.929251 4.76292 0.952139 2.71199 1.09782C2.69044 1.10058 2.66726 1.10325 2.64253 1.10609L2.63572 1.10688C2.3499 1.13962 1.91776 1.18915 1.50792 1.63615C1.26072 1.90267 1.09625 2.56206 1.04885 2.92196C1.03886 3.03516 0.935794 4.24207 0.935794 5.41394V6.59886C0.935794 7.7885 1.04179 9.01099 1.04922 9.09484C1.08906 9.4493 1.24586 10.1057 1.49927 10.3675L1.50792 10.3767C1.87605 10.7782 2.35478 10.8326 2.70455 10.8723L2.70468 10.8723C2.77364 10.8801 2.83906 10.8876 2.89961 10.8974C4.08138 11.0062 7.84722 11.0633 8.00573 11.0656C8.14705 11.0648 11.2149 11.0423 13.2568 10.8959C13.287 10.8922 13.3204 10.8885 13.3565 10.8848C13.6547 10.8535 14.0632 10.8105 14.4609 10.3767C14.7188 10.0987 14.8802 9.39675 14.92 9.09121Z" fill="#E62E2E"/>
</svg>
