<svg id="_002-briefcase" data-name="002-briefcase" xmlns="http://www.w3.org/2000/svg" width="23" height="20" viewBox="0 0 23 20">
  <path id="Path" d="M22.452,0A.509.509,0,0,0,21.9.529V7.412a.509.509,0,0,1-.548.529H1.643A.509.509,0,0,1,1.1,7.412V.529A.509.509,0,0,0,.548,0,.509.509,0,0,0,0,.529V7.412A1.587,1.587,0,0,0,1.643,9H21.357A1.587,1.587,0,0,0,23,7.412V.529A.509.509,0,0,0,22.452,0Z" transform="translate(0 11)" fill="#596c80"/>
  <path id="Shape" d="M13.068,10H9.932a.484.484,0,0,1-.522-.5V7.9L1.2,6.15A1.512,1.512,0,0,1,0,4.7V1.5A1.5,1.5,0,0,1,1.568,0H21.432A1.5,1.5,0,0,1,23,1.5V4.7a1.512,1.512,0,0,1-1.2,1.45L13.591,7.9V9.5A.484.484,0,0,1,13.068,10ZM10.454,7V9h2.091V7ZM9.932,6h3.136a.484.484,0,0,1,.523.5v.4l7.945-1.7a.5.5,0,0,0,.418-.5V1.5a.485.485,0,0,0-.523-.5H1.568a.484.484,0,0,0-.522.5V4.7a.5.5,0,0,0,.418.5L9.41,6.9V6.5A.484.484,0,0,1,9.932,6Z" transform="translate(0 4)" fill="#596c80"/>
  <path id="Path-2" data-name="Path" d="M6.8,0H1.568A1.666,1.666,0,0,0,0,1.8v.6A.534.534,0,0,0,.523,3a.534.534,0,0,0,.523-.6V1.8a.534.534,0,0,1,.523-.6H6.8a.534.534,0,0,1,.523.6v.6a.528.528,0,1,0,1.045,0V1.8A1.665,1.665,0,0,0,6.8,0Z" transform="translate(7.318)" fill="#596c80"/>
</svg>
