<svg id="ic_flag" xmlns="http://www.w3.org/2000/svg" width="17" height="24" viewBox="0 0 17 24">
  <path id="Shape" d="M3.174,24H.573a.554.554,0,1,1,0-1.107H1.3V2.533A1.332,1.332,0,0,1,.5,1.327,1.354,1.354,0,0,1,1.874,0,1.354,1.354,0,0,1,3.249,1.327a1.329,1.329,0,0,1-.8,1.206v.706h13.98a.573.573,0,0,1,.512.305.536.536,0,0,1-.052.58l-3.247,4.2,3.227,4.181a.538.538,0,0,1,.052.579.574.574,0,0,1-.513.305H2.447v9.5h.727a.554.554,0,1,1,0,1.107ZM2.447,10.444v1.839H15.264l-2.8-3.628a.542.542,0,0,1,0-.661l2.82-3.648H2.447V6.184h2.86a.554.554,0,1,1,0,1.107H2.447V9.338H4.275a.553.553,0,1,1,0,1.106ZM1.874,1a.338.338,0,0,0-.344.331.344.344,0,0,0,.688,0A.338.338,0,0,0,1.874,1Z" transform="translate(0)" fill="#596c80"/>
</svg>
