<svg xmlns="http://www.w3.org/2000/svg" width="23" height="26" viewBox="0 0 23 26">
  <g id="ic_idea" transform="translate(0)">
    <path id="Path" d="M0,0H.92V.867H0Z" transform="translate(11.04 22.967)" fill="#596c80"/>
    <path id="Path-2" data-name="Path" d="M0,0H.92V1.3H0Z" transform="translate(11.04 24.7)" fill="#596c80"/>
    <path id="Shape" d="M16.1,22.1H6.9a1.356,1.356,0,0,1-1.36-1.077,1.29,1.29,0,0,1,.9-1.444v-.5a10.135,10.135,0,0,1-1.009-.622l-.507.476a.479.479,0,0,1-.65,0L2.434,17.2a.417.417,0,0,1,0-.613l.593-.558a9.273,9.273,0,0,1-1.551-3.9H.46A.448.448,0,0,1,0,11.7V9.534A.448.448,0,0,1,.46,9.1h1.1A9.212,9.212,0,0,1,3.028,5.633l-.591-.557a.417.417,0,0,1,0-.613L4.277,2.73a.479.479,0,0,1,.65,0l.507.477A10.491,10.491,0,0,1,9.66,1.469V.433A.448.448,0,0,1,10.12,0h2.76a.448.448,0,0,1,.46.433V1.469A10.314,10.314,0,0,1,18.072,3.6l.463-.437a.483.483,0,0,1,.651,0l1.84,1.733a.415.415,0,0,1,0,.613l-.707.667A9.019,9.019,0,0,1,21.441,9.1h1.1A.448.448,0,0,1,23,9.534V11.7a.448.448,0,0,1-.461.433H21.524a9.215,9.215,0,0,1-1.616,3.992l.609.428a.417.417,0,0,1,.049.653l-1.84,1.733a.483.483,0,0,1-.649,0l-.513-.477a10.259,10.259,0,0,1-1,.623v.493a1.289,1.289,0,0,1,.9,1.444A1.354,1.354,0,0,1,16.1,22.1ZM6.9,20.367a.434.434,0,1,0,0,.867h9.2a.434.434,0,1,0,0-.867Zm.92-1.733a.434.434,0,1,0,0,.867h7.36a.434.434,0,1,0,0-.867ZM5.393,17.451a.479.479,0,0,1,.291.1c.249.188.512.367.782.532a.452.452,0,0,1,.435-.313h.92v-.931a6.784,6.784,0,0,1-3.429-7.8A7.312,7.312,0,0,1,11.5,3.9a7.312,7.312,0,0,1,7.109,5.139,6.784,6.784,0,0,1-3.429,7.8v.931h.92a.452.452,0,0,1,.437.312,9.365,9.365,0,0,0,.774-.528.479.479,0,0,1,.291-.1.471.471,0,0,1,.323.125l.475.444,1.139-1.075L19,16.567a.425.425,0,0,1-.18-.287.412.412,0,0,1,.086-.317,8.353,8.353,0,0,0,1.752-4.3.45.45,0,0,1,.458-.392h.966v-1.3H21.051a.455.455,0,0,1-.456-.372,8.189,8.189,0,0,0-1.247-3.266.413.413,0,0,1,.068-.532l.634-.6L18.86,4.08l-.446.419a.481.481,0,0,1-.639.01,9.308,9.308,0,0,0-4.962-2.243.445.445,0,0,1-.394-.43V.867H10.58v.969a.446.446,0,0,1-.4.43,9.453,9.453,0,0,0-4.5,1.852.478.478,0,0,1-.291.1A.472.472,0,0,1,5.07,4.09L4.6,3.646,3.41,4.766l.537.506A.414.414,0,0,1,4,5.829,8.424,8.424,0,0,0,2.406,9.595a.456.456,0,0,1-.456.372H.92v1.3h.967a.449.449,0,0,1,.46.392A8.358,8.358,0,0,0,4,15.837a.414.414,0,0,1-.049.557L3.41,16.9,4.6,18.021l.468-.444A.471.471,0,0,1,5.393,17.451ZM11.5,9.1a2.741,2.741,0,0,1,2.666,1.927,2.546,2.546,0,0,1-1.286,2.925v3.819h1.38V16.581A.428.428,0,0,1,14.5,16.2a5.937,5.937,0,0,0,3.247-6.824A6.369,6.369,0,0,0,11.5,4.765,6.367,6.367,0,0,0,5.249,9.374,5.936,5.936,0,0,0,8.5,16.2a.428.428,0,0,1,.245.383v1.186h1.38V13.948a2.543,2.543,0,0,1-1.285-2.925A2.741,2.741,0,0,1,11.5,9.1Zm-.46,5.165v3.506h.92V14.261a2.752,2.752,0,0,1-.92,0Zm.46-4.295A1.736,1.736,0,1,0,13.34,11.7,1.791,1.791,0,0,0,11.5,9.967Z" fill="#596c80"/>
  </g>
</svg>
