<svg xmlns="http://www.w3.org/2000/svg" width="26" height="21" viewBox="0 0 26 21">
  <g id="ic_lawyer" transform="translate(0)">
    <path id="Shape" d="M16.805,21H9.34c-.186,0-.289-.029-.3-.087-.031-.117.3-.311.3-.313l2.632-1.5a.859.859,0,0,0,.45-.711V1.726c0-.629-.4-.709-.565-.714H6.6c-.178,0-.292.037-.338.111a.235.235,0,0,0,.011.221l.039.068,4.009,7.034a1.02,1.02,0,0,1,.066.793,6.231,6.231,0,0,1-5.121,2.586,6.2,6.2,0,0,1-5.2-2.69A.957.957,0,0,1,.14,8.307l.03-.053L4.408.817A1.608,1.608,0,0,1,5.737,0h14.45A1.538,1.538,0,0,1,21.5.778l4.314,7.569.081.142-.006,0,.011.022a.824.824,0,0,1,.054.628,6.366,6.366,0,0,1-10.379.008.757.757,0,0,1-.016-.583L19.586,1.51c.087-.153.106-.273.058-.358-.067-.117-.245-.138-.345-.14H14.161a.58.58,0,0,0-.608.643V18.417a.926.926,0,0,0,.54.728l2.713,1.53c.01.007.251.163.224.256C17.016,20.977,16.94,21,16.805,21Zm.921-11.443s-.248.015-.291.124c-.02.049.006.112.076.185.041.034.079.067.126.1a5.082,5.082,0,0,0,3.009,1.163l.117,0h.064a5.054,5.054,0,0,0,2.884-1.057c.024-.019.054-.041.088-.065.014-.01.029-.022.043-.033l.016-.012a1.152,1.152,0,0,0,.095-.075L24,9.852c.076-.074.105-.136.086-.185-.037-.1-.262-.109-.265-.109h-.2l-5.3,0Zm-15.79,0c-.127,0-.2.024-.215.072-.035.1.213.285.215.286a5.651,5.651,0,0,0,3.08,1.21l.027,0h.015l.04,0c.037,0,.074,0,.115-.007l.045,0a.01.01,0,0,0,.007.006L5.3,11.12l.032,0A6.413,6.413,0,0,0,8.441,9.968c.15-.094.22-.179.207-.252-.015-.1-.171-.145-.218-.157h-6.5ZM20.761,1.832c-.146,0-.253.19-.254.192l-3.56,6.248,0,0-.053.094a.384.384,0,0,0-.033.357c.055.089.18.134.373.134l7.09,0a.33.33,0,0,0,.308-.124c.088-.149-.026-.39-.079-.486L21,2.026C20.927,1.9,20.847,1.832,20.761,1.832ZM5.2,1.755c-.094,0-.174.106-.183.118L1.378,8.264l-.121.212c-.07.148-.085.256-.044.319a.184.184,0,0,0,.166.068l7.639,0A.151.151,0,0,0,9.16,8.8c.063-.105-.039-.322-.086-.41l-.056-.1L5.358,1.873C5.314,1.795,5.262,1.755,5.2,1.755Z" fill="#596c80"/>
  </g>
</svg>
