<svg xmlns="http://www.w3.org/2000/svg" width="23" height="22" viewBox="0 0 23 22">
  <g id="ic_paint-palette" transform="translate(0)">
    <ellipse id="Oval" cx="0.523" cy="0.5" rx="0.523" ry="0.5" transform="translate(14.637 10)" fill="#596c80"/>
    <path id="Path" d="M6.927,0a.453.453,0,0,0-.52.344A2.371,2.371,0,0,1,4.5,2.022a3.987,3.987,0,0,1-3.7-.734.5.5,0,0,0-.647-.025.379.379,0,0,0-.028.577,4.189,4.189,0,0,0,2.2,1.075A5.448,5.448,0,0,0,3.283,3a5.652,5.652,0,0,0,1.484-.2A3.193,3.193,0,0,0,7.313.469.418.418,0,0,0,6.927,0Z" transform="translate(8.364 12)" fill="#596c80"/>
    <path id="Shape" d="M11.588,22A11.9,11.9,0,0,1,3.06,18.431,10.564,10.564,0,0,1,3.745,2.912,11.561,11.561,0,0,1,11.35,0h.022a1.85,1.85,0,0,1,1.715.918,1.576,1.576,0,0,1-.254,1.734,2.219,2.219,0,0,0-.491,2.21c.34-.2.685-.394,1.083-.613a35.729,35.729,0,0,1,5.89-2.638,8.193,8.193,0,0,1,2.351-.482,1.2,1.2,0,0,1,1.122.469c.344.565-.067,1.345-1.3,2.454a25.4,25.4,0,0,1-3.242,2.4,5.657,5.657,0,0,1,3.325,1.728A5.8,5.8,0,0,1,23,12.262a8.687,8.687,0,0,1-.787,3.395A10.2,10.2,0,0,1,20,18.794,10.953,10.953,0,0,1,16.435,21.1,12.934,12.934,0,0,1,11.588,22ZM11.35.86A10.475,10.475,0,0,0,.948,10a9.87,9.87,0,0,0,2.779,7.855,10.97,10.97,0,0,0,7.861,3.29c6.406,0,10.442-4.615,10.507-8.891C22.13,9.875,20.824,7.3,17.052,7.2h-.008c-.464.275-.92.535-1.355.772-.907.5-1.812.955-2.69,1.361a24.885,24.885,0,0,1-4.131,1.543,2.163,2.163,0,0,1-1.08,1.406,6.1,6.1,0,0,1-2.552.354c-.814,0-1.546-.052-1.751-.068a.459.459,0,0,1-.355-.213.41.41,0,0,1-.017-.4c.238-.476,1.471-2.878,2.413-3.395a2.355,2.355,0,0,1,1.86-.173,23.985,23.985,0,0,1,3.463-2.611c.206-.133.434-.275.715-.447a3.019,3.019,0,0,1,.559-3.208.752.752,0,0,0,.149-.829.953.953,0,0,0-.9-.432ZM6.656,9.13a1.42,1.42,0,0,0-.679.173,8.443,8.443,0,0,0-1.748,2.446c.322.014.654.022.985.022a6.543,6.543,0,0,0,2.121-.235A1.283,1.283,0,0,0,8.012,10.5a1.228,1.228,0,0,0-.18-.725,1.317,1.317,0,0,0-.545-.5A1.432,1.432,0,0,0,6.656,9.13ZM11.04,6.692A23.113,23.113,0,0,0,8.189,8.84a2.17,2.17,0,0,1,.427.506,2.085,2.085,0,0,1,.256.637A23.83,23.83,0,0,0,12.26,8.714a5.439,5.439,0,0,0-.508-1.087A5.606,5.606,0,0,0,11.04,6.692Zm10.643-4.7a7.784,7.784,0,0,0-2.31.514,35.818,35.818,0,0,0-5.494,2.491c-.487.266-.986.552-1.483.849-.206.123-.407.246-.6.366A6.364,6.364,0,0,1,13.08,8.333c.685-.327,1.411-.7,2.156-1.107.491-.268,1.01-.565,1.543-.885a28.552,28.552,0,0,0,3.928-2.766C21.838,2.587,21.979,2.144,22,2.031A.786.786,0,0,0,21.683,1.989Z" fill="#596c80"/>
    <path id="Shape-2" data-name="Shape" d="M1.568,3A1.536,1.536,0,0,1,0,1.5,1.537,1.537,0,0,1,1.568,0,1.537,1.537,0,0,1,3.137,1.5,1.537,1.537,0,0,1,1.568,3Zm0-2.25A.769.769,0,0,0,.784,1.5a.768.768,0,0,0,.784.75.769.769,0,0,0,.785-.75A.769.769,0,0,0,1.568.75Z" transform="translate(6.273 3)" fill="#596c80"/>
    <path id="Shape-3" data-name="Shape" d="M1.568,3A1.536,1.536,0,0,1,0,1.5,1.537,1.537,0,0,1,1.568,0,1.537,1.537,0,0,1,3.137,1.5,1.537,1.537,0,0,1,1.568,3Zm0-2.25A.769.769,0,0,0,.784,1.5a.768.768,0,0,0,.784.75.769.769,0,0,0,.785-.75A.769.769,0,0,0,1.568.75Z" transform="translate(4.182 14)" fill="#596c80"/>
    <path id="Shape-4" data-name="Shape" d="M1.568,3A1.536,1.536,0,0,1,0,1.5,1.537,1.537,0,0,1,1.568,0,1.537,1.537,0,0,1,3.137,1.5,1.537,1.537,0,0,1,1.568,3Zm0-2.25A.769.769,0,0,0,.784,1.5a.768.768,0,0,0,.784.75.769.769,0,0,0,.785-.75A.769.769,0,0,0,1.568.75Z" transform="translate(8.364 17)" fill="#596c80"/>
    <path id="Shape-5" data-name="Shape" d="M1.568,3A1.536,1.536,0,0,1,0,1.5,1.537,1.537,0,0,1,1.568,0,1.537,1.537,0,0,1,3.137,1.5,1.537,1.537,0,0,1,1.568,3Zm0-2.25A.769.769,0,0,0,.784,1.5a.768.768,0,0,0,.784.75.769.769,0,0,0,.785-.75A.769.769,0,0,0,1.568.75Z" transform="translate(13.591 16)" fill="#596c80"/>
    <path id="Shape-6" data-name="Shape" d="M1.568,3A1.536,1.536,0,0,1,0,1.5,1.537,1.537,0,0,1,1.568,0,1.537,1.537,0,0,1,3.137,1.5,1.537,1.537,0,0,1,1.568,3Zm0-2.25A.769.769,0,0,0,.784,1.5a.768.768,0,0,0,.784.75.769.769,0,0,0,.785-.75A.769.769,0,0,0,1.568.75Z" transform="translate(17.773 12)" fill="#596c80"/>
  </g>
</svg>
