<svg xmlns="http://www.w3.org/2000/svg" width="27" height="25" viewBox="0 0 27 25">
  <g id="ic_petri-dish" transform="translate(0)">
    <path id="Shape" d="M13.5,25a13.975,13.975,0,0,1-9.546-3.661,11.857,11.857,0,0,1,0-17.678A13.975,13.975,0,0,1,13.5,0a13.979,13.979,0,0,1,9.546,3.661,11.857,11.857,0,0,1,0,17.678A13.979,13.979,0,0,1,13.5,25ZM13.5.8C6.531.8.861,6.048.861,12.5S6.531,24.2,13.5,24.2s12.639-5.249,12.639-11.7S20.469.8,13.5.8Z" transform="translate(0)" fill="#596c80"/>
    <ellipse id="Oval" cx="0.431" cy="0.399" rx="0.431" ry="0.399" transform="translate(7.999 14.096)" fill="#596c80"/>
    <ellipse id="Oval-2" data-name="Oval" cx="0.431" cy="0.399" rx="0.431" ry="0.399" transform="translate(13.77 8.615)" fill="#596c80"/>
    <path id="Shape-2" data-name="Shape" d="M1.292,2.394A1.249,1.249,0,0,1,0,1.2,1.249,1.249,0,0,1,1.292,0,1.249,1.249,0,0,1,2.585,1.2,1.249,1.249,0,0,1,1.292,2.394Zm0-1.6a.416.416,0,0,0-.431.4.416.416,0,0,0,.431.4.416.416,0,0,0,.431-.4A.416.416,0,0,0,1.292.8Z" transform="translate(15.848 10.433)" fill="#596c80"/>
    <path id="Shape-3" data-name="Shape" d="M1.292,2.394A1.249,1.249,0,0,1,0,1.2,1.249,1.249,0,0,1,1.292,0,1.249,1.249,0,0,1,2.585,1.2,1.249,1.249,0,0,1,1.292,2.394Zm0-1.6a.416.416,0,0,0-.431.4.416.416,0,0,0,.431.4.416.416,0,0,0,.431-.4A.416.416,0,0,0,1.292.8Z" transform="translate(12.207 3.723)" fill="#596c80"/>
    <path id="Shape-4" data-name="Shape" d="M1.292,2.394A1.249,1.249,0,0,1,0,1.2,1.249,1.249,0,0,1,1.292,0,1.249,1.249,0,0,1,2.585,1.2,1.249,1.249,0,0,1,1.292,2.394Zm0-1.6a.416.416,0,0,0-.431.4.416.416,0,0,0,.431.4.416.416,0,0,0,.431-.4A.416.416,0,0,0,1.292.8Z" transform="translate(20.394 11.303)" fill="#596c80"/>
    <path id="Shape-5" data-name="Shape" d="M1.292,2.394A1.249,1.249,0,0,1,0,1.2,1.249,1.249,0,0,1,1.292,0,1.249,1.249,0,0,1,2.585,1.2,1.249,1.249,0,0,1,1.292,2.394Zm0-1.6a.416.416,0,0,0-.431.4.416.416,0,0,0,.431.4.416.416,0,0,0,.431-.4A.416.416,0,0,0,1.292.8Z" transform="translate(6.228 16.475)" fill="#596c80"/>
    <path id="Shape-6" data-name="Shape" d="M2.155,3.99A2.082,2.082,0,0,1,0,1.994,2.082,2.082,0,0,1,2.155,0,2.081,2.081,0,0,1,4.308,1.994,2.081,2.081,0,0,1,2.155,3.99ZM2.155.8a1.249,1.249,0,0,0-1.293,1.2,1.249,1.249,0,0,0,1.293,1.2,1.249,1.249,0,0,0,1.292-1.2A1.248,1.248,0,0,0,2.155.8Z" transform="translate(11.346 17.287)" fill="#596c80"/>
    <path id="Shape-7" data-name="Shape" d="M2.155,3.99A2.082,2.082,0,0,1,0,1.994,2.082,2.082,0,0,1,2.155,0,2.081,2.081,0,0,1,4.308,1.994,2.081,2.081,0,0,1,2.155,3.99ZM2.155.8a1.249,1.249,0,0,0-1.293,1.2,1.249,1.249,0,0,0,1.293,1.2,1.249,1.249,0,0,0,1.292-1.2A1.248,1.248,0,0,0,2.155.8Z" transform="translate(9.622 10.904)" fill="#596c80"/>
    <path id="Shape-8" data-name="Shape" d="M2.155,3.99A2.082,2.082,0,0,1,0,1.994,2.082,2.082,0,0,1,2.155,0,2.081,2.081,0,0,1,4.308,1.994,2.081,2.081,0,0,1,2.155,3.99ZM2.155.8a1.249,1.249,0,0,0-1.293,1.2,1.249,1.249,0,0,0,1.293,1.2,1.249,1.249,0,0,0,1.292-1.2A1.248,1.248,0,0,0,2.155.8Z" transform="translate(16.84 6.022)" fill="#596c80"/>
    <path id="Path" d="M11.777,0C5.283,0,0,4.892,0,10.9s5.283,10.9,11.777,10.9a12.339,12.339,0,0,0,7.667-2.634.379.379,0,0,0,.046-.563.455.455,0,0,0-.608-.042,11.435,11.435,0,0,1-7.105,2.441C5.758,21.011.862,16.477.862,10.9S5.758.8,11.777.8,22.691,5.332,22.691,10.9a9.67,9.67,0,0,1-2.637,6.579.379.379,0,0,0,.046.563A.455.455,0,0,0,20.708,18a10.435,10.435,0,0,0,2.845-7.1C23.553,4.892,18.27,0,11.777,0Z" transform="translate(1.723 1.596)" fill="#596c80"/>
    <path id="Path-2" data-name="Path" d="M5.457,2.527A2.637,2.637,0,0,0,2.729,0,2.637,2.637,0,0,0,0,2.527a2.352,2.352,0,0,0,.216.987.444.444,0,0,0,.565.211A.389.389,0,0,0,1.009,3.2a1.608,1.608,0,0,1-.148-.675A1.8,1.8,0,0,1,2.729.8,1.8,1.8,0,0,1,4.6,2.527,1.8,1.8,0,0,1,2.729,4.255,1.984,1.984,0,0,1,2,4.119a.444.444,0,0,0-.565.211.389.389,0,0,0,.228.523,2.9,2.9,0,0,0,1.066.2A2.637,2.637,0,0,0,5.457,2.527Z" transform="translate(5.998 5.554)" fill="#596c80"/>
  </g>
</svg>
