<svg xmlns="http://www.w3.org/2000/svg" width="24" height="22" viewBox="0 0 24 22">
  <g id="ic_shopping-cart" transform="translate(0)">
    <path id="Shape" d="M21.139,17H7.352A2.281,2.281,0,0,1,5.1,14.747a2.241,2.241,0,0,1,.925-1.813L3.321,2.308A1.688,1.688,0,0,0,1.685,1.026H0V0H1.685A2.717,2.717,0,0,1,4.29,2.1L4.9,4.552H7.852L7.1,2.249,12.613.456l1.362,4.1h.259l-.754-2.3L18.995.456l1.322,4.1H24l-2.5,8.957H7.352a1.233,1.233,0,0,0,0,2.465H21.139V17ZM5.158,5.524l1.787,6.963H20.733l1.939-6.963ZM18.333,1.733,14.709,2.912,15.272,4.5h3.982Zm-6.382,0L8.327,2.912,8.89,4.5h3.982Z" fill="#596c80"/>
    <path id="Shape-2" data-name="Shape" d="M2.087,4A2.047,2.047,0,0,1,0,2,2.047,2.047,0,0,1,2.087,0,2.047,2.047,0,0,1,4.174,2,2.023,2.023,0,0,1,2.087,4Zm0-3.1A1.135,1.135,0,0,0,.943,2,1.144,1.144,0,0,0,3.23,2,1.1,1.1,0,0,0,2.087.9Z" transform="translate(14.609 18)" fill="#596c80"/>
    <path id="Shape-3" data-name="Shape" d="M2.087,4A2.047,2.047,0,0,1,0,2,2.047,2.047,0,0,1,2.087,0,2.047,2.047,0,0,1,4.174,2,2.047,2.047,0,0,1,2.087,4Zm0-3.1A1.135,1.135,0,0,0,.943,2,1.144,1.144,0,0,0,3.23,2,1.135,1.135,0,0,0,2.087.9Z" transform="translate(5.217 18)" fill="#596c80"/>
  </g>
</svg>
