<svg width="14" height="14" viewBox="0 0 14 14" fill="none" xmlns="http://www.w3.org/2000/svg">
<g id="ic_close">
<path id="ic_close_2" opacity="0.5" fill-rule="evenodd" clip-rule="evenodd" d="M8.41619 6.99996L11.9566 3.45945C12.3477 3.06844 12.3477 2.43434 11.9566 2.04326C11.5656 1.65225 10.9315 1.65225 10.5404 2.04326L7 5.58377L3.4595 2.04326C3.06848 1.65225 2.43439 1.65225 2.04331 2.04326C1.65223 2.43428 1.65223 3.06837 2.04331 3.45945L5.58381 6.99996L2.04331 10.5405C1.65223 10.9315 1.65223 11.5656 2.04331 11.9567C2.23885 12.1522 2.49515 12.25 2.75144 12.25C3.00773 12.25 3.26402 12.1522 3.4595 11.9567L7 8.41615L10.5405 11.9566C10.736 12.1521 10.9923 12.2499 11.2486 12.2499C11.5049 12.2499 11.7611 12.1521 11.9567 11.9566C12.3478 11.5656 12.3478 10.9315 11.9567 10.5404L8.41619 6.99996Z" fill="#596C80"/>
</g>
</svg>
