<svg width="24" height="24" viewBox="0 0 24 24" fill="none" xmlns="http://www.w3.org/2000/svg">
<path fill-rule="evenodd" clip-rule="evenodd" d="M16.55 15.3998L23.6941 22.5439C24.0351 22.8849 24.0351 23.3962 23.694 23.7371C23.5235 23.9076 23.3531 23.9076 23.0122 23.9076C22.6713 23.9076 22.5008 23.9076 22.3304 23.7371L15.2631 16.6699C13.6438 17.9926 11.5913 18.7938 9.37538 18.7938C4.26152 18.7938 0 14.5323 0 9.41845C0 4.30459 4.26142 0.0429688 9.37528 0.0429688C14.4891 0.0429688 18.7507 4.30449 18.7507 9.41835C18.7507 11.677 17.9188 13.7669 16.55 15.3998ZM1.70469 9.41854C1.70469 13.6801 5.11386 17.0892 9.37538 17.0892C13.6369 17.0892 17.0461 13.6801 17.0461 9.41854C17.0461 5.15703 13.6369 1.74785 9.37538 1.74785C5.11386 1.74785 1.70469 5.15703 1.70469 9.41854Z" fill="white"/>
<path fill-rule="evenodd" clip-rule="evenodd" d="M11.9323 8.56572H10.2277V6.86113C10.2277 6.34978 9.88678 6.00879 9.37534 6.00879C8.86399 6.00879 8.52299 6.34969 8.52299 6.86113V8.56572H6.81841C6.30706 8.56572 5.96606 8.90662 5.96606 9.41806C5.96606 9.92951 6.30696 10.2704 6.81841 10.2704H8.52299V11.975C8.52299 12.4863 8.86389 12.8273 9.37534 12.8273C9.88668 12.8273 10.2277 12.4864 10.2277 11.975V10.2704H11.9323C12.4436 10.2704 12.7846 9.92951 12.7846 9.41806C12.7846 8.90662 12.4436 8.56572 11.9323 8.56572Z" fill="white"/>
</svg>
