<?xml version="1.0" encoding="UTF-8"?>
<svg width="20px" height="16px" viewBox="0 0 20 16" version="1.1" xmlns="http://www.w3.org/2000/svg" xmlns:xlink="http://www.w3.org/1999/xlink">
    <!-- Generator: Sketch 52.5 (67469) - http://www.bohemiancoding.com/sketch -->
    <title>“</title>
    <desc>Created with Sketch.</desc>
    <g id="Static-Pages" stroke="none" stroke-width="1" fill="none" fill-rule="evenodd">
        <g id="About_Us_1440" transform="translate(-960.000000, -492.000000)" fill="#FFFFFF">
            <g id="Bussines-Finder" transform="translate(160.000000, 224.000000)">
                <g id="Mission" transform="translate(0.000000, 80.000000)">
                    <g id="Article#3" transform="translate(776.000000, 0.000000)">
                        <path d="M32.8888889,189.774492 C31.9479432,190.306842 31.1871901,190.765248 30.6066066,191.149723 C30.0260231,191.534198 29.4354384,192.041895 28.8348348,192.672828 C28.2742715,193.264328 27.8438453,193.885394 27.5435435,194.536044 C27.2432417,195.186695 27.0330336,196.024641 26.9129129,197.049908 L28.3543544,197.049908 C29.5956018,197.049908 30.571568,197.350582 31.2822823,197.951941 C31.9929965,198.553299 32.3483483,199.435607 32.3483483,200.598891 C32.3483483,201.426991 32.0330362,202.200859 31.4024024,202.920518 C30.7717686,203.640176 29.9059114,204 28.8048048,204 C27.0830745,204 25.8518556,203.443012 25.1111111,202.32902 C24.3703667,201.215028 24,199.751087 24,197.937153 C24,196.65557 24.2802775,195.487374 24.8408408,194.432532 C25.4014042,193.37769 26.0820781,192.436233 26.8828829,191.608133 C27.7037078,190.760316 28.57457,190.040668 29.4954955,189.449168 C30.416421,188.857668 31.1871841,188.374617 31.8078078,188 L32.8888889,189.774492 Z M44,189.774492 C43.0590544,190.306842 42.2983012,190.765248 41.7177177,191.149723 C41.1371342,191.534198 40.5465495,192.041895 39.9459459,192.672828 C39.3653625,193.284045 38.9299314,193.91004 38.6396396,194.550832 C38.3493479,195.191624 38.1441447,196.024641 38.024024,197.049908 L39.4654655,197.049908 C40.7067129,197.049908 41.6826791,197.350582 42.3933934,197.951941 C43.1041077,198.553299 43.4594595,199.435607 43.4594595,200.598891 C43.4594595,201.426991 43.1441473,202.200859 42.5135135,202.920518 C41.8828797,203.640176 41.0170225,204 39.9159159,204 C38.1941856,204 36.9629667,203.443012 36.2222222,202.32902 C35.4814778,201.215028 35.1111111,199.751087 35.1111111,197.937153 C35.1111111,196.65557 35.3913886,195.487374 35.951952,194.432532 C36.5125153,193.37769 37.1931892,192.436233 37.993994,191.608133 C38.8148189,190.760316 39.6856811,190.040668 40.6066066,189.449168 C41.5275321,188.857668 42.2982952,188.374617 42.9189189,188 L44,189.774492 Z" id="“"></path>
                    </g>
                </g>
            </g>
        </g>
    </g>
</svg>