<svg width="448" height="444" viewBox="0 0 448 444" fill="none" xmlns="http://www.w3.org/2000/svg">
<path fill-rule="evenodd" clip-rule="evenodd" d="M-50 379.63C-50 379.63 65.2438 370.117 93.7942 289.642C113.628 233.691 147.326 184.945 238.317 198.374C448.173 229.348 459 114.63 459 114.63C639.628 114.63 557.259 0.000579834 557.259 0.000579834L852.497 -3.05176e-05L469 491.63H-50V379.63Z" fill="white" fill-opacity="0.08"/>
<path fill-rule="evenodd" clip-rule="evenodd" d="M0 469.63C0 469.63 115.244 460.117 143.794 379.642C163.628 323.691 197.326 274.945 288.317 288.374C498.173 319.348 471.687 199.188 471.687 199.188C652.315 199.188 607.259 90.0006 607.259 90.0006L902.497 90V469.63H0Z" fill="white" fill-opacity="0.08"/>
</svg>
